<?xml version="1.0"?>
<!DOCTYPE svg PUBLIC "-//W3C//DTD SVG 1.1//EN" "http://www.w3.org/Graphics/SVG/1.1/DTD/svg11.dtd">
<svg width="189.72000000000003mm" height="129.72000000000003mm" viewBox="0 0 189.72000000000003 129.72000000000003" xmlns="http://www.w3.org/2000/svg" version="1.1">
<g id="Sketch004" transform="translate(-194.140000,400.793484) scale(1,-1)">
<path id="Sketch004_w0000"  d="M 379.0 395.93348438712013 L 354.1 395.93348438712013 L 354.1 398.93348438712013 L 343.9 398.93348438712013 L 343.9 395.93348438712013 L 294.1 395.93348438712013 L 294.1 398.93348438712013 L 283.9 398.93348438712013 L 283.9 395.93348438712013 L 234.1 395.93348438712013 L 234.1 398.93348438712013 L 223.9 398.93348438712013 L 223.9 395.93348438712013 L 199.0 395.93 L 199.0 371.03348438712015 L 196.0 371.0334843871201 L 196.0 360.8334843871201 L 199.0 360.8334843871201 L 199.0 311.0334843871201 L 196.0 311.0334843871201 L 196.0 300.8334843871201 L 199.0 300.8334843871201 L 199.0 275.93348438712013 L 223.9 275.93348438712013 L 223.9 272.93348438712013 L 234.1 272.93348438712013 L 234.1 275.93348438712013 L 283.9 275.93348438712013 L 283.9 272.93348438712013 L 294.1 272.93348438712013 L 294.1 275.93348438712013 L 343.9 275.93348438712013 L 343.9 272.93348438712013 L 354.1 272.93348438712013 L 354.1 275.93348438712013 L 379.0 275.93 L 379.0 300.8334843871201 L 382.0 300.83348438712017 L 382.0 311.03348438712015 L 379.0 311.03348438712015 L 379.0 360.83348438712017 L 382.0 360.83348438712017 L 382.0 371.03348438712015 L 379.0 371.03348438712015 L 379.0 395.93348438712013 " stroke="#191919" stroke-width="0.35 px" style="stroke-width:0.35;stroke-miterlimit:4;stroke-dasharray:none;stroke-linecap:square;fill:none;fill-opacity:1;fill-rule: evenodd"/>
<circle cx="373.0" cy="289.93" r="1.6" stroke="#191919" stroke-width="0.35 px" style="stroke-width:0.35;stroke-miterlimit:4;stroke-dasharray:none;stroke-linecap:square;fill:none"/>
<circle cx="373.0" cy="366.93" r="1.6" stroke="#191919" stroke-width="0.35 px" style="stroke-width:0.35;stroke-miterlimit:4;stroke-dasharray:none;stroke-linecap:square;fill:none"/>
<circle cx="267.0" cy="289.93" r="1.6" stroke="#191919" stroke-width="0.35 px" style="stroke-width:0.35;stroke-miterlimit:4;stroke-dasharray:none;stroke-linecap:square;fill:none"/>
<circle cx="267.0" cy="366.93" r="1.6" stroke="#191919" stroke-width="0.35 px" style="stroke-width:0.35;stroke-miterlimit:4;stroke-dasharray:none;stroke-linecap:square;fill:none"/>
<circle cx="203.0" cy="391.93" r="1.6" stroke="#191919" stroke-width="0.35 px" style="stroke-width:0.35;stroke-miterlimit:4;stroke-dasharray:none;stroke-linecap:square;fill:none"/>
<circle cx="236.0" cy="391.93" r="1.6" stroke="#191919" stroke-width="0.35 px" style="stroke-width:0.35;stroke-miterlimit:4;stroke-dasharray:none;stroke-linecap:square;fill:none"/>
<circle cx="203.0" cy="331.93" r="1.6" stroke="#191919" stroke-width="0.35 px" style="stroke-width:0.35;stroke-miterlimit:4;stroke-dasharray:none;stroke-linecap:square;fill:none"/>
<circle cx="236.0" cy="331.93" r="1.6" stroke="#191919" stroke-width="0.35 px" style="stroke-width:0.35;stroke-miterlimit:4;stroke-dasharray:none;stroke-linecap:square;fill:none"/>
<title>b'Sketch-Base'</title>
</g>
</svg>