<?xml version="1.0"?>
<!DOCTYPE svg PUBLIC "-//W3C//DTD SVG 1.1//EN" "http://www.w3.org/Graphics/SVG/1.1/DTD/svg11.dtd">
<svg width="189.72000000000006mm" height="54.72000000000003mm" viewBox="0 0 189.72000000000006 54.72000000000003" xmlns="http://www.w3.org/2000/svg" version="1.1">
<g id="Sketch" transform="translate(1.860000,52.860000) scale(1,-1)">
<path id="Sketch_w0000"  d="M 3.0 51.000000000000014 L 28.100000000000012 51.00000000000002 L 28.100000000000016 47.95000000000002 L 37.90000000000002 47.95000000000002 L 37.90000000000001 51.00000000000002 L 88.10000000000002 51.00000000000002 L 88.10000000000001 47.95000000000002 L 97.9 47.95000000000002 L 97.90000000000002 51.00000000000002 L 148.10000000000002 51.00000000000002 L 148.1 47.95000000000002 L 157.9 47.95000000000002 L 157.9 51.00000000000002 L 183.0 51.00000000000002 L 183.00000000000003 44.100000000000016 L 186.00000000000003 44.10000000000001 L 186.00000000000003 33.90000000000001 L 183.00000000000003 33.90000000000001 L 183.00000000000003 20.10000000000001 L 186.00000000000003 20.10000000000001 L 186.00000000000003 9.900000000000011 L 183.00000000000003 9.900000000000011 L 183.00000000000003 3.000000000000014 L 158.10000000000002 3.000000000000012 L 158.1 1.6431300764452317e-14 L 147.9 1.5987211554602254e-14 L 147.9 3.000000000000017 L 98.10000000000002 3.000000000000007 L 98.10000000000002 6.661338147750939e-15 L 87.90000000000002 6.217248937900877e-15 L 87.90000000000002 3.000000000000007 L 38.10000000000002 3.000000000000002 L 38.10000000000002 -3.1086244689504383e-15 L 27.90000000000002 -3.552713678800501e-15 L 27.90000000000002 2.9999999999999973 L 3.000000000000014 3.000000000000007 L 3.0 9.90000000000001 L 6.273981468424414e-33 9.90000000000001 L 0.0 20.10000000000001 L 3.0 20.10000000000001 L 3.0 33.90000000000002 L 6.273981468424414e-33 33.90000000000002 L 0.0 44.100000000000016 L 3.0 44.100000000000016 L 3.0 51.000000000000014 " stroke="#191919" stroke-width="0.35 px" style="stroke-width:0.35;stroke-miterlimit:4;stroke-dasharray:none;stroke-linecap:square;fill:none;fill-opacity:1;fill-rule: evenodd"/>
<title>b'Sketch-Front'</title>
</g>
</svg>