<?xml version="1.0"?>
<!DOCTYPE svg PUBLIC "-//W3C//DTD SVG 1.1//EN" "http://www.w3.org/Graphics/SVG/1.1/DTD/svg11.dtd">
<svg width="64.64228320912713mm" height="129.59170846069634mm" viewBox="0 0 64.64228320912713 129.59170846069634" xmlns="http://www.w3.org/2000/svg" version="1.1">
<g id="Sketch001" transform="translate(-367.615020,260.536876) scale(1,-1)">
<path id="Sketch001_w0000"  d="M 371.21315223331567 231.1031719523156 L 369.08885935204023 256.89136843855033 L 368.8407668109622 259.9031279057765 L 379.95341711727247 259.47544986044727 L 379.83711584605686 256.42767748395573 L 389.5469405564611 256.0539881534927 L 389.6632418276767 259.1017605299842 L 411.1635679721433 258.2743055839588 L 411.0472667009277 255.22653320746733 L 420.75709141133206 254.85284387700423 L 420.8733926825476 257.90061625349574 L 431.6235557547808 257.486888780483 L 430.5520587970244 229.40741213149622 L 427.5301235555211 229.52371340271173 L 427.15643422505804 219.7308710126736 L 430.1783694665613 219.61456974145807 L 428.2641649370463 169.45123423330372 L 425.24222969554296 169.5675355045192 L 424.8685403650799 159.7746931144811 L 427.8904756065832 159.65839184326555 L 426.8189786488269 131.57891519427875 L 419.78430972598295 131.8496493010428 L 419.90061099719844 134.89742167753428 L 410.1907862867942 135.2711110079974 L 410.07448501557866 132.22333863150592 L 396.00514716989085 132.76480684503406 L 396.12144844110645 135.81257922152548 L 386.41162373070216 136.18626855198858 L 386.2953224594866 133.13849617549715 L 379.26065353664274 133.40923028226115 L 377.1363606553673 159.1974267684959 L 374.1719767169039 158.94808230583976 L 373.33466538715334 169.11275841151493 L 376.2990493256168 169.36210287417106 L 372.0504635630661 220.93849584664048 L 369.08607962460263 220.68915138398435 L 368.2487682948522 230.8538274896595 L 371.2131522333157 231.10317195231562 " stroke="#191919" stroke-width="0.35 px" style="stroke-width:0.35;stroke-miterlimit:4;stroke-dasharray:none;stroke-linecap:square;fill:none;fill-opacity:1;fill-rule: evenodd"/>
<title>b'Sketch-Right'</title>
</g>
</svg>