<?xml version="1.0"?>
<!DOCTYPE svg PUBLIC "-//W3C//DTD SVG 1.1//EN" "http://www.w3.org/Graphics/SVG/1.1/DTD/svg11.dtd">
<svg width="64.63317073147391mm" height="127.26731707316617mm" viewBox="0 0 64.63317073147391 127.26731707316617" xmlns="http://www.w3.org/2000/svg" version="1.1">
<g id="Sketch002" transform="translate(-195.366341,126.633659) scale(1,-1)">
<path id="Sketch002_w0000"  d="M 255.86737731408635 97.31249397550768 L 259.00000000000006 123.0 L 259.36585365830774 126.0 L 248.15000000000003 126.0 L 248.15000000000003 122.95 L 238.35000000000002 122.95 L 238.35000000000002 126.0 L 216.65000000000003 126.0 L 216.65000000000003 122.95 L 206.85000000000002 122.95 L 206.85000000000002 126.0 L 196.0 126.0 L 196.00000000000003 97.9 L 199.05 97.9 L 199.05 88.1 L 196.00000000000003 88.1 L 196.00000000000003 37.900000000000006 L 199.05 37.900000000000006 L 199.05 28.10000000000001 L 196.00000000000003 28.10000000000001 L 196.00000000000003 3.552713678800501e-15 L 203.10000000000002 7.801167119226577e-15 L 203.10000000000005 3.0500000000000034 L 212.90000000000006 3.0500000000000016 L 212.90000000000006 7.327471962526033e-15 L 227.10000000000005 -1.9243865936634597e-16 L 227.10000000000005 3.049999999999998 L 236.90000000000006 3.0499999999999963 L 236.90000000000006 -5.10702591327572e-15 L 244.00000000000006 0.0 L 247.13262268591376 25.687506024492322 L 250.11056031856535 25.324342898559205 L 251.34531494673794 35.44933084957457 L 248.36737731408635 35.81249397550769 L 254.63262268591376 87.18750602449231 L 257.6105603185653 86.8243428985592 L 258.8453149467379 96.94933084957457 L 255.86737731408635 97.31249397550768 " stroke="#191919" stroke-width="0.35 px" style="stroke-width:0.35;stroke-miterlimit:4;stroke-dasharray:none;stroke-linecap:square;fill:none;fill-opacity:1;fill-rule: evenodd"/>
<title>b'Sketch-Left'</title>
</g>
</svg>