%TF.GenerationSoftware,KiCad,Pcbnew,7.0.7+dfsg-1*%
%TF.CreationDate,2024-04-04T18:03:27+01:00*%
%TF.ProjectId,point-controller-switches,706f696e-742d-4636-9f6e-74726f6c6c65,rev?*%
%TF.SameCoordinates,Original*%
%TF.FileFunction,Legend,Top*%
%TF.FilePolarity,Positive*%
%FSLAX46Y46*%
G04 Gerber Fmt 4.6, Leading zero omitted, Abs format (unit mm)*
G04 Created by KiCad (PCBNEW 7.0.7+dfsg-1) date 2024-04-04 18:03:27*
%MOMM*%
%LPD*%
G01*
G04 APERTURE LIST*
%ADD10C,0.300000*%
%ADD11C,0.250000*%
%ADD12C,0.100000*%
%ADD13C,0.150000*%
%ADD14C,0.120000*%
%ADD15R,1.700000X1.700000*%
%ADD16O,1.700000X1.700000*%
%ADD17C,3.200000*%
%ADD18C,1.600000*%
%ADD19O,1.600000X1.600000*%
%ADD20R,1.600000X1.600000*%
G04 APERTURE END LIST*
D10*
X131348796Y-123290828D02*
X130634510Y-123290828D01*
X130634510Y-123290828D02*
X130634510Y-121790828D01*
X131848796Y-122505114D02*
X132348796Y-122505114D01*
X132563082Y-123290828D02*
X131848796Y-123290828D01*
X131848796Y-123290828D02*
X131848796Y-121790828D01*
X131848796Y-121790828D02*
X132563082Y-121790828D01*
X133205939Y-123290828D02*
X133205939Y-121790828D01*
X133205939Y-121790828D02*
X133563082Y-121790828D01*
X133563082Y-121790828D02*
X133777368Y-121862257D01*
X133777368Y-121862257D02*
X133920225Y-122005114D01*
X133920225Y-122005114D02*
X133991654Y-122147971D01*
X133991654Y-122147971D02*
X134063082Y-122433685D01*
X134063082Y-122433685D02*
X134063082Y-122647971D01*
X134063082Y-122647971D02*
X133991654Y-122933685D01*
X133991654Y-122933685D02*
X133920225Y-123076542D01*
X133920225Y-123076542D02*
X133777368Y-123219400D01*
X133777368Y-123219400D02*
X133563082Y-123290828D01*
X133563082Y-123290828D02*
X133205939Y-123290828D01*
X134634511Y-123219400D02*
X134777368Y-123290828D01*
X134777368Y-123290828D02*
X135063082Y-123290828D01*
X135063082Y-123290828D02*
X135205939Y-123219400D01*
X135205939Y-123219400D02*
X135277368Y-123076542D01*
X135277368Y-123076542D02*
X135277368Y-123005114D01*
X135277368Y-123005114D02*
X135205939Y-122862257D01*
X135205939Y-122862257D02*
X135063082Y-122790828D01*
X135063082Y-122790828D02*
X134848797Y-122790828D01*
X134848797Y-122790828D02*
X134705939Y-122719400D01*
X134705939Y-122719400D02*
X134634511Y-122576542D01*
X134634511Y-122576542D02*
X134634511Y-122505114D01*
X134634511Y-122505114D02*
X134705939Y-122362257D01*
X134705939Y-122362257D02*
X134848797Y-122290828D01*
X134848797Y-122290828D02*
X135063082Y-122290828D01*
X135063082Y-122290828D02*
X135205939Y-122362257D01*
D11*
X127302568Y-145114619D02*
X127302568Y-144114619D01*
X127731139Y-144209857D02*
X127778758Y-144162238D01*
X127778758Y-144162238D02*
X127873996Y-144114619D01*
X127873996Y-144114619D02*
X128112091Y-144114619D01*
X128112091Y-144114619D02*
X128207329Y-144162238D01*
X128207329Y-144162238D02*
X128254948Y-144209857D01*
X128254948Y-144209857D02*
X128302567Y-144305095D01*
X128302567Y-144305095D02*
X128302567Y-144400333D01*
X128302567Y-144400333D02*
X128254948Y-144543190D01*
X128254948Y-144543190D02*
X127683520Y-145114619D01*
X127683520Y-145114619D02*
X128302567Y-145114619D01*
X129302567Y-145019380D02*
X129254948Y-145067000D01*
X129254948Y-145067000D02*
X129112091Y-145114619D01*
X129112091Y-145114619D02*
X129016853Y-145114619D01*
X129016853Y-145114619D02*
X128873996Y-145067000D01*
X128873996Y-145067000D02*
X128778758Y-144971761D01*
X128778758Y-144971761D02*
X128731139Y-144876523D01*
X128731139Y-144876523D02*
X128683520Y-144686047D01*
X128683520Y-144686047D02*
X128683520Y-144543190D01*
X128683520Y-144543190D02*
X128731139Y-144352714D01*
X128731139Y-144352714D02*
X128778758Y-144257476D01*
X128778758Y-144257476D02*
X128873996Y-144162238D01*
X128873996Y-144162238D02*
X129016853Y-144114619D01*
X129016853Y-144114619D02*
X129112091Y-144114619D01*
X129112091Y-144114619D02*
X129254948Y-144162238D01*
X129254948Y-144162238D02*
X129302567Y-144209857D01*
X130969234Y-145114619D02*
X130493044Y-145114619D01*
X130493044Y-145114619D02*
X130493044Y-144114619D01*
X131302568Y-144590809D02*
X131635901Y-144590809D01*
X131778758Y-145114619D02*
X131302568Y-145114619D01*
X131302568Y-145114619D02*
X131302568Y-144114619D01*
X131302568Y-144114619D02*
X131778758Y-144114619D01*
X132207330Y-145114619D02*
X132207330Y-144114619D01*
X132207330Y-144114619D02*
X132445425Y-144114619D01*
X132445425Y-144114619D02*
X132588282Y-144162238D01*
X132588282Y-144162238D02*
X132683520Y-144257476D01*
X132683520Y-144257476D02*
X132731139Y-144352714D01*
X132731139Y-144352714D02*
X132778758Y-144543190D01*
X132778758Y-144543190D02*
X132778758Y-144686047D01*
X132778758Y-144686047D02*
X132731139Y-144876523D01*
X132731139Y-144876523D02*
X132683520Y-144971761D01*
X132683520Y-144971761D02*
X132588282Y-145067000D01*
X132588282Y-145067000D02*
X132445425Y-145114619D01*
X132445425Y-145114619D02*
X132207330Y-145114619D01*
X133921616Y-145067000D02*
X134064473Y-145114619D01*
X134064473Y-145114619D02*
X134302568Y-145114619D01*
X134302568Y-145114619D02*
X134397806Y-145067000D01*
X134397806Y-145067000D02*
X134445425Y-145019380D01*
X134445425Y-145019380D02*
X134493044Y-144924142D01*
X134493044Y-144924142D02*
X134493044Y-144828904D01*
X134493044Y-144828904D02*
X134445425Y-144733666D01*
X134445425Y-144733666D02*
X134397806Y-144686047D01*
X134397806Y-144686047D02*
X134302568Y-144638428D01*
X134302568Y-144638428D02*
X134112092Y-144590809D01*
X134112092Y-144590809D02*
X134016854Y-144543190D01*
X134016854Y-144543190D02*
X133969235Y-144495571D01*
X133969235Y-144495571D02*
X133921616Y-144400333D01*
X133921616Y-144400333D02*
X133921616Y-144305095D01*
X133921616Y-144305095D02*
X133969235Y-144209857D01*
X133969235Y-144209857D02*
X134016854Y-144162238D01*
X134016854Y-144162238D02*
X134112092Y-144114619D01*
X134112092Y-144114619D02*
X134350187Y-144114619D01*
X134350187Y-144114619D02*
X134493044Y-144162238D01*
X134826378Y-144447952D02*
X135016854Y-145114619D01*
X135016854Y-145114619D02*
X135207330Y-144638428D01*
X135207330Y-144638428D02*
X135397806Y-145114619D01*
X135397806Y-145114619D02*
X135588282Y-144447952D01*
X135969235Y-145114619D02*
X135969235Y-144447952D01*
X135969235Y-144114619D02*
X135921616Y-144162238D01*
X135921616Y-144162238D02*
X135969235Y-144209857D01*
X135969235Y-144209857D02*
X136016854Y-144162238D01*
X136016854Y-144162238D02*
X135969235Y-144114619D01*
X135969235Y-144114619D02*
X135969235Y-144209857D01*
X136302568Y-144447952D02*
X136683520Y-144447952D01*
X136445425Y-144114619D02*
X136445425Y-144971761D01*
X136445425Y-144971761D02*
X136493044Y-145067000D01*
X136493044Y-145067000D02*
X136588282Y-145114619D01*
X136588282Y-145114619D02*
X136683520Y-145114619D01*
X137445425Y-145067000D02*
X137350187Y-145114619D01*
X137350187Y-145114619D02*
X137159711Y-145114619D01*
X137159711Y-145114619D02*
X137064473Y-145067000D01*
X137064473Y-145067000D02*
X137016854Y-145019380D01*
X137016854Y-145019380D02*
X136969235Y-144924142D01*
X136969235Y-144924142D02*
X136969235Y-144638428D01*
X136969235Y-144638428D02*
X137016854Y-144543190D01*
X137016854Y-144543190D02*
X137064473Y-144495571D01*
X137064473Y-144495571D02*
X137159711Y-144447952D01*
X137159711Y-144447952D02*
X137350187Y-144447952D01*
X137350187Y-144447952D02*
X137445425Y-144495571D01*
X137873997Y-145114619D02*
X137873997Y-144114619D01*
X138302568Y-145114619D02*
X138302568Y-144590809D01*
X138302568Y-144590809D02*
X138254949Y-144495571D01*
X138254949Y-144495571D02*
X138159711Y-144447952D01*
X138159711Y-144447952D02*
X138016854Y-144447952D01*
X138016854Y-144447952D02*
X137921616Y-144495571D01*
X137921616Y-144495571D02*
X137873997Y-144543190D01*
X127302568Y-146724619D02*
X127302568Y-145724619D01*
X127302568Y-146105571D02*
X127397806Y-146057952D01*
X127397806Y-146057952D02*
X127588282Y-146057952D01*
X127588282Y-146057952D02*
X127683520Y-146105571D01*
X127683520Y-146105571D02*
X127731139Y-146153190D01*
X127731139Y-146153190D02*
X127778758Y-146248428D01*
X127778758Y-146248428D02*
X127778758Y-146534142D01*
X127778758Y-146534142D02*
X127731139Y-146629380D01*
X127731139Y-146629380D02*
X127683520Y-146677000D01*
X127683520Y-146677000D02*
X127588282Y-146724619D01*
X127588282Y-146724619D02*
X127397806Y-146724619D01*
X127397806Y-146724619D02*
X127302568Y-146677000D01*
X128350187Y-146724619D02*
X128254949Y-146677000D01*
X128254949Y-146677000D02*
X128207330Y-146629380D01*
X128207330Y-146629380D02*
X128159711Y-146534142D01*
X128159711Y-146534142D02*
X128159711Y-146248428D01*
X128159711Y-146248428D02*
X128207330Y-146153190D01*
X128207330Y-146153190D02*
X128254949Y-146105571D01*
X128254949Y-146105571D02*
X128350187Y-146057952D01*
X128350187Y-146057952D02*
X128493044Y-146057952D01*
X128493044Y-146057952D02*
X128588282Y-146105571D01*
X128588282Y-146105571D02*
X128635901Y-146153190D01*
X128635901Y-146153190D02*
X128683520Y-146248428D01*
X128683520Y-146248428D02*
X128683520Y-146534142D01*
X128683520Y-146534142D02*
X128635901Y-146629380D01*
X128635901Y-146629380D02*
X128588282Y-146677000D01*
X128588282Y-146677000D02*
X128493044Y-146724619D01*
X128493044Y-146724619D02*
X128350187Y-146724619D01*
X129540663Y-146724619D02*
X129540663Y-146200809D01*
X129540663Y-146200809D02*
X129493044Y-146105571D01*
X129493044Y-146105571D02*
X129397806Y-146057952D01*
X129397806Y-146057952D02*
X129207330Y-146057952D01*
X129207330Y-146057952D02*
X129112092Y-146105571D01*
X129540663Y-146677000D02*
X129445425Y-146724619D01*
X129445425Y-146724619D02*
X129207330Y-146724619D01*
X129207330Y-146724619D02*
X129112092Y-146677000D01*
X129112092Y-146677000D02*
X129064473Y-146581761D01*
X129064473Y-146581761D02*
X129064473Y-146486523D01*
X129064473Y-146486523D02*
X129112092Y-146391285D01*
X129112092Y-146391285D02*
X129207330Y-146343666D01*
X129207330Y-146343666D02*
X129445425Y-146343666D01*
X129445425Y-146343666D02*
X129540663Y-146296047D01*
X130016854Y-146724619D02*
X130016854Y-146057952D01*
X130016854Y-146248428D02*
X130064473Y-146153190D01*
X130064473Y-146153190D02*
X130112092Y-146105571D01*
X130112092Y-146105571D02*
X130207330Y-146057952D01*
X130207330Y-146057952D02*
X130302568Y-146057952D01*
X131064473Y-146724619D02*
X131064473Y-145724619D01*
X131064473Y-146677000D02*
X130969235Y-146724619D01*
X130969235Y-146724619D02*
X130778759Y-146724619D01*
X130778759Y-146724619D02*
X130683521Y-146677000D01*
X130683521Y-146677000D02*
X130635902Y-146629380D01*
X130635902Y-146629380D02*
X130588283Y-146534142D01*
X130588283Y-146534142D02*
X130588283Y-146248428D01*
X130588283Y-146248428D02*
X130635902Y-146153190D01*
X130635902Y-146153190D02*
X130683521Y-146105571D01*
X130683521Y-146105571D02*
X130778759Y-146057952D01*
X130778759Y-146057952D02*
X130969235Y-146057952D01*
X130969235Y-146057952D02*
X131064473Y-146105571D01*
X132159712Y-145724619D02*
X132493045Y-146724619D01*
X132493045Y-146724619D02*
X132826378Y-145724619D01*
X133683521Y-146724619D02*
X133112093Y-146724619D01*
X133397807Y-146724619D02*
X133397807Y-145724619D01*
X133397807Y-145724619D02*
X133302569Y-145867476D01*
X133302569Y-145867476D02*
X133207331Y-145962714D01*
X133207331Y-145962714D02*
X133112093Y-146010333D01*
X134112093Y-146629380D02*
X134159712Y-146677000D01*
X134159712Y-146677000D02*
X134112093Y-146724619D01*
X134112093Y-146724619D02*
X134064474Y-146677000D01*
X134064474Y-146677000D02*
X134112093Y-146629380D01*
X134112093Y-146629380D02*
X134112093Y-146724619D01*
X134778759Y-145724619D02*
X134873997Y-145724619D01*
X134873997Y-145724619D02*
X134969235Y-145772238D01*
X134969235Y-145772238D02*
X135016854Y-145819857D01*
X135016854Y-145819857D02*
X135064473Y-145915095D01*
X135064473Y-145915095D02*
X135112092Y-146105571D01*
X135112092Y-146105571D02*
X135112092Y-146343666D01*
X135112092Y-146343666D02*
X135064473Y-146534142D01*
X135064473Y-146534142D02*
X135016854Y-146629380D01*
X135016854Y-146629380D02*
X134969235Y-146677000D01*
X134969235Y-146677000D02*
X134873997Y-146724619D01*
X134873997Y-146724619D02*
X134778759Y-146724619D01*
X134778759Y-146724619D02*
X134683521Y-146677000D01*
X134683521Y-146677000D02*
X134635902Y-146629380D01*
X134635902Y-146629380D02*
X134588283Y-146534142D01*
X134588283Y-146534142D02*
X134540664Y-146343666D01*
X134540664Y-146343666D02*
X134540664Y-146105571D01*
X134540664Y-146105571D02*
X134588283Y-145915095D01*
X134588283Y-145915095D02*
X134635902Y-145819857D01*
X134635902Y-145819857D02*
X134683521Y-145772238D01*
X134683521Y-145772238D02*
X134778759Y-145724619D01*
D12*
X107056265Y-127664133D02*
X107665789Y-127664133D01*
X107361027Y-127968895D02*
X107361027Y-127359371D01*
X108427693Y-127168895D02*
X108046741Y-127168895D01*
X108046741Y-127168895D02*
X108008645Y-127549847D01*
X108008645Y-127549847D02*
X108046741Y-127511752D01*
X108046741Y-127511752D02*
X108122931Y-127473657D01*
X108122931Y-127473657D02*
X108313407Y-127473657D01*
X108313407Y-127473657D02*
X108389598Y-127511752D01*
X108389598Y-127511752D02*
X108427693Y-127549847D01*
X108427693Y-127549847D02*
X108465788Y-127626038D01*
X108465788Y-127626038D02*
X108465788Y-127816514D01*
X108465788Y-127816514D02*
X108427693Y-127892704D01*
X108427693Y-127892704D02*
X108389598Y-127930800D01*
X108389598Y-127930800D02*
X108313407Y-127968895D01*
X108313407Y-127968895D02*
X108122931Y-127968895D01*
X108122931Y-127968895D02*
X108046741Y-127930800D01*
X108046741Y-127930800D02*
X108008645Y-127892704D01*
X108694360Y-127168895D02*
X108961027Y-127968895D01*
X108961027Y-127968895D02*
X109227693Y-127168895D01*
X107018169Y-130506800D02*
X107132455Y-130544895D01*
X107132455Y-130544895D02*
X107322931Y-130544895D01*
X107322931Y-130544895D02*
X107399122Y-130506800D01*
X107399122Y-130506800D02*
X107437217Y-130468704D01*
X107437217Y-130468704D02*
X107475312Y-130392514D01*
X107475312Y-130392514D02*
X107475312Y-130316323D01*
X107475312Y-130316323D02*
X107437217Y-130240133D01*
X107437217Y-130240133D02*
X107399122Y-130202038D01*
X107399122Y-130202038D02*
X107322931Y-130163942D01*
X107322931Y-130163942D02*
X107170550Y-130125847D01*
X107170550Y-130125847D02*
X107094360Y-130087752D01*
X107094360Y-130087752D02*
X107056265Y-130049657D01*
X107056265Y-130049657D02*
X107018169Y-129973466D01*
X107018169Y-129973466D02*
X107018169Y-129897276D01*
X107018169Y-129897276D02*
X107056265Y-129821085D01*
X107056265Y-129821085D02*
X107094360Y-129782990D01*
X107094360Y-129782990D02*
X107170550Y-129744895D01*
X107170550Y-129744895D02*
X107361027Y-129744895D01*
X107361027Y-129744895D02*
X107475312Y-129782990D01*
X107818170Y-130544895D02*
X107818170Y-129744895D01*
X107818170Y-129744895D02*
X108008646Y-129744895D01*
X108008646Y-129744895D02*
X108122932Y-129782990D01*
X108122932Y-129782990D02*
X108199122Y-129859180D01*
X108199122Y-129859180D02*
X108237217Y-129935371D01*
X108237217Y-129935371D02*
X108275313Y-130087752D01*
X108275313Y-130087752D02*
X108275313Y-130202038D01*
X108275313Y-130202038D02*
X108237217Y-130354419D01*
X108237217Y-130354419D02*
X108199122Y-130430609D01*
X108199122Y-130430609D02*
X108122932Y-130506800D01*
X108122932Y-130506800D02*
X108008646Y-130544895D01*
X108008646Y-130544895D02*
X107818170Y-130544895D01*
X108580074Y-130316323D02*
X108961027Y-130316323D01*
X108503884Y-130544895D02*
X108770551Y-129744895D01*
X108770551Y-129744895D02*
X109037217Y-130544895D01*
X107018169Y-133082800D02*
X107132455Y-133120895D01*
X107132455Y-133120895D02*
X107322931Y-133120895D01*
X107322931Y-133120895D02*
X107399122Y-133082800D01*
X107399122Y-133082800D02*
X107437217Y-133044704D01*
X107437217Y-133044704D02*
X107475312Y-132968514D01*
X107475312Y-132968514D02*
X107475312Y-132892323D01*
X107475312Y-132892323D02*
X107437217Y-132816133D01*
X107437217Y-132816133D02*
X107399122Y-132778038D01*
X107399122Y-132778038D02*
X107322931Y-132739942D01*
X107322931Y-132739942D02*
X107170550Y-132701847D01*
X107170550Y-132701847D02*
X107094360Y-132663752D01*
X107094360Y-132663752D02*
X107056265Y-132625657D01*
X107056265Y-132625657D02*
X107018169Y-132549466D01*
X107018169Y-132549466D02*
X107018169Y-132473276D01*
X107018169Y-132473276D02*
X107056265Y-132397085D01*
X107056265Y-132397085D02*
X107094360Y-132358990D01*
X107094360Y-132358990D02*
X107170550Y-132320895D01*
X107170550Y-132320895D02*
X107361027Y-132320895D01*
X107361027Y-132320895D02*
X107475312Y-132358990D01*
X108275313Y-133044704D02*
X108237217Y-133082800D01*
X108237217Y-133082800D02*
X108122932Y-133120895D01*
X108122932Y-133120895D02*
X108046741Y-133120895D01*
X108046741Y-133120895D02*
X107932455Y-133082800D01*
X107932455Y-133082800D02*
X107856265Y-133006609D01*
X107856265Y-133006609D02*
X107818170Y-132930419D01*
X107818170Y-132930419D02*
X107780074Y-132778038D01*
X107780074Y-132778038D02*
X107780074Y-132663752D01*
X107780074Y-132663752D02*
X107818170Y-132511371D01*
X107818170Y-132511371D02*
X107856265Y-132435180D01*
X107856265Y-132435180D02*
X107932455Y-132358990D01*
X107932455Y-132358990D02*
X108046741Y-132320895D01*
X108046741Y-132320895D02*
X108122932Y-132320895D01*
X108122932Y-132320895D02*
X108237217Y-132358990D01*
X108237217Y-132358990D02*
X108275313Y-132397085D01*
X108999122Y-133120895D02*
X108618170Y-133120895D01*
X108618170Y-133120895D02*
X108618170Y-132320895D01*
X107475312Y-134934990D02*
X107399122Y-134896895D01*
X107399122Y-134896895D02*
X107284836Y-134896895D01*
X107284836Y-134896895D02*
X107170550Y-134934990D01*
X107170550Y-134934990D02*
X107094360Y-135011180D01*
X107094360Y-135011180D02*
X107056265Y-135087371D01*
X107056265Y-135087371D02*
X107018169Y-135239752D01*
X107018169Y-135239752D02*
X107018169Y-135354038D01*
X107018169Y-135354038D02*
X107056265Y-135506419D01*
X107056265Y-135506419D02*
X107094360Y-135582609D01*
X107094360Y-135582609D02*
X107170550Y-135658800D01*
X107170550Y-135658800D02*
X107284836Y-135696895D01*
X107284836Y-135696895D02*
X107361027Y-135696895D01*
X107361027Y-135696895D02*
X107475312Y-135658800D01*
X107475312Y-135658800D02*
X107513408Y-135620704D01*
X107513408Y-135620704D02*
X107513408Y-135354038D01*
X107513408Y-135354038D02*
X107361027Y-135354038D01*
X107856265Y-135163561D02*
X107856265Y-135696895D01*
X107856265Y-135239752D02*
X107894360Y-135201657D01*
X107894360Y-135201657D02*
X107970550Y-135163561D01*
X107970550Y-135163561D02*
X108084836Y-135163561D01*
X108084836Y-135163561D02*
X108161027Y-135201657D01*
X108161027Y-135201657D02*
X108199122Y-135277847D01*
X108199122Y-135277847D02*
X108199122Y-135696895D01*
X108922932Y-135696895D02*
X108922932Y-134896895D01*
X108922932Y-135658800D02*
X108846741Y-135696895D01*
X108846741Y-135696895D02*
X108694360Y-135696895D01*
X108694360Y-135696895D02*
X108618170Y-135658800D01*
X108618170Y-135658800D02*
X108580075Y-135620704D01*
X108580075Y-135620704D02*
X108541979Y-135544514D01*
X108541979Y-135544514D02*
X108541979Y-135315942D01*
X108541979Y-135315942D02*
X108580075Y-135239752D01*
X108580075Y-135239752D02*
X108618170Y-135201657D01*
X108618170Y-135201657D02*
X108694360Y-135163561D01*
X108694360Y-135163561D02*
X108846741Y-135163561D01*
X108846741Y-135163561D02*
X108922932Y-135201657D01*
D10*
X135604510Y-107459400D02*
X136747368Y-107459400D01*
X136175939Y-108030828D02*
X136175939Y-106887971D01*
X135794510Y-141039400D02*
X136937368Y-141039400D01*
X136365939Y-141610828D02*
X136365939Y-140467971D01*
X131368796Y-90340828D02*
X130654510Y-90340828D01*
X130654510Y-90340828D02*
X130654510Y-88840828D01*
X131868796Y-89555114D02*
X132368796Y-89555114D01*
X132583082Y-90340828D02*
X131868796Y-90340828D01*
X131868796Y-90340828D02*
X131868796Y-88840828D01*
X131868796Y-88840828D02*
X132583082Y-88840828D01*
X133225939Y-90340828D02*
X133225939Y-88840828D01*
X133225939Y-88840828D02*
X133583082Y-88840828D01*
X133583082Y-88840828D02*
X133797368Y-88912257D01*
X133797368Y-88912257D02*
X133940225Y-89055114D01*
X133940225Y-89055114D02*
X134011654Y-89197971D01*
X134011654Y-89197971D02*
X134083082Y-89483685D01*
X134083082Y-89483685D02*
X134083082Y-89697971D01*
X134083082Y-89697971D02*
X134011654Y-89983685D01*
X134011654Y-89983685D02*
X133940225Y-90126542D01*
X133940225Y-90126542D02*
X133797368Y-90269400D01*
X133797368Y-90269400D02*
X133583082Y-90340828D01*
X133583082Y-90340828D02*
X133225939Y-90340828D01*
X134654511Y-90269400D02*
X134797368Y-90340828D01*
X134797368Y-90340828D02*
X135083082Y-90340828D01*
X135083082Y-90340828D02*
X135225939Y-90269400D01*
X135225939Y-90269400D02*
X135297368Y-90126542D01*
X135297368Y-90126542D02*
X135297368Y-90055114D01*
X135297368Y-90055114D02*
X135225939Y-89912257D01*
X135225939Y-89912257D02*
X135083082Y-89840828D01*
X135083082Y-89840828D02*
X134868797Y-89840828D01*
X134868797Y-89840828D02*
X134725939Y-89769400D01*
X134725939Y-89769400D02*
X134654511Y-89626542D01*
X134654511Y-89626542D02*
X134654511Y-89555114D01*
X134654511Y-89555114D02*
X134725939Y-89412257D01*
X134725939Y-89412257D02*
X134868797Y-89340828D01*
X134868797Y-89340828D02*
X135083082Y-89340828D01*
X135083082Y-89340828D02*
X135225939Y-89412257D01*
D12*
X107256265Y-107864133D02*
X107865789Y-107864133D01*
X107561027Y-108168895D02*
X107561027Y-107559371D01*
X108627693Y-107368895D02*
X108246741Y-107368895D01*
X108246741Y-107368895D02*
X108208645Y-107749847D01*
X108208645Y-107749847D02*
X108246741Y-107711752D01*
X108246741Y-107711752D02*
X108322931Y-107673657D01*
X108322931Y-107673657D02*
X108513407Y-107673657D01*
X108513407Y-107673657D02*
X108589598Y-107711752D01*
X108589598Y-107711752D02*
X108627693Y-107749847D01*
X108627693Y-107749847D02*
X108665788Y-107826038D01*
X108665788Y-107826038D02*
X108665788Y-108016514D01*
X108665788Y-108016514D02*
X108627693Y-108092704D01*
X108627693Y-108092704D02*
X108589598Y-108130800D01*
X108589598Y-108130800D02*
X108513407Y-108168895D01*
X108513407Y-108168895D02*
X108322931Y-108168895D01*
X108322931Y-108168895D02*
X108246741Y-108130800D01*
X108246741Y-108130800D02*
X108208645Y-108092704D01*
X108894360Y-107368895D02*
X109161027Y-108168895D01*
X109161027Y-108168895D02*
X109427693Y-107368895D01*
X107218169Y-110706800D02*
X107332455Y-110744895D01*
X107332455Y-110744895D02*
X107522931Y-110744895D01*
X107522931Y-110744895D02*
X107599122Y-110706800D01*
X107599122Y-110706800D02*
X107637217Y-110668704D01*
X107637217Y-110668704D02*
X107675312Y-110592514D01*
X107675312Y-110592514D02*
X107675312Y-110516323D01*
X107675312Y-110516323D02*
X107637217Y-110440133D01*
X107637217Y-110440133D02*
X107599122Y-110402038D01*
X107599122Y-110402038D02*
X107522931Y-110363942D01*
X107522931Y-110363942D02*
X107370550Y-110325847D01*
X107370550Y-110325847D02*
X107294360Y-110287752D01*
X107294360Y-110287752D02*
X107256265Y-110249657D01*
X107256265Y-110249657D02*
X107218169Y-110173466D01*
X107218169Y-110173466D02*
X107218169Y-110097276D01*
X107218169Y-110097276D02*
X107256265Y-110021085D01*
X107256265Y-110021085D02*
X107294360Y-109982990D01*
X107294360Y-109982990D02*
X107370550Y-109944895D01*
X107370550Y-109944895D02*
X107561027Y-109944895D01*
X107561027Y-109944895D02*
X107675312Y-109982990D01*
X108018170Y-110744895D02*
X108018170Y-109944895D01*
X108018170Y-109944895D02*
X108208646Y-109944895D01*
X108208646Y-109944895D02*
X108322932Y-109982990D01*
X108322932Y-109982990D02*
X108399122Y-110059180D01*
X108399122Y-110059180D02*
X108437217Y-110135371D01*
X108437217Y-110135371D02*
X108475313Y-110287752D01*
X108475313Y-110287752D02*
X108475313Y-110402038D01*
X108475313Y-110402038D02*
X108437217Y-110554419D01*
X108437217Y-110554419D02*
X108399122Y-110630609D01*
X108399122Y-110630609D02*
X108322932Y-110706800D01*
X108322932Y-110706800D02*
X108208646Y-110744895D01*
X108208646Y-110744895D02*
X108018170Y-110744895D01*
X108780074Y-110516323D02*
X109161027Y-110516323D01*
X108703884Y-110744895D02*
X108970551Y-109944895D01*
X108970551Y-109944895D02*
X109237217Y-110744895D01*
X107218169Y-113282800D02*
X107332455Y-113320895D01*
X107332455Y-113320895D02*
X107522931Y-113320895D01*
X107522931Y-113320895D02*
X107599122Y-113282800D01*
X107599122Y-113282800D02*
X107637217Y-113244704D01*
X107637217Y-113244704D02*
X107675312Y-113168514D01*
X107675312Y-113168514D02*
X107675312Y-113092323D01*
X107675312Y-113092323D02*
X107637217Y-113016133D01*
X107637217Y-113016133D02*
X107599122Y-112978038D01*
X107599122Y-112978038D02*
X107522931Y-112939942D01*
X107522931Y-112939942D02*
X107370550Y-112901847D01*
X107370550Y-112901847D02*
X107294360Y-112863752D01*
X107294360Y-112863752D02*
X107256265Y-112825657D01*
X107256265Y-112825657D02*
X107218169Y-112749466D01*
X107218169Y-112749466D02*
X107218169Y-112673276D01*
X107218169Y-112673276D02*
X107256265Y-112597085D01*
X107256265Y-112597085D02*
X107294360Y-112558990D01*
X107294360Y-112558990D02*
X107370550Y-112520895D01*
X107370550Y-112520895D02*
X107561027Y-112520895D01*
X107561027Y-112520895D02*
X107675312Y-112558990D01*
X108475313Y-113244704D02*
X108437217Y-113282800D01*
X108437217Y-113282800D02*
X108322932Y-113320895D01*
X108322932Y-113320895D02*
X108246741Y-113320895D01*
X108246741Y-113320895D02*
X108132455Y-113282800D01*
X108132455Y-113282800D02*
X108056265Y-113206609D01*
X108056265Y-113206609D02*
X108018170Y-113130419D01*
X108018170Y-113130419D02*
X107980074Y-112978038D01*
X107980074Y-112978038D02*
X107980074Y-112863752D01*
X107980074Y-112863752D02*
X108018170Y-112711371D01*
X108018170Y-112711371D02*
X108056265Y-112635180D01*
X108056265Y-112635180D02*
X108132455Y-112558990D01*
X108132455Y-112558990D02*
X108246741Y-112520895D01*
X108246741Y-112520895D02*
X108322932Y-112520895D01*
X108322932Y-112520895D02*
X108437217Y-112558990D01*
X108437217Y-112558990D02*
X108475313Y-112597085D01*
X109199122Y-113320895D02*
X108818170Y-113320895D01*
X108818170Y-113320895D02*
X108818170Y-112520895D01*
X107675312Y-115134990D02*
X107599122Y-115096895D01*
X107599122Y-115096895D02*
X107484836Y-115096895D01*
X107484836Y-115096895D02*
X107370550Y-115134990D01*
X107370550Y-115134990D02*
X107294360Y-115211180D01*
X107294360Y-115211180D02*
X107256265Y-115287371D01*
X107256265Y-115287371D02*
X107218169Y-115439752D01*
X107218169Y-115439752D02*
X107218169Y-115554038D01*
X107218169Y-115554038D02*
X107256265Y-115706419D01*
X107256265Y-115706419D02*
X107294360Y-115782609D01*
X107294360Y-115782609D02*
X107370550Y-115858800D01*
X107370550Y-115858800D02*
X107484836Y-115896895D01*
X107484836Y-115896895D02*
X107561027Y-115896895D01*
X107561027Y-115896895D02*
X107675312Y-115858800D01*
X107675312Y-115858800D02*
X107713408Y-115820704D01*
X107713408Y-115820704D02*
X107713408Y-115554038D01*
X107713408Y-115554038D02*
X107561027Y-115554038D01*
X108056265Y-115363561D02*
X108056265Y-115896895D01*
X108056265Y-115439752D02*
X108094360Y-115401657D01*
X108094360Y-115401657D02*
X108170550Y-115363561D01*
X108170550Y-115363561D02*
X108284836Y-115363561D01*
X108284836Y-115363561D02*
X108361027Y-115401657D01*
X108361027Y-115401657D02*
X108399122Y-115477847D01*
X108399122Y-115477847D02*
X108399122Y-115896895D01*
X109122932Y-115896895D02*
X109122932Y-115096895D01*
X109122932Y-115858800D02*
X109046741Y-115896895D01*
X109046741Y-115896895D02*
X108894360Y-115896895D01*
X108894360Y-115896895D02*
X108818170Y-115858800D01*
X108818170Y-115858800D02*
X108780075Y-115820704D01*
X108780075Y-115820704D02*
X108741979Y-115744514D01*
X108741979Y-115744514D02*
X108741979Y-115515942D01*
X108741979Y-115515942D02*
X108780075Y-115439752D01*
X108780075Y-115439752D02*
X108818170Y-115401657D01*
X108818170Y-115401657D02*
X108894360Y-115363561D01*
X108894360Y-115363561D02*
X109046741Y-115363561D01*
X109046741Y-115363561D02*
X109122932Y-115401657D01*
X125800074Y-148383561D02*
X125952455Y-148916895D01*
X125952455Y-148916895D02*
X126104836Y-148535942D01*
X126104836Y-148535942D02*
X126257217Y-148916895D01*
X126257217Y-148916895D02*
X126409598Y-148383561D01*
X126638169Y-148383561D02*
X126790550Y-148916895D01*
X126790550Y-148916895D02*
X126942931Y-148535942D01*
X126942931Y-148535942D02*
X127095312Y-148916895D01*
X127095312Y-148916895D02*
X127247693Y-148383561D01*
X127476264Y-148383561D02*
X127628645Y-148916895D01*
X127628645Y-148916895D02*
X127781026Y-148535942D01*
X127781026Y-148535942D02*
X127933407Y-148916895D01*
X127933407Y-148916895D02*
X128085788Y-148383561D01*
X128390550Y-148840704D02*
X128428645Y-148878800D01*
X128428645Y-148878800D02*
X128390550Y-148916895D01*
X128390550Y-148916895D02*
X128352454Y-148878800D01*
X128352454Y-148878800D02*
X128390550Y-148840704D01*
X128390550Y-148840704D02*
X128390550Y-148916895D01*
X128771502Y-148383561D02*
X128771502Y-149183561D01*
X128771502Y-148421657D02*
X128847692Y-148383561D01*
X128847692Y-148383561D02*
X129000073Y-148383561D01*
X129000073Y-148383561D02*
X129076264Y-148421657D01*
X129076264Y-148421657D02*
X129114359Y-148459752D01*
X129114359Y-148459752D02*
X129152454Y-148535942D01*
X129152454Y-148535942D02*
X129152454Y-148764514D01*
X129152454Y-148764514D02*
X129114359Y-148840704D01*
X129114359Y-148840704D02*
X129076264Y-148878800D01*
X129076264Y-148878800D02*
X129000073Y-148916895D01*
X129000073Y-148916895D02*
X128847692Y-148916895D01*
X128847692Y-148916895D02*
X128771502Y-148878800D01*
X129800074Y-148878800D02*
X129723883Y-148916895D01*
X129723883Y-148916895D02*
X129571502Y-148916895D01*
X129571502Y-148916895D02*
X129495312Y-148878800D01*
X129495312Y-148878800D02*
X129457216Y-148802609D01*
X129457216Y-148802609D02*
X129457216Y-148497847D01*
X129457216Y-148497847D02*
X129495312Y-148421657D01*
X129495312Y-148421657D02*
X129571502Y-148383561D01*
X129571502Y-148383561D02*
X129723883Y-148383561D01*
X129723883Y-148383561D02*
X129800074Y-148421657D01*
X129800074Y-148421657D02*
X129838169Y-148497847D01*
X129838169Y-148497847D02*
X129838169Y-148574038D01*
X129838169Y-148574038D02*
X129457216Y-148650228D01*
X130181026Y-148383561D02*
X130181026Y-148916895D01*
X130181026Y-148459752D02*
X130219121Y-148421657D01*
X130219121Y-148421657D02*
X130295311Y-148383561D01*
X130295311Y-148383561D02*
X130409597Y-148383561D01*
X130409597Y-148383561D02*
X130485788Y-148421657D01*
X130485788Y-148421657D02*
X130523883Y-148497847D01*
X130523883Y-148497847D02*
X130523883Y-148916895D01*
X131247693Y-148383561D02*
X131247693Y-149031180D01*
X131247693Y-149031180D02*
X131209598Y-149107371D01*
X131209598Y-149107371D02*
X131171502Y-149145466D01*
X131171502Y-149145466D02*
X131095312Y-149183561D01*
X131095312Y-149183561D02*
X130981026Y-149183561D01*
X130981026Y-149183561D02*
X130904836Y-149145466D01*
X131247693Y-148878800D02*
X131171502Y-148916895D01*
X131171502Y-148916895D02*
X131019121Y-148916895D01*
X131019121Y-148916895D02*
X130942931Y-148878800D01*
X130942931Y-148878800D02*
X130904836Y-148840704D01*
X130904836Y-148840704D02*
X130866740Y-148764514D01*
X130866740Y-148764514D02*
X130866740Y-148535942D01*
X130866740Y-148535942D02*
X130904836Y-148459752D01*
X130904836Y-148459752D02*
X130942931Y-148421657D01*
X130942931Y-148421657D02*
X131019121Y-148383561D01*
X131019121Y-148383561D02*
X131171502Y-148383561D01*
X131171502Y-148383561D02*
X131247693Y-148421657D01*
X131971503Y-148383561D02*
X131971503Y-148916895D01*
X131628646Y-148383561D02*
X131628646Y-148802609D01*
X131628646Y-148802609D02*
X131666741Y-148878800D01*
X131666741Y-148878800D02*
X131742931Y-148916895D01*
X131742931Y-148916895D02*
X131857217Y-148916895D01*
X131857217Y-148916895D02*
X131933408Y-148878800D01*
X131933408Y-148878800D02*
X131971503Y-148840704D01*
X132352456Y-148916895D02*
X132352456Y-148383561D01*
X132352456Y-148116895D02*
X132314360Y-148154990D01*
X132314360Y-148154990D02*
X132352456Y-148193085D01*
X132352456Y-148193085D02*
X132390551Y-148154990D01*
X132390551Y-148154990D02*
X132352456Y-148116895D01*
X132352456Y-148116895D02*
X132352456Y-148193085D01*
X132733408Y-148383561D02*
X132733408Y-148916895D01*
X132733408Y-148459752D02*
X132771503Y-148421657D01*
X132771503Y-148421657D02*
X132847693Y-148383561D01*
X132847693Y-148383561D02*
X132961979Y-148383561D01*
X132961979Y-148383561D02*
X133038170Y-148421657D01*
X133038170Y-148421657D02*
X133076265Y-148497847D01*
X133076265Y-148497847D02*
X133076265Y-148916895D01*
X133342932Y-148383561D02*
X133647694Y-148383561D01*
X133457218Y-148116895D02*
X133457218Y-148802609D01*
X133457218Y-148802609D02*
X133495313Y-148878800D01*
X133495313Y-148878800D02*
X133571503Y-148916895D01*
X133571503Y-148916895D02*
X133647694Y-148916895D01*
X134257218Y-148383561D02*
X134257218Y-148916895D01*
X133914361Y-148383561D02*
X133914361Y-148802609D01*
X133914361Y-148802609D02*
X133952456Y-148878800D01*
X133952456Y-148878800D02*
X134028646Y-148916895D01*
X134028646Y-148916895D02*
X134142932Y-148916895D01*
X134142932Y-148916895D02*
X134219123Y-148878800D01*
X134219123Y-148878800D02*
X134257218Y-148840704D01*
X134523885Y-148383561D02*
X134828647Y-148383561D01*
X134638171Y-148116895D02*
X134638171Y-148802609D01*
X134638171Y-148802609D02*
X134676266Y-148878800D01*
X134676266Y-148878800D02*
X134752456Y-148916895D01*
X134752456Y-148916895D02*
X134828647Y-148916895D01*
X135209599Y-148916895D02*
X135133409Y-148878800D01*
X135133409Y-148878800D02*
X135095314Y-148840704D01*
X135095314Y-148840704D02*
X135057218Y-148764514D01*
X135057218Y-148764514D02*
X135057218Y-148535942D01*
X135057218Y-148535942D02*
X135095314Y-148459752D01*
X135095314Y-148459752D02*
X135133409Y-148421657D01*
X135133409Y-148421657D02*
X135209599Y-148383561D01*
X135209599Y-148383561D02*
X135323885Y-148383561D01*
X135323885Y-148383561D02*
X135400076Y-148421657D01*
X135400076Y-148421657D02*
X135438171Y-148459752D01*
X135438171Y-148459752D02*
X135476266Y-148535942D01*
X135476266Y-148535942D02*
X135476266Y-148764514D01*
X135476266Y-148764514D02*
X135438171Y-148840704D01*
X135438171Y-148840704D02*
X135400076Y-148878800D01*
X135400076Y-148878800D02*
X135323885Y-148916895D01*
X135323885Y-148916895D02*
X135209599Y-148916895D01*
X135819124Y-148916895D02*
X135819124Y-148383561D01*
X135819124Y-148535942D02*
X135857219Y-148459752D01*
X135857219Y-148459752D02*
X135895314Y-148421657D01*
X135895314Y-148421657D02*
X135971505Y-148383561D01*
X135971505Y-148383561D02*
X136047695Y-148383561D01*
X136314362Y-148840704D02*
X136352457Y-148878800D01*
X136352457Y-148878800D02*
X136314362Y-148916895D01*
X136314362Y-148916895D02*
X136276266Y-148878800D01*
X136276266Y-148878800D02*
X136314362Y-148840704D01*
X136314362Y-148840704D02*
X136314362Y-148916895D01*
X137038171Y-148878800D02*
X136961980Y-148916895D01*
X136961980Y-148916895D02*
X136809599Y-148916895D01*
X136809599Y-148916895D02*
X136733409Y-148878800D01*
X136733409Y-148878800D02*
X136695314Y-148840704D01*
X136695314Y-148840704D02*
X136657218Y-148764514D01*
X136657218Y-148764514D02*
X136657218Y-148535942D01*
X136657218Y-148535942D02*
X136695314Y-148459752D01*
X136695314Y-148459752D02*
X136733409Y-148421657D01*
X136733409Y-148421657D02*
X136809599Y-148383561D01*
X136809599Y-148383561D02*
X136961980Y-148383561D01*
X136961980Y-148383561D02*
X137038171Y-148421657D01*
X137495313Y-148916895D02*
X137419123Y-148878800D01*
X137419123Y-148878800D02*
X137381028Y-148840704D01*
X137381028Y-148840704D02*
X137342932Y-148764514D01*
X137342932Y-148764514D02*
X137342932Y-148535942D01*
X137342932Y-148535942D02*
X137381028Y-148459752D01*
X137381028Y-148459752D02*
X137419123Y-148421657D01*
X137419123Y-148421657D02*
X137495313Y-148383561D01*
X137495313Y-148383561D02*
X137609599Y-148383561D01*
X137609599Y-148383561D02*
X137685790Y-148421657D01*
X137685790Y-148421657D02*
X137723885Y-148459752D01*
X137723885Y-148459752D02*
X137761980Y-148535942D01*
X137761980Y-148535942D02*
X137761980Y-148764514D01*
X137761980Y-148764514D02*
X137723885Y-148840704D01*
X137723885Y-148840704D02*
X137685790Y-148878800D01*
X137685790Y-148878800D02*
X137609599Y-148916895D01*
X137609599Y-148916895D02*
X137495313Y-148916895D01*
X138104838Y-148916895D02*
X138104838Y-148383561D01*
X138104838Y-148459752D02*
X138142933Y-148421657D01*
X138142933Y-148421657D02*
X138219123Y-148383561D01*
X138219123Y-148383561D02*
X138333409Y-148383561D01*
X138333409Y-148383561D02*
X138409600Y-148421657D01*
X138409600Y-148421657D02*
X138447695Y-148497847D01*
X138447695Y-148497847D02*
X138447695Y-148916895D01*
X138447695Y-148497847D02*
X138485790Y-148421657D01*
X138485790Y-148421657D02*
X138561981Y-148383561D01*
X138561981Y-148383561D02*
X138676266Y-148383561D01*
X138676266Y-148383561D02*
X138752457Y-148421657D01*
X138752457Y-148421657D02*
X138790552Y-148497847D01*
X138790552Y-148497847D02*
X138790552Y-148916895D01*
D10*
X135184510Y-91469400D02*
X136327368Y-91469400D01*
X135755939Y-92040828D02*
X135755939Y-90897971D01*
X136144510Y-123899400D02*
X137287368Y-123899400D01*
X136715939Y-124470828D02*
X136715939Y-123327971D01*
D13*
X129924819Y-98288094D02*
X128924819Y-98288094D01*
X128924819Y-98288094D02*
X128924819Y-98049999D01*
X128924819Y-98049999D02*
X128972438Y-97907142D01*
X128972438Y-97907142D02*
X129067676Y-97811904D01*
X129067676Y-97811904D02*
X129162914Y-97764285D01*
X129162914Y-97764285D02*
X129353390Y-97716666D01*
X129353390Y-97716666D02*
X129496247Y-97716666D01*
X129496247Y-97716666D02*
X129686723Y-97764285D01*
X129686723Y-97764285D02*
X129781961Y-97811904D01*
X129781961Y-97811904D02*
X129877200Y-97907142D01*
X129877200Y-97907142D02*
X129924819Y-98049999D01*
X129924819Y-98049999D02*
X129924819Y-98288094D01*
X128924819Y-97383332D02*
X128924819Y-96764285D01*
X128924819Y-96764285D02*
X129305771Y-97097618D01*
X129305771Y-97097618D02*
X129305771Y-96954761D01*
X129305771Y-96954761D02*
X129353390Y-96859523D01*
X129353390Y-96859523D02*
X129401009Y-96811904D01*
X129401009Y-96811904D02*
X129496247Y-96764285D01*
X129496247Y-96764285D02*
X129734342Y-96764285D01*
X129734342Y-96764285D02*
X129829580Y-96811904D01*
X129829580Y-96811904D02*
X129877200Y-96859523D01*
X129877200Y-96859523D02*
X129924819Y-96954761D01*
X129924819Y-96954761D02*
X129924819Y-97240475D01*
X129924819Y-97240475D02*
X129877200Y-97335713D01*
X129877200Y-97335713D02*
X129829580Y-97383332D01*
X133666667Y-110322200D02*
X133809524Y-110369819D01*
X133809524Y-110369819D02*
X134047619Y-110369819D01*
X134047619Y-110369819D02*
X134142857Y-110322200D01*
X134142857Y-110322200D02*
X134190476Y-110274580D01*
X134190476Y-110274580D02*
X134238095Y-110179342D01*
X134238095Y-110179342D02*
X134238095Y-110084104D01*
X134238095Y-110084104D02*
X134190476Y-109988866D01*
X134190476Y-109988866D02*
X134142857Y-109941247D01*
X134142857Y-109941247D02*
X134047619Y-109893628D01*
X134047619Y-109893628D02*
X133857143Y-109846009D01*
X133857143Y-109846009D02*
X133761905Y-109798390D01*
X133761905Y-109798390D02*
X133714286Y-109750771D01*
X133714286Y-109750771D02*
X133666667Y-109655533D01*
X133666667Y-109655533D02*
X133666667Y-109560295D01*
X133666667Y-109560295D02*
X133714286Y-109465057D01*
X133714286Y-109465057D02*
X133761905Y-109417438D01*
X133761905Y-109417438D02*
X133857143Y-109369819D01*
X133857143Y-109369819D02*
X134095238Y-109369819D01*
X134095238Y-109369819D02*
X134238095Y-109417438D01*
X134571429Y-109369819D02*
X134809524Y-110369819D01*
X134809524Y-110369819D02*
X135000000Y-109655533D01*
X135000000Y-109655533D02*
X135190476Y-110369819D01*
X135190476Y-110369819D02*
X135428572Y-109369819D01*
X135761905Y-109465057D02*
X135809524Y-109417438D01*
X135809524Y-109417438D02*
X135904762Y-109369819D01*
X135904762Y-109369819D02*
X136142857Y-109369819D01*
X136142857Y-109369819D02*
X136238095Y-109417438D01*
X136238095Y-109417438D02*
X136285714Y-109465057D01*
X136285714Y-109465057D02*
X136333333Y-109560295D01*
X136333333Y-109560295D02*
X136333333Y-109655533D01*
X136333333Y-109655533D02*
X136285714Y-109798390D01*
X136285714Y-109798390D02*
X135714286Y-110369819D01*
X135714286Y-110369819D02*
X136333333Y-110369819D01*
X143773333Y-101114819D02*
X143440000Y-100638628D01*
X143201905Y-101114819D02*
X143201905Y-100114819D01*
X143201905Y-100114819D02*
X143582857Y-100114819D01*
X143582857Y-100114819D02*
X143678095Y-100162438D01*
X143678095Y-100162438D02*
X143725714Y-100210057D01*
X143725714Y-100210057D02*
X143773333Y-100305295D01*
X143773333Y-100305295D02*
X143773333Y-100448152D01*
X143773333Y-100448152D02*
X143725714Y-100543390D01*
X143725714Y-100543390D02*
X143678095Y-100591009D01*
X143678095Y-100591009D02*
X143582857Y-100638628D01*
X143582857Y-100638628D02*
X143201905Y-100638628D01*
X144154286Y-100210057D02*
X144201905Y-100162438D01*
X144201905Y-100162438D02*
X144297143Y-100114819D01*
X144297143Y-100114819D02*
X144535238Y-100114819D01*
X144535238Y-100114819D02*
X144630476Y-100162438D01*
X144630476Y-100162438D02*
X144678095Y-100210057D01*
X144678095Y-100210057D02*
X144725714Y-100305295D01*
X144725714Y-100305295D02*
X144725714Y-100400533D01*
X144725714Y-100400533D02*
X144678095Y-100543390D01*
X144678095Y-100543390D02*
X144106667Y-101114819D01*
X144106667Y-101114819D02*
X144725714Y-101114819D01*
X142266667Y-110522200D02*
X142409524Y-110569819D01*
X142409524Y-110569819D02*
X142647619Y-110569819D01*
X142647619Y-110569819D02*
X142742857Y-110522200D01*
X142742857Y-110522200D02*
X142790476Y-110474580D01*
X142790476Y-110474580D02*
X142838095Y-110379342D01*
X142838095Y-110379342D02*
X142838095Y-110284104D01*
X142838095Y-110284104D02*
X142790476Y-110188866D01*
X142790476Y-110188866D02*
X142742857Y-110141247D01*
X142742857Y-110141247D02*
X142647619Y-110093628D01*
X142647619Y-110093628D02*
X142457143Y-110046009D01*
X142457143Y-110046009D02*
X142361905Y-109998390D01*
X142361905Y-109998390D02*
X142314286Y-109950771D01*
X142314286Y-109950771D02*
X142266667Y-109855533D01*
X142266667Y-109855533D02*
X142266667Y-109760295D01*
X142266667Y-109760295D02*
X142314286Y-109665057D01*
X142314286Y-109665057D02*
X142361905Y-109617438D01*
X142361905Y-109617438D02*
X142457143Y-109569819D01*
X142457143Y-109569819D02*
X142695238Y-109569819D01*
X142695238Y-109569819D02*
X142838095Y-109617438D01*
X143171429Y-109569819D02*
X143409524Y-110569819D01*
X143409524Y-110569819D02*
X143600000Y-109855533D01*
X143600000Y-109855533D02*
X143790476Y-110569819D01*
X143790476Y-110569819D02*
X144028572Y-109569819D01*
X144838095Y-109903152D02*
X144838095Y-110569819D01*
X144600000Y-109522200D02*
X144361905Y-110236485D01*
X144361905Y-110236485D02*
X144980952Y-110236485D01*
X129594819Y-134988094D02*
X128594819Y-134988094D01*
X128594819Y-134988094D02*
X128594819Y-134749999D01*
X128594819Y-134749999D02*
X128642438Y-134607142D01*
X128642438Y-134607142D02*
X128737676Y-134511904D01*
X128737676Y-134511904D02*
X128832914Y-134464285D01*
X128832914Y-134464285D02*
X129023390Y-134416666D01*
X129023390Y-134416666D02*
X129166247Y-134416666D01*
X129166247Y-134416666D02*
X129356723Y-134464285D01*
X129356723Y-134464285D02*
X129451961Y-134511904D01*
X129451961Y-134511904D02*
X129547200Y-134607142D01*
X129547200Y-134607142D02*
X129594819Y-134749999D01*
X129594819Y-134749999D02*
X129594819Y-134988094D01*
X128594819Y-133559523D02*
X128594819Y-133749999D01*
X128594819Y-133749999D02*
X128642438Y-133845237D01*
X128642438Y-133845237D02*
X128690057Y-133892856D01*
X128690057Y-133892856D02*
X128832914Y-133988094D01*
X128832914Y-133988094D02*
X129023390Y-134035713D01*
X129023390Y-134035713D02*
X129404342Y-134035713D01*
X129404342Y-134035713D02*
X129499580Y-133988094D01*
X129499580Y-133988094D02*
X129547200Y-133940475D01*
X129547200Y-133940475D02*
X129594819Y-133845237D01*
X129594819Y-133845237D02*
X129594819Y-133654761D01*
X129594819Y-133654761D02*
X129547200Y-133559523D01*
X129547200Y-133559523D02*
X129499580Y-133511904D01*
X129499580Y-133511904D02*
X129404342Y-133464285D01*
X129404342Y-133464285D02*
X129166247Y-133464285D01*
X129166247Y-133464285D02*
X129071009Y-133511904D01*
X129071009Y-133511904D02*
X129023390Y-133559523D01*
X129023390Y-133559523D02*
X128975771Y-133654761D01*
X128975771Y-133654761D02*
X128975771Y-133845237D01*
X128975771Y-133845237D02*
X129023390Y-133940475D01*
X129023390Y-133940475D02*
X129071009Y-133988094D01*
X129071009Y-133988094D02*
X129166247Y-134035713D01*
X144073333Y-130624819D02*
X143740000Y-130148628D01*
X143501905Y-130624819D02*
X143501905Y-129624819D01*
X143501905Y-129624819D02*
X143882857Y-129624819D01*
X143882857Y-129624819D02*
X143978095Y-129672438D01*
X143978095Y-129672438D02*
X144025714Y-129720057D01*
X144025714Y-129720057D02*
X144073333Y-129815295D01*
X144073333Y-129815295D02*
X144073333Y-129958152D01*
X144073333Y-129958152D02*
X144025714Y-130053390D01*
X144025714Y-130053390D02*
X143978095Y-130101009D01*
X143978095Y-130101009D02*
X143882857Y-130148628D01*
X143882857Y-130148628D02*
X143501905Y-130148628D01*
X144406667Y-129624819D02*
X145073333Y-129624819D01*
X145073333Y-129624819D02*
X144644762Y-130624819D01*
X129924819Y-102038094D02*
X128924819Y-102038094D01*
X128924819Y-102038094D02*
X128924819Y-101799999D01*
X128924819Y-101799999D02*
X128972438Y-101657142D01*
X128972438Y-101657142D02*
X129067676Y-101561904D01*
X129067676Y-101561904D02*
X129162914Y-101514285D01*
X129162914Y-101514285D02*
X129353390Y-101466666D01*
X129353390Y-101466666D02*
X129496247Y-101466666D01*
X129496247Y-101466666D02*
X129686723Y-101514285D01*
X129686723Y-101514285D02*
X129781961Y-101561904D01*
X129781961Y-101561904D02*
X129877200Y-101657142D01*
X129877200Y-101657142D02*
X129924819Y-101799999D01*
X129924819Y-101799999D02*
X129924819Y-102038094D01*
X129020057Y-101085713D02*
X128972438Y-101038094D01*
X128972438Y-101038094D02*
X128924819Y-100942856D01*
X128924819Y-100942856D02*
X128924819Y-100704761D01*
X128924819Y-100704761D02*
X128972438Y-100609523D01*
X128972438Y-100609523D02*
X129020057Y-100561904D01*
X129020057Y-100561904D02*
X129115295Y-100514285D01*
X129115295Y-100514285D02*
X129210533Y-100514285D01*
X129210533Y-100514285D02*
X129353390Y-100561904D01*
X129353390Y-100561904D02*
X129924819Y-101133332D01*
X129924819Y-101133332D02*
X129924819Y-100514285D01*
X144033333Y-126724819D02*
X143700000Y-126248628D01*
X143461905Y-126724819D02*
X143461905Y-125724819D01*
X143461905Y-125724819D02*
X143842857Y-125724819D01*
X143842857Y-125724819D02*
X143938095Y-125772438D01*
X143938095Y-125772438D02*
X143985714Y-125820057D01*
X143985714Y-125820057D02*
X144033333Y-125915295D01*
X144033333Y-125915295D02*
X144033333Y-126058152D01*
X144033333Y-126058152D02*
X143985714Y-126153390D01*
X143985714Y-126153390D02*
X143938095Y-126201009D01*
X143938095Y-126201009D02*
X143842857Y-126248628D01*
X143842857Y-126248628D02*
X143461905Y-126248628D01*
X144604762Y-126153390D02*
X144509524Y-126105771D01*
X144509524Y-126105771D02*
X144461905Y-126058152D01*
X144461905Y-126058152D02*
X144414286Y-125962914D01*
X144414286Y-125962914D02*
X144414286Y-125915295D01*
X144414286Y-125915295D02*
X144461905Y-125820057D01*
X144461905Y-125820057D02*
X144509524Y-125772438D01*
X144509524Y-125772438D02*
X144604762Y-125724819D01*
X144604762Y-125724819D02*
X144795238Y-125724819D01*
X144795238Y-125724819D02*
X144890476Y-125772438D01*
X144890476Y-125772438D02*
X144938095Y-125820057D01*
X144938095Y-125820057D02*
X144985714Y-125915295D01*
X144985714Y-125915295D02*
X144985714Y-125962914D01*
X144985714Y-125962914D02*
X144938095Y-126058152D01*
X144938095Y-126058152D02*
X144890476Y-126105771D01*
X144890476Y-126105771D02*
X144795238Y-126153390D01*
X144795238Y-126153390D02*
X144604762Y-126153390D01*
X144604762Y-126153390D02*
X144509524Y-126201009D01*
X144509524Y-126201009D02*
X144461905Y-126248628D01*
X144461905Y-126248628D02*
X144414286Y-126343866D01*
X144414286Y-126343866D02*
X144414286Y-126534342D01*
X144414286Y-126534342D02*
X144461905Y-126629580D01*
X144461905Y-126629580D02*
X144509524Y-126677200D01*
X144509524Y-126677200D02*
X144604762Y-126724819D01*
X144604762Y-126724819D02*
X144795238Y-126724819D01*
X144795238Y-126724819D02*
X144890476Y-126677200D01*
X144890476Y-126677200D02*
X144938095Y-126629580D01*
X144938095Y-126629580D02*
X144985714Y-126534342D01*
X144985714Y-126534342D02*
X144985714Y-126343866D01*
X144985714Y-126343866D02*
X144938095Y-126248628D01*
X144938095Y-126248628D02*
X144890476Y-126201009D01*
X144890476Y-126201009D02*
X144795238Y-126153390D01*
X144113333Y-138274819D02*
X143780000Y-137798628D01*
X143541905Y-138274819D02*
X143541905Y-137274819D01*
X143541905Y-137274819D02*
X143922857Y-137274819D01*
X143922857Y-137274819D02*
X144018095Y-137322438D01*
X144018095Y-137322438D02*
X144065714Y-137370057D01*
X144065714Y-137370057D02*
X144113333Y-137465295D01*
X144113333Y-137465295D02*
X144113333Y-137608152D01*
X144113333Y-137608152D02*
X144065714Y-137703390D01*
X144065714Y-137703390D02*
X144018095Y-137751009D01*
X144018095Y-137751009D02*
X143922857Y-137798628D01*
X143922857Y-137798628D02*
X143541905Y-137798628D01*
X145018095Y-137274819D02*
X144541905Y-137274819D01*
X144541905Y-137274819D02*
X144494286Y-137751009D01*
X144494286Y-137751009D02*
X144541905Y-137703390D01*
X144541905Y-137703390D02*
X144637143Y-137655771D01*
X144637143Y-137655771D02*
X144875238Y-137655771D01*
X144875238Y-137655771D02*
X144970476Y-137703390D01*
X144970476Y-137703390D02*
X145018095Y-137751009D01*
X145018095Y-137751009D02*
X145065714Y-137846247D01*
X145065714Y-137846247D02*
X145065714Y-138084342D01*
X145065714Y-138084342D02*
X145018095Y-138179580D01*
X145018095Y-138179580D02*
X144970476Y-138227200D01*
X144970476Y-138227200D02*
X144875238Y-138274819D01*
X144875238Y-138274819D02*
X144637143Y-138274819D01*
X144637143Y-138274819D02*
X144541905Y-138227200D01*
X144541905Y-138227200D02*
X144494286Y-138179580D01*
X138066667Y-110522200D02*
X138209524Y-110569819D01*
X138209524Y-110569819D02*
X138447619Y-110569819D01*
X138447619Y-110569819D02*
X138542857Y-110522200D01*
X138542857Y-110522200D02*
X138590476Y-110474580D01*
X138590476Y-110474580D02*
X138638095Y-110379342D01*
X138638095Y-110379342D02*
X138638095Y-110284104D01*
X138638095Y-110284104D02*
X138590476Y-110188866D01*
X138590476Y-110188866D02*
X138542857Y-110141247D01*
X138542857Y-110141247D02*
X138447619Y-110093628D01*
X138447619Y-110093628D02*
X138257143Y-110046009D01*
X138257143Y-110046009D02*
X138161905Y-109998390D01*
X138161905Y-109998390D02*
X138114286Y-109950771D01*
X138114286Y-109950771D02*
X138066667Y-109855533D01*
X138066667Y-109855533D02*
X138066667Y-109760295D01*
X138066667Y-109760295D02*
X138114286Y-109665057D01*
X138114286Y-109665057D02*
X138161905Y-109617438D01*
X138161905Y-109617438D02*
X138257143Y-109569819D01*
X138257143Y-109569819D02*
X138495238Y-109569819D01*
X138495238Y-109569819D02*
X138638095Y-109617438D01*
X138971429Y-109569819D02*
X139209524Y-110569819D01*
X139209524Y-110569819D02*
X139400000Y-109855533D01*
X139400000Y-109855533D02*
X139590476Y-110569819D01*
X139590476Y-110569819D02*
X139828572Y-109569819D01*
X140114286Y-109569819D02*
X140733333Y-109569819D01*
X140733333Y-109569819D02*
X140400000Y-109950771D01*
X140400000Y-109950771D02*
X140542857Y-109950771D01*
X140542857Y-109950771D02*
X140638095Y-109998390D01*
X140638095Y-109998390D02*
X140685714Y-110046009D01*
X140685714Y-110046009D02*
X140733333Y-110141247D01*
X140733333Y-110141247D02*
X140733333Y-110379342D01*
X140733333Y-110379342D02*
X140685714Y-110474580D01*
X140685714Y-110474580D02*
X140638095Y-110522200D01*
X140638095Y-110522200D02*
X140542857Y-110569819D01*
X140542857Y-110569819D02*
X140257143Y-110569819D01*
X140257143Y-110569819D02*
X140161905Y-110522200D01*
X140161905Y-110522200D02*
X140114286Y-110474580D01*
X129844819Y-130988094D02*
X128844819Y-130988094D01*
X128844819Y-130988094D02*
X128844819Y-130749999D01*
X128844819Y-130749999D02*
X128892438Y-130607142D01*
X128892438Y-130607142D02*
X128987676Y-130511904D01*
X128987676Y-130511904D02*
X129082914Y-130464285D01*
X129082914Y-130464285D02*
X129273390Y-130416666D01*
X129273390Y-130416666D02*
X129416247Y-130416666D01*
X129416247Y-130416666D02*
X129606723Y-130464285D01*
X129606723Y-130464285D02*
X129701961Y-130511904D01*
X129701961Y-130511904D02*
X129797200Y-130607142D01*
X129797200Y-130607142D02*
X129844819Y-130749999D01*
X129844819Y-130749999D02*
X129844819Y-130988094D01*
X128844819Y-130083332D02*
X128844819Y-129416666D01*
X128844819Y-129416666D02*
X129844819Y-129845237D01*
X110666666Y-104704819D02*
X110666666Y-105419104D01*
X110666666Y-105419104D02*
X110619047Y-105561961D01*
X110619047Y-105561961D02*
X110523809Y-105657200D01*
X110523809Y-105657200D02*
X110380952Y-105704819D01*
X110380952Y-105704819D02*
X110285714Y-105704819D01*
X111666666Y-105704819D02*
X111095238Y-105704819D01*
X111380952Y-105704819D02*
X111380952Y-104704819D01*
X111380952Y-104704819D02*
X111285714Y-104847676D01*
X111285714Y-104847676D02*
X111190476Y-104942914D01*
X111190476Y-104942914D02*
X111095238Y-104990533D01*
X114054819Y-114438094D02*
X113054819Y-114438094D01*
X113150057Y-114009523D02*
X113102438Y-113961904D01*
X113102438Y-113961904D02*
X113054819Y-113866666D01*
X113054819Y-113866666D02*
X113054819Y-113628571D01*
X113054819Y-113628571D02*
X113102438Y-113533333D01*
X113102438Y-113533333D02*
X113150057Y-113485714D01*
X113150057Y-113485714D02*
X113245295Y-113438095D01*
X113245295Y-113438095D02*
X113340533Y-113438095D01*
X113340533Y-113438095D02*
X113483390Y-113485714D01*
X113483390Y-113485714D02*
X114054819Y-114057142D01*
X114054819Y-114057142D02*
X114054819Y-113438095D01*
X113959580Y-112438095D02*
X114007200Y-112485714D01*
X114007200Y-112485714D02*
X114054819Y-112628571D01*
X114054819Y-112628571D02*
X114054819Y-112723809D01*
X114054819Y-112723809D02*
X114007200Y-112866666D01*
X114007200Y-112866666D02*
X113911961Y-112961904D01*
X113911961Y-112961904D02*
X113816723Y-113009523D01*
X113816723Y-113009523D02*
X113626247Y-113057142D01*
X113626247Y-113057142D02*
X113483390Y-113057142D01*
X113483390Y-113057142D02*
X113292914Y-113009523D01*
X113292914Y-113009523D02*
X113197676Y-112961904D01*
X113197676Y-112961904D02*
X113102438Y-112866666D01*
X113102438Y-112866666D02*
X113054819Y-112723809D01*
X113054819Y-112723809D02*
X113054819Y-112628571D01*
X113054819Y-112628571D02*
X113102438Y-112485714D01*
X113102438Y-112485714D02*
X113150057Y-112438095D01*
X114054819Y-111247618D02*
X113054819Y-111247618D01*
X113388152Y-110771428D02*
X114054819Y-110771428D01*
X113483390Y-110771428D02*
X113435771Y-110723809D01*
X113435771Y-110723809D02*
X113388152Y-110628571D01*
X113388152Y-110628571D02*
X113388152Y-110485714D01*
X113388152Y-110485714D02*
X113435771Y-110390476D01*
X113435771Y-110390476D02*
X113531009Y-110342857D01*
X113531009Y-110342857D02*
X114054819Y-110342857D01*
X113388152Y-109866666D02*
X114388152Y-109866666D01*
X113435771Y-109866666D02*
X113388152Y-109771428D01*
X113388152Y-109771428D02*
X113388152Y-109580952D01*
X113388152Y-109580952D02*
X113435771Y-109485714D01*
X113435771Y-109485714D02*
X113483390Y-109438095D01*
X113483390Y-109438095D02*
X113578628Y-109390476D01*
X113578628Y-109390476D02*
X113864342Y-109390476D01*
X113864342Y-109390476D02*
X113959580Y-109438095D01*
X113959580Y-109438095D02*
X114007200Y-109485714D01*
X114007200Y-109485714D02*
X114054819Y-109580952D01*
X114054819Y-109580952D02*
X114054819Y-109771428D01*
X114054819Y-109771428D02*
X114007200Y-109866666D01*
X113388152Y-108533333D02*
X114054819Y-108533333D01*
X113388152Y-108961904D02*
X113911961Y-108961904D01*
X113911961Y-108961904D02*
X114007200Y-108914285D01*
X114007200Y-108914285D02*
X114054819Y-108819047D01*
X114054819Y-108819047D02*
X114054819Y-108676190D01*
X114054819Y-108676190D02*
X114007200Y-108580952D01*
X114007200Y-108580952D02*
X113959580Y-108533333D01*
X113388152Y-108199999D02*
X113388152Y-107819047D01*
X113054819Y-108057142D02*
X113911961Y-108057142D01*
X113911961Y-108057142D02*
X114007200Y-108009523D01*
X114007200Y-108009523D02*
X114054819Y-107914285D01*
X114054819Y-107914285D02*
X114054819Y-107819047D01*
X117033333Y-121159580D02*
X116985714Y-121207200D01*
X116985714Y-121207200D02*
X116842857Y-121254819D01*
X116842857Y-121254819D02*
X116747619Y-121254819D01*
X116747619Y-121254819D02*
X116604762Y-121207200D01*
X116604762Y-121207200D02*
X116509524Y-121111961D01*
X116509524Y-121111961D02*
X116461905Y-121016723D01*
X116461905Y-121016723D02*
X116414286Y-120826247D01*
X116414286Y-120826247D02*
X116414286Y-120683390D01*
X116414286Y-120683390D02*
X116461905Y-120492914D01*
X116461905Y-120492914D02*
X116509524Y-120397676D01*
X116509524Y-120397676D02*
X116604762Y-120302438D01*
X116604762Y-120302438D02*
X116747619Y-120254819D01*
X116747619Y-120254819D02*
X116842857Y-120254819D01*
X116842857Y-120254819D02*
X116985714Y-120302438D01*
X116985714Y-120302438D02*
X117033333Y-120350057D01*
X117414286Y-120350057D02*
X117461905Y-120302438D01*
X117461905Y-120302438D02*
X117557143Y-120254819D01*
X117557143Y-120254819D02*
X117795238Y-120254819D01*
X117795238Y-120254819D02*
X117890476Y-120302438D01*
X117890476Y-120302438D02*
X117938095Y-120350057D01*
X117938095Y-120350057D02*
X117985714Y-120445295D01*
X117985714Y-120445295D02*
X117985714Y-120540533D01*
X117985714Y-120540533D02*
X117938095Y-120683390D01*
X117938095Y-120683390D02*
X117366667Y-121254819D01*
X117366667Y-121254819D02*
X117985714Y-121254819D01*
X120252380Y-121254819D02*
X119680952Y-121254819D01*
X119966666Y-121254819D02*
X119966666Y-120254819D01*
X119966666Y-120254819D02*
X119871428Y-120397676D01*
X119871428Y-120397676D02*
X119776190Y-120492914D01*
X119776190Y-120492914D02*
X119680952Y-120540533D01*
X120871428Y-120254819D02*
X120966666Y-120254819D01*
X120966666Y-120254819D02*
X121061904Y-120302438D01*
X121061904Y-120302438D02*
X121109523Y-120350057D01*
X121109523Y-120350057D02*
X121157142Y-120445295D01*
X121157142Y-120445295D02*
X121204761Y-120635771D01*
X121204761Y-120635771D02*
X121204761Y-120873866D01*
X121204761Y-120873866D02*
X121157142Y-121064342D01*
X121157142Y-121064342D02*
X121109523Y-121159580D01*
X121109523Y-121159580D02*
X121061904Y-121207200D01*
X121061904Y-121207200D02*
X120966666Y-121254819D01*
X120966666Y-121254819D02*
X120871428Y-121254819D01*
X120871428Y-121254819D02*
X120776190Y-121207200D01*
X120776190Y-121207200D02*
X120728571Y-121159580D01*
X120728571Y-121159580D02*
X120680952Y-121064342D01*
X120680952Y-121064342D02*
X120633333Y-120873866D01*
X120633333Y-120873866D02*
X120633333Y-120635771D01*
X120633333Y-120635771D02*
X120680952Y-120445295D01*
X120680952Y-120445295D02*
X120728571Y-120350057D01*
X120728571Y-120350057D02*
X120776190Y-120302438D01*
X120776190Y-120302438D02*
X120871428Y-120254819D01*
X121823809Y-120254819D02*
X121919047Y-120254819D01*
X121919047Y-120254819D02*
X122014285Y-120302438D01*
X122014285Y-120302438D02*
X122061904Y-120350057D01*
X122061904Y-120350057D02*
X122109523Y-120445295D01*
X122109523Y-120445295D02*
X122157142Y-120635771D01*
X122157142Y-120635771D02*
X122157142Y-120873866D01*
X122157142Y-120873866D02*
X122109523Y-121064342D01*
X122109523Y-121064342D02*
X122061904Y-121159580D01*
X122061904Y-121159580D02*
X122014285Y-121207200D01*
X122014285Y-121207200D02*
X121919047Y-121254819D01*
X121919047Y-121254819D02*
X121823809Y-121254819D01*
X121823809Y-121254819D02*
X121728571Y-121207200D01*
X121728571Y-121207200D02*
X121680952Y-121159580D01*
X121680952Y-121159580D02*
X121633333Y-121064342D01*
X121633333Y-121064342D02*
X121585714Y-120873866D01*
X121585714Y-120873866D02*
X121585714Y-120635771D01*
X121585714Y-120635771D02*
X121633333Y-120445295D01*
X121633333Y-120445295D02*
X121680952Y-120350057D01*
X121680952Y-120350057D02*
X121728571Y-120302438D01*
X121728571Y-120302438D02*
X121823809Y-120254819D01*
X122585714Y-120588152D02*
X122585714Y-121254819D01*
X122585714Y-120683390D02*
X122633333Y-120635771D01*
X122633333Y-120635771D02*
X122728571Y-120588152D01*
X122728571Y-120588152D02*
X122871428Y-120588152D01*
X122871428Y-120588152D02*
X122966666Y-120635771D01*
X122966666Y-120635771D02*
X123014285Y-120731009D01*
X123014285Y-120731009D02*
X123014285Y-121254819D01*
X123823809Y-120731009D02*
X123490476Y-120731009D01*
X123490476Y-121254819D02*
X123490476Y-120254819D01*
X123490476Y-120254819D02*
X123966666Y-120254819D01*
X110666666Y-124304819D02*
X110666666Y-125019104D01*
X110666666Y-125019104D02*
X110619047Y-125161961D01*
X110619047Y-125161961D02*
X110523809Y-125257200D01*
X110523809Y-125257200D02*
X110380952Y-125304819D01*
X110380952Y-125304819D02*
X110285714Y-125304819D01*
X111095238Y-124400057D02*
X111142857Y-124352438D01*
X111142857Y-124352438D02*
X111238095Y-124304819D01*
X111238095Y-124304819D02*
X111476190Y-124304819D01*
X111476190Y-124304819D02*
X111571428Y-124352438D01*
X111571428Y-124352438D02*
X111619047Y-124400057D01*
X111619047Y-124400057D02*
X111666666Y-124495295D01*
X111666666Y-124495295D02*
X111666666Y-124590533D01*
X111666666Y-124590533D02*
X111619047Y-124733390D01*
X111619047Y-124733390D02*
X111047619Y-125304819D01*
X111047619Y-125304819D02*
X111666666Y-125304819D01*
X114254819Y-135009523D02*
X113254819Y-135009523D01*
X113350057Y-134580952D02*
X113302438Y-134533333D01*
X113302438Y-134533333D02*
X113254819Y-134438095D01*
X113254819Y-134438095D02*
X113254819Y-134200000D01*
X113254819Y-134200000D02*
X113302438Y-134104762D01*
X113302438Y-134104762D02*
X113350057Y-134057143D01*
X113350057Y-134057143D02*
X113445295Y-134009524D01*
X113445295Y-134009524D02*
X113540533Y-134009524D01*
X113540533Y-134009524D02*
X113683390Y-134057143D01*
X113683390Y-134057143D02*
X114254819Y-134628571D01*
X114254819Y-134628571D02*
X114254819Y-134009524D01*
X114159580Y-133009524D02*
X114207200Y-133057143D01*
X114207200Y-133057143D02*
X114254819Y-133200000D01*
X114254819Y-133200000D02*
X114254819Y-133295238D01*
X114254819Y-133295238D02*
X114207200Y-133438095D01*
X114207200Y-133438095D02*
X114111961Y-133533333D01*
X114111961Y-133533333D02*
X114016723Y-133580952D01*
X114016723Y-133580952D02*
X113826247Y-133628571D01*
X113826247Y-133628571D02*
X113683390Y-133628571D01*
X113683390Y-133628571D02*
X113492914Y-133580952D01*
X113492914Y-133580952D02*
X113397676Y-133533333D01*
X113397676Y-133533333D02*
X113302438Y-133438095D01*
X113302438Y-133438095D02*
X113254819Y-133295238D01*
X113254819Y-133295238D02*
X113254819Y-133200000D01*
X113254819Y-133200000D02*
X113302438Y-133057143D01*
X113302438Y-133057143D02*
X113350057Y-133009524D01*
X113254819Y-131628571D02*
X113254819Y-131438095D01*
X113254819Y-131438095D02*
X113302438Y-131342857D01*
X113302438Y-131342857D02*
X113397676Y-131247619D01*
X113397676Y-131247619D02*
X113588152Y-131200000D01*
X113588152Y-131200000D02*
X113921485Y-131200000D01*
X113921485Y-131200000D02*
X114111961Y-131247619D01*
X114111961Y-131247619D02*
X114207200Y-131342857D01*
X114207200Y-131342857D02*
X114254819Y-131438095D01*
X114254819Y-131438095D02*
X114254819Y-131628571D01*
X114254819Y-131628571D02*
X114207200Y-131723809D01*
X114207200Y-131723809D02*
X114111961Y-131819047D01*
X114111961Y-131819047D02*
X113921485Y-131866666D01*
X113921485Y-131866666D02*
X113588152Y-131866666D01*
X113588152Y-131866666D02*
X113397676Y-131819047D01*
X113397676Y-131819047D02*
X113302438Y-131723809D01*
X113302438Y-131723809D02*
X113254819Y-131628571D01*
X113588152Y-130342857D02*
X114254819Y-130342857D01*
X113588152Y-130771428D02*
X114111961Y-130771428D01*
X114111961Y-130771428D02*
X114207200Y-130723809D01*
X114207200Y-130723809D02*
X114254819Y-130628571D01*
X114254819Y-130628571D02*
X114254819Y-130485714D01*
X114254819Y-130485714D02*
X114207200Y-130390476D01*
X114207200Y-130390476D02*
X114159580Y-130342857D01*
X113588152Y-130009523D02*
X113588152Y-129628571D01*
X113254819Y-129866666D02*
X114111961Y-129866666D01*
X114111961Y-129866666D02*
X114207200Y-129819047D01*
X114207200Y-129819047D02*
X114254819Y-129723809D01*
X114254819Y-129723809D02*
X114254819Y-129628571D01*
X113588152Y-129295237D02*
X114588152Y-129295237D01*
X113635771Y-129295237D02*
X113588152Y-129199999D01*
X113588152Y-129199999D02*
X113588152Y-129009523D01*
X113588152Y-129009523D02*
X113635771Y-128914285D01*
X113635771Y-128914285D02*
X113683390Y-128866666D01*
X113683390Y-128866666D02*
X113778628Y-128819047D01*
X113778628Y-128819047D02*
X114064342Y-128819047D01*
X114064342Y-128819047D02*
X114159580Y-128866666D01*
X114159580Y-128866666D02*
X114207200Y-128914285D01*
X114207200Y-128914285D02*
X114254819Y-129009523D01*
X114254819Y-129009523D02*
X114254819Y-129199999D01*
X114254819Y-129199999D02*
X114207200Y-129295237D01*
X113588152Y-127961904D02*
X114254819Y-127961904D01*
X113588152Y-128390475D02*
X114111961Y-128390475D01*
X114111961Y-128390475D02*
X114207200Y-128342856D01*
X114207200Y-128342856D02*
X114254819Y-128247618D01*
X114254819Y-128247618D02*
X114254819Y-128104761D01*
X114254819Y-128104761D02*
X114207200Y-128009523D01*
X114207200Y-128009523D02*
X114159580Y-127961904D01*
X113588152Y-127628570D02*
X113588152Y-127247618D01*
X113254819Y-127485713D02*
X114111961Y-127485713D01*
X114111961Y-127485713D02*
X114207200Y-127438094D01*
X114207200Y-127438094D02*
X114254819Y-127342856D01*
X114254819Y-127342856D02*
X114254819Y-127247618D01*
X144153333Y-134484819D02*
X143820000Y-134008628D01*
X143581905Y-134484819D02*
X143581905Y-133484819D01*
X143581905Y-133484819D02*
X143962857Y-133484819D01*
X143962857Y-133484819D02*
X144058095Y-133532438D01*
X144058095Y-133532438D02*
X144105714Y-133580057D01*
X144105714Y-133580057D02*
X144153333Y-133675295D01*
X144153333Y-133675295D02*
X144153333Y-133818152D01*
X144153333Y-133818152D02*
X144105714Y-133913390D01*
X144105714Y-133913390D02*
X144058095Y-133961009D01*
X144058095Y-133961009D02*
X143962857Y-134008628D01*
X143962857Y-134008628D02*
X143581905Y-134008628D01*
X145010476Y-133484819D02*
X144820000Y-133484819D01*
X144820000Y-133484819D02*
X144724762Y-133532438D01*
X144724762Y-133532438D02*
X144677143Y-133580057D01*
X144677143Y-133580057D02*
X144581905Y-133722914D01*
X144581905Y-133722914D02*
X144534286Y-133913390D01*
X144534286Y-133913390D02*
X144534286Y-134294342D01*
X144534286Y-134294342D02*
X144581905Y-134389580D01*
X144581905Y-134389580D02*
X144629524Y-134437200D01*
X144629524Y-134437200D02*
X144724762Y-134484819D01*
X144724762Y-134484819D02*
X144915238Y-134484819D01*
X144915238Y-134484819D02*
X145010476Y-134437200D01*
X145010476Y-134437200D02*
X145058095Y-134389580D01*
X145058095Y-134389580D02*
X145105714Y-134294342D01*
X145105714Y-134294342D02*
X145105714Y-134056247D01*
X145105714Y-134056247D02*
X145058095Y-133961009D01*
X145058095Y-133961009D02*
X145010476Y-133913390D01*
X145010476Y-133913390D02*
X144915238Y-133865771D01*
X144915238Y-133865771D02*
X144724762Y-133865771D01*
X144724762Y-133865771D02*
X144629524Y-133913390D01*
X144629524Y-133913390D02*
X144581905Y-133961009D01*
X144581905Y-133961009D02*
X144534286Y-134056247D01*
X129594819Y-139238094D02*
X128594819Y-139238094D01*
X128594819Y-139238094D02*
X128594819Y-138999999D01*
X128594819Y-138999999D02*
X128642438Y-138857142D01*
X128642438Y-138857142D02*
X128737676Y-138761904D01*
X128737676Y-138761904D02*
X128832914Y-138714285D01*
X128832914Y-138714285D02*
X129023390Y-138666666D01*
X129023390Y-138666666D02*
X129166247Y-138666666D01*
X129166247Y-138666666D02*
X129356723Y-138714285D01*
X129356723Y-138714285D02*
X129451961Y-138761904D01*
X129451961Y-138761904D02*
X129547200Y-138857142D01*
X129547200Y-138857142D02*
X129594819Y-138999999D01*
X129594819Y-138999999D02*
X129594819Y-139238094D01*
X128594819Y-137761904D02*
X128594819Y-138238094D01*
X128594819Y-138238094D02*
X129071009Y-138285713D01*
X129071009Y-138285713D02*
X129023390Y-138238094D01*
X129023390Y-138238094D02*
X128975771Y-138142856D01*
X128975771Y-138142856D02*
X128975771Y-137904761D01*
X128975771Y-137904761D02*
X129023390Y-137809523D01*
X129023390Y-137809523D02*
X129071009Y-137761904D01*
X129071009Y-137761904D02*
X129166247Y-137714285D01*
X129166247Y-137714285D02*
X129404342Y-137714285D01*
X129404342Y-137714285D02*
X129499580Y-137761904D01*
X129499580Y-137761904D02*
X129547200Y-137809523D01*
X129547200Y-137809523D02*
X129594819Y-137904761D01*
X129594819Y-137904761D02*
X129594819Y-138142856D01*
X129594819Y-138142856D02*
X129547200Y-138238094D01*
X129547200Y-138238094D02*
X129499580Y-138285713D01*
X129266667Y-110277200D02*
X129409524Y-110324819D01*
X129409524Y-110324819D02*
X129647619Y-110324819D01*
X129647619Y-110324819D02*
X129742857Y-110277200D01*
X129742857Y-110277200D02*
X129790476Y-110229580D01*
X129790476Y-110229580D02*
X129838095Y-110134342D01*
X129838095Y-110134342D02*
X129838095Y-110039104D01*
X129838095Y-110039104D02*
X129790476Y-109943866D01*
X129790476Y-109943866D02*
X129742857Y-109896247D01*
X129742857Y-109896247D02*
X129647619Y-109848628D01*
X129647619Y-109848628D02*
X129457143Y-109801009D01*
X129457143Y-109801009D02*
X129361905Y-109753390D01*
X129361905Y-109753390D02*
X129314286Y-109705771D01*
X129314286Y-109705771D02*
X129266667Y-109610533D01*
X129266667Y-109610533D02*
X129266667Y-109515295D01*
X129266667Y-109515295D02*
X129314286Y-109420057D01*
X129314286Y-109420057D02*
X129361905Y-109372438D01*
X129361905Y-109372438D02*
X129457143Y-109324819D01*
X129457143Y-109324819D02*
X129695238Y-109324819D01*
X129695238Y-109324819D02*
X129838095Y-109372438D01*
X130171429Y-109324819D02*
X130409524Y-110324819D01*
X130409524Y-110324819D02*
X130600000Y-109610533D01*
X130600000Y-109610533D02*
X130790476Y-110324819D01*
X130790476Y-110324819D02*
X131028572Y-109324819D01*
X131933333Y-110324819D02*
X131361905Y-110324819D01*
X131647619Y-110324819D02*
X131647619Y-109324819D01*
X131647619Y-109324819D02*
X131552381Y-109467676D01*
X131552381Y-109467676D02*
X131457143Y-109562914D01*
X131457143Y-109562914D02*
X131361905Y-109610533D01*
X117233333Y-85759580D02*
X117185714Y-85807200D01*
X117185714Y-85807200D02*
X117042857Y-85854819D01*
X117042857Y-85854819D02*
X116947619Y-85854819D01*
X116947619Y-85854819D02*
X116804762Y-85807200D01*
X116804762Y-85807200D02*
X116709524Y-85711961D01*
X116709524Y-85711961D02*
X116661905Y-85616723D01*
X116661905Y-85616723D02*
X116614286Y-85426247D01*
X116614286Y-85426247D02*
X116614286Y-85283390D01*
X116614286Y-85283390D02*
X116661905Y-85092914D01*
X116661905Y-85092914D02*
X116709524Y-84997676D01*
X116709524Y-84997676D02*
X116804762Y-84902438D01*
X116804762Y-84902438D02*
X116947619Y-84854819D01*
X116947619Y-84854819D02*
X117042857Y-84854819D01*
X117042857Y-84854819D02*
X117185714Y-84902438D01*
X117185714Y-84902438D02*
X117233333Y-84950057D01*
X118185714Y-85854819D02*
X117614286Y-85854819D01*
X117900000Y-85854819D02*
X117900000Y-84854819D01*
X117900000Y-84854819D02*
X117804762Y-84997676D01*
X117804762Y-84997676D02*
X117709524Y-85092914D01*
X117709524Y-85092914D02*
X117614286Y-85140533D01*
X121282380Y-85834819D02*
X120710952Y-85834819D01*
X120996666Y-85834819D02*
X120996666Y-84834819D01*
X120996666Y-84834819D02*
X120901428Y-84977676D01*
X120901428Y-84977676D02*
X120806190Y-85072914D01*
X120806190Y-85072914D02*
X120710952Y-85120533D01*
X121901428Y-84834819D02*
X121996666Y-84834819D01*
X121996666Y-84834819D02*
X122091904Y-84882438D01*
X122091904Y-84882438D02*
X122139523Y-84930057D01*
X122139523Y-84930057D02*
X122187142Y-85025295D01*
X122187142Y-85025295D02*
X122234761Y-85215771D01*
X122234761Y-85215771D02*
X122234761Y-85453866D01*
X122234761Y-85453866D02*
X122187142Y-85644342D01*
X122187142Y-85644342D02*
X122139523Y-85739580D01*
X122139523Y-85739580D02*
X122091904Y-85787200D01*
X122091904Y-85787200D02*
X121996666Y-85834819D01*
X121996666Y-85834819D02*
X121901428Y-85834819D01*
X121901428Y-85834819D02*
X121806190Y-85787200D01*
X121806190Y-85787200D02*
X121758571Y-85739580D01*
X121758571Y-85739580D02*
X121710952Y-85644342D01*
X121710952Y-85644342D02*
X121663333Y-85453866D01*
X121663333Y-85453866D02*
X121663333Y-85215771D01*
X121663333Y-85215771D02*
X121710952Y-85025295D01*
X121710952Y-85025295D02*
X121758571Y-84930057D01*
X121758571Y-84930057D02*
X121806190Y-84882438D01*
X121806190Y-84882438D02*
X121901428Y-84834819D01*
X122853809Y-84834819D02*
X122949047Y-84834819D01*
X122949047Y-84834819D02*
X123044285Y-84882438D01*
X123044285Y-84882438D02*
X123091904Y-84930057D01*
X123091904Y-84930057D02*
X123139523Y-85025295D01*
X123139523Y-85025295D02*
X123187142Y-85215771D01*
X123187142Y-85215771D02*
X123187142Y-85453866D01*
X123187142Y-85453866D02*
X123139523Y-85644342D01*
X123139523Y-85644342D02*
X123091904Y-85739580D01*
X123091904Y-85739580D02*
X123044285Y-85787200D01*
X123044285Y-85787200D02*
X122949047Y-85834819D01*
X122949047Y-85834819D02*
X122853809Y-85834819D01*
X122853809Y-85834819D02*
X122758571Y-85787200D01*
X122758571Y-85787200D02*
X122710952Y-85739580D01*
X122710952Y-85739580D02*
X122663333Y-85644342D01*
X122663333Y-85644342D02*
X122615714Y-85453866D01*
X122615714Y-85453866D02*
X122615714Y-85215771D01*
X122615714Y-85215771D02*
X122663333Y-85025295D01*
X122663333Y-85025295D02*
X122710952Y-84930057D01*
X122710952Y-84930057D02*
X122758571Y-84882438D01*
X122758571Y-84882438D02*
X122853809Y-84834819D01*
X123615714Y-85168152D02*
X123615714Y-85834819D01*
X123615714Y-85263390D02*
X123663333Y-85215771D01*
X123663333Y-85215771D02*
X123758571Y-85168152D01*
X123758571Y-85168152D02*
X123901428Y-85168152D01*
X123901428Y-85168152D02*
X123996666Y-85215771D01*
X123996666Y-85215771D02*
X124044285Y-85311009D01*
X124044285Y-85311009D02*
X124044285Y-85834819D01*
X124853809Y-85311009D02*
X124520476Y-85311009D01*
X124520476Y-85834819D02*
X124520476Y-84834819D01*
X124520476Y-84834819D02*
X124996666Y-84834819D01*
X129844819Y-126738094D02*
X128844819Y-126738094D01*
X128844819Y-126738094D02*
X128844819Y-126499999D01*
X128844819Y-126499999D02*
X128892438Y-126357142D01*
X128892438Y-126357142D02*
X128987676Y-126261904D01*
X128987676Y-126261904D02*
X129082914Y-126214285D01*
X129082914Y-126214285D02*
X129273390Y-126166666D01*
X129273390Y-126166666D02*
X129416247Y-126166666D01*
X129416247Y-126166666D02*
X129606723Y-126214285D01*
X129606723Y-126214285D02*
X129701961Y-126261904D01*
X129701961Y-126261904D02*
X129797200Y-126357142D01*
X129797200Y-126357142D02*
X129844819Y-126499999D01*
X129844819Y-126499999D02*
X129844819Y-126738094D01*
X129273390Y-125595237D02*
X129225771Y-125690475D01*
X129225771Y-125690475D02*
X129178152Y-125738094D01*
X129178152Y-125738094D02*
X129082914Y-125785713D01*
X129082914Y-125785713D02*
X129035295Y-125785713D01*
X129035295Y-125785713D02*
X128940057Y-125738094D01*
X128940057Y-125738094D02*
X128892438Y-125690475D01*
X128892438Y-125690475D02*
X128844819Y-125595237D01*
X128844819Y-125595237D02*
X128844819Y-125404761D01*
X128844819Y-125404761D02*
X128892438Y-125309523D01*
X128892438Y-125309523D02*
X128940057Y-125261904D01*
X128940057Y-125261904D02*
X129035295Y-125214285D01*
X129035295Y-125214285D02*
X129082914Y-125214285D01*
X129082914Y-125214285D02*
X129178152Y-125261904D01*
X129178152Y-125261904D02*
X129225771Y-125309523D01*
X129225771Y-125309523D02*
X129273390Y-125404761D01*
X129273390Y-125404761D02*
X129273390Y-125595237D01*
X129273390Y-125595237D02*
X129321009Y-125690475D01*
X129321009Y-125690475D02*
X129368628Y-125738094D01*
X129368628Y-125738094D02*
X129463866Y-125785713D01*
X129463866Y-125785713D02*
X129654342Y-125785713D01*
X129654342Y-125785713D02*
X129749580Y-125738094D01*
X129749580Y-125738094D02*
X129797200Y-125690475D01*
X129797200Y-125690475D02*
X129844819Y-125595237D01*
X129844819Y-125595237D02*
X129844819Y-125404761D01*
X129844819Y-125404761D02*
X129797200Y-125309523D01*
X129797200Y-125309523D02*
X129749580Y-125261904D01*
X129749580Y-125261904D02*
X129654342Y-125214285D01*
X129654342Y-125214285D02*
X129463866Y-125214285D01*
X129463866Y-125214285D02*
X129368628Y-125261904D01*
X129368628Y-125261904D02*
X129321009Y-125309523D01*
X129321009Y-125309523D02*
X129273390Y-125404761D01*
X143813333Y-104744819D02*
X143480000Y-104268628D01*
X143241905Y-104744819D02*
X143241905Y-103744819D01*
X143241905Y-103744819D02*
X143622857Y-103744819D01*
X143622857Y-103744819D02*
X143718095Y-103792438D01*
X143718095Y-103792438D02*
X143765714Y-103840057D01*
X143765714Y-103840057D02*
X143813333Y-103935295D01*
X143813333Y-103935295D02*
X143813333Y-104078152D01*
X143813333Y-104078152D02*
X143765714Y-104173390D01*
X143765714Y-104173390D02*
X143718095Y-104221009D01*
X143718095Y-104221009D02*
X143622857Y-104268628D01*
X143622857Y-104268628D02*
X143241905Y-104268628D01*
X144765714Y-104744819D02*
X144194286Y-104744819D01*
X144480000Y-104744819D02*
X144480000Y-103744819D01*
X144480000Y-103744819D02*
X144384762Y-103887676D01*
X144384762Y-103887676D02*
X144289524Y-103982914D01*
X144289524Y-103982914D02*
X144194286Y-104030533D01*
X129924819Y-94538094D02*
X128924819Y-94538094D01*
X128924819Y-94538094D02*
X128924819Y-94299999D01*
X128924819Y-94299999D02*
X128972438Y-94157142D01*
X128972438Y-94157142D02*
X129067676Y-94061904D01*
X129067676Y-94061904D02*
X129162914Y-94014285D01*
X129162914Y-94014285D02*
X129353390Y-93966666D01*
X129353390Y-93966666D02*
X129496247Y-93966666D01*
X129496247Y-93966666D02*
X129686723Y-94014285D01*
X129686723Y-94014285D02*
X129781961Y-94061904D01*
X129781961Y-94061904D02*
X129877200Y-94157142D01*
X129877200Y-94157142D02*
X129924819Y-94299999D01*
X129924819Y-94299999D02*
X129924819Y-94538094D01*
X129258152Y-93109523D02*
X129924819Y-93109523D01*
X128877200Y-93347618D02*
X129591485Y-93585713D01*
X129591485Y-93585713D02*
X129591485Y-92966666D01*
X119298095Y-88834819D02*
X119298095Y-89644342D01*
X119298095Y-89644342D02*
X119345714Y-89739580D01*
X119345714Y-89739580D02*
X119393333Y-89787200D01*
X119393333Y-89787200D02*
X119488571Y-89834819D01*
X119488571Y-89834819D02*
X119679047Y-89834819D01*
X119679047Y-89834819D02*
X119774285Y-89787200D01*
X119774285Y-89787200D02*
X119821904Y-89739580D01*
X119821904Y-89739580D02*
X119869523Y-89644342D01*
X119869523Y-89644342D02*
X119869523Y-88834819D01*
X120869523Y-89834819D02*
X120298095Y-89834819D01*
X120583809Y-89834819D02*
X120583809Y-88834819D01*
X120583809Y-88834819D02*
X120488571Y-88977676D01*
X120488571Y-88977676D02*
X120393333Y-89072914D01*
X120393333Y-89072914D02*
X120298095Y-89120533D01*
X114821905Y-114814819D02*
X114821905Y-113814819D01*
X114821905Y-113814819D02*
X115155238Y-114529104D01*
X115155238Y-114529104D02*
X115488571Y-113814819D01*
X115488571Y-113814819D02*
X115488571Y-114814819D01*
X116536190Y-114719580D02*
X116488571Y-114767200D01*
X116488571Y-114767200D02*
X116345714Y-114814819D01*
X116345714Y-114814819D02*
X116250476Y-114814819D01*
X116250476Y-114814819D02*
X116107619Y-114767200D01*
X116107619Y-114767200D02*
X116012381Y-114671961D01*
X116012381Y-114671961D02*
X115964762Y-114576723D01*
X115964762Y-114576723D02*
X115917143Y-114386247D01*
X115917143Y-114386247D02*
X115917143Y-114243390D01*
X115917143Y-114243390D02*
X115964762Y-114052914D01*
X115964762Y-114052914D02*
X116012381Y-113957676D01*
X116012381Y-113957676D02*
X116107619Y-113862438D01*
X116107619Y-113862438D02*
X116250476Y-113814819D01*
X116250476Y-113814819D02*
X116345714Y-113814819D01*
X116345714Y-113814819D02*
X116488571Y-113862438D01*
X116488571Y-113862438D02*
X116536190Y-113910057D01*
X116964762Y-114814819D02*
X116964762Y-113814819D01*
X116964762Y-113814819D02*
X117345714Y-113814819D01*
X117345714Y-113814819D02*
X117440952Y-113862438D01*
X117440952Y-113862438D02*
X117488571Y-113910057D01*
X117488571Y-113910057D02*
X117536190Y-114005295D01*
X117536190Y-114005295D02*
X117536190Y-114148152D01*
X117536190Y-114148152D02*
X117488571Y-114243390D01*
X117488571Y-114243390D02*
X117440952Y-114291009D01*
X117440952Y-114291009D02*
X117345714Y-114338628D01*
X117345714Y-114338628D02*
X116964762Y-114338628D01*
X117917143Y-113910057D02*
X117964762Y-113862438D01*
X117964762Y-113862438D02*
X118060000Y-113814819D01*
X118060000Y-113814819D02*
X118298095Y-113814819D01*
X118298095Y-113814819D02*
X118393333Y-113862438D01*
X118393333Y-113862438D02*
X118440952Y-113910057D01*
X118440952Y-113910057D02*
X118488571Y-114005295D01*
X118488571Y-114005295D02*
X118488571Y-114100533D01*
X118488571Y-114100533D02*
X118440952Y-114243390D01*
X118440952Y-114243390D02*
X117869524Y-114814819D01*
X117869524Y-114814819D02*
X118488571Y-114814819D01*
X118821905Y-113814819D02*
X119440952Y-113814819D01*
X119440952Y-113814819D02*
X119107619Y-114195771D01*
X119107619Y-114195771D02*
X119250476Y-114195771D01*
X119250476Y-114195771D02*
X119345714Y-114243390D01*
X119345714Y-114243390D02*
X119393333Y-114291009D01*
X119393333Y-114291009D02*
X119440952Y-114386247D01*
X119440952Y-114386247D02*
X119440952Y-114624342D01*
X119440952Y-114624342D02*
X119393333Y-114719580D01*
X119393333Y-114719580D02*
X119345714Y-114767200D01*
X119345714Y-114767200D02*
X119250476Y-114814819D01*
X119250476Y-114814819D02*
X118964762Y-114814819D01*
X118964762Y-114814819D02*
X118869524Y-114767200D01*
X118869524Y-114767200D02*
X118821905Y-114719580D01*
X120060000Y-113814819D02*
X120155238Y-113814819D01*
X120155238Y-113814819D02*
X120250476Y-113862438D01*
X120250476Y-113862438D02*
X120298095Y-113910057D01*
X120298095Y-113910057D02*
X120345714Y-114005295D01*
X120345714Y-114005295D02*
X120393333Y-114195771D01*
X120393333Y-114195771D02*
X120393333Y-114433866D01*
X120393333Y-114433866D02*
X120345714Y-114624342D01*
X120345714Y-114624342D02*
X120298095Y-114719580D01*
X120298095Y-114719580D02*
X120250476Y-114767200D01*
X120250476Y-114767200D02*
X120155238Y-114814819D01*
X120155238Y-114814819D02*
X120060000Y-114814819D01*
X120060000Y-114814819D02*
X119964762Y-114767200D01*
X119964762Y-114767200D02*
X119917143Y-114719580D01*
X119917143Y-114719580D02*
X119869524Y-114624342D01*
X119869524Y-114624342D02*
X119821905Y-114433866D01*
X119821905Y-114433866D02*
X119821905Y-114195771D01*
X119821905Y-114195771D02*
X119869524Y-114005295D01*
X119869524Y-114005295D02*
X119917143Y-113910057D01*
X119917143Y-113910057D02*
X119964762Y-113862438D01*
X119964762Y-113862438D02*
X120060000Y-113814819D01*
X121012381Y-113814819D02*
X121107619Y-113814819D01*
X121107619Y-113814819D02*
X121202857Y-113862438D01*
X121202857Y-113862438D02*
X121250476Y-113910057D01*
X121250476Y-113910057D02*
X121298095Y-114005295D01*
X121298095Y-114005295D02*
X121345714Y-114195771D01*
X121345714Y-114195771D02*
X121345714Y-114433866D01*
X121345714Y-114433866D02*
X121298095Y-114624342D01*
X121298095Y-114624342D02*
X121250476Y-114719580D01*
X121250476Y-114719580D02*
X121202857Y-114767200D01*
X121202857Y-114767200D02*
X121107619Y-114814819D01*
X121107619Y-114814819D02*
X121012381Y-114814819D01*
X121012381Y-114814819D02*
X120917143Y-114767200D01*
X120917143Y-114767200D02*
X120869524Y-114719580D01*
X120869524Y-114719580D02*
X120821905Y-114624342D01*
X120821905Y-114624342D02*
X120774286Y-114433866D01*
X120774286Y-114433866D02*
X120774286Y-114195771D01*
X120774286Y-114195771D02*
X120821905Y-114005295D01*
X120821905Y-114005295D02*
X120869524Y-113910057D01*
X120869524Y-113910057D02*
X120917143Y-113862438D01*
X120917143Y-113862438D02*
X121012381Y-113814819D01*
X121917143Y-114243390D02*
X121821905Y-114195771D01*
X121821905Y-114195771D02*
X121774286Y-114148152D01*
X121774286Y-114148152D02*
X121726667Y-114052914D01*
X121726667Y-114052914D02*
X121726667Y-114005295D01*
X121726667Y-114005295D02*
X121774286Y-113910057D01*
X121774286Y-113910057D02*
X121821905Y-113862438D01*
X121821905Y-113862438D02*
X121917143Y-113814819D01*
X121917143Y-113814819D02*
X122107619Y-113814819D01*
X122107619Y-113814819D02*
X122202857Y-113862438D01*
X122202857Y-113862438D02*
X122250476Y-113910057D01*
X122250476Y-113910057D02*
X122298095Y-114005295D01*
X122298095Y-114005295D02*
X122298095Y-114052914D01*
X122298095Y-114052914D02*
X122250476Y-114148152D01*
X122250476Y-114148152D02*
X122202857Y-114195771D01*
X122202857Y-114195771D02*
X122107619Y-114243390D01*
X122107619Y-114243390D02*
X121917143Y-114243390D01*
X121917143Y-114243390D02*
X121821905Y-114291009D01*
X121821905Y-114291009D02*
X121774286Y-114338628D01*
X121774286Y-114338628D02*
X121726667Y-114433866D01*
X121726667Y-114433866D02*
X121726667Y-114624342D01*
X121726667Y-114624342D02*
X121774286Y-114719580D01*
X121774286Y-114719580D02*
X121821905Y-114767200D01*
X121821905Y-114767200D02*
X121917143Y-114814819D01*
X121917143Y-114814819D02*
X122107619Y-114814819D01*
X122107619Y-114814819D02*
X122202857Y-114767200D01*
X122202857Y-114767200D02*
X122250476Y-114719580D01*
X122250476Y-114719580D02*
X122298095Y-114624342D01*
X122298095Y-114624342D02*
X122298095Y-114433866D01*
X122298095Y-114433866D02*
X122250476Y-114338628D01*
X122250476Y-114338628D02*
X122202857Y-114291009D01*
X122202857Y-114291009D02*
X122107619Y-114243390D01*
X122726667Y-114433866D02*
X123488572Y-114433866D01*
X123869524Y-114814819D02*
X124393333Y-114148152D01*
X123869524Y-114148152D02*
X124393333Y-114814819D01*
X124774286Y-114814819D02*
X124774286Y-113814819D01*
X124774286Y-113814819D02*
X125155238Y-113814819D01*
X125155238Y-113814819D02*
X125250476Y-113862438D01*
X125250476Y-113862438D02*
X125298095Y-113910057D01*
X125298095Y-113910057D02*
X125345714Y-114005295D01*
X125345714Y-114005295D02*
X125345714Y-114148152D01*
X125345714Y-114148152D02*
X125298095Y-114243390D01*
X125298095Y-114243390D02*
X125250476Y-114291009D01*
X125250476Y-114291009D02*
X125155238Y-114338628D01*
X125155238Y-114338628D02*
X124774286Y-114338628D01*
X143813333Y-94254819D02*
X143480000Y-93778628D01*
X143241905Y-94254819D02*
X143241905Y-93254819D01*
X143241905Y-93254819D02*
X143622857Y-93254819D01*
X143622857Y-93254819D02*
X143718095Y-93302438D01*
X143718095Y-93302438D02*
X143765714Y-93350057D01*
X143765714Y-93350057D02*
X143813333Y-93445295D01*
X143813333Y-93445295D02*
X143813333Y-93588152D01*
X143813333Y-93588152D02*
X143765714Y-93683390D01*
X143765714Y-93683390D02*
X143718095Y-93731009D01*
X143718095Y-93731009D02*
X143622857Y-93778628D01*
X143622857Y-93778628D02*
X143241905Y-93778628D01*
X144670476Y-93588152D02*
X144670476Y-94254819D01*
X144432381Y-93207200D02*
X144194286Y-93921485D01*
X144194286Y-93921485D02*
X144813333Y-93921485D01*
X119178095Y-124844819D02*
X119178095Y-125654342D01*
X119178095Y-125654342D02*
X119225714Y-125749580D01*
X119225714Y-125749580D02*
X119273333Y-125797200D01*
X119273333Y-125797200D02*
X119368571Y-125844819D01*
X119368571Y-125844819D02*
X119559047Y-125844819D01*
X119559047Y-125844819D02*
X119654285Y-125797200D01*
X119654285Y-125797200D02*
X119701904Y-125749580D01*
X119701904Y-125749580D02*
X119749523Y-125654342D01*
X119749523Y-125654342D02*
X119749523Y-124844819D01*
X120178095Y-124940057D02*
X120225714Y-124892438D01*
X120225714Y-124892438D02*
X120320952Y-124844819D01*
X120320952Y-124844819D02*
X120559047Y-124844819D01*
X120559047Y-124844819D02*
X120654285Y-124892438D01*
X120654285Y-124892438D02*
X120701904Y-124940057D01*
X120701904Y-124940057D02*
X120749523Y-125035295D01*
X120749523Y-125035295D02*
X120749523Y-125130533D01*
X120749523Y-125130533D02*
X120701904Y-125273390D01*
X120701904Y-125273390D02*
X120130476Y-125844819D01*
X120130476Y-125844819D02*
X120749523Y-125844819D01*
X114701905Y-150824819D02*
X114701905Y-149824819D01*
X114701905Y-149824819D02*
X115035238Y-150539104D01*
X115035238Y-150539104D02*
X115368571Y-149824819D01*
X115368571Y-149824819D02*
X115368571Y-150824819D01*
X116416190Y-150729580D02*
X116368571Y-150777200D01*
X116368571Y-150777200D02*
X116225714Y-150824819D01*
X116225714Y-150824819D02*
X116130476Y-150824819D01*
X116130476Y-150824819D02*
X115987619Y-150777200D01*
X115987619Y-150777200D02*
X115892381Y-150681961D01*
X115892381Y-150681961D02*
X115844762Y-150586723D01*
X115844762Y-150586723D02*
X115797143Y-150396247D01*
X115797143Y-150396247D02*
X115797143Y-150253390D01*
X115797143Y-150253390D02*
X115844762Y-150062914D01*
X115844762Y-150062914D02*
X115892381Y-149967676D01*
X115892381Y-149967676D02*
X115987619Y-149872438D01*
X115987619Y-149872438D02*
X116130476Y-149824819D01*
X116130476Y-149824819D02*
X116225714Y-149824819D01*
X116225714Y-149824819D02*
X116368571Y-149872438D01*
X116368571Y-149872438D02*
X116416190Y-149920057D01*
X116844762Y-150824819D02*
X116844762Y-149824819D01*
X116844762Y-149824819D02*
X117225714Y-149824819D01*
X117225714Y-149824819D02*
X117320952Y-149872438D01*
X117320952Y-149872438D02*
X117368571Y-149920057D01*
X117368571Y-149920057D02*
X117416190Y-150015295D01*
X117416190Y-150015295D02*
X117416190Y-150158152D01*
X117416190Y-150158152D02*
X117368571Y-150253390D01*
X117368571Y-150253390D02*
X117320952Y-150301009D01*
X117320952Y-150301009D02*
X117225714Y-150348628D01*
X117225714Y-150348628D02*
X116844762Y-150348628D01*
X117797143Y-149920057D02*
X117844762Y-149872438D01*
X117844762Y-149872438D02*
X117940000Y-149824819D01*
X117940000Y-149824819D02*
X118178095Y-149824819D01*
X118178095Y-149824819D02*
X118273333Y-149872438D01*
X118273333Y-149872438D02*
X118320952Y-149920057D01*
X118320952Y-149920057D02*
X118368571Y-150015295D01*
X118368571Y-150015295D02*
X118368571Y-150110533D01*
X118368571Y-150110533D02*
X118320952Y-150253390D01*
X118320952Y-150253390D02*
X117749524Y-150824819D01*
X117749524Y-150824819D02*
X118368571Y-150824819D01*
X118701905Y-149824819D02*
X119320952Y-149824819D01*
X119320952Y-149824819D02*
X118987619Y-150205771D01*
X118987619Y-150205771D02*
X119130476Y-150205771D01*
X119130476Y-150205771D02*
X119225714Y-150253390D01*
X119225714Y-150253390D02*
X119273333Y-150301009D01*
X119273333Y-150301009D02*
X119320952Y-150396247D01*
X119320952Y-150396247D02*
X119320952Y-150634342D01*
X119320952Y-150634342D02*
X119273333Y-150729580D01*
X119273333Y-150729580D02*
X119225714Y-150777200D01*
X119225714Y-150777200D02*
X119130476Y-150824819D01*
X119130476Y-150824819D02*
X118844762Y-150824819D01*
X118844762Y-150824819D02*
X118749524Y-150777200D01*
X118749524Y-150777200D02*
X118701905Y-150729580D01*
X119940000Y-149824819D02*
X120035238Y-149824819D01*
X120035238Y-149824819D02*
X120130476Y-149872438D01*
X120130476Y-149872438D02*
X120178095Y-149920057D01*
X120178095Y-149920057D02*
X120225714Y-150015295D01*
X120225714Y-150015295D02*
X120273333Y-150205771D01*
X120273333Y-150205771D02*
X120273333Y-150443866D01*
X120273333Y-150443866D02*
X120225714Y-150634342D01*
X120225714Y-150634342D02*
X120178095Y-150729580D01*
X120178095Y-150729580D02*
X120130476Y-150777200D01*
X120130476Y-150777200D02*
X120035238Y-150824819D01*
X120035238Y-150824819D02*
X119940000Y-150824819D01*
X119940000Y-150824819D02*
X119844762Y-150777200D01*
X119844762Y-150777200D02*
X119797143Y-150729580D01*
X119797143Y-150729580D02*
X119749524Y-150634342D01*
X119749524Y-150634342D02*
X119701905Y-150443866D01*
X119701905Y-150443866D02*
X119701905Y-150205771D01*
X119701905Y-150205771D02*
X119749524Y-150015295D01*
X119749524Y-150015295D02*
X119797143Y-149920057D01*
X119797143Y-149920057D02*
X119844762Y-149872438D01*
X119844762Y-149872438D02*
X119940000Y-149824819D01*
X120892381Y-149824819D02*
X120987619Y-149824819D01*
X120987619Y-149824819D02*
X121082857Y-149872438D01*
X121082857Y-149872438D02*
X121130476Y-149920057D01*
X121130476Y-149920057D02*
X121178095Y-150015295D01*
X121178095Y-150015295D02*
X121225714Y-150205771D01*
X121225714Y-150205771D02*
X121225714Y-150443866D01*
X121225714Y-150443866D02*
X121178095Y-150634342D01*
X121178095Y-150634342D02*
X121130476Y-150729580D01*
X121130476Y-150729580D02*
X121082857Y-150777200D01*
X121082857Y-150777200D02*
X120987619Y-150824819D01*
X120987619Y-150824819D02*
X120892381Y-150824819D01*
X120892381Y-150824819D02*
X120797143Y-150777200D01*
X120797143Y-150777200D02*
X120749524Y-150729580D01*
X120749524Y-150729580D02*
X120701905Y-150634342D01*
X120701905Y-150634342D02*
X120654286Y-150443866D01*
X120654286Y-150443866D02*
X120654286Y-150205771D01*
X120654286Y-150205771D02*
X120701905Y-150015295D01*
X120701905Y-150015295D02*
X120749524Y-149920057D01*
X120749524Y-149920057D02*
X120797143Y-149872438D01*
X120797143Y-149872438D02*
X120892381Y-149824819D01*
X121797143Y-150253390D02*
X121701905Y-150205771D01*
X121701905Y-150205771D02*
X121654286Y-150158152D01*
X121654286Y-150158152D02*
X121606667Y-150062914D01*
X121606667Y-150062914D02*
X121606667Y-150015295D01*
X121606667Y-150015295D02*
X121654286Y-149920057D01*
X121654286Y-149920057D02*
X121701905Y-149872438D01*
X121701905Y-149872438D02*
X121797143Y-149824819D01*
X121797143Y-149824819D02*
X121987619Y-149824819D01*
X121987619Y-149824819D02*
X122082857Y-149872438D01*
X122082857Y-149872438D02*
X122130476Y-149920057D01*
X122130476Y-149920057D02*
X122178095Y-150015295D01*
X122178095Y-150015295D02*
X122178095Y-150062914D01*
X122178095Y-150062914D02*
X122130476Y-150158152D01*
X122130476Y-150158152D02*
X122082857Y-150205771D01*
X122082857Y-150205771D02*
X121987619Y-150253390D01*
X121987619Y-150253390D02*
X121797143Y-150253390D01*
X121797143Y-150253390D02*
X121701905Y-150301009D01*
X121701905Y-150301009D02*
X121654286Y-150348628D01*
X121654286Y-150348628D02*
X121606667Y-150443866D01*
X121606667Y-150443866D02*
X121606667Y-150634342D01*
X121606667Y-150634342D02*
X121654286Y-150729580D01*
X121654286Y-150729580D02*
X121701905Y-150777200D01*
X121701905Y-150777200D02*
X121797143Y-150824819D01*
X121797143Y-150824819D02*
X121987619Y-150824819D01*
X121987619Y-150824819D02*
X122082857Y-150777200D01*
X122082857Y-150777200D02*
X122130476Y-150729580D01*
X122130476Y-150729580D02*
X122178095Y-150634342D01*
X122178095Y-150634342D02*
X122178095Y-150443866D01*
X122178095Y-150443866D02*
X122130476Y-150348628D01*
X122130476Y-150348628D02*
X122082857Y-150301009D01*
X122082857Y-150301009D02*
X121987619Y-150253390D01*
X122606667Y-150443866D02*
X123368572Y-150443866D01*
X123749524Y-150824819D02*
X124273333Y-150158152D01*
X123749524Y-150158152D02*
X124273333Y-150824819D01*
X124654286Y-150824819D02*
X124654286Y-149824819D01*
X124654286Y-149824819D02*
X125035238Y-149824819D01*
X125035238Y-149824819D02*
X125130476Y-149872438D01*
X125130476Y-149872438D02*
X125178095Y-149920057D01*
X125178095Y-149920057D02*
X125225714Y-150015295D01*
X125225714Y-150015295D02*
X125225714Y-150158152D01*
X125225714Y-150158152D02*
X125178095Y-150253390D01*
X125178095Y-150253390D02*
X125130476Y-150301009D01*
X125130476Y-150301009D02*
X125035238Y-150348628D01*
X125035238Y-150348628D02*
X124654286Y-150348628D01*
X143693333Y-97484819D02*
X143360000Y-97008628D01*
X143121905Y-97484819D02*
X143121905Y-96484819D01*
X143121905Y-96484819D02*
X143502857Y-96484819D01*
X143502857Y-96484819D02*
X143598095Y-96532438D01*
X143598095Y-96532438D02*
X143645714Y-96580057D01*
X143645714Y-96580057D02*
X143693333Y-96675295D01*
X143693333Y-96675295D02*
X143693333Y-96818152D01*
X143693333Y-96818152D02*
X143645714Y-96913390D01*
X143645714Y-96913390D02*
X143598095Y-96961009D01*
X143598095Y-96961009D02*
X143502857Y-97008628D01*
X143502857Y-97008628D02*
X143121905Y-97008628D01*
X144026667Y-96484819D02*
X144645714Y-96484819D01*
X144645714Y-96484819D02*
X144312381Y-96865771D01*
X144312381Y-96865771D02*
X144455238Y-96865771D01*
X144455238Y-96865771D02*
X144550476Y-96913390D01*
X144550476Y-96913390D02*
X144598095Y-96961009D01*
X144598095Y-96961009D02*
X144645714Y-97056247D01*
X144645714Y-97056247D02*
X144645714Y-97294342D01*
X144645714Y-97294342D02*
X144598095Y-97389580D01*
X144598095Y-97389580D02*
X144550476Y-97437200D01*
X144550476Y-97437200D02*
X144455238Y-97484819D01*
X144455238Y-97484819D02*
X144169524Y-97484819D01*
X144169524Y-97484819D02*
X144074286Y-97437200D01*
X144074286Y-97437200D02*
X144026667Y-97389580D01*
X129964819Y-105763094D02*
X128964819Y-105763094D01*
X128964819Y-105763094D02*
X128964819Y-105524999D01*
X128964819Y-105524999D02*
X129012438Y-105382142D01*
X129012438Y-105382142D02*
X129107676Y-105286904D01*
X129107676Y-105286904D02*
X129202914Y-105239285D01*
X129202914Y-105239285D02*
X129393390Y-105191666D01*
X129393390Y-105191666D02*
X129536247Y-105191666D01*
X129536247Y-105191666D02*
X129726723Y-105239285D01*
X129726723Y-105239285D02*
X129821961Y-105286904D01*
X129821961Y-105286904D02*
X129917200Y-105382142D01*
X129917200Y-105382142D02*
X129964819Y-105524999D01*
X129964819Y-105524999D02*
X129964819Y-105763094D01*
X129964819Y-104239285D02*
X129964819Y-104810713D01*
X129964819Y-104524999D02*
X128964819Y-104524999D01*
X128964819Y-104524999D02*
X129107676Y-104620237D01*
X129107676Y-104620237D02*
X129202914Y-104715475D01*
X129202914Y-104715475D02*
X129250533Y-104810713D01*
D14*
%TO.C,D3*%
X130470000Y-98880000D02*
X130470000Y-97550000D01*
X131800000Y-98880000D02*
X130470000Y-98880000D01*
X133070000Y-98880000D02*
X135670000Y-98880000D01*
X133070000Y-98880000D02*
X133070000Y-96220000D01*
X135670000Y-98880000D02*
X135670000Y-96220000D01*
X133070000Y-96220000D02*
X135670000Y-96220000D01*
%TO.C,SW2*%
X133670000Y-110915000D02*
X135000000Y-110915000D01*
X133670000Y-112245000D02*
X133670000Y-110915000D01*
X133670000Y-113515000D02*
X133670000Y-118655000D01*
X133670000Y-113515000D02*
X136330000Y-113515000D01*
X133670000Y-118655000D02*
X136330000Y-118655000D01*
X136330000Y-113515000D02*
X136330000Y-118655000D01*
%TO.C,R2*%
X140075000Y-100600000D02*
X140005000Y-100600000D01*
X142815000Y-100600000D02*
G75*
G03*
X142815000Y-100600000I-1370000J0D01*
G01*
%TO.C,SW4*%
X142270000Y-111115000D02*
X143600000Y-111115000D01*
X142270000Y-112445000D02*
X142270000Y-111115000D01*
X142270000Y-113715000D02*
X142270000Y-118855000D01*
X142270000Y-113715000D02*
X144930000Y-113715000D01*
X142270000Y-118855000D02*
X144930000Y-118855000D01*
X144930000Y-113715000D02*
X144930000Y-118855000D01*
%TO.C,D6*%
X130140000Y-135580000D02*
X130140000Y-134250000D01*
X131470000Y-135580000D02*
X130140000Y-135580000D01*
X132740000Y-135580000D02*
X135340000Y-135580000D01*
X132740000Y-135580000D02*
X132740000Y-132920000D01*
X135340000Y-135580000D02*
X135340000Y-132920000D01*
X132740000Y-132920000D02*
X135340000Y-132920000D01*
%TO.C,R7*%
X140430000Y-130000000D02*
X140360000Y-130000000D01*
X143170000Y-130000000D02*
G75*
G03*
X143170000Y-130000000I-1370000J0D01*
G01*
%TO.C,D2*%
X130470000Y-102630000D02*
X130470000Y-101300000D01*
X131800000Y-102630000D02*
X130470000Y-102630000D01*
X133070000Y-102630000D02*
X135670000Y-102630000D01*
X133070000Y-102630000D02*
X133070000Y-99970000D01*
X135670000Y-102630000D02*
X135670000Y-99970000D01*
X133070000Y-99970000D02*
X135670000Y-99970000D01*
%TO.C,R8*%
X140430000Y-126000000D02*
X140360000Y-126000000D01*
X143170000Y-126000000D02*
G75*
G03*
X143170000Y-126000000I-1370000J0D01*
G01*
%TO.C,R5*%
X140430000Y-138000000D02*
X140360000Y-138000000D01*
X143170000Y-138000000D02*
G75*
G03*
X143170000Y-138000000I-1370000J0D01*
G01*
%TO.C,SW3*%
X138070000Y-111115000D02*
X139400000Y-111115000D01*
X138070000Y-112445000D02*
X138070000Y-111115000D01*
X138070000Y-113715000D02*
X138070000Y-118855000D01*
X138070000Y-113715000D02*
X140730000Y-113715000D01*
X138070000Y-118855000D02*
X140730000Y-118855000D01*
X140730000Y-113715000D02*
X140730000Y-118855000D01*
%TO.C,D7*%
X130390000Y-131580000D02*
X130390000Y-130250000D01*
X131720000Y-131580000D02*
X130390000Y-131580000D01*
X132990000Y-131580000D02*
X135590000Y-131580000D01*
X132990000Y-131580000D02*
X132990000Y-128920000D01*
X135590000Y-131580000D02*
X135590000Y-128920000D01*
X132990000Y-128920000D02*
X135590000Y-128920000D01*
%TO.C,J1*%
X109670000Y-106250000D02*
X111000000Y-106250000D01*
X109670000Y-107580000D02*
X109670000Y-106250000D01*
X109670000Y-108850000D02*
X109670000Y-116530000D01*
X109670000Y-108850000D02*
X112330000Y-108850000D01*
X109670000Y-116530000D02*
X112330000Y-116530000D01*
X112330000Y-108850000D02*
X112330000Y-116530000D01*
%TO.C,C2*%
X122170000Y-124070000D02*
X122170000Y-124055000D01*
X122170000Y-124070000D02*
X117630000Y-124070000D01*
X122170000Y-121945000D02*
X122170000Y-121930000D01*
X122170000Y-121930000D02*
X117630000Y-121930000D01*
X117630000Y-124070000D02*
X117630000Y-124055000D01*
X117630000Y-121945000D02*
X117630000Y-121930000D01*
%TO.C,J2*%
X109670000Y-125850000D02*
X111000000Y-125850000D01*
X109670000Y-127180000D02*
X109670000Y-125850000D01*
X109670000Y-128450000D02*
X109670000Y-136130000D01*
X109670000Y-128450000D02*
X112330000Y-128450000D01*
X109670000Y-136130000D02*
X112330000Y-136130000D01*
X112330000Y-128450000D02*
X112330000Y-136130000D01*
%TO.C,R6*%
X140430000Y-134000000D02*
X140360000Y-134000000D01*
X143170000Y-134000000D02*
G75*
G03*
X143170000Y-134000000I-1370000J0D01*
G01*
%TO.C,D5*%
X130140000Y-139830000D02*
X130140000Y-138500000D01*
X131470000Y-139830000D02*
X130140000Y-139830000D01*
X132740000Y-139830000D02*
X135340000Y-139830000D01*
X132740000Y-139830000D02*
X132740000Y-137170000D01*
X135340000Y-139830000D02*
X135340000Y-137170000D01*
X132740000Y-137170000D02*
X135340000Y-137170000D01*
%TO.C,SW1*%
X129270000Y-110870000D02*
X130600000Y-110870000D01*
X129270000Y-112200000D02*
X129270000Y-110870000D01*
X129270000Y-113470000D02*
X129270000Y-118610000D01*
X129270000Y-113470000D02*
X131930000Y-113470000D01*
X129270000Y-118610000D02*
X131930000Y-118610000D01*
X131930000Y-113470000D02*
X131930000Y-118610000D01*
%TO.C,C1*%
X122570000Y-88470000D02*
X122570000Y-88455000D01*
X122570000Y-88470000D02*
X118030000Y-88470000D01*
X122570000Y-86345000D02*
X122570000Y-86330000D01*
X122570000Y-86330000D02*
X118030000Y-86330000D01*
X118030000Y-88470000D02*
X118030000Y-88455000D01*
X118030000Y-86345000D02*
X118030000Y-86330000D01*
%TO.C,D8*%
X130390000Y-127330000D02*
X130390000Y-126000000D01*
X131720000Y-127330000D02*
X130390000Y-127330000D01*
X132990000Y-127330000D02*
X135590000Y-127330000D01*
X132990000Y-127330000D02*
X132990000Y-124670000D01*
X135590000Y-127330000D02*
X135590000Y-124670000D01*
X132990000Y-124670000D02*
X135590000Y-124670000D01*
%TO.C,R1*%
X140075000Y-104200000D02*
X140005000Y-104200000D01*
X142815000Y-104200000D02*
G75*
G03*
X142815000Y-104200000I-1370000J0D01*
G01*
%TO.C,D4*%
X130470000Y-95130000D02*
X130470000Y-93800000D01*
X131800000Y-95130000D02*
X130470000Y-95130000D01*
X133070000Y-95130000D02*
X135670000Y-95130000D01*
X133070000Y-95130000D02*
X133070000Y-92470000D01*
X135670000Y-95130000D02*
X135670000Y-92470000D01*
X133070000Y-92470000D02*
X135670000Y-92470000D01*
%TO.C,U1*%
X117410000Y-90380000D02*
X117410000Y-113360000D01*
X117410000Y-113360000D02*
X122710000Y-113360000D01*
X119060000Y-90380000D02*
X117410000Y-90380000D01*
X122710000Y-90380000D02*
X121060000Y-90380000D01*
X122710000Y-113360000D02*
X122710000Y-90380000D01*
X119060000Y-90380000D02*
G75*
G03*
X121060000Y-90380000I1000000J0D01*
G01*
%TO.C,R4*%
X140170000Y-93600000D02*
X140100000Y-93600000D01*
X142910000Y-93600000D02*
G75*
G03*
X142910000Y-93600000I-1370000J0D01*
G01*
%TO.C,U2*%
X117290000Y-126390000D02*
X117290000Y-149370000D01*
X117290000Y-149370000D02*
X122590000Y-149370000D01*
X118940000Y-126390000D02*
X117290000Y-126390000D01*
X122590000Y-126390000D02*
X120940000Y-126390000D01*
X122590000Y-149370000D02*
X122590000Y-126390000D01*
X118940000Y-126390000D02*
G75*
G03*
X120940000Y-126390000I1000000J0D01*
G01*
%TO.C,R3*%
X140075000Y-97000000D02*
X140005000Y-97000000D01*
X142815000Y-97000000D02*
G75*
G03*
X142815000Y-97000000I-1370000J0D01*
G01*
%TO.C,D1*%
X130510000Y-106355000D02*
X130510000Y-105025000D01*
X131840000Y-106355000D02*
X130510000Y-106355000D01*
X133110000Y-106355000D02*
X135710000Y-106355000D01*
X133110000Y-106355000D02*
X133110000Y-103695000D01*
X135710000Y-106355000D02*
X135710000Y-103695000D01*
X133110000Y-103695000D02*
X135710000Y-103695000D01*
%TD*%
%LPC*%
D15*
%TO.C,D3*%
X131800000Y-97550000D03*
D16*
X134340000Y-97550000D03*
%TD*%
D17*
%TO.C,H4*%
X143000000Y-148000000D03*
%TD*%
D15*
%TO.C,SW2*%
X135000000Y-112245000D03*
D16*
X135000000Y-114785000D03*
X135000000Y-117325000D03*
%TD*%
D18*
%TO.C,R2*%
X141445000Y-100600000D03*
D19*
X138905000Y-100600000D03*
%TD*%
D17*
%TO.C,H3*%
X110000000Y-148000000D03*
%TD*%
D15*
%TO.C,SW4*%
X143600000Y-112445000D03*
D16*
X143600000Y-114985000D03*
X143600000Y-117525000D03*
%TD*%
D15*
%TO.C,D6*%
X131470000Y-134250000D03*
D16*
X134010000Y-134250000D03*
%TD*%
D18*
%TO.C,R7*%
X141800000Y-130000000D03*
D19*
X139260000Y-130000000D03*
%TD*%
D15*
%TO.C,D2*%
X131800000Y-101300000D03*
D16*
X134340000Y-101300000D03*
%TD*%
D18*
%TO.C,R8*%
X141800000Y-126000000D03*
D19*
X139260000Y-126000000D03*
%TD*%
D18*
%TO.C,R5*%
X141800000Y-138000000D03*
D19*
X139260000Y-138000000D03*
%TD*%
D15*
%TO.C,SW3*%
X139400000Y-112445000D03*
D16*
X139400000Y-114985000D03*
X139400000Y-117525000D03*
%TD*%
D15*
%TO.C,D7*%
X131720000Y-130250000D03*
D16*
X134260000Y-130250000D03*
%TD*%
D15*
%TO.C,J1*%
X111000000Y-107580000D03*
D16*
X111000000Y-110120000D03*
X111000000Y-112660000D03*
X111000000Y-115200000D03*
%TD*%
D18*
%TO.C,C2*%
X122400000Y-123000000D03*
X117400000Y-123000000D03*
%TD*%
D15*
%TO.C,J2*%
X111000000Y-127180000D03*
D16*
X111000000Y-129720000D03*
X111000000Y-132260000D03*
X111000000Y-134800000D03*
%TD*%
D18*
%TO.C,R6*%
X141800000Y-134000000D03*
D19*
X139260000Y-134000000D03*
%TD*%
D15*
%TO.C,D5*%
X131470000Y-138500000D03*
D16*
X134010000Y-138500000D03*
%TD*%
D17*
%TO.C,H1*%
X110000000Y-87400000D03*
%TD*%
D15*
%TO.C,SW1*%
X130600000Y-112200000D03*
D16*
X130600000Y-114740000D03*
X130600000Y-117280000D03*
%TD*%
D18*
%TO.C,C1*%
X122800000Y-87400000D03*
X117800000Y-87400000D03*
%TD*%
D15*
%TO.C,D8*%
X131720000Y-126000000D03*
D16*
X134260000Y-126000000D03*
%TD*%
D18*
%TO.C,R1*%
X141445000Y-104200000D03*
D19*
X138905000Y-104200000D03*
%TD*%
D15*
%TO.C,D4*%
X131800000Y-93800000D03*
D16*
X134340000Y-93800000D03*
%TD*%
D20*
%TO.C,U1*%
X116250000Y-91710000D03*
D19*
X116250000Y-94250000D03*
X116250000Y-96790000D03*
X116250000Y-99330000D03*
X116250000Y-101870000D03*
X116250000Y-104410000D03*
X116250000Y-106950000D03*
X116250000Y-109490000D03*
X116250000Y-112030000D03*
X123870000Y-112030000D03*
X123870000Y-109490000D03*
X123870000Y-106950000D03*
X123870000Y-104410000D03*
X123870000Y-101870000D03*
X123870000Y-99330000D03*
X123870000Y-96790000D03*
X123870000Y-94250000D03*
X123870000Y-91710000D03*
%TD*%
D18*
%TO.C,R4*%
X141540000Y-93600000D03*
D19*
X139000000Y-93600000D03*
%TD*%
D20*
%TO.C,U2*%
X116130000Y-127720000D03*
D19*
X116130000Y-130260000D03*
X116130000Y-132800000D03*
X116130000Y-135340000D03*
X116130000Y-137880000D03*
X116130000Y-140420000D03*
X116130000Y-142960000D03*
X116130000Y-145500000D03*
X116130000Y-148040000D03*
X123750000Y-148040000D03*
X123750000Y-145500000D03*
X123750000Y-142960000D03*
X123750000Y-140420000D03*
X123750000Y-137880000D03*
X123750000Y-135340000D03*
X123750000Y-132800000D03*
X123750000Y-130260000D03*
X123750000Y-127720000D03*
%TD*%
D18*
%TO.C,R3*%
X141445000Y-97000000D03*
D19*
X138905000Y-97000000D03*
%TD*%
D15*
%TO.C,D1*%
X131840000Y-105025000D03*
D16*
X134380000Y-105025000D03*
%TD*%
D17*
%TO.C,H2*%
X143000000Y-87400000D03*
%TD*%
%LPD*%
M02*
