%TF.GenerationSoftware,KiCad,Pcbnew,7.0.7+dfsg-1*%
%TF.CreationDate,2024-04-04T18:04:26+01:00*%
%TF.ProjectId,point-controller-switches,706f696e-742d-4636-9f6e-74726f6c6c65,rev?*%
%TF.SameCoordinates,Original*%
%TF.FileFunction,Drillmap*%
%TF.FilePolarity,Positive*%
%FSLAX45Y45*%
G04 Gerber Fmt 4.5, Leading zero omitted, Abs format (unit mm)*
G04 Created by KiCad (PCBNEW 7.0.7+dfsg-1) date 2024-04-04 18:04:26*
%MOMM*%
%LPD*%
G01*
G04 APERTURE LIST*
%ADD10C,0.100000*%
%ADD11C,0.200000*%
%ADD12C,0.320000*%
G04 APERTURE END LIST*
D10*
X10640000Y-8372500D02*
X14660000Y-8372500D01*
X14660000Y-15152500D01*
X10640000Y-15152500D01*
X10640000Y-8372500D01*
D11*
D12*
X10840000Y-8580000D02*
X11160000Y-8900000D01*
X11160000Y-8580000D02*
X10840000Y-8900000D01*
X10840000Y-14640000D02*
X11160000Y-14960000D01*
X11160000Y-14640000D02*
X10840000Y-14960000D01*
X14140000Y-8580000D02*
X14460000Y-8900000D01*
X14460000Y-8580000D02*
X14140000Y-8900000D01*
X14140000Y-14640000D02*
X14460000Y-14960000D01*
X14460000Y-14640000D02*
X14140000Y-14960000D01*
D11*
X10895777Y-15468984D02*
X10895777Y-15268984D01*
X10895777Y-15268984D02*
X10943396Y-15268984D01*
X10943396Y-15268984D02*
X10971967Y-15278508D01*
X10971967Y-15278508D02*
X10991015Y-15297555D01*
X10991015Y-15297555D02*
X11000539Y-15316603D01*
X11000539Y-15316603D02*
X11010063Y-15354698D01*
X11010063Y-15354698D02*
X11010063Y-15383269D01*
X11010063Y-15383269D02*
X11000539Y-15421365D01*
X11000539Y-15421365D02*
X10991015Y-15440412D01*
X10991015Y-15440412D02*
X10971967Y-15459460D01*
X10971967Y-15459460D02*
X10943396Y-15468984D01*
X10943396Y-15468984D02*
X10895777Y-15468984D01*
X11095777Y-15468984D02*
X11095777Y-15335650D01*
X11095777Y-15373746D02*
X11105301Y-15354698D01*
X11105301Y-15354698D02*
X11114824Y-15345174D01*
X11114824Y-15345174D02*
X11133872Y-15335650D01*
X11133872Y-15335650D02*
X11152920Y-15335650D01*
X11219586Y-15468984D02*
X11219586Y-15335650D01*
X11219586Y-15268984D02*
X11210062Y-15278508D01*
X11210062Y-15278508D02*
X11219586Y-15288031D01*
X11219586Y-15288031D02*
X11229110Y-15278508D01*
X11229110Y-15278508D02*
X11219586Y-15268984D01*
X11219586Y-15268984D02*
X11219586Y-15288031D01*
X11343396Y-15468984D02*
X11324348Y-15459460D01*
X11324348Y-15459460D02*
X11314824Y-15440412D01*
X11314824Y-15440412D02*
X11314824Y-15268984D01*
X11448158Y-15468984D02*
X11429110Y-15459460D01*
X11429110Y-15459460D02*
X11419586Y-15440412D01*
X11419586Y-15440412D02*
X11419586Y-15268984D01*
X11676729Y-15468984D02*
X11676729Y-15268984D01*
X11676729Y-15268984D02*
X11743396Y-15411841D01*
X11743396Y-15411841D02*
X11810062Y-15268984D01*
X11810062Y-15268984D02*
X11810062Y-15468984D01*
X11991015Y-15468984D02*
X11991015Y-15364222D01*
X11991015Y-15364222D02*
X11981491Y-15345174D01*
X11981491Y-15345174D02*
X11962443Y-15335650D01*
X11962443Y-15335650D02*
X11924348Y-15335650D01*
X11924348Y-15335650D02*
X11905301Y-15345174D01*
X11991015Y-15459460D02*
X11971967Y-15468984D01*
X11971967Y-15468984D02*
X11924348Y-15468984D01*
X11924348Y-15468984D02*
X11905301Y-15459460D01*
X11905301Y-15459460D02*
X11895777Y-15440412D01*
X11895777Y-15440412D02*
X11895777Y-15421365D01*
X11895777Y-15421365D02*
X11905301Y-15402317D01*
X11905301Y-15402317D02*
X11924348Y-15392793D01*
X11924348Y-15392793D02*
X11971967Y-15392793D01*
X11971967Y-15392793D02*
X11991015Y-15383269D01*
X12086253Y-15335650D02*
X12086253Y-15535650D01*
X12086253Y-15345174D02*
X12105301Y-15335650D01*
X12105301Y-15335650D02*
X12143396Y-15335650D01*
X12143396Y-15335650D02*
X12162443Y-15345174D01*
X12162443Y-15345174D02*
X12171967Y-15354698D01*
X12171967Y-15354698D02*
X12181491Y-15373746D01*
X12181491Y-15373746D02*
X12181491Y-15430888D01*
X12181491Y-15430888D02*
X12171967Y-15449936D01*
X12171967Y-15449936D02*
X12162443Y-15459460D01*
X12162443Y-15459460D02*
X12143396Y-15468984D01*
X12143396Y-15468984D02*
X12105301Y-15468984D01*
X12105301Y-15468984D02*
X12086253Y-15459460D01*
X12267205Y-15449936D02*
X12276729Y-15459460D01*
X12276729Y-15459460D02*
X12267205Y-15468984D01*
X12267205Y-15468984D02*
X12257682Y-15459460D01*
X12257682Y-15459460D02*
X12267205Y-15449936D01*
X12267205Y-15449936D02*
X12267205Y-15468984D01*
X12267205Y-15345174D02*
X12276729Y-15354698D01*
X12276729Y-15354698D02*
X12267205Y-15364222D01*
X12267205Y-15364222D02*
X12257682Y-15354698D01*
X12257682Y-15354698D02*
X12267205Y-15345174D01*
X12267205Y-15345174D02*
X12267205Y-15364222D01*
X10435000Y-15697500D02*
X10635000Y-15897500D01*
X10635000Y-15697500D02*
X10435000Y-15897500D01*
X10876729Y-15688984D02*
X11000539Y-15688984D01*
X11000539Y-15688984D02*
X10933872Y-15765174D01*
X10933872Y-15765174D02*
X10962444Y-15765174D01*
X10962444Y-15765174D02*
X10981491Y-15774698D01*
X10981491Y-15774698D02*
X10991015Y-15784222D01*
X10991015Y-15784222D02*
X11000539Y-15803269D01*
X11000539Y-15803269D02*
X11000539Y-15850888D01*
X11000539Y-15850888D02*
X10991015Y-15869936D01*
X10991015Y-15869936D02*
X10981491Y-15879460D01*
X10981491Y-15879460D02*
X10962444Y-15888984D01*
X10962444Y-15888984D02*
X10905301Y-15888984D01*
X10905301Y-15888984D02*
X10886253Y-15879460D01*
X10886253Y-15879460D02*
X10876729Y-15869936D01*
X11086253Y-15869936D02*
X11095777Y-15879460D01*
X11095777Y-15879460D02*
X11086253Y-15888984D01*
X11086253Y-15888984D02*
X11076729Y-15879460D01*
X11076729Y-15879460D02*
X11086253Y-15869936D01*
X11086253Y-15869936D02*
X11086253Y-15888984D01*
X11171967Y-15708031D02*
X11181491Y-15698508D01*
X11181491Y-15698508D02*
X11200539Y-15688984D01*
X11200539Y-15688984D02*
X11248158Y-15688984D01*
X11248158Y-15688984D02*
X11267205Y-15698508D01*
X11267205Y-15698508D02*
X11276729Y-15708031D01*
X11276729Y-15708031D02*
X11286253Y-15727079D01*
X11286253Y-15727079D02*
X11286253Y-15746127D01*
X11286253Y-15746127D02*
X11276729Y-15774698D01*
X11276729Y-15774698D02*
X11162444Y-15888984D01*
X11162444Y-15888984D02*
X11286253Y-15888984D01*
X11410062Y-15688984D02*
X11429110Y-15688984D01*
X11429110Y-15688984D02*
X11448158Y-15698508D01*
X11448158Y-15698508D02*
X11457682Y-15708031D01*
X11457682Y-15708031D02*
X11467205Y-15727079D01*
X11467205Y-15727079D02*
X11476729Y-15765174D01*
X11476729Y-15765174D02*
X11476729Y-15812793D01*
X11476729Y-15812793D02*
X11467205Y-15850888D01*
X11467205Y-15850888D02*
X11457682Y-15869936D01*
X11457682Y-15869936D02*
X11448158Y-15879460D01*
X11448158Y-15879460D02*
X11429110Y-15888984D01*
X11429110Y-15888984D02*
X11410062Y-15888984D01*
X11410062Y-15888984D02*
X11391015Y-15879460D01*
X11391015Y-15879460D02*
X11381491Y-15869936D01*
X11381491Y-15869936D02*
X11371967Y-15850888D01*
X11371967Y-15850888D02*
X11362443Y-15812793D01*
X11362443Y-15812793D02*
X11362443Y-15765174D01*
X11362443Y-15765174D02*
X11371967Y-15727079D01*
X11371967Y-15727079D02*
X11381491Y-15708031D01*
X11381491Y-15708031D02*
X11391015Y-15698508D01*
X11391015Y-15698508D02*
X11410062Y-15688984D01*
X11600539Y-15688984D02*
X11619586Y-15688984D01*
X11619586Y-15688984D02*
X11638634Y-15698508D01*
X11638634Y-15698508D02*
X11648158Y-15708031D01*
X11648158Y-15708031D02*
X11657682Y-15727079D01*
X11657682Y-15727079D02*
X11667205Y-15765174D01*
X11667205Y-15765174D02*
X11667205Y-15812793D01*
X11667205Y-15812793D02*
X11657682Y-15850888D01*
X11657682Y-15850888D02*
X11648158Y-15869936D01*
X11648158Y-15869936D02*
X11638634Y-15879460D01*
X11638634Y-15879460D02*
X11619586Y-15888984D01*
X11619586Y-15888984D02*
X11600539Y-15888984D01*
X11600539Y-15888984D02*
X11581491Y-15879460D01*
X11581491Y-15879460D02*
X11571967Y-15869936D01*
X11571967Y-15869936D02*
X11562443Y-15850888D01*
X11562443Y-15850888D02*
X11552920Y-15812793D01*
X11552920Y-15812793D02*
X11552920Y-15765174D01*
X11552920Y-15765174D02*
X11562443Y-15727079D01*
X11562443Y-15727079D02*
X11571967Y-15708031D01*
X11571967Y-15708031D02*
X11581491Y-15698508D01*
X11581491Y-15698508D02*
X11600539Y-15688984D01*
X11752920Y-15888984D02*
X11752920Y-15755650D01*
X11752920Y-15774698D02*
X11762443Y-15765174D01*
X11762443Y-15765174D02*
X11781491Y-15755650D01*
X11781491Y-15755650D02*
X11810063Y-15755650D01*
X11810063Y-15755650D02*
X11829110Y-15765174D01*
X11829110Y-15765174D02*
X11838634Y-15784222D01*
X11838634Y-15784222D02*
X11838634Y-15888984D01*
X11838634Y-15784222D02*
X11848158Y-15765174D01*
X11848158Y-15765174D02*
X11867205Y-15755650D01*
X11867205Y-15755650D02*
X11895777Y-15755650D01*
X11895777Y-15755650D02*
X11914824Y-15765174D01*
X11914824Y-15765174D02*
X11924348Y-15784222D01*
X11924348Y-15784222D02*
X11924348Y-15888984D01*
X12019586Y-15888984D02*
X12019586Y-15755650D01*
X12019586Y-15774698D02*
X12029110Y-15765174D01*
X12029110Y-15765174D02*
X12048158Y-15755650D01*
X12048158Y-15755650D02*
X12076729Y-15755650D01*
X12076729Y-15755650D02*
X12095777Y-15765174D01*
X12095777Y-15765174D02*
X12105301Y-15784222D01*
X12105301Y-15784222D02*
X12105301Y-15888984D01*
X12105301Y-15784222D02*
X12114824Y-15765174D01*
X12114824Y-15765174D02*
X12133872Y-15755650D01*
X12133872Y-15755650D02*
X12162443Y-15755650D01*
X12162443Y-15755650D02*
X12181491Y-15765174D01*
X12181491Y-15765174D02*
X12191015Y-15784222D01*
X12191015Y-15784222D02*
X12191015Y-15888984D01*
X12581491Y-15679460D02*
X12410063Y-15936603D01*
X12838634Y-15688984D02*
X12857682Y-15688984D01*
X12857682Y-15688984D02*
X12876729Y-15698508D01*
X12876729Y-15698508D02*
X12886253Y-15708031D01*
X12886253Y-15708031D02*
X12895777Y-15727079D01*
X12895777Y-15727079D02*
X12905301Y-15765174D01*
X12905301Y-15765174D02*
X12905301Y-15812793D01*
X12905301Y-15812793D02*
X12895777Y-15850888D01*
X12895777Y-15850888D02*
X12886253Y-15869936D01*
X12886253Y-15869936D02*
X12876729Y-15879460D01*
X12876729Y-15879460D02*
X12857682Y-15888984D01*
X12857682Y-15888984D02*
X12838634Y-15888984D01*
X12838634Y-15888984D02*
X12819586Y-15879460D01*
X12819586Y-15879460D02*
X12810063Y-15869936D01*
X12810063Y-15869936D02*
X12800539Y-15850888D01*
X12800539Y-15850888D02*
X12791015Y-15812793D01*
X12791015Y-15812793D02*
X12791015Y-15765174D01*
X12791015Y-15765174D02*
X12800539Y-15727079D01*
X12800539Y-15727079D02*
X12810063Y-15708031D01*
X12810063Y-15708031D02*
X12819586Y-15698508D01*
X12819586Y-15698508D02*
X12838634Y-15688984D01*
X12991015Y-15869936D02*
X13000539Y-15879460D01*
X13000539Y-15879460D02*
X12991015Y-15888984D01*
X12991015Y-15888984D02*
X12981491Y-15879460D01*
X12981491Y-15879460D02*
X12991015Y-15869936D01*
X12991015Y-15869936D02*
X12991015Y-15888984D01*
X13191015Y-15888984D02*
X13076729Y-15888984D01*
X13133872Y-15888984D02*
X13133872Y-15688984D01*
X13133872Y-15688984D02*
X13114825Y-15717555D01*
X13114825Y-15717555D02*
X13095777Y-15736603D01*
X13095777Y-15736603D02*
X13076729Y-15746127D01*
X13267206Y-15708031D02*
X13276729Y-15698508D01*
X13276729Y-15698508D02*
X13295777Y-15688984D01*
X13295777Y-15688984D02*
X13343396Y-15688984D01*
X13343396Y-15688984D02*
X13362444Y-15698508D01*
X13362444Y-15698508D02*
X13371967Y-15708031D01*
X13371967Y-15708031D02*
X13381491Y-15727079D01*
X13381491Y-15727079D02*
X13381491Y-15746127D01*
X13381491Y-15746127D02*
X13371967Y-15774698D01*
X13371967Y-15774698D02*
X13257682Y-15888984D01*
X13257682Y-15888984D02*
X13381491Y-15888984D01*
X13552920Y-15688984D02*
X13514825Y-15688984D01*
X13514825Y-15688984D02*
X13495777Y-15698508D01*
X13495777Y-15698508D02*
X13486253Y-15708031D01*
X13486253Y-15708031D02*
X13467206Y-15736603D01*
X13467206Y-15736603D02*
X13457682Y-15774698D01*
X13457682Y-15774698D02*
X13457682Y-15850888D01*
X13457682Y-15850888D02*
X13467206Y-15869936D01*
X13467206Y-15869936D02*
X13476729Y-15879460D01*
X13476729Y-15879460D02*
X13495777Y-15888984D01*
X13495777Y-15888984D02*
X13533872Y-15888984D01*
X13533872Y-15888984D02*
X13552920Y-15879460D01*
X13552920Y-15879460D02*
X13562444Y-15869936D01*
X13562444Y-15869936D02*
X13571967Y-15850888D01*
X13571967Y-15850888D02*
X13571967Y-15803269D01*
X13571967Y-15803269D02*
X13562444Y-15784222D01*
X13562444Y-15784222D02*
X13552920Y-15774698D01*
X13552920Y-15774698D02*
X13533872Y-15765174D01*
X13533872Y-15765174D02*
X13495777Y-15765174D01*
X13495777Y-15765174D02*
X13476729Y-15774698D01*
X13476729Y-15774698D02*
X13467206Y-15784222D01*
X13467206Y-15784222D02*
X13457682Y-15803269D01*
X13695777Y-15688984D02*
X13714825Y-15688984D01*
X13714825Y-15688984D02*
X13733872Y-15698508D01*
X13733872Y-15698508D02*
X13743396Y-15708031D01*
X13743396Y-15708031D02*
X13752920Y-15727079D01*
X13752920Y-15727079D02*
X13762444Y-15765174D01*
X13762444Y-15765174D02*
X13762444Y-15812793D01*
X13762444Y-15812793D02*
X13752920Y-15850888D01*
X13752920Y-15850888D02*
X13743396Y-15869936D01*
X13743396Y-15869936D02*
X13733872Y-15879460D01*
X13733872Y-15879460D02*
X13714825Y-15888984D01*
X13714825Y-15888984D02*
X13695777Y-15888984D01*
X13695777Y-15888984D02*
X13676729Y-15879460D01*
X13676729Y-15879460D02*
X13667206Y-15869936D01*
X13667206Y-15869936D02*
X13657682Y-15850888D01*
X13657682Y-15850888D02*
X13648158Y-15812793D01*
X13648158Y-15812793D02*
X13648158Y-15765174D01*
X13648158Y-15765174D02*
X13657682Y-15727079D01*
X13657682Y-15727079D02*
X13667206Y-15708031D01*
X13667206Y-15708031D02*
X13676729Y-15698508D01*
X13676729Y-15698508D02*
X13695777Y-15688984D01*
X13838634Y-15688984D02*
X13838634Y-15727079D01*
X13914825Y-15688984D02*
X13914825Y-15727079D01*
X14210063Y-15965174D02*
X14200539Y-15955650D01*
X14200539Y-15955650D02*
X14181491Y-15927079D01*
X14181491Y-15927079D02*
X14171968Y-15908031D01*
X14171968Y-15908031D02*
X14162444Y-15879460D01*
X14162444Y-15879460D02*
X14152920Y-15831841D01*
X14152920Y-15831841D02*
X14152920Y-15793746D01*
X14152920Y-15793746D02*
X14162444Y-15746127D01*
X14162444Y-15746127D02*
X14171968Y-15717555D01*
X14171968Y-15717555D02*
X14181491Y-15698508D01*
X14181491Y-15698508D02*
X14200539Y-15669936D01*
X14200539Y-15669936D02*
X14210063Y-15660412D01*
X14371968Y-15755650D02*
X14371968Y-15888984D01*
X14324348Y-15679460D02*
X14276729Y-15822317D01*
X14276729Y-15822317D02*
X14400539Y-15822317D01*
X14629110Y-15888984D02*
X14629110Y-15688984D01*
X14714825Y-15888984D02*
X14714825Y-15784222D01*
X14714825Y-15784222D02*
X14705301Y-15765174D01*
X14705301Y-15765174D02*
X14686253Y-15755650D01*
X14686253Y-15755650D02*
X14657682Y-15755650D01*
X14657682Y-15755650D02*
X14638634Y-15765174D01*
X14638634Y-15765174D02*
X14629110Y-15774698D01*
X14838634Y-15888984D02*
X14819587Y-15879460D01*
X14819587Y-15879460D02*
X14810063Y-15869936D01*
X14810063Y-15869936D02*
X14800539Y-15850888D01*
X14800539Y-15850888D02*
X14800539Y-15793746D01*
X14800539Y-15793746D02*
X14810063Y-15774698D01*
X14810063Y-15774698D02*
X14819587Y-15765174D01*
X14819587Y-15765174D02*
X14838634Y-15755650D01*
X14838634Y-15755650D02*
X14867206Y-15755650D01*
X14867206Y-15755650D02*
X14886253Y-15765174D01*
X14886253Y-15765174D02*
X14895777Y-15774698D01*
X14895777Y-15774698D02*
X14905301Y-15793746D01*
X14905301Y-15793746D02*
X14905301Y-15850888D01*
X14905301Y-15850888D02*
X14895777Y-15869936D01*
X14895777Y-15869936D02*
X14886253Y-15879460D01*
X14886253Y-15879460D02*
X14867206Y-15888984D01*
X14867206Y-15888984D02*
X14838634Y-15888984D01*
X15019587Y-15888984D02*
X15000539Y-15879460D01*
X15000539Y-15879460D02*
X14991015Y-15860412D01*
X14991015Y-15860412D02*
X14991015Y-15688984D01*
X15171968Y-15879460D02*
X15152920Y-15888984D01*
X15152920Y-15888984D02*
X15114825Y-15888984D01*
X15114825Y-15888984D02*
X15095777Y-15879460D01*
X15095777Y-15879460D02*
X15086253Y-15860412D01*
X15086253Y-15860412D02*
X15086253Y-15784222D01*
X15086253Y-15784222D02*
X15095777Y-15765174D01*
X15095777Y-15765174D02*
X15114825Y-15755650D01*
X15114825Y-15755650D02*
X15152920Y-15755650D01*
X15152920Y-15755650D02*
X15171968Y-15765174D01*
X15171968Y-15765174D02*
X15181491Y-15784222D01*
X15181491Y-15784222D02*
X15181491Y-15803269D01*
X15181491Y-15803269D02*
X15086253Y-15822317D01*
X15257682Y-15879460D02*
X15276730Y-15888984D01*
X15276730Y-15888984D02*
X15314825Y-15888984D01*
X15314825Y-15888984D02*
X15333872Y-15879460D01*
X15333872Y-15879460D02*
X15343396Y-15860412D01*
X15343396Y-15860412D02*
X15343396Y-15850888D01*
X15343396Y-15850888D02*
X15333872Y-15831841D01*
X15333872Y-15831841D02*
X15314825Y-15822317D01*
X15314825Y-15822317D02*
X15286253Y-15822317D01*
X15286253Y-15822317D02*
X15267206Y-15812793D01*
X15267206Y-15812793D02*
X15257682Y-15793746D01*
X15257682Y-15793746D02*
X15257682Y-15784222D01*
X15257682Y-15784222D02*
X15267206Y-15765174D01*
X15267206Y-15765174D02*
X15286253Y-15755650D01*
X15286253Y-15755650D02*
X15314825Y-15755650D01*
X15314825Y-15755650D02*
X15333872Y-15765174D01*
X15410063Y-15965174D02*
X15419587Y-15955650D01*
X15419587Y-15955650D02*
X15438634Y-15927079D01*
X15438634Y-15927079D02*
X15448158Y-15908031D01*
X15448158Y-15908031D02*
X15457682Y-15879460D01*
X15457682Y-15879460D02*
X15467206Y-15831841D01*
X15467206Y-15831841D02*
X15467206Y-15793746D01*
X15467206Y-15793746D02*
X15457682Y-15746127D01*
X15457682Y-15746127D02*
X15448158Y-15717555D01*
X15448158Y-15717555D02*
X15438634Y-15698508D01*
X15438634Y-15698508D02*
X15419587Y-15669936D01*
X15419587Y-15669936D02*
X15410063Y-15660412D01*
X15771968Y-15965174D02*
X15762444Y-15955650D01*
X15762444Y-15955650D02*
X15743396Y-15927079D01*
X15743396Y-15927079D02*
X15733872Y-15908031D01*
X15733872Y-15908031D02*
X15724349Y-15879460D01*
X15724349Y-15879460D02*
X15714825Y-15831841D01*
X15714825Y-15831841D02*
X15714825Y-15793746D01*
X15714825Y-15793746D02*
X15724349Y-15746127D01*
X15724349Y-15746127D02*
X15733872Y-15717555D01*
X15733872Y-15717555D02*
X15743396Y-15698508D01*
X15743396Y-15698508D02*
X15762444Y-15669936D01*
X15762444Y-15669936D02*
X15771968Y-15660412D01*
X15848158Y-15755650D02*
X15848158Y-15888984D01*
X15848158Y-15774698D02*
X15857682Y-15765174D01*
X15857682Y-15765174D02*
X15876730Y-15755650D01*
X15876730Y-15755650D02*
X15905301Y-15755650D01*
X15905301Y-15755650D02*
X15924349Y-15765174D01*
X15924349Y-15765174D02*
X15933872Y-15784222D01*
X15933872Y-15784222D02*
X15933872Y-15888984D01*
X16057682Y-15888984D02*
X16038634Y-15879460D01*
X16038634Y-15879460D02*
X16029111Y-15869936D01*
X16029111Y-15869936D02*
X16019587Y-15850888D01*
X16019587Y-15850888D02*
X16019587Y-15793746D01*
X16019587Y-15793746D02*
X16029111Y-15774698D01*
X16029111Y-15774698D02*
X16038634Y-15765174D01*
X16038634Y-15765174D02*
X16057682Y-15755650D01*
X16057682Y-15755650D02*
X16086253Y-15755650D01*
X16086253Y-15755650D02*
X16105301Y-15765174D01*
X16105301Y-15765174D02*
X16114825Y-15774698D01*
X16114825Y-15774698D02*
X16124349Y-15793746D01*
X16124349Y-15793746D02*
X16124349Y-15850888D01*
X16124349Y-15850888D02*
X16114825Y-15869936D01*
X16114825Y-15869936D02*
X16105301Y-15879460D01*
X16105301Y-15879460D02*
X16086253Y-15888984D01*
X16086253Y-15888984D02*
X16057682Y-15888984D01*
X16181492Y-15755650D02*
X16257682Y-15755650D01*
X16210063Y-15688984D02*
X16210063Y-15860412D01*
X16210063Y-15860412D02*
X16219587Y-15879460D01*
X16219587Y-15879460D02*
X16238634Y-15888984D01*
X16238634Y-15888984D02*
X16257682Y-15888984D01*
X16476730Y-15755650D02*
X16476730Y-15955650D01*
X16476730Y-15765174D02*
X16495777Y-15755650D01*
X16495777Y-15755650D02*
X16533873Y-15755650D01*
X16533873Y-15755650D02*
X16552920Y-15765174D01*
X16552920Y-15765174D02*
X16562444Y-15774698D01*
X16562444Y-15774698D02*
X16571968Y-15793746D01*
X16571968Y-15793746D02*
X16571968Y-15850888D01*
X16571968Y-15850888D02*
X16562444Y-15869936D01*
X16562444Y-15869936D02*
X16552920Y-15879460D01*
X16552920Y-15879460D02*
X16533873Y-15888984D01*
X16533873Y-15888984D02*
X16495777Y-15888984D01*
X16495777Y-15888984D02*
X16476730Y-15879460D01*
X16686253Y-15888984D02*
X16667206Y-15879460D01*
X16667206Y-15879460D02*
X16657682Y-15860412D01*
X16657682Y-15860412D02*
X16657682Y-15688984D01*
X16848158Y-15888984D02*
X16848158Y-15784222D01*
X16848158Y-15784222D02*
X16838635Y-15765174D01*
X16838635Y-15765174D02*
X16819587Y-15755650D01*
X16819587Y-15755650D02*
X16781492Y-15755650D01*
X16781492Y-15755650D02*
X16762444Y-15765174D01*
X16848158Y-15879460D02*
X16829111Y-15888984D01*
X16829111Y-15888984D02*
X16781492Y-15888984D01*
X16781492Y-15888984D02*
X16762444Y-15879460D01*
X16762444Y-15879460D02*
X16752920Y-15860412D01*
X16752920Y-15860412D02*
X16752920Y-15841365D01*
X16752920Y-15841365D02*
X16762444Y-15822317D01*
X16762444Y-15822317D02*
X16781492Y-15812793D01*
X16781492Y-15812793D02*
X16829111Y-15812793D01*
X16829111Y-15812793D02*
X16848158Y-15803269D01*
X16914825Y-15755650D02*
X16991015Y-15755650D01*
X16943396Y-15688984D02*
X16943396Y-15860412D01*
X16943396Y-15860412D02*
X16952920Y-15879460D01*
X16952920Y-15879460D02*
X16971968Y-15888984D01*
X16971968Y-15888984D02*
X16991015Y-15888984D01*
X17133873Y-15879460D02*
X17114825Y-15888984D01*
X17114825Y-15888984D02*
X17076730Y-15888984D01*
X17076730Y-15888984D02*
X17057682Y-15879460D01*
X17057682Y-15879460D02*
X17048158Y-15860412D01*
X17048158Y-15860412D02*
X17048158Y-15784222D01*
X17048158Y-15784222D02*
X17057682Y-15765174D01*
X17057682Y-15765174D02*
X17076730Y-15755650D01*
X17076730Y-15755650D02*
X17114825Y-15755650D01*
X17114825Y-15755650D02*
X17133873Y-15765174D01*
X17133873Y-15765174D02*
X17143396Y-15784222D01*
X17143396Y-15784222D02*
X17143396Y-15803269D01*
X17143396Y-15803269D02*
X17048158Y-15822317D01*
X17314825Y-15888984D02*
X17314825Y-15688984D01*
X17314825Y-15879460D02*
X17295777Y-15888984D01*
X17295777Y-15888984D02*
X17257682Y-15888984D01*
X17257682Y-15888984D02*
X17238635Y-15879460D01*
X17238635Y-15879460D02*
X17229111Y-15869936D01*
X17229111Y-15869936D02*
X17219587Y-15850888D01*
X17219587Y-15850888D02*
X17219587Y-15793746D01*
X17219587Y-15793746D02*
X17229111Y-15774698D01*
X17229111Y-15774698D02*
X17238635Y-15765174D01*
X17238635Y-15765174D02*
X17257682Y-15755650D01*
X17257682Y-15755650D02*
X17295777Y-15755650D01*
X17295777Y-15755650D02*
X17314825Y-15765174D01*
X17391016Y-15965174D02*
X17400539Y-15955650D01*
X17400539Y-15955650D02*
X17419587Y-15927079D01*
X17419587Y-15927079D02*
X17429111Y-15908031D01*
X17429111Y-15908031D02*
X17438635Y-15879460D01*
X17438635Y-15879460D02*
X17448158Y-15831841D01*
X17448158Y-15831841D02*
X17448158Y-15793746D01*
X17448158Y-15793746D02*
X17438635Y-15746127D01*
X17438635Y-15746127D02*
X17429111Y-15717555D01*
X17429111Y-15717555D02*
X17419587Y-15698508D01*
X17419587Y-15698508D02*
X17400539Y-15669936D01*
X17400539Y-15669936D02*
X17391016Y-15660412D01*
M02*
