%TF.GenerationSoftware,KiCad,Pcbnew,7.0.7+dfsg-1*%
%TF.CreationDate,2024-04-04T18:03:27+01:00*%
%TF.ProjectId,point-controller-switches,706f696e-742d-4636-9f6e-74726f6c6c65,rev?*%
%TF.SameCoordinates,Original*%
%TF.FileFunction,Copper,L1,Top*%
%TF.FilePolarity,Positive*%
%FSLAX46Y46*%
G04 Gerber Fmt 4.6, Leading zero omitted, Abs format (unit mm)*
G04 Created by KiCad (PCBNEW 7.0.7+dfsg-1) date 2024-04-04 18:03:27*
%MOMM*%
%LPD*%
G01*
G04 APERTURE LIST*
%TA.AperFunction,ComponentPad*%
%ADD10R,1.700000X1.700000*%
%TD*%
%TA.AperFunction,ComponentPad*%
%ADD11O,1.700000X1.700000*%
%TD*%
%TA.AperFunction,ComponentPad*%
%ADD12C,1.600000*%
%TD*%
%TA.AperFunction,ComponentPad*%
%ADD13O,1.600000X1.600000*%
%TD*%
%TA.AperFunction,ComponentPad*%
%ADD14R,1.600000X1.600000*%
%TD*%
%TA.AperFunction,ViaPad*%
%ADD15C,0.800000*%
%TD*%
%TA.AperFunction,Conductor*%
%ADD16C,0.250000*%
%TD*%
G04 APERTURE END LIST*
D10*
%TO.P,D3,1,K*%
%TO.N,Net-(D3-K)*%
X131800000Y-97550000D03*
D11*
%TO.P,D3,2,A*%
%TO.N,Net-(D3-A)*%
X134340000Y-97550000D03*
%TD*%
D10*
%TO.P,SW2,1,1*%
%TO.N,Net-(U1-GP3)*%
X135000000Y-112245000D03*
D11*
%TO.P,SW2,2,2*%
%TO.N,GND*%
X135000000Y-114785000D03*
%TO.P,SW2,3,3*%
%TO.N,Net-(U1-GP2)*%
X135000000Y-117325000D03*
%TD*%
D12*
%TO.P,R2,1*%
%TO.N,+5V*%
X141445000Y-100600000D03*
D13*
%TO.P,R2,2*%
%TO.N,Net-(D2-A)*%
X138905000Y-100600000D03*
%TD*%
D10*
%TO.P,SW4,1,1*%
%TO.N,Net-(U2-GP3)*%
X143600000Y-112445000D03*
D11*
%TO.P,SW4,2,2*%
%TO.N,GND*%
X143600000Y-114985000D03*
%TO.P,SW4,3,3*%
%TO.N,Net-(U2-GP2)*%
X143600000Y-117525000D03*
%TD*%
D10*
%TO.P,D6,1,K*%
%TO.N,Net-(D6-K)*%
X131470000Y-134250000D03*
D11*
%TO.P,D6,2,A*%
%TO.N,Net-(D6-A)*%
X134010000Y-134250000D03*
%TD*%
D12*
%TO.P,R7,1*%
%TO.N,+5V*%
X141800000Y-130000000D03*
D13*
%TO.P,R7,2*%
%TO.N,Net-(D7-A)*%
X139260000Y-130000000D03*
%TD*%
D10*
%TO.P,D2,1,K*%
%TO.N,Net-(D2-K)*%
X131800000Y-101300000D03*
D11*
%TO.P,D2,2,A*%
%TO.N,Net-(D2-A)*%
X134340000Y-101300000D03*
%TD*%
D12*
%TO.P,R8,1*%
%TO.N,+5V*%
X141800000Y-126000000D03*
D13*
%TO.P,R8,2*%
%TO.N,Net-(D8-A)*%
X139260000Y-126000000D03*
%TD*%
D12*
%TO.P,R5,1*%
%TO.N,+5V*%
X141800000Y-138000000D03*
D13*
%TO.P,R5,2*%
%TO.N,Net-(D5-A)*%
X139260000Y-138000000D03*
%TD*%
D10*
%TO.P,SW3,1,1*%
%TO.N,Net-(U2-GP1)*%
X139400000Y-112445000D03*
D11*
%TO.P,SW3,2,2*%
%TO.N,GND*%
X139400000Y-114985000D03*
%TO.P,SW3,3,3*%
%TO.N,Net-(U2-GP0)*%
X139400000Y-117525000D03*
%TD*%
D10*
%TO.P,D7,1,K*%
%TO.N,Net-(D7-K)*%
X131720000Y-130250000D03*
D11*
%TO.P,D7,2,A*%
%TO.N,Net-(D7-A)*%
X134260000Y-130250000D03*
%TD*%
D10*
%TO.P,J1,1,Pin_1*%
%TO.N,+5V*%
X111000000Y-107580000D03*
D11*
%TO.P,J1,2,Pin_2*%
%TO.N,I2C SDA*%
X111000000Y-110120000D03*
%TO.P,J1,3,Pin_3*%
%TO.N,I2C SCL*%
X111000000Y-112660000D03*
%TO.P,J1,4,Pin_4*%
%TO.N,GND*%
X111000000Y-115200000D03*
%TD*%
D12*
%TO.P,C2,1*%
%TO.N,+5V*%
X122400000Y-123000000D03*
%TO.P,C2,2*%
%TO.N,GND*%
X117400000Y-123000000D03*
%TD*%
D10*
%TO.P,J2,1,Pin_1*%
%TO.N,+5V*%
X111000000Y-127180000D03*
D11*
%TO.P,J2,2,Pin_2*%
%TO.N,I2C SDA*%
X111000000Y-129720000D03*
%TO.P,J2,3,Pin_3*%
%TO.N,I2C SCL*%
X111000000Y-132260000D03*
%TO.P,J2,4,Pin_4*%
%TO.N,GND*%
X111000000Y-134800000D03*
%TD*%
D12*
%TO.P,R6,1*%
%TO.N,+5V*%
X141800000Y-134000000D03*
D13*
%TO.P,R6,2*%
%TO.N,Net-(D6-A)*%
X139260000Y-134000000D03*
%TD*%
D10*
%TO.P,D5,1,K*%
%TO.N,Net-(D5-K)*%
X131470000Y-138500000D03*
D11*
%TO.P,D5,2,A*%
%TO.N,Net-(D5-A)*%
X134010000Y-138500000D03*
%TD*%
D10*
%TO.P,SW1,1,1*%
%TO.N,Net-(U1-GP1)*%
X130600000Y-112200000D03*
D11*
%TO.P,SW1,2,2*%
%TO.N,GND*%
X130600000Y-114740000D03*
%TO.P,SW1,3,3*%
%TO.N,Net-(U1-GP0)*%
X130600000Y-117280000D03*
%TD*%
D12*
%TO.P,C1,1*%
%TO.N,+5V*%
X122800000Y-87400000D03*
%TO.P,C1,2*%
%TO.N,GND*%
X117800000Y-87400000D03*
%TD*%
D10*
%TO.P,D8,1,K*%
%TO.N,Net-(D8-K)*%
X131720000Y-126000000D03*
D11*
%TO.P,D8,2,A*%
%TO.N,Net-(D8-A)*%
X134260000Y-126000000D03*
%TD*%
D12*
%TO.P,R1,1*%
%TO.N,+5V*%
X141445000Y-104200000D03*
D13*
%TO.P,R1,2*%
%TO.N,Net-(D1-A)*%
X138905000Y-104200000D03*
%TD*%
D10*
%TO.P,D4,1,K*%
%TO.N,Net-(D4-K)*%
X131800000Y-93800000D03*
D11*
%TO.P,D4,2,A*%
%TO.N,Net-(D4-A)*%
X134340000Y-93800000D03*
%TD*%
D14*
%TO.P,U1,1,SCL*%
%TO.N,I2C SCL*%
X116250000Y-91710000D03*
D13*
%TO.P,U1,2,SDA*%
%TO.N,I2C SDA*%
X116250000Y-94250000D03*
%TO.P,U1,3,A2*%
%TO.N,GND*%
X116250000Y-96790000D03*
%TO.P,U1,4,A1*%
X116250000Y-99330000D03*
%TO.P,U1,5,A0*%
X116250000Y-101870000D03*
%TO.P,U1,6,~{RESET}*%
%TO.N,+5V*%
X116250000Y-104410000D03*
%TO.P,U1,7,NC*%
%TO.N,unconnected-(U1-NC-Pad7)*%
X116250000Y-106950000D03*
%TO.P,U1,8,INT*%
%TO.N,unconnected-(U1-INT-Pad8)*%
X116250000Y-109490000D03*
%TO.P,U1,9,VSS*%
%TO.N,GND*%
X116250000Y-112030000D03*
%TO.P,U1,10,GP0*%
%TO.N,Net-(U1-GP0)*%
X123870000Y-112030000D03*
%TO.P,U1,11,GP1*%
%TO.N,Net-(U1-GP1)*%
X123870000Y-109490000D03*
%TO.P,U1,12,GP2*%
%TO.N,Net-(U1-GP2)*%
X123870000Y-106950000D03*
%TO.P,U1,13,GP3*%
%TO.N,Net-(U1-GP3)*%
X123870000Y-104410000D03*
%TO.P,U1,14,GP4*%
%TO.N,Net-(D1-K)*%
X123870000Y-101870000D03*
%TO.P,U1,15,GP5*%
%TO.N,Net-(D2-K)*%
X123870000Y-99330000D03*
%TO.P,U1,16,GP6*%
%TO.N,Net-(D3-K)*%
X123870000Y-96790000D03*
%TO.P,U1,17,GP7*%
%TO.N,Net-(D4-K)*%
X123870000Y-94250000D03*
%TO.P,U1,18,VDD*%
%TO.N,+5V*%
X123870000Y-91710000D03*
%TD*%
D12*
%TO.P,R4,1*%
%TO.N,+5V*%
X141540000Y-93600000D03*
D13*
%TO.P,R4,2*%
%TO.N,Net-(D4-A)*%
X139000000Y-93600000D03*
%TD*%
D14*
%TO.P,U2,1,SCL*%
%TO.N,I2C SCL*%
X116130000Y-127720000D03*
D13*
%TO.P,U2,2,SDA*%
%TO.N,I2C SDA*%
X116130000Y-130260000D03*
%TO.P,U2,3,A2*%
%TO.N,GND*%
X116130000Y-132800000D03*
%TO.P,U2,4,A1*%
X116130000Y-135340000D03*
%TO.P,U2,5,A0*%
%TO.N,+5V*%
X116130000Y-137880000D03*
%TO.P,U2,6,~{RESET}*%
X116130000Y-140420000D03*
%TO.P,U2,7,NC*%
%TO.N,unconnected-(U2-NC-Pad7)*%
X116130000Y-142960000D03*
%TO.P,U2,8,INT*%
%TO.N,unconnected-(U2-INT-Pad8)*%
X116130000Y-145500000D03*
%TO.P,U2,9,VSS*%
%TO.N,GND*%
X116130000Y-148040000D03*
%TO.P,U2,10,GP0*%
%TO.N,Net-(U2-GP0)*%
X123750000Y-148040000D03*
%TO.P,U2,11,GP1*%
%TO.N,Net-(U2-GP1)*%
X123750000Y-145500000D03*
%TO.P,U2,12,GP2*%
%TO.N,Net-(U2-GP2)*%
X123750000Y-142960000D03*
%TO.P,U2,13,GP3*%
%TO.N,Net-(U2-GP3)*%
X123750000Y-140420000D03*
%TO.P,U2,14,GP4*%
%TO.N,Net-(D5-K)*%
X123750000Y-137880000D03*
%TO.P,U2,15,GP5*%
%TO.N,Net-(D6-K)*%
X123750000Y-135340000D03*
%TO.P,U2,16,GP6*%
%TO.N,Net-(D7-K)*%
X123750000Y-132800000D03*
%TO.P,U2,17,GP7*%
%TO.N,Net-(D8-K)*%
X123750000Y-130260000D03*
%TO.P,U2,18,VDD*%
%TO.N,+5V*%
X123750000Y-127720000D03*
%TD*%
D12*
%TO.P,R3,1*%
%TO.N,+5V*%
X141445000Y-97000000D03*
D13*
%TO.P,R3,2*%
%TO.N,Net-(D3-A)*%
X138905000Y-97000000D03*
%TD*%
D10*
%TO.P,D1,1,K*%
%TO.N,Net-(D1-K)*%
X131840000Y-105025000D03*
D11*
%TO.P,D1,2,A*%
%TO.N,Net-(D1-A)*%
X134380000Y-105025000D03*
%TD*%
D15*
%TO.N,GND*%
X126750000Y-131500000D03*
X126750000Y-134000000D03*
X127250000Y-105750000D03*
X126750000Y-136500000D03*
X127250000Y-108750000D03*
X127500000Y-100500000D03*
X131000000Y-145500000D03*
X128000000Y-112250000D03*
X137250000Y-114750000D03*
X127250000Y-95250000D03*
X127500000Y-97750000D03*
X126250000Y-125500000D03*
X141500000Y-114750000D03*
X115750000Y-120750000D03*
X121250000Y-115000000D03*
%TD*%
D16*
%TO.N,+5V*%
X143200000Y-104200000D02*
X141445000Y-104200000D01*
X122199695Y-98460305D02*
X116250000Y-104410000D01*
X145800000Y-122000000D02*
X145800000Y-106800000D01*
X111000000Y-107580000D02*
X111000000Y-108370991D01*
X121325000Y-124075000D02*
X122400000Y-123000000D01*
X114055000Y-124125000D02*
X121275000Y-124125000D01*
X141800000Y-126000000D02*
X138800000Y-123000000D01*
X141800000Y-126000000D02*
X145800000Y-122000000D01*
X116130000Y-137880000D02*
X121325000Y-132685000D01*
X138800000Y-123000000D02*
X122400000Y-123000000D01*
X123870000Y-91710000D02*
X122199695Y-93380305D01*
X111000000Y-107580000D02*
X113080000Y-107580000D01*
X122400000Y-119770991D02*
X122400000Y-123000000D01*
X121275000Y-124125000D02*
X121325000Y-124075000D01*
X122400000Y-126370000D02*
X123750000Y-127720000D01*
X122199695Y-93380305D02*
X122199695Y-98460305D01*
X145800000Y-106800000D02*
X143200000Y-104200000D01*
X141445000Y-93695000D02*
X141540000Y-93600000D01*
X141800000Y-126000000D02*
X141800000Y-138000000D01*
X111000000Y-108370991D02*
X122400000Y-119770991D01*
X121325000Y-132685000D02*
X121325000Y-124075000D01*
X122800000Y-90640000D02*
X123870000Y-91710000D01*
X141445000Y-104200000D02*
X141445000Y-93695000D01*
X122400000Y-123000000D02*
X122400000Y-126370000D01*
X113080000Y-107580000D02*
X116250000Y-104410000D01*
X122800000Y-87400000D02*
X122800000Y-90640000D01*
X116130000Y-137880000D02*
X116130000Y-140420000D01*
X111000000Y-127180000D02*
X114055000Y-124125000D01*
%TO.N,GND*%
X116250000Y-112030000D02*
X118280000Y-112030000D01*
X117400000Y-123000000D02*
X115750000Y-121350000D01*
X118280000Y-112030000D02*
X121250000Y-115000000D01*
X135000000Y-114785000D02*
X137215000Y-114785000D01*
X137250000Y-114750000D02*
X139165000Y-114750000D01*
X141500000Y-114750000D02*
X143365000Y-114750000D01*
X137215000Y-114785000D02*
X137250000Y-114750000D01*
X143365000Y-114750000D02*
X143600000Y-114985000D01*
X115750000Y-121350000D02*
X115750000Y-120750000D01*
X130600000Y-114740000D02*
X128110000Y-112250000D01*
X139165000Y-114750000D02*
X139400000Y-114985000D01*
X128110000Y-112250000D02*
X128000000Y-112250000D01*
%TO.N,Net-(D1-K)*%
X123870000Y-101870000D02*
X128685000Y-101870000D01*
X128685000Y-101870000D02*
X131840000Y-105025000D01*
%TO.N,Net-(D1-A)*%
X134380000Y-105025000D02*
X138080000Y-105025000D01*
X138080000Y-105025000D02*
X138905000Y-104200000D01*
%TO.N,Net-(D2-K)*%
X129830000Y-99330000D02*
X131800000Y-101300000D01*
X123870000Y-99330000D02*
X129830000Y-99330000D01*
%TO.N,Net-(D2-A)*%
X134340000Y-101300000D02*
X138205000Y-101300000D01*
X138205000Y-101300000D02*
X138905000Y-100600000D01*
%TO.N,Net-(D3-K)*%
X131040000Y-96790000D02*
X131800000Y-97550000D01*
X123870000Y-96790000D02*
X131040000Y-96790000D01*
%TO.N,Net-(D3-A)*%
X138355000Y-97550000D02*
X138905000Y-97000000D01*
X134340000Y-97550000D02*
X138355000Y-97550000D01*
%TO.N,Net-(D4-K)*%
X123870000Y-94250000D02*
X131350000Y-94250000D01*
X131350000Y-94250000D02*
X131800000Y-93800000D01*
%TO.N,Net-(D4-A)*%
X134340000Y-93800000D02*
X138800000Y-93800000D01*
X138800000Y-93800000D02*
X139000000Y-93600000D01*
%TO.N,Net-(D5-K)*%
X130850000Y-137880000D02*
X131470000Y-138500000D01*
X123750000Y-137880000D02*
X130850000Y-137880000D01*
%TO.N,Net-(D5-A)*%
X138760000Y-138500000D02*
X139260000Y-138000000D01*
X134010000Y-138500000D02*
X138760000Y-138500000D01*
%TO.N,Net-(D6-K)*%
X123750000Y-135340000D02*
X130380000Y-135340000D01*
X130380000Y-135340000D02*
X131470000Y-134250000D01*
%TO.N,Net-(D6-A)*%
X139010000Y-134250000D02*
X139260000Y-134000000D01*
X134010000Y-134250000D02*
X139010000Y-134250000D01*
%TO.N,Net-(D7-K)*%
X129170000Y-132800000D02*
X131720000Y-130250000D01*
X123750000Y-132800000D02*
X129170000Y-132800000D01*
%TO.N,Net-(D7-A)*%
X134260000Y-130250000D02*
X139010000Y-130250000D01*
X139010000Y-129750000D02*
X139260000Y-130000000D01*
X139010000Y-130250000D02*
X139260000Y-130000000D01*
%TO.N,Net-(D8-K)*%
X127460000Y-130260000D02*
X131720000Y-126000000D01*
X123750000Y-130260000D02*
X127460000Y-130260000D01*
%TO.N,Net-(D8-A)*%
X138760000Y-125500000D02*
X139260000Y-126000000D01*
X134260000Y-126000000D02*
X139260000Y-126000000D01*
%TO.N,I2C SDA*%
X109825000Y-100675000D02*
X116250000Y-94250000D01*
X111000000Y-110120000D02*
X109825000Y-108945000D01*
X109825000Y-111295000D02*
X111000000Y-110120000D01*
X109825000Y-108945000D02*
X109825000Y-100675000D01*
X111000000Y-129720000D02*
X109825000Y-128545000D01*
X109825000Y-128545000D02*
X109825000Y-111295000D01*
%TO.N,I2C SCL*%
X111000000Y-132260000D02*
X115540000Y-127720000D01*
X115540000Y-127720000D02*
X116130000Y-127720000D01*
%TO.N,Net-(U1-GP1)*%
X123870000Y-109490000D02*
X127890000Y-109490000D01*
X127890000Y-109490000D02*
X130600000Y-112200000D01*
%TO.N,Net-(U1-GP0)*%
X123870000Y-112030000D02*
X125350000Y-112030000D01*
X125350000Y-112030000D02*
X130600000Y-117280000D01*
%TO.N,Net-(U1-GP3)*%
X127165000Y-104410000D02*
X135000000Y-112245000D01*
X123870000Y-104410000D02*
X127165000Y-104410000D01*
%TO.N,Net-(U1-GP2)*%
X123870000Y-106950000D02*
X127700000Y-106950000D01*
X133825000Y-113075000D02*
X133825000Y-116150000D01*
X133825000Y-116150000D02*
X135000000Y-117325000D01*
X127700000Y-106950000D02*
X133825000Y-113075000D01*
%TD*%
%TA.AperFunction,Conductor*%
%TO.N,GND*%
G36*
X146442577Y-84019685D02*
G01*
X146488332Y-84072489D01*
X146499537Y-84124461D01*
X146417345Y-106233854D01*
X146397411Y-106300820D01*
X146344438Y-106346378D01*
X146275243Y-106356064D01*
X146211795Y-106326803D01*
X146205665Y-106321074D01*
X143700803Y-103816212D01*
X143690980Y-103803950D01*
X143690759Y-103804134D01*
X143685786Y-103798123D01*
X143669653Y-103782973D01*
X143635364Y-103750773D01*
X143624919Y-103740328D01*
X143614475Y-103729883D01*
X143608986Y-103725625D01*
X143604561Y-103721847D01*
X143570582Y-103689938D01*
X143570580Y-103689936D01*
X143570577Y-103689935D01*
X143553029Y-103680288D01*
X143536763Y-103669604D01*
X143536424Y-103669341D01*
X143520936Y-103657327D01*
X143520935Y-103657326D01*
X143520933Y-103657325D01*
X143478168Y-103638818D01*
X143472922Y-103636248D01*
X143432093Y-103613803D01*
X143432092Y-103613802D01*
X143412693Y-103608822D01*
X143394281Y-103602518D01*
X143375898Y-103594562D01*
X143375892Y-103594560D01*
X143329874Y-103587272D01*
X143324152Y-103586087D01*
X143279021Y-103574500D01*
X143279019Y-103574500D01*
X143258984Y-103574500D01*
X143239586Y-103572973D01*
X143226232Y-103570858D01*
X143219805Y-103569840D01*
X143219804Y-103569840D01*
X143173416Y-103574225D01*
X143167578Y-103574500D01*
X142659188Y-103574500D01*
X142592149Y-103554815D01*
X142557613Y-103521623D01*
X142445045Y-103360858D01*
X142284140Y-103199953D01*
X142123377Y-103087386D01*
X142079752Y-103032809D01*
X142070500Y-102985811D01*
X142070500Y-101814188D01*
X142090185Y-101747149D01*
X142123377Y-101712613D01*
X142222364Y-101643302D01*
X142284139Y-101600047D01*
X142445047Y-101439139D01*
X142575568Y-101252734D01*
X142671739Y-101046496D01*
X142730635Y-100826692D01*
X142750468Y-100600000D01*
X142750116Y-100595982D01*
X142741641Y-100499104D01*
X142730635Y-100373308D01*
X142671739Y-100153504D01*
X142575568Y-99947266D01*
X142445047Y-99760861D01*
X142445045Y-99760858D01*
X142284140Y-99599953D01*
X142123377Y-99487386D01*
X142079752Y-99432809D01*
X142070500Y-99385811D01*
X142070500Y-98214188D01*
X142090185Y-98147149D01*
X142123377Y-98112613D01*
X142199920Y-98059017D01*
X142284139Y-98000047D01*
X142445047Y-97839139D01*
X142575568Y-97652734D01*
X142671739Y-97446496D01*
X142730635Y-97226692D01*
X142750468Y-97000000D01*
X142730635Y-96773308D01*
X142671739Y-96553504D01*
X142575568Y-96347266D01*
X142464961Y-96189301D01*
X142445045Y-96160858D01*
X142284140Y-95999953D01*
X142123377Y-95887386D01*
X142079752Y-95832809D01*
X142070500Y-95785811D01*
X142070500Y-94866563D01*
X142090185Y-94799524D01*
X142142093Y-94754182D01*
X142192734Y-94730568D01*
X142379139Y-94600047D01*
X142540047Y-94439139D01*
X142670568Y-94252734D01*
X142766739Y-94046496D01*
X142825635Y-93826692D01*
X142845468Y-93600000D01*
X142825635Y-93373308D01*
X142766739Y-93153504D01*
X142670568Y-92947266D01*
X142540047Y-92760861D01*
X142540045Y-92760858D01*
X142379141Y-92599954D01*
X142192734Y-92469432D01*
X142192732Y-92469431D01*
X141986497Y-92373261D01*
X141986488Y-92373258D01*
X141766697Y-92314366D01*
X141766693Y-92314365D01*
X141766692Y-92314365D01*
X141766691Y-92314364D01*
X141766686Y-92314364D01*
X141540002Y-92294532D01*
X141539998Y-92294532D01*
X141313313Y-92314364D01*
X141313302Y-92314366D01*
X141093511Y-92373258D01*
X141093502Y-92373261D01*
X140887267Y-92469431D01*
X140887265Y-92469432D01*
X140700858Y-92599954D01*
X140539954Y-92760858D01*
X140409432Y-92947265D01*
X140409431Y-92947267D01*
X140382382Y-93005275D01*
X140336209Y-93057714D01*
X140269016Y-93076866D01*
X140202135Y-93056650D01*
X140157618Y-93005275D01*
X140142859Y-92973624D01*
X140130568Y-92947266D01*
X140000047Y-92760861D01*
X140000045Y-92760858D01*
X139839141Y-92599954D01*
X139652734Y-92469432D01*
X139652732Y-92469431D01*
X139446497Y-92373261D01*
X139446488Y-92373258D01*
X139226697Y-92314366D01*
X139226693Y-92314365D01*
X139226692Y-92314365D01*
X139226691Y-92314364D01*
X139226686Y-92314364D01*
X139000002Y-92294532D01*
X138999998Y-92294532D01*
X138773313Y-92314364D01*
X138773302Y-92314366D01*
X138553511Y-92373258D01*
X138553502Y-92373261D01*
X138347267Y-92469431D01*
X138347265Y-92469432D01*
X138160858Y-92599954D01*
X137999954Y-92760858D01*
X137869432Y-92947265D01*
X137869431Y-92947267D01*
X137796856Y-93102905D01*
X137750683Y-93155344D01*
X137684474Y-93174500D01*
X135615227Y-93174500D01*
X135548188Y-93154815D01*
X135513652Y-93121623D01*
X135378494Y-92928597D01*
X135211402Y-92761506D01*
X135211395Y-92761501D01*
X135017834Y-92625967D01*
X135017830Y-92625965D01*
X134962047Y-92599953D01*
X134803663Y-92526097D01*
X134803659Y-92526096D01*
X134803655Y-92526094D01*
X134575413Y-92464938D01*
X134575403Y-92464936D01*
X134340001Y-92444341D01*
X134339999Y-92444341D01*
X134104596Y-92464936D01*
X134104586Y-92464938D01*
X133876344Y-92526094D01*
X133876335Y-92526098D01*
X133662171Y-92625964D01*
X133662169Y-92625965D01*
X133468600Y-92761503D01*
X133346673Y-92883430D01*
X133285350Y-92916914D01*
X133215658Y-92911930D01*
X133159725Y-92870058D01*
X133142810Y-92839081D01*
X133093797Y-92707671D01*
X133093793Y-92707664D01*
X133007547Y-92592455D01*
X133007544Y-92592452D01*
X132892335Y-92506206D01*
X132892328Y-92506202D01*
X132757482Y-92455908D01*
X132757483Y-92455908D01*
X132697883Y-92449501D01*
X132697881Y-92449500D01*
X132697873Y-92449500D01*
X132697864Y-92449500D01*
X130902129Y-92449500D01*
X130902123Y-92449501D01*
X130842516Y-92455908D01*
X130707671Y-92506202D01*
X130707664Y-92506206D01*
X130592455Y-92592452D01*
X130592452Y-92592455D01*
X130506206Y-92707664D01*
X130506202Y-92707671D01*
X130455908Y-92842517D01*
X130449501Y-92902116D01*
X130449500Y-92902135D01*
X130449500Y-93500500D01*
X130429815Y-93567539D01*
X130377011Y-93613294D01*
X130325500Y-93624500D01*
X125084188Y-93624500D01*
X125017149Y-93604815D01*
X124982613Y-93571623D01*
X124870045Y-93410858D01*
X124709141Y-93249954D01*
X124522734Y-93119432D01*
X124522728Y-93119429D01*
X124495038Y-93106517D01*
X124464724Y-93092381D01*
X124412285Y-93046210D01*
X124393133Y-92979017D01*
X124413348Y-92912135D01*
X124464725Y-92867618D01*
X124522734Y-92840568D01*
X124709139Y-92710047D01*
X124870047Y-92549139D01*
X125000568Y-92362734D01*
X125096739Y-92156496D01*
X125155635Y-91936692D01*
X125175468Y-91710000D01*
X125155635Y-91483308D01*
X125096739Y-91263504D01*
X125000568Y-91057266D01*
X124901676Y-90916032D01*
X124870045Y-90870858D01*
X124709141Y-90709954D01*
X124522734Y-90579432D01*
X124522732Y-90579431D01*
X124316497Y-90483261D01*
X124316488Y-90483258D01*
X124096697Y-90424366D01*
X124096693Y-90424365D01*
X124096692Y-90424365D01*
X124096691Y-90424364D01*
X124096686Y-90424364D01*
X123870002Y-90404532D01*
X123869999Y-90404532D01*
X123643313Y-90424364D01*
X123643309Y-90424364D01*
X123643308Y-90424365D01*
X123643303Y-90424366D01*
X123643300Y-90424367D01*
X123581592Y-90440901D01*
X123511742Y-90439238D01*
X123453880Y-90400074D01*
X123426377Y-90335846D01*
X123425500Y-90321126D01*
X123425500Y-88614188D01*
X123445185Y-88547149D01*
X123478377Y-88512613D01*
X123526836Y-88478681D01*
X123639139Y-88400047D01*
X123800047Y-88239139D01*
X123930568Y-88052734D01*
X124026739Y-87846496D01*
X124085635Y-87626692D01*
X124099539Y-87467763D01*
X141145787Y-87467763D01*
X141175413Y-87737013D01*
X141175415Y-87737024D01*
X141243926Y-87999082D01*
X141243928Y-87999088D01*
X141349870Y-88248390D01*
X141421998Y-88366575D01*
X141490979Y-88479605D01*
X141490986Y-88479615D01*
X141664253Y-88687819D01*
X141664259Y-88687824D01*
X141865998Y-88868582D01*
X142091910Y-89018044D01*
X142337176Y-89133020D01*
X142337183Y-89133022D01*
X142337185Y-89133023D01*
X142596557Y-89211057D01*
X142596564Y-89211058D01*
X142596569Y-89211060D01*
X142864561Y-89250500D01*
X142864566Y-89250500D01*
X143067636Y-89250500D01*
X143119133Y-89246730D01*
X143270156Y-89235677D01*
X143382758Y-89210593D01*
X143534546Y-89176782D01*
X143534548Y-89176781D01*
X143534553Y-89176780D01*
X143787558Y-89080014D01*
X144023777Y-88947441D01*
X144238177Y-88781888D01*
X144426186Y-88586881D01*
X144583799Y-88366579D01*
X144657787Y-88222669D01*
X144707649Y-88125690D01*
X144707651Y-88125684D01*
X144707656Y-88125675D01*
X144795118Y-87869305D01*
X144844319Y-87602933D01*
X144854212Y-87332235D01*
X144824586Y-87062982D01*
X144756072Y-86800912D01*
X144650130Y-86551610D01*
X144509018Y-86320390D01*
X144507845Y-86318981D01*
X144335746Y-86112180D01*
X144335740Y-86112175D01*
X144134002Y-85931418D01*
X143908092Y-85781957D01*
X143908090Y-85781956D01*
X143662824Y-85666980D01*
X143662819Y-85666978D01*
X143662814Y-85666976D01*
X143403442Y-85588942D01*
X143403428Y-85588939D01*
X143287791Y-85571921D01*
X143135439Y-85549500D01*
X142932369Y-85549500D01*
X142932364Y-85549500D01*
X142729844Y-85564323D01*
X142729831Y-85564325D01*
X142465453Y-85623217D01*
X142465446Y-85623220D01*
X142212439Y-85719987D01*
X141976226Y-85852557D01*
X141761822Y-86018112D01*
X141573822Y-86213109D01*
X141573816Y-86213116D01*
X141416202Y-86433419D01*
X141416199Y-86433424D01*
X141292350Y-86674309D01*
X141292343Y-86674327D01*
X141204884Y-86930685D01*
X141204881Y-86930699D01*
X141189341Y-87014835D01*
X141157957Y-87184748D01*
X141155681Y-87197068D01*
X141155680Y-87197075D01*
X141145787Y-87467763D01*
X124099539Y-87467763D01*
X124105468Y-87400000D01*
X124085635Y-87173308D01*
X124026739Y-86953504D01*
X123930568Y-86747266D01*
X123800047Y-86560861D01*
X123800045Y-86560858D01*
X123639141Y-86399954D01*
X123452734Y-86269432D01*
X123452732Y-86269431D01*
X123246497Y-86173261D01*
X123246488Y-86173258D01*
X123026697Y-86114366D01*
X123026693Y-86114365D01*
X123026692Y-86114365D01*
X123026691Y-86114364D01*
X123026686Y-86114364D01*
X122800002Y-86094532D01*
X122799998Y-86094532D01*
X122573313Y-86114364D01*
X122573302Y-86114366D01*
X122353511Y-86173258D01*
X122353502Y-86173261D01*
X122147267Y-86269431D01*
X122147265Y-86269432D01*
X121960858Y-86399954D01*
X121799954Y-86560858D01*
X121669432Y-86747265D01*
X121669431Y-86747267D01*
X121573261Y-86953502D01*
X121573258Y-86953511D01*
X121514366Y-87173302D01*
X121514364Y-87173313D01*
X121494532Y-87399998D01*
X121494532Y-87400001D01*
X121514364Y-87626686D01*
X121514366Y-87626697D01*
X121573258Y-87846488D01*
X121573261Y-87846497D01*
X121669431Y-88052732D01*
X121669432Y-88052734D01*
X121799954Y-88239141D01*
X121960859Y-88400046D01*
X122121622Y-88512613D01*
X122165247Y-88567190D01*
X122174499Y-88614188D01*
X122174499Y-90557261D01*
X122172776Y-90572878D01*
X122173060Y-90572905D01*
X122172326Y-90580664D01*
X122174500Y-90649814D01*
X122174500Y-90679343D01*
X122174501Y-90679360D01*
X122175368Y-90686231D01*
X122175826Y-90692050D01*
X122177290Y-90738624D01*
X122177291Y-90738627D01*
X122182880Y-90757867D01*
X122186824Y-90776911D01*
X122189336Y-90796792D01*
X122191603Y-90802517D01*
X122206490Y-90840119D01*
X122208382Y-90845647D01*
X122221381Y-90890388D01*
X122231580Y-90907634D01*
X122240138Y-90925103D01*
X122247514Y-90943732D01*
X122274898Y-90981423D01*
X122278106Y-90986307D01*
X122301827Y-91026416D01*
X122301833Y-91026424D01*
X122315990Y-91040580D01*
X122328628Y-91055376D01*
X122340405Y-91071586D01*
X122340406Y-91071587D01*
X122376309Y-91101288D01*
X122380620Y-91105210D01*
X122538912Y-91263502D01*
X122570586Y-91295176D01*
X122604071Y-91356499D01*
X122602681Y-91414948D01*
X122584365Y-91483307D01*
X122584364Y-91483313D01*
X122564532Y-91709998D01*
X122564532Y-91710000D01*
X122584364Y-91936686D01*
X122584365Y-91936691D01*
X122584366Y-91936697D01*
X122602680Y-92005048D01*
X122601017Y-92074897D01*
X122570586Y-92124821D01*
X121815903Y-92879504D01*
X121803646Y-92889325D01*
X121803829Y-92889546D01*
X121797818Y-92894518D01*
X121750467Y-92944941D01*
X121729584Y-92965824D01*
X121729572Y-92965837D01*
X121725316Y-92971322D01*
X121721532Y-92975752D01*
X121689632Y-93009723D01*
X121689631Y-93009725D01*
X121679979Y-93027281D01*
X121669305Y-93043531D01*
X121657024Y-93059366D01*
X121657019Y-93059373D01*
X121638510Y-93102143D01*
X121635940Y-93107389D01*
X121613498Y-93148211D01*
X121608517Y-93167612D01*
X121602216Y-93186015D01*
X121594257Y-93204407D01*
X121594256Y-93204410D01*
X121586966Y-93250432D01*
X121585782Y-93256151D01*
X121574196Y-93301277D01*
X121574195Y-93301287D01*
X121574195Y-93321321D01*
X121572668Y-93340721D01*
X121569534Y-93360499D01*
X121573919Y-93406885D01*
X121574194Y-93412722D01*
X121574194Y-98149851D01*
X121554509Y-98216890D01*
X121537875Y-98237532D01*
X117683791Y-102091615D01*
X117622468Y-102125100D01*
X117552776Y-102120116D01*
X117552619Y-102120000D01*
X116760576Y-102120000D01*
X116693537Y-102100315D01*
X116647782Y-102047511D01*
X116637838Y-101978353D01*
X116638103Y-101976603D01*
X116654986Y-101870003D01*
X116654986Y-101869996D01*
X116638103Y-101763397D01*
X116647058Y-101694104D01*
X116692054Y-101640652D01*
X116758806Y-101620013D01*
X116760576Y-101620000D01*
X117528872Y-101620000D01*
X117528872Y-101619999D01*
X117476269Y-101423682D01*
X117476265Y-101423673D01*
X117380134Y-101217517D01*
X117249657Y-101031179D01*
X117088820Y-100870342D01*
X116902481Y-100739865D01*
X116902479Y-100739864D01*
X116843543Y-100712382D01*
X116791103Y-100666210D01*
X116771951Y-100599017D01*
X116792166Y-100532136D01*
X116843543Y-100487618D01*
X116902479Y-100460135D01*
X116902481Y-100460134D01*
X117088820Y-100329657D01*
X117249657Y-100168820D01*
X117380134Y-99982482D01*
X117476265Y-99776326D01*
X117476269Y-99776317D01*
X117528872Y-99580000D01*
X116760576Y-99580000D01*
X116693537Y-99560315D01*
X116647782Y-99507511D01*
X116637838Y-99438353D01*
X116638103Y-99436603D01*
X116654986Y-99330003D01*
X116654986Y-99329996D01*
X116638103Y-99223397D01*
X116647058Y-99154104D01*
X116692054Y-99100652D01*
X116758806Y-99080013D01*
X116760576Y-99080000D01*
X117528872Y-99080000D01*
X117528872Y-99079999D01*
X117476269Y-98883682D01*
X117476265Y-98883673D01*
X117380134Y-98677517D01*
X117249657Y-98491179D01*
X117088820Y-98330342D01*
X116902481Y-98199865D01*
X116902479Y-98199864D01*
X116843543Y-98172382D01*
X116791103Y-98126210D01*
X116771951Y-98059017D01*
X116792166Y-97992136D01*
X116843543Y-97947618D01*
X116902479Y-97920135D01*
X116902481Y-97920134D01*
X117088820Y-97789657D01*
X117249657Y-97628820D01*
X117380134Y-97442482D01*
X117476265Y-97236326D01*
X117476269Y-97236317D01*
X117528872Y-97040000D01*
X116760576Y-97040000D01*
X116693537Y-97020315D01*
X116647782Y-96967511D01*
X116637838Y-96898353D01*
X116638103Y-96896603D01*
X116654986Y-96790003D01*
X116654986Y-96789996D01*
X116638103Y-96683397D01*
X116647058Y-96614104D01*
X116692054Y-96560652D01*
X116758806Y-96540013D01*
X116760576Y-96540000D01*
X117528872Y-96540000D01*
X117528872Y-96539999D01*
X117476269Y-96343682D01*
X117476265Y-96343673D01*
X117380134Y-96137517D01*
X117249657Y-95951179D01*
X117088820Y-95790342D01*
X116902482Y-95659865D01*
X116844133Y-95632657D01*
X116791694Y-95586484D01*
X116772542Y-95519291D01*
X116792758Y-95452410D01*
X116844129Y-95407895D01*
X116902734Y-95380568D01*
X117089139Y-95250047D01*
X117250047Y-95089139D01*
X117380568Y-94902734D01*
X117476739Y-94696496D01*
X117535635Y-94476692D01*
X117555468Y-94250000D01*
X117535635Y-94023308D01*
X117476739Y-93803504D01*
X117380568Y-93597266D01*
X117250047Y-93410861D01*
X117250045Y-93410858D01*
X117089143Y-93249956D01*
X117064536Y-93232726D01*
X117020912Y-93178149D01*
X117013719Y-93108650D01*
X117045241Y-93046296D01*
X117105471Y-93010882D01*
X117122404Y-93007861D01*
X117157483Y-93004091D01*
X117292331Y-92953796D01*
X117407546Y-92867546D01*
X117493796Y-92752331D01*
X117544091Y-92617483D01*
X117550500Y-92557873D01*
X117550499Y-90862128D01*
X117544091Y-90802517D01*
X117541955Y-90796791D01*
X117493797Y-90667671D01*
X117493793Y-90667664D01*
X117407547Y-90552455D01*
X117407544Y-90552452D01*
X117292335Y-90466206D01*
X117292328Y-90466202D01*
X117157482Y-90415908D01*
X117157483Y-90415908D01*
X117097883Y-90409501D01*
X117097881Y-90409500D01*
X117097873Y-90409500D01*
X117097864Y-90409500D01*
X115402129Y-90409500D01*
X115402123Y-90409501D01*
X115342516Y-90415908D01*
X115207671Y-90466202D01*
X115207664Y-90466206D01*
X115092455Y-90552452D01*
X115092452Y-90552455D01*
X115006206Y-90667664D01*
X115006202Y-90667671D01*
X114955908Y-90802517D01*
X114949501Y-90862116D01*
X114949501Y-90862123D01*
X114949500Y-90862135D01*
X114949500Y-92557870D01*
X114949501Y-92557876D01*
X114955908Y-92617483D01*
X115006202Y-92752328D01*
X115006206Y-92752335D01*
X115092452Y-92867544D01*
X115092455Y-92867547D01*
X115207664Y-92953793D01*
X115207671Y-92953797D01*
X115252618Y-92970560D01*
X115342517Y-93004091D01*
X115377596Y-93007862D01*
X115442144Y-93034599D01*
X115481993Y-93091991D01*
X115484488Y-93161816D01*
X115448836Y-93221905D01*
X115435464Y-93232725D01*
X115410858Y-93249954D01*
X115249954Y-93410858D01*
X115119432Y-93597265D01*
X115119431Y-93597267D01*
X115023261Y-93803502D01*
X115023258Y-93803511D01*
X114964366Y-94023302D01*
X114964364Y-94023313D01*
X114949368Y-94194725D01*
X114944532Y-94250000D01*
X114964364Y-94476686D01*
X114964365Y-94476691D01*
X114964366Y-94476697D01*
X114982680Y-94545048D01*
X114981017Y-94614897D01*
X114950586Y-94664821D01*
X109441208Y-100174199D01*
X109428951Y-100184020D01*
X109429134Y-100184241D01*
X109423123Y-100189213D01*
X109375772Y-100239636D01*
X109354889Y-100260519D01*
X109354877Y-100260532D01*
X109350621Y-100266017D01*
X109346837Y-100270447D01*
X109314937Y-100304418D01*
X109314936Y-100304420D01*
X109305284Y-100321976D01*
X109294610Y-100338226D01*
X109282329Y-100354061D01*
X109282324Y-100354068D01*
X109263815Y-100396838D01*
X109261245Y-100402084D01*
X109238803Y-100442906D01*
X109233822Y-100462307D01*
X109227521Y-100480710D01*
X109219562Y-100499102D01*
X109219561Y-100499105D01*
X109212271Y-100545127D01*
X109211087Y-100550846D01*
X109199501Y-100595972D01*
X109199500Y-100595982D01*
X109199500Y-100616016D01*
X109197973Y-100635415D01*
X109194840Y-100655194D01*
X109194840Y-100655195D01*
X109199225Y-100701583D01*
X109199500Y-100707421D01*
X109199499Y-108862255D01*
X109197776Y-108877872D01*
X109198061Y-108877899D01*
X109197326Y-108885665D01*
X109199500Y-108954814D01*
X109199500Y-108984343D01*
X109199501Y-108984360D01*
X109200368Y-108991231D01*
X109200826Y-108997050D01*
X109202290Y-109043624D01*
X109202291Y-109043627D01*
X109207880Y-109062867D01*
X109211824Y-109081911D01*
X109214336Y-109101791D01*
X109231490Y-109145119D01*
X109233382Y-109150647D01*
X109246381Y-109195388D01*
X109256580Y-109212634D01*
X109265138Y-109230103D01*
X109272514Y-109248732D01*
X109299898Y-109286423D01*
X109303106Y-109291307D01*
X109326827Y-109331416D01*
X109326833Y-109331424D01*
X109340990Y-109345580D01*
X109353628Y-109360376D01*
X109365405Y-109376586D01*
X109365406Y-109376587D01*
X109401309Y-109406288D01*
X109405620Y-109410210D01*
X109659762Y-109664352D01*
X109693247Y-109725675D01*
X109691856Y-109784126D01*
X109664938Y-109884586D01*
X109664936Y-109884596D01*
X109644341Y-110119999D01*
X109644341Y-110120000D01*
X109664937Y-110355408D01*
X109691855Y-110455873D01*
X109690192Y-110525723D01*
X109659761Y-110575646D01*
X109441208Y-110794199D01*
X109428951Y-110804020D01*
X109429134Y-110804241D01*
X109423123Y-110809213D01*
X109375772Y-110859636D01*
X109354889Y-110880519D01*
X109354877Y-110880532D01*
X109350621Y-110886017D01*
X109346837Y-110890447D01*
X109314937Y-110924418D01*
X109314936Y-110924420D01*
X109305284Y-110941976D01*
X109294610Y-110958226D01*
X109282329Y-110974061D01*
X109282324Y-110974068D01*
X109263815Y-111016838D01*
X109261245Y-111022084D01*
X109238803Y-111062906D01*
X109233822Y-111082307D01*
X109227521Y-111100710D01*
X109219562Y-111119102D01*
X109219561Y-111119105D01*
X109212271Y-111165127D01*
X109211087Y-111170846D01*
X109199501Y-111215972D01*
X109199500Y-111215982D01*
X109199500Y-111236016D01*
X109197973Y-111255415D01*
X109194840Y-111275194D01*
X109194840Y-111275195D01*
X109199225Y-111321583D01*
X109199500Y-111327421D01*
X109199500Y-128462254D01*
X109197775Y-128477872D01*
X109198061Y-128477899D01*
X109197326Y-128485666D01*
X109199499Y-128554814D01*
X109199499Y-128584351D01*
X109200368Y-128591232D01*
X109200826Y-128597051D01*
X109202290Y-128643624D01*
X109202291Y-128643627D01*
X109207880Y-128662867D01*
X109211824Y-128681911D01*
X109214336Y-128701792D01*
X109224187Y-128726674D01*
X109231490Y-128745119D01*
X109233382Y-128750647D01*
X109246381Y-128795388D01*
X109256580Y-128812634D01*
X109265136Y-128830100D01*
X109272514Y-128848732D01*
X109293448Y-128877546D01*
X109299898Y-128886423D01*
X109303106Y-128891307D01*
X109326827Y-128931416D01*
X109326833Y-128931424D01*
X109340990Y-128945580D01*
X109353628Y-128960376D01*
X109365050Y-128976098D01*
X109365406Y-128976587D01*
X109380431Y-128989017D01*
X109401309Y-129006288D01*
X109405620Y-129010210D01*
X109553074Y-129157664D01*
X109659762Y-129264352D01*
X109693247Y-129325675D01*
X109691856Y-129384126D01*
X109664938Y-129484586D01*
X109664936Y-129484596D01*
X109644341Y-129719999D01*
X109644341Y-129720000D01*
X109664936Y-129955403D01*
X109664938Y-129955413D01*
X109726094Y-130183655D01*
X109726096Y-130183659D01*
X109726097Y-130183663D01*
X109761693Y-130259998D01*
X109825965Y-130397830D01*
X109825967Y-130397834D01*
X109961501Y-130591395D01*
X109961506Y-130591402D01*
X110128597Y-130758493D01*
X110128603Y-130758498D01*
X110314158Y-130888425D01*
X110357783Y-130943002D01*
X110364977Y-131012500D01*
X110333454Y-131074855D01*
X110314158Y-131091575D01*
X110128597Y-131221505D01*
X109961505Y-131388597D01*
X109825965Y-131582169D01*
X109825964Y-131582171D01*
X109726098Y-131796335D01*
X109726094Y-131796344D01*
X109664938Y-132024586D01*
X109664936Y-132024596D01*
X109644341Y-132259999D01*
X109644341Y-132260000D01*
X109664936Y-132495403D01*
X109664938Y-132495413D01*
X109726094Y-132723655D01*
X109726096Y-132723659D01*
X109726097Y-132723663D01*
X109811080Y-132905909D01*
X109825965Y-132937830D01*
X109825967Y-132937834D01*
X109961501Y-133131395D01*
X109961506Y-133131402D01*
X110128597Y-133298493D01*
X110128603Y-133298498D01*
X110164134Y-133323377D01*
X110309979Y-133425499D01*
X110314594Y-133428730D01*
X110358219Y-133483307D01*
X110365413Y-133552805D01*
X110333890Y-133615160D01*
X110314595Y-133631880D01*
X110128922Y-133761890D01*
X110128920Y-133761891D01*
X109961891Y-133928920D01*
X109961886Y-133928926D01*
X109826400Y-134122420D01*
X109826399Y-134122422D01*
X109726570Y-134336507D01*
X109726569Y-134336510D01*
X109669364Y-134549999D01*
X109669364Y-134550000D01*
X110386653Y-134550000D01*
X110453692Y-134569685D01*
X110499447Y-134622489D01*
X110509391Y-134691647D01*
X110505631Y-134708933D01*
X110500000Y-134728111D01*
X110500000Y-134871888D01*
X110505631Y-134891067D01*
X110505630Y-134960936D01*
X110467855Y-135019714D01*
X110404299Y-135048738D01*
X110386653Y-135050000D01*
X109669364Y-135050000D01*
X109726567Y-135263486D01*
X109726570Y-135263492D01*
X109826399Y-135477578D01*
X109961894Y-135671082D01*
X110128917Y-135838105D01*
X110322421Y-135973600D01*
X110536507Y-136073429D01*
X110536516Y-136073433D01*
X110749999Y-136130633D01*
X110749999Y-135412301D01*
X110769683Y-135345262D01*
X110822487Y-135299507D01*
X110891646Y-135289563D01*
X110898380Y-135290531D01*
X110964237Y-135300000D01*
X110964238Y-135300000D01*
X111035762Y-135300000D01*
X111035763Y-135300000D01*
X111108353Y-135289563D01*
X111177512Y-135299507D01*
X111230315Y-135345262D01*
X111250000Y-135412301D01*
X111250000Y-136130633D01*
X111463483Y-136073433D01*
X111463492Y-136073429D01*
X111677578Y-135973600D01*
X111871082Y-135838105D01*
X112038105Y-135671082D01*
X112173600Y-135477578D01*
X112273429Y-135263492D01*
X112273432Y-135263486D01*
X112330636Y-135050000D01*
X111613347Y-135050000D01*
X111546308Y-135030315D01*
X111500553Y-134977511D01*
X111490609Y-134908353D01*
X111494369Y-134891067D01*
X111500000Y-134871888D01*
X111500000Y-134728111D01*
X111494369Y-134708933D01*
X111494370Y-134639064D01*
X111532145Y-134580286D01*
X111595701Y-134551262D01*
X111613347Y-134550000D01*
X112330636Y-134550000D01*
X112330635Y-134549999D01*
X112273431Y-134336510D01*
X112273429Y-134336507D01*
X112173600Y-134122422D01*
X112173599Y-134122420D01*
X112038113Y-133928926D01*
X112038108Y-133928920D01*
X111871078Y-133761890D01*
X111685405Y-133631879D01*
X111641780Y-133577302D01*
X111634588Y-133507804D01*
X111666110Y-133445449D01*
X111685406Y-133428730D01*
X111690019Y-133425500D01*
X111871401Y-133298495D01*
X112038495Y-133131401D01*
X112174035Y-132937830D01*
X112273903Y-132723663D01*
X112335063Y-132495408D01*
X112355659Y-132260000D01*
X112335063Y-132024592D01*
X112308142Y-131924125D01*
X112309806Y-131854276D01*
X112340235Y-131804353D01*
X115099190Y-129045398D01*
X115160511Y-129011915D01*
X115215394Y-129012406D01*
X115222502Y-129014085D01*
X115222517Y-129014091D01*
X115257596Y-129017862D01*
X115322144Y-129044599D01*
X115361993Y-129101991D01*
X115364488Y-129171816D01*
X115328836Y-129231905D01*
X115315464Y-129242725D01*
X115290858Y-129259954D01*
X115129954Y-129420858D01*
X114999432Y-129607265D01*
X114999431Y-129607267D01*
X114903261Y-129813502D01*
X114903258Y-129813511D01*
X114844366Y-130033302D01*
X114844364Y-130033313D01*
X114824532Y-130259998D01*
X114824532Y-130260001D01*
X114844364Y-130486686D01*
X114844366Y-130486697D01*
X114903258Y-130706488D01*
X114903261Y-130706497D01*
X114999431Y-130912732D01*
X114999432Y-130912734D01*
X115129954Y-131099141D01*
X115290858Y-131260045D01*
X115290861Y-131260047D01*
X115477266Y-131390568D01*
X115535865Y-131417893D01*
X115588305Y-131464065D01*
X115607457Y-131531258D01*
X115587242Y-131598139D01*
X115535867Y-131642657D01*
X115477515Y-131669867D01*
X115291179Y-131800342D01*
X115130342Y-131961179D01*
X114999865Y-132147517D01*
X114903734Y-132353673D01*
X114903730Y-132353682D01*
X114851127Y-132549999D01*
X114851128Y-132550000D01*
X115619424Y-132550000D01*
X115686463Y-132569685D01*
X115732218Y-132622489D01*
X115742162Y-132691647D01*
X115741897Y-132693397D01*
X115725014Y-132799996D01*
X115725014Y-132800003D01*
X115741897Y-132906603D01*
X115732942Y-132975896D01*
X115687946Y-133029348D01*
X115621194Y-133049987D01*
X115619424Y-133050000D01*
X114851128Y-133050000D01*
X114903730Y-133246317D01*
X114903734Y-133246326D01*
X114999865Y-133452482D01*
X115130342Y-133638820D01*
X115291179Y-133799657D01*
X115477517Y-133930134D01*
X115536457Y-133957618D01*
X115588896Y-134003790D01*
X115608048Y-134070984D01*
X115587832Y-134137865D01*
X115536457Y-134182382D01*
X115477517Y-134209865D01*
X115291179Y-134340342D01*
X115130342Y-134501179D01*
X114999865Y-134687517D01*
X114903734Y-134893673D01*
X114903730Y-134893682D01*
X114851127Y-135089999D01*
X114851128Y-135090000D01*
X115619424Y-135090000D01*
X115686463Y-135109685D01*
X115732218Y-135162489D01*
X115742162Y-135231647D01*
X115741897Y-135233397D01*
X115725014Y-135339996D01*
X115725014Y-135340003D01*
X115741897Y-135446603D01*
X115732942Y-135515896D01*
X115687946Y-135569348D01*
X115621194Y-135589987D01*
X115619424Y-135590000D01*
X114851128Y-135590000D01*
X114903730Y-135786317D01*
X114903734Y-135786326D01*
X114999865Y-135992482D01*
X115130342Y-136178820D01*
X115291179Y-136339657D01*
X115477518Y-136470134D01*
X115477520Y-136470135D01*
X115535865Y-136497342D01*
X115588305Y-136543514D01*
X115607457Y-136610707D01*
X115587242Y-136677589D01*
X115535867Y-136722105D01*
X115477268Y-136749431D01*
X115477264Y-136749433D01*
X115290858Y-136879954D01*
X115129954Y-137040858D01*
X114999432Y-137227265D01*
X114999431Y-137227267D01*
X114903261Y-137433502D01*
X114903258Y-137433511D01*
X114844366Y-137653302D01*
X114844364Y-137653313D01*
X114824532Y-137879998D01*
X114824532Y-137880001D01*
X114844364Y-138106686D01*
X114844366Y-138106697D01*
X114903258Y-138326488D01*
X114903261Y-138326497D01*
X114999431Y-138532732D01*
X114999432Y-138532734D01*
X115129954Y-138719141D01*
X115290858Y-138880045D01*
X115451623Y-138992613D01*
X115495248Y-139047189D01*
X115504500Y-139094188D01*
X115504500Y-139205811D01*
X115484815Y-139272850D01*
X115451623Y-139307386D01*
X115290859Y-139419953D01*
X115129954Y-139580858D01*
X114999432Y-139767265D01*
X114999431Y-139767267D01*
X114903261Y-139973502D01*
X114903258Y-139973511D01*
X114844366Y-140193302D01*
X114844364Y-140193313D01*
X114824532Y-140419998D01*
X114824532Y-140420001D01*
X114844364Y-140646686D01*
X114844366Y-140646697D01*
X114903258Y-140866488D01*
X114903261Y-140866497D01*
X114999431Y-141072732D01*
X114999432Y-141072734D01*
X115129954Y-141259141D01*
X115290858Y-141420045D01*
X115290861Y-141420047D01*
X115477266Y-141550568D01*
X115535275Y-141577618D01*
X115587714Y-141623791D01*
X115606866Y-141690984D01*
X115586650Y-141757865D01*
X115535275Y-141802382D01*
X115477267Y-141829431D01*
X115477265Y-141829432D01*
X115290858Y-141959954D01*
X115129954Y-142120858D01*
X114999432Y-142307265D01*
X114999431Y-142307267D01*
X114903261Y-142513502D01*
X114903258Y-142513511D01*
X114844366Y-142733302D01*
X114844364Y-142733313D01*
X114824532Y-142959998D01*
X114824532Y-142960001D01*
X114844364Y-143186686D01*
X114844366Y-143186697D01*
X114903258Y-143406488D01*
X114903261Y-143406497D01*
X114999431Y-143612732D01*
X114999432Y-143612734D01*
X115129954Y-143799141D01*
X115290858Y-143960045D01*
X115290861Y-143960047D01*
X115477266Y-144090568D01*
X115535275Y-144117618D01*
X115587714Y-144163791D01*
X115606866Y-144230984D01*
X115586650Y-144297865D01*
X115535275Y-144342382D01*
X115477267Y-144369431D01*
X115477265Y-144369432D01*
X115290858Y-144499954D01*
X115129954Y-144660858D01*
X114999432Y-144847265D01*
X114999431Y-144847267D01*
X114903261Y-145053502D01*
X114903258Y-145053511D01*
X114844366Y-145273302D01*
X114844364Y-145273313D01*
X114824532Y-145499998D01*
X114824532Y-145500001D01*
X114844364Y-145726686D01*
X114844366Y-145726697D01*
X114903258Y-145946488D01*
X114903261Y-145946497D01*
X114999431Y-146152732D01*
X114999432Y-146152734D01*
X115129954Y-146339141D01*
X115290858Y-146500045D01*
X115290861Y-146500047D01*
X115477266Y-146630568D01*
X115535865Y-146657893D01*
X115588305Y-146704065D01*
X115607457Y-146771258D01*
X115587242Y-146838139D01*
X115535867Y-146882657D01*
X115477515Y-146909867D01*
X115291179Y-147040342D01*
X115130342Y-147201179D01*
X114999865Y-147387517D01*
X114903734Y-147593673D01*
X114903730Y-147593682D01*
X114851127Y-147789999D01*
X114851128Y-147790000D01*
X115619424Y-147790000D01*
X115686463Y-147809685D01*
X115732218Y-147862489D01*
X115742162Y-147931647D01*
X115741897Y-147933397D01*
X115725014Y-148039996D01*
X115725014Y-148040003D01*
X115741897Y-148146603D01*
X115732942Y-148215896D01*
X115687946Y-148269348D01*
X115621194Y-148289987D01*
X115619424Y-148290000D01*
X114851128Y-148290000D01*
X114903730Y-148486317D01*
X114903734Y-148486326D01*
X114999865Y-148692482D01*
X115130342Y-148878820D01*
X115291179Y-149039657D01*
X115477517Y-149170134D01*
X115683673Y-149266265D01*
X115683682Y-149266269D01*
X115879999Y-149318872D01*
X115880000Y-149318871D01*
X115880000Y-148550575D01*
X115899685Y-148483536D01*
X115952489Y-148437781D01*
X116021647Y-148427837D01*
X116023331Y-148428091D01*
X116055699Y-148433218D01*
X116098515Y-148440000D01*
X116098519Y-148440000D01*
X116161485Y-148440000D01*
X116198960Y-148434064D01*
X116236602Y-148428102D01*
X116305893Y-148437056D01*
X116359346Y-148482052D01*
X116379986Y-148548803D01*
X116379999Y-148550575D01*
X116379999Y-149318872D01*
X116576317Y-149266269D01*
X116576326Y-149266265D01*
X116782482Y-149170134D01*
X116968820Y-149039657D01*
X117129657Y-148878820D01*
X117260134Y-148692482D01*
X117356265Y-148486326D01*
X117356269Y-148486317D01*
X117408872Y-148290000D01*
X116640576Y-148290000D01*
X116573537Y-148270315D01*
X116527782Y-148217511D01*
X116517838Y-148148353D01*
X116518103Y-148146603D01*
X116534986Y-148040003D01*
X116534986Y-148039996D01*
X116518103Y-147933397D01*
X116527058Y-147864104D01*
X116572054Y-147810652D01*
X116638806Y-147790013D01*
X116640576Y-147790000D01*
X117408872Y-147790000D01*
X117408872Y-147789999D01*
X117356269Y-147593682D01*
X117356265Y-147593673D01*
X117260134Y-147387517D01*
X117129657Y-147201179D01*
X116968820Y-147040342D01*
X116782482Y-146909865D01*
X116724133Y-146882657D01*
X116671694Y-146836484D01*
X116652542Y-146769291D01*
X116672758Y-146702410D01*
X116724129Y-146657895D01*
X116782734Y-146630568D01*
X116969139Y-146500047D01*
X117130047Y-146339139D01*
X117260568Y-146152734D01*
X117356739Y-145946496D01*
X117415635Y-145726692D01*
X117435468Y-145500000D01*
X117415635Y-145273308D01*
X117356739Y-145053504D01*
X117260568Y-144847266D01*
X117130047Y-144660861D01*
X117130045Y-144660858D01*
X116969141Y-144499954D01*
X116782734Y-144369432D01*
X116782728Y-144369429D01*
X116724725Y-144342382D01*
X116672285Y-144296210D01*
X116653133Y-144229017D01*
X116673348Y-144162135D01*
X116724725Y-144117618D01*
X116782734Y-144090568D01*
X116969139Y-143960047D01*
X117130047Y-143799139D01*
X117260568Y-143612734D01*
X117356739Y-143406496D01*
X117415635Y-143186692D01*
X117435468Y-142960000D01*
X117415635Y-142733308D01*
X117356739Y-142513504D01*
X117260568Y-142307266D01*
X117130047Y-142120861D01*
X117130045Y-142120858D01*
X116969141Y-141959954D01*
X116782734Y-141829432D01*
X116782728Y-141829429D01*
X116724725Y-141802382D01*
X116672285Y-141756210D01*
X116653133Y-141689017D01*
X116673348Y-141622135D01*
X116724725Y-141577618D01*
X116782734Y-141550568D01*
X116969139Y-141420047D01*
X117130047Y-141259139D01*
X117260568Y-141072734D01*
X117356739Y-140866496D01*
X117415635Y-140646692D01*
X117435468Y-140420000D01*
X117415635Y-140193308D01*
X117356739Y-139973504D01*
X117260568Y-139767266D01*
X117130047Y-139580861D01*
X117130045Y-139580858D01*
X116969141Y-139419954D01*
X116808376Y-139307386D01*
X116764751Y-139252809D01*
X116755500Y-139205815D01*
X116755500Y-139094187D01*
X116775185Y-139027148D01*
X116808377Y-138992613D01*
X116856836Y-138958681D01*
X116969139Y-138880047D01*
X117130047Y-138719139D01*
X117260568Y-138532734D01*
X117356739Y-138326496D01*
X117415635Y-138106692D01*
X117435468Y-137880000D01*
X117415635Y-137653308D01*
X117397318Y-137584948D01*
X117398981Y-137515103D01*
X117429410Y-137465179D01*
X121708788Y-133185801D01*
X121721042Y-133175986D01*
X121720859Y-133175764D01*
X121726866Y-133170792D01*
X121726877Y-133170786D01*
X121763862Y-133131401D01*
X121774227Y-133120364D01*
X121784671Y-133109918D01*
X121795120Y-133099471D01*
X121799379Y-133093978D01*
X121803152Y-133089561D01*
X121835062Y-133055582D01*
X121844713Y-133038024D01*
X121855396Y-133021761D01*
X121867673Y-133005936D01*
X121886185Y-132963153D01*
X121888738Y-132957941D01*
X121911197Y-132917092D01*
X121916180Y-132897680D01*
X121922481Y-132879280D01*
X121930437Y-132860896D01*
X121937729Y-132814852D01*
X121938906Y-132809171D01*
X121950500Y-132764019D01*
X121950500Y-132743983D01*
X121952027Y-132724582D01*
X121955160Y-132704804D01*
X121950775Y-132658415D01*
X121950500Y-132652577D01*
X121950500Y-127104452D01*
X121970185Y-127037413D01*
X122022989Y-126991658D01*
X122092147Y-126981714D01*
X122155703Y-127010739D01*
X122162175Y-127016766D01*
X122312598Y-127167189D01*
X122450586Y-127305177D01*
X122484071Y-127366500D01*
X122482680Y-127424949D01*
X122464367Y-127493296D01*
X122464364Y-127493313D01*
X122444532Y-127719999D01*
X122444532Y-127720001D01*
X122464364Y-127946686D01*
X122464366Y-127946697D01*
X122523258Y-128166488D01*
X122523261Y-128166497D01*
X122619431Y-128372732D01*
X122619432Y-128372734D01*
X122749954Y-128559141D01*
X122910858Y-128720045D01*
X122910861Y-128720047D01*
X123097266Y-128850568D01*
X123155275Y-128877618D01*
X123207714Y-128923791D01*
X123226866Y-128990984D01*
X123206650Y-129057865D01*
X123155275Y-129102382D01*
X123097267Y-129129431D01*
X123097265Y-129129432D01*
X122910858Y-129259954D01*
X122749954Y-129420858D01*
X122619432Y-129607265D01*
X122619431Y-129607267D01*
X122523261Y-129813502D01*
X122523258Y-129813511D01*
X122464366Y-130033302D01*
X122464364Y-130033313D01*
X122444532Y-130259998D01*
X122444532Y-130260001D01*
X122464364Y-130486686D01*
X122464366Y-130486697D01*
X122523258Y-130706488D01*
X122523261Y-130706497D01*
X122619431Y-130912732D01*
X122619432Y-130912734D01*
X122749954Y-131099141D01*
X122910858Y-131260045D01*
X122910861Y-131260047D01*
X123097266Y-131390568D01*
X123155275Y-131417618D01*
X123207714Y-131463791D01*
X123226866Y-131530984D01*
X123206650Y-131597865D01*
X123155275Y-131642382D01*
X123097267Y-131669431D01*
X123097265Y-131669432D01*
X122910858Y-131799954D01*
X122749954Y-131960858D01*
X122619432Y-132147265D01*
X122619431Y-132147267D01*
X122523261Y-132353502D01*
X122523258Y-132353511D01*
X122464366Y-132573302D01*
X122464364Y-132573313D01*
X122444532Y-132799998D01*
X122444532Y-132800001D01*
X122464364Y-133026686D01*
X122464366Y-133026697D01*
X122523258Y-133246488D01*
X122523261Y-133246497D01*
X122619431Y-133452732D01*
X122619432Y-133452734D01*
X122749954Y-133639141D01*
X122910858Y-133800045D01*
X122910861Y-133800047D01*
X123097266Y-133930568D01*
X123155275Y-133957618D01*
X123207714Y-134003791D01*
X123226866Y-134070984D01*
X123206650Y-134137865D01*
X123155275Y-134182382D01*
X123097267Y-134209431D01*
X123097265Y-134209432D01*
X122910858Y-134339954D01*
X122749954Y-134500858D01*
X122619432Y-134687265D01*
X122619431Y-134687267D01*
X122523261Y-134893502D01*
X122523258Y-134893511D01*
X122464366Y-135113302D01*
X122464364Y-135113313D01*
X122444532Y-135339998D01*
X122444532Y-135340001D01*
X122464364Y-135566686D01*
X122464366Y-135566697D01*
X122523258Y-135786488D01*
X122523261Y-135786497D01*
X122619431Y-135992732D01*
X122619432Y-135992734D01*
X122749954Y-136179141D01*
X122910858Y-136340045D01*
X122910861Y-136340047D01*
X123097266Y-136470568D01*
X123154683Y-136497342D01*
X123155275Y-136497618D01*
X123207714Y-136543791D01*
X123226866Y-136610984D01*
X123206650Y-136677865D01*
X123155275Y-136722382D01*
X123097267Y-136749431D01*
X123097265Y-136749432D01*
X122910858Y-136879954D01*
X122749954Y-137040858D01*
X122619432Y-137227265D01*
X122619431Y-137227267D01*
X122523261Y-137433502D01*
X122523258Y-137433511D01*
X122464366Y-137653302D01*
X122464364Y-137653313D01*
X122444532Y-137879998D01*
X122444532Y-137880001D01*
X122464364Y-138106686D01*
X122464366Y-138106697D01*
X122523258Y-138326488D01*
X122523261Y-138326497D01*
X122619431Y-138532732D01*
X122619432Y-138532734D01*
X122749954Y-138719141D01*
X122910858Y-138880045D01*
X122910861Y-138880047D01*
X123097266Y-139010568D01*
X123132822Y-139027148D01*
X123155275Y-139037618D01*
X123207714Y-139083791D01*
X123226866Y-139150984D01*
X123206650Y-139217865D01*
X123155275Y-139262382D01*
X123097267Y-139289431D01*
X123097265Y-139289432D01*
X122910858Y-139419954D01*
X122749954Y-139580858D01*
X122619432Y-139767265D01*
X122619431Y-139767267D01*
X122523261Y-139973502D01*
X122523258Y-139973511D01*
X122464366Y-140193302D01*
X122464364Y-140193313D01*
X122444532Y-140419998D01*
X122444532Y-140420001D01*
X122464364Y-140646686D01*
X122464366Y-140646697D01*
X122523258Y-140866488D01*
X122523261Y-140866497D01*
X122619431Y-141072732D01*
X122619432Y-141072734D01*
X122749954Y-141259141D01*
X122910858Y-141420045D01*
X122910861Y-141420047D01*
X123097266Y-141550568D01*
X123155275Y-141577618D01*
X123207714Y-141623791D01*
X123226866Y-141690984D01*
X123206650Y-141757865D01*
X123155275Y-141802382D01*
X123097267Y-141829431D01*
X123097265Y-141829432D01*
X122910858Y-141959954D01*
X122749954Y-142120858D01*
X122619432Y-142307265D01*
X122619431Y-142307267D01*
X122523261Y-142513502D01*
X122523258Y-142513511D01*
X122464366Y-142733302D01*
X122464364Y-142733313D01*
X122444532Y-142959998D01*
X122444532Y-142960001D01*
X122464364Y-143186686D01*
X122464366Y-143186697D01*
X122523258Y-143406488D01*
X122523261Y-143406497D01*
X122619431Y-143612732D01*
X122619432Y-143612734D01*
X122749954Y-143799141D01*
X122910858Y-143960045D01*
X122910861Y-143960047D01*
X123097266Y-144090568D01*
X123155275Y-144117618D01*
X123207714Y-144163791D01*
X123226866Y-144230984D01*
X123206650Y-144297865D01*
X123155275Y-144342382D01*
X123097267Y-144369431D01*
X123097265Y-144369432D01*
X122910858Y-144499954D01*
X122749954Y-144660858D01*
X122619432Y-144847265D01*
X122619431Y-144847267D01*
X122523261Y-145053502D01*
X122523258Y-145053511D01*
X122464366Y-145273302D01*
X122464364Y-145273313D01*
X122444532Y-145499998D01*
X122444532Y-145500001D01*
X122464364Y-145726686D01*
X122464366Y-145726697D01*
X122523258Y-145946488D01*
X122523261Y-145946497D01*
X122619431Y-146152732D01*
X122619432Y-146152734D01*
X122749954Y-146339141D01*
X122910858Y-146500045D01*
X122910861Y-146500047D01*
X123097266Y-146630568D01*
X123155275Y-146657618D01*
X123207714Y-146703791D01*
X123226866Y-146770984D01*
X123206650Y-146837865D01*
X123155275Y-146882382D01*
X123097267Y-146909431D01*
X123097265Y-146909432D01*
X122910858Y-147039954D01*
X122749954Y-147200858D01*
X122619432Y-147387265D01*
X122619431Y-147387267D01*
X122523261Y-147593502D01*
X122523258Y-147593511D01*
X122464366Y-147813302D01*
X122464364Y-147813313D01*
X122444532Y-148039998D01*
X122444532Y-148040001D01*
X122464364Y-148266686D01*
X122464366Y-148266697D01*
X122523258Y-148486488D01*
X122523261Y-148486497D01*
X122619431Y-148692732D01*
X122619432Y-148692734D01*
X122749954Y-148879141D01*
X122910858Y-149040045D01*
X122910861Y-149040047D01*
X123097266Y-149170568D01*
X123303504Y-149266739D01*
X123523308Y-149325635D01*
X123685230Y-149339801D01*
X123749998Y-149345468D01*
X123750000Y-149345468D01*
X123750002Y-149345468D01*
X123806673Y-149340509D01*
X123976692Y-149325635D01*
X124196496Y-149266739D01*
X124402734Y-149170568D01*
X124589139Y-149040047D01*
X124750047Y-148879139D01*
X124880568Y-148692734D01*
X124976739Y-148486496D01*
X125035635Y-148266692D01*
X125053039Y-148067763D01*
X141145787Y-148067763D01*
X141175413Y-148337013D01*
X141175415Y-148337024D01*
X141231245Y-148550575D01*
X141243928Y-148599088D01*
X141349870Y-148848390D01*
X141421998Y-148966575D01*
X141490979Y-149079605D01*
X141490986Y-149079615D01*
X141664253Y-149287819D01*
X141664259Y-149287824D01*
X141865998Y-149468582D01*
X142091910Y-149618044D01*
X142337176Y-149733020D01*
X142337183Y-149733022D01*
X142337185Y-149733023D01*
X142596557Y-149811057D01*
X142596564Y-149811058D01*
X142596569Y-149811060D01*
X142864561Y-149850500D01*
X142864566Y-149850500D01*
X143067636Y-149850500D01*
X143119133Y-149846730D01*
X143270156Y-149835677D01*
X143382758Y-149810593D01*
X143534546Y-149776782D01*
X143534548Y-149776781D01*
X143534553Y-149776780D01*
X143787558Y-149680014D01*
X144023777Y-149547441D01*
X144238177Y-149381888D01*
X144426186Y-149186881D01*
X144583799Y-148966579D01*
X144657787Y-148822669D01*
X144707649Y-148725690D01*
X144707651Y-148725684D01*
X144707656Y-148725675D01*
X144795118Y-148469305D01*
X144844319Y-148202933D01*
X144854212Y-147932235D01*
X144824586Y-147662982D01*
X144756072Y-147400912D01*
X144650130Y-147151610D01*
X144509018Y-146920390D01*
X144499896Y-146909429D01*
X144335746Y-146712180D01*
X144335740Y-146712175D01*
X144134002Y-146531418D01*
X143908092Y-146381957D01*
X143816757Y-146339141D01*
X143662824Y-146266980D01*
X143662819Y-146266978D01*
X143662814Y-146266976D01*
X143403442Y-146188942D01*
X143403428Y-146188939D01*
X143287791Y-146171921D01*
X143135439Y-146149500D01*
X142932369Y-146149500D01*
X142932364Y-146149500D01*
X142729844Y-146164323D01*
X142729831Y-146164325D01*
X142465453Y-146223217D01*
X142465446Y-146223220D01*
X142212439Y-146319987D01*
X141976226Y-146452557D01*
X141976224Y-146452558D01*
X141976223Y-146452559D01*
X141913893Y-146500688D01*
X141761822Y-146618112D01*
X141573822Y-146813109D01*
X141573816Y-146813116D01*
X141416202Y-147033419D01*
X141416199Y-147033424D01*
X141292350Y-147274309D01*
X141292343Y-147274327D01*
X141204884Y-147530685D01*
X141204881Y-147530699D01*
X141181952Y-147654835D01*
X141156987Y-147790000D01*
X141155681Y-147797068D01*
X141155680Y-147797075D01*
X141145787Y-148067763D01*
X125053039Y-148067763D01*
X125055468Y-148040000D01*
X125035635Y-147813308D01*
X124976739Y-147593504D01*
X124880568Y-147387266D01*
X124750047Y-147200861D01*
X124750045Y-147200858D01*
X124589141Y-147039954D01*
X124402734Y-146909432D01*
X124402728Y-146909429D01*
X124344725Y-146882382D01*
X124292285Y-146836210D01*
X124273133Y-146769017D01*
X124293348Y-146702135D01*
X124344725Y-146657618D01*
X124402734Y-146630568D01*
X124589139Y-146500047D01*
X124750047Y-146339139D01*
X124880568Y-146152734D01*
X124976739Y-145946496D01*
X125035635Y-145726692D01*
X125055468Y-145500000D01*
X125035635Y-145273308D01*
X124976739Y-145053504D01*
X124880568Y-144847266D01*
X124750047Y-144660861D01*
X124750045Y-144660858D01*
X124589141Y-144499954D01*
X124402734Y-144369432D01*
X124402728Y-144369429D01*
X124344725Y-144342382D01*
X124292285Y-144296210D01*
X124273133Y-144229017D01*
X124293348Y-144162135D01*
X124344725Y-144117618D01*
X124402734Y-144090568D01*
X124589139Y-143960047D01*
X124750047Y-143799139D01*
X124880568Y-143612734D01*
X124976739Y-143406496D01*
X125035635Y-143186692D01*
X125055468Y-142960000D01*
X125035635Y-142733308D01*
X124976739Y-142513504D01*
X124880568Y-142307266D01*
X124750047Y-142120861D01*
X124750045Y-142120858D01*
X124589141Y-141959954D01*
X124402734Y-141829432D01*
X124402728Y-141829429D01*
X124344725Y-141802382D01*
X124292285Y-141756210D01*
X124273133Y-141689017D01*
X124293348Y-141622135D01*
X124344725Y-141577618D01*
X124402734Y-141550568D01*
X124589139Y-141420047D01*
X124750047Y-141259139D01*
X124880568Y-141072734D01*
X124976739Y-140866496D01*
X125035635Y-140646692D01*
X125055468Y-140420000D01*
X125035635Y-140193308D01*
X124976739Y-139973504D01*
X124880568Y-139767266D01*
X124750047Y-139580861D01*
X124750045Y-139580858D01*
X124589141Y-139419954D01*
X124402734Y-139289432D01*
X124402728Y-139289429D01*
X124344725Y-139262382D01*
X124292285Y-139216210D01*
X124273133Y-139149017D01*
X124293348Y-139082135D01*
X124344725Y-139037618D01*
X124402734Y-139010568D01*
X124589139Y-138880047D01*
X124750047Y-138719139D01*
X124837162Y-138594725D01*
X124862613Y-138558377D01*
X124917189Y-138514752D01*
X124964188Y-138505500D01*
X129995501Y-138505500D01*
X130062540Y-138525185D01*
X130108295Y-138577989D01*
X130119501Y-138629500D01*
X130119501Y-139397876D01*
X130125908Y-139457483D01*
X130176202Y-139592328D01*
X130176206Y-139592335D01*
X130262452Y-139707544D01*
X130262455Y-139707547D01*
X130377664Y-139793793D01*
X130377671Y-139793797D01*
X130512517Y-139844091D01*
X130512516Y-139844091D01*
X130519444Y-139844835D01*
X130572127Y-139850500D01*
X132367872Y-139850499D01*
X132427483Y-139844091D01*
X132562331Y-139793796D01*
X132677546Y-139707546D01*
X132763796Y-139592331D01*
X132812810Y-139460916D01*
X132854681Y-139404984D01*
X132920145Y-139380566D01*
X132988418Y-139395417D01*
X133016672Y-139416569D01*
X133138599Y-139538495D01*
X133235384Y-139606264D01*
X133332165Y-139674032D01*
X133332167Y-139674033D01*
X133332170Y-139674035D01*
X133546337Y-139773903D01*
X133774592Y-139835063D01*
X133951034Y-139850500D01*
X134009999Y-139855659D01*
X134010000Y-139855659D01*
X134010001Y-139855659D01*
X134068966Y-139850500D01*
X134245408Y-139835063D01*
X134473663Y-139773903D01*
X134687830Y-139674035D01*
X134881401Y-139538495D01*
X135048495Y-139371401D01*
X135183651Y-139178377D01*
X135238229Y-139134752D01*
X135285227Y-139125500D01*
X138568908Y-139125500D01*
X138621311Y-139137117D01*
X138813504Y-139226739D01*
X139033308Y-139285635D01*
X139195230Y-139299801D01*
X139259998Y-139305468D01*
X139260000Y-139305468D01*
X139260002Y-139305468D01*
X139316672Y-139300509D01*
X139486692Y-139285635D01*
X139706496Y-139226739D01*
X139912734Y-139130568D01*
X140099139Y-139000047D01*
X140260047Y-138839139D01*
X140390568Y-138652734D01*
X140417618Y-138594724D01*
X140463790Y-138542285D01*
X140530983Y-138523133D01*
X140597865Y-138543348D01*
X140642382Y-138594725D01*
X140669429Y-138652728D01*
X140669432Y-138652734D01*
X140799954Y-138839141D01*
X140960858Y-139000045D01*
X140994023Y-139023267D01*
X141147266Y-139130568D01*
X141353504Y-139226739D01*
X141573308Y-139285635D01*
X141735230Y-139299801D01*
X141799998Y-139305468D01*
X141800000Y-139305468D01*
X141800002Y-139305468D01*
X141856672Y-139300509D01*
X142026692Y-139285635D01*
X142246496Y-139226739D01*
X142452734Y-139130568D01*
X142639139Y-139000047D01*
X142800047Y-138839139D01*
X142930568Y-138652734D01*
X143026739Y-138446496D01*
X143085635Y-138226692D01*
X143105468Y-138000000D01*
X143085635Y-137773308D01*
X143026739Y-137553504D01*
X142930568Y-137347266D01*
X142800047Y-137160861D01*
X142800045Y-137160858D01*
X142639140Y-136999953D01*
X142478377Y-136887386D01*
X142434752Y-136832809D01*
X142425500Y-136785811D01*
X142425500Y-135214188D01*
X142445185Y-135147149D01*
X142478377Y-135112613D01*
X142625147Y-135009844D01*
X142639139Y-135000047D01*
X142800047Y-134839139D01*
X142930568Y-134652734D01*
X143026739Y-134446496D01*
X143085635Y-134226692D01*
X143105468Y-134000000D01*
X143085635Y-133773308D01*
X143026739Y-133553504D01*
X142930568Y-133347266D01*
X142810482Y-133175764D01*
X142800045Y-133160858D01*
X142639140Y-132999953D01*
X142478377Y-132887386D01*
X142434752Y-132832809D01*
X142425500Y-132785811D01*
X142425500Y-131214188D01*
X142445185Y-131147149D01*
X142478377Y-131112613D01*
X142532301Y-131074855D01*
X142639139Y-131000047D01*
X142800047Y-130839139D01*
X142930568Y-130652734D01*
X143026739Y-130446496D01*
X143085635Y-130226692D01*
X143105468Y-130000000D01*
X143085635Y-129773308D01*
X143026739Y-129553504D01*
X142930568Y-129347266D01*
X142800047Y-129160861D01*
X142800045Y-129160858D01*
X142639140Y-128999953D01*
X142478377Y-128887386D01*
X142434752Y-128832809D01*
X142425500Y-128785811D01*
X142425500Y-127214188D01*
X142445185Y-127147149D01*
X142478377Y-127112613D01*
X142543141Y-127067265D01*
X142639139Y-127000047D01*
X142800047Y-126839139D01*
X142930568Y-126652734D01*
X143026739Y-126446496D01*
X143085635Y-126226692D01*
X143105468Y-126000000D01*
X143085635Y-125773308D01*
X143067318Y-125704948D01*
X143068981Y-125635103D01*
X143099410Y-125585179D01*
X146144722Y-122539867D01*
X146206043Y-122506384D01*
X146275735Y-122511368D01*
X146331668Y-122553240D01*
X146356085Y-122618704D01*
X146356400Y-122628011D01*
X146250456Y-151127235D01*
X146230523Y-151194201D01*
X146177549Y-151239759D01*
X146127237Y-151250772D01*
X106624780Y-151499215D01*
X106557618Y-151479952D01*
X106511532Y-151427437D01*
X106500000Y-151375217D01*
X106500000Y-148067763D01*
X108145787Y-148067763D01*
X108175413Y-148337013D01*
X108175415Y-148337024D01*
X108231245Y-148550575D01*
X108243928Y-148599088D01*
X108349870Y-148848390D01*
X108421998Y-148966575D01*
X108490979Y-149079605D01*
X108490986Y-149079615D01*
X108664253Y-149287819D01*
X108664259Y-149287824D01*
X108865998Y-149468582D01*
X109091910Y-149618044D01*
X109337176Y-149733020D01*
X109337183Y-149733022D01*
X109337185Y-149733023D01*
X109596557Y-149811057D01*
X109596564Y-149811058D01*
X109596569Y-149811060D01*
X109864561Y-149850500D01*
X109864566Y-149850500D01*
X110067636Y-149850500D01*
X110119133Y-149846730D01*
X110270156Y-149835677D01*
X110382758Y-149810593D01*
X110534546Y-149776782D01*
X110534548Y-149776781D01*
X110534553Y-149776780D01*
X110787558Y-149680014D01*
X111023777Y-149547441D01*
X111238177Y-149381888D01*
X111426186Y-149186881D01*
X111583799Y-148966579D01*
X111657787Y-148822669D01*
X111707649Y-148725690D01*
X111707651Y-148725684D01*
X111707656Y-148725675D01*
X111795118Y-148469305D01*
X111844319Y-148202933D01*
X111854212Y-147932235D01*
X111824586Y-147662982D01*
X111756072Y-147400912D01*
X111650130Y-147151610D01*
X111509018Y-146920390D01*
X111499896Y-146909429D01*
X111335746Y-146712180D01*
X111335740Y-146712175D01*
X111134002Y-146531418D01*
X110908092Y-146381957D01*
X110816757Y-146339141D01*
X110662824Y-146266980D01*
X110662819Y-146266978D01*
X110662814Y-146266976D01*
X110403442Y-146188942D01*
X110403428Y-146188939D01*
X110287791Y-146171921D01*
X110135439Y-146149500D01*
X109932369Y-146149500D01*
X109932364Y-146149500D01*
X109729844Y-146164323D01*
X109729831Y-146164325D01*
X109465453Y-146223217D01*
X109465446Y-146223220D01*
X109212439Y-146319987D01*
X108976226Y-146452557D01*
X108976224Y-146452558D01*
X108976223Y-146452559D01*
X108913893Y-146500688D01*
X108761822Y-146618112D01*
X108573822Y-146813109D01*
X108573816Y-146813116D01*
X108416202Y-147033419D01*
X108416199Y-147033424D01*
X108292350Y-147274309D01*
X108292343Y-147274327D01*
X108204884Y-147530685D01*
X108204881Y-147530699D01*
X108181952Y-147654835D01*
X108156987Y-147790000D01*
X108155681Y-147797068D01*
X108155680Y-147797075D01*
X108145787Y-148067763D01*
X106500000Y-148067763D01*
X106500000Y-87467763D01*
X108145787Y-87467763D01*
X108175413Y-87737013D01*
X108175415Y-87737024D01*
X108243926Y-87999082D01*
X108243928Y-87999088D01*
X108349870Y-88248390D01*
X108421998Y-88366575D01*
X108490979Y-88479605D01*
X108490986Y-88479615D01*
X108664253Y-88687819D01*
X108664259Y-88687824D01*
X108865998Y-88868582D01*
X109091910Y-89018044D01*
X109337176Y-89133020D01*
X109337183Y-89133022D01*
X109337185Y-89133023D01*
X109596557Y-89211057D01*
X109596564Y-89211058D01*
X109596569Y-89211060D01*
X109864561Y-89250500D01*
X109864566Y-89250500D01*
X110067636Y-89250500D01*
X110119133Y-89246730D01*
X110270156Y-89235677D01*
X110382758Y-89210593D01*
X110534546Y-89176782D01*
X110534548Y-89176781D01*
X110534553Y-89176780D01*
X110787558Y-89080014D01*
X111023777Y-88947441D01*
X111238177Y-88781888D01*
X111426186Y-88586881D01*
X111583799Y-88366579D01*
X111657787Y-88222669D01*
X111707649Y-88125690D01*
X111707651Y-88125684D01*
X111707656Y-88125675D01*
X111795118Y-87869305D01*
X111844319Y-87602933D01*
X111851735Y-87400002D01*
X116495034Y-87400002D01*
X116514858Y-87626599D01*
X116514860Y-87626610D01*
X116573730Y-87846317D01*
X116573734Y-87846326D01*
X116669865Y-88052481D01*
X116669866Y-88052483D01*
X116720973Y-88125471D01*
X116720973Y-88125472D01*
X117262580Y-87583865D01*
X117323903Y-87550380D01*
X117393594Y-87555364D01*
X117449528Y-87597235D01*
X117460742Y-87615246D01*
X117466527Y-87626599D01*
X117472358Y-87638044D01*
X117472363Y-87638050D01*
X117561949Y-87727636D01*
X117561951Y-87727637D01*
X117561955Y-87727641D01*
X117584747Y-87739254D01*
X117635542Y-87787228D01*
X117652337Y-87855049D01*
X117629799Y-87921184D01*
X117616132Y-87937419D01*
X117074526Y-88479025D01*
X117074526Y-88479026D01*
X117147512Y-88530131D01*
X117147516Y-88530133D01*
X117353673Y-88626265D01*
X117353682Y-88626269D01*
X117573389Y-88685139D01*
X117573400Y-88685141D01*
X117799998Y-88704966D01*
X117800002Y-88704966D01*
X118026599Y-88685141D01*
X118026610Y-88685139D01*
X118246317Y-88626269D01*
X118246331Y-88626264D01*
X118452478Y-88530136D01*
X118525472Y-88479025D01*
X117983866Y-87937419D01*
X117950381Y-87876096D01*
X117955365Y-87806404D01*
X117997237Y-87750471D01*
X118015245Y-87739258D01*
X118038045Y-87727641D01*
X118127641Y-87638045D01*
X118139254Y-87615252D01*
X118187225Y-87564458D01*
X118255046Y-87547661D01*
X118321181Y-87570197D01*
X118337419Y-87583866D01*
X118879025Y-88125472D01*
X118930136Y-88052478D01*
X119026264Y-87846331D01*
X119026269Y-87846317D01*
X119085139Y-87626610D01*
X119085141Y-87626599D01*
X119104966Y-87400002D01*
X119104966Y-87399997D01*
X119085141Y-87173400D01*
X119085139Y-87173389D01*
X119026269Y-86953682D01*
X119026265Y-86953673D01*
X118930133Y-86747516D01*
X118930131Y-86747512D01*
X118879026Y-86674526D01*
X118879025Y-86674526D01*
X118337419Y-87216132D01*
X118276096Y-87249617D01*
X118206404Y-87244633D01*
X118150471Y-87202761D01*
X118139256Y-87184751D01*
X118127641Y-87161955D01*
X118127637Y-87161951D01*
X118127636Y-87161949D01*
X118038050Y-87072363D01*
X118038044Y-87072358D01*
X118019649Y-87062986D01*
X118015250Y-87060744D01*
X117964456Y-87012773D01*
X117947660Y-86944952D01*
X117970197Y-86878817D01*
X117983865Y-86862580D01*
X118525472Y-86320973D01*
X118452483Y-86269866D01*
X118452481Y-86269865D01*
X118246326Y-86173734D01*
X118246317Y-86173730D01*
X118026610Y-86114860D01*
X118026599Y-86114858D01*
X117800002Y-86095034D01*
X117799998Y-86095034D01*
X117573400Y-86114858D01*
X117573389Y-86114860D01*
X117353682Y-86173730D01*
X117353673Y-86173734D01*
X117147513Y-86269868D01*
X117074526Y-86320973D01*
X117616133Y-86862580D01*
X117649618Y-86923903D01*
X117644634Y-86993595D01*
X117602762Y-87049528D01*
X117584748Y-87060745D01*
X117561956Y-87072358D01*
X117561949Y-87072363D01*
X117472363Y-87161949D01*
X117472358Y-87161956D01*
X117460745Y-87184748D01*
X117412770Y-87235544D01*
X117344949Y-87252338D01*
X117278814Y-87229800D01*
X117262580Y-87216133D01*
X116720973Y-86674526D01*
X116669868Y-86747513D01*
X116573734Y-86953673D01*
X116573730Y-86953682D01*
X116514860Y-87173389D01*
X116514858Y-87173400D01*
X116495034Y-87399997D01*
X116495034Y-87400002D01*
X111851735Y-87400002D01*
X111854212Y-87332235D01*
X111824586Y-87062982D01*
X111756072Y-86800912D01*
X111650130Y-86551610D01*
X111509018Y-86320390D01*
X111507845Y-86318981D01*
X111335746Y-86112180D01*
X111335740Y-86112175D01*
X111134002Y-85931418D01*
X110908092Y-85781957D01*
X110908090Y-85781956D01*
X110662824Y-85666980D01*
X110662819Y-85666978D01*
X110662814Y-85666976D01*
X110403442Y-85588942D01*
X110403428Y-85588939D01*
X110287791Y-85571921D01*
X110135439Y-85549500D01*
X109932369Y-85549500D01*
X109932364Y-85549500D01*
X109729844Y-85564323D01*
X109729831Y-85564325D01*
X109465453Y-85623217D01*
X109465446Y-85623220D01*
X109212439Y-85719987D01*
X108976226Y-85852557D01*
X108761822Y-86018112D01*
X108573822Y-86213109D01*
X108573816Y-86213116D01*
X108416202Y-86433419D01*
X108416199Y-86433424D01*
X108292350Y-86674309D01*
X108292343Y-86674327D01*
X108204884Y-86930685D01*
X108204881Y-86930699D01*
X108189341Y-87014835D01*
X108157957Y-87184748D01*
X108155681Y-87197068D01*
X108155680Y-87197075D01*
X108145787Y-87467763D01*
X106500000Y-87467763D01*
X106500000Y-84124000D01*
X106519685Y-84056961D01*
X106572489Y-84011206D01*
X106624000Y-84000000D01*
X146375538Y-84000000D01*
X146442577Y-84019685D01*
G37*
%TD.AperFunction*%
%TA.AperFunction,Conductor*%
G36*
X140597865Y-134543348D02*
G01*
X140642382Y-134594725D01*
X140669429Y-134652728D01*
X140669432Y-134652734D01*
X140799954Y-134839141D01*
X140960858Y-135000045D01*
X141121623Y-135112613D01*
X141165248Y-135167189D01*
X141174500Y-135214188D01*
X141174500Y-136785811D01*
X141154815Y-136852850D01*
X141121623Y-136887386D01*
X140960859Y-136999953D01*
X140799954Y-137160858D01*
X140669432Y-137347265D01*
X140669431Y-137347267D01*
X140642382Y-137405275D01*
X140596209Y-137457714D01*
X140529016Y-137476866D01*
X140462135Y-137456650D01*
X140417618Y-137405275D01*
X140390568Y-137347267D01*
X140390567Y-137347265D01*
X140352188Y-137292454D01*
X140260047Y-137160861D01*
X140260045Y-137160858D01*
X140099141Y-136999954D01*
X139912734Y-136869432D01*
X139912732Y-136869431D01*
X139706497Y-136773261D01*
X139706488Y-136773258D01*
X139486697Y-136714366D01*
X139486693Y-136714365D01*
X139486692Y-136714365D01*
X139486691Y-136714364D01*
X139486686Y-136714364D01*
X139260002Y-136694532D01*
X139259998Y-136694532D01*
X139033313Y-136714364D01*
X139033302Y-136714366D01*
X138813511Y-136773258D01*
X138813502Y-136773261D01*
X138607267Y-136869431D01*
X138607265Y-136869432D01*
X138420858Y-136999954D01*
X138259954Y-137160858D01*
X138129432Y-137347265D01*
X138129431Y-137347267D01*
X138033261Y-137553502D01*
X138033258Y-137553511D01*
X137972964Y-137778537D01*
X137971552Y-137778158D01*
X137943567Y-137834631D01*
X137883622Y-137870524D01*
X137852474Y-137874500D01*
X135285227Y-137874500D01*
X135218188Y-137854815D01*
X135183652Y-137821623D01*
X135048494Y-137628597D01*
X134881402Y-137461506D01*
X134881395Y-137461501D01*
X134687834Y-137325967D01*
X134687830Y-137325965D01*
X134687830Y-137325964D01*
X134473663Y-137226097D01*
X134473659Y-137226096D01*
X134473655Y-137226094D01*
X134245413Y-137164938D01*
X134245403Y-137164936D01*
X134010001Y-137144341D01*
X134009999Y-137144341D01*
X133774596Y-137164936D01*
X133774586Y-137164938D01*
X133546344Y-137226094D01*
X133546335Y-137226098D01*
X133332171Y-137325964D01*
X133332169Y-137325965D01*
X133138600Y-137461503D01*
X133016673Y-137583430D01*
X132955350Y-137616914D01*
X132885658Y-137611930D01*
X132829725Y-137570058D01*
X132812810Y-137539081D01*
X132763797Y-137407671D01*
X132763793Y-137407664D01*
X132677547Y-137292455D01*
X132677544Y-137292452D01*
X132562335Y-137206206D01*
X132562328Y-137206202D01*
X132427482Y-137155908D01*
X132427483Y-137155908D01*
X132367883Y-137149501D01*
X132367881Y-137149500D01*
X132367873Y-137149500D01*
X132367864Y-137149500D01*
X130572129Y-137149500D01*
X130572123Y-137149501D01*
X130512516Y-137155908D01*
X130377671Y-137206202D01*
X130377669Y-137206204D01*
X130346193Y-137229767D01*
X130280729Y-137254184D01*
X130271882Y-137254500D01*
X124964188Y-137254500D01*
X124897149Y-137234815D01*
X124862613Y-137201623D01*
X124750045Y-137040858D01*
X124589141Y-136879954D01*
X124402734Y-136749432D01*
X124402728Y-136749429D01*
X124344725Y-136722382D01*
X124292285Y-136676210D01*
X124273133Y-136609017D01*
X124293348Y-136542135D01*
X124344725Y-136497618D01*
X124345317Y-136497342D01*
X124402734Y-136470568D01*
X124589139Y-136340047D01*
X124750047Y-136179139D01*
X124862612Y-136018377D01*
X124917189Y-135974752D01*
X124964188Y-135965500D01*
X130297257Y-135965500D01*
X130312877Y-135967224D01*
X130312904Y-135966939D01*
X130320660Y-135967671D01*
X130320667Y-135967673D01*
X130389814Y-135965500D01*
X130419350Y-135965500D01*
X130426228Y-135964630D01*
X130432041Y-135964172D01*
X130478627Y-135962709D01*
X130497869Y-135957117D01*
X130516912Y-135953174D01*
X130536792Y-135950664D01*
X130580122Y-135933507D01*
X130585646Y-135931617D01*
X130589396Y-135930527D01*
X130630390Y-135918618D01*
X130647629Y-135908422D01*
X130665103Y-135899862D01*
X130683727Y-135892488D01*
X130683727Y-135892487D01*
X130683732Y-135892486D01*
X130721449Y-135865082D01*
X130726305Y-135861892D01*
X130766420Y-135838170D01*
X130780589Y-135823999D01*
X130795379Y-135811368D01*
X130811587Y-135799594D01*
X130841299Y-135763676D01*
X130845212Y-135759376D01*
X130967773Y-135636815D01*
X131029094Y-135603333D01*
X131055452Y-135600499D01*
X132367871Y-135600499D01*
X132367872Y-135600499D01*
X132427483Y-135594091D01*
X132562331Y-135543796D01*
X132677546Y-135457546D01*
X132763796Y-135342331D01*
X132812810Y-135210916D01*
X132854681Y-135154984D01*
X132920145Y-135130566D01*
X132988418Y-135145417D01*
X133016672Y-135166569D01*
X133138599Y-135288495D01*
X133219671Y-135345262D01*
X133332165Y-135424032D01*
X133332167Y-135424033D01*
X133332170Y-135424035D01*
X133546337Y-135523903D01*
X133774592Y-135585063D01*
X133962918Y-135601539D01*
X134009999Y-135605659D01*
X134010000Y-135605659D01*
X134010001Y-135605659D01*
X134049234Y-135602226D01*
X134245408Y-135585063D01*
X134473663Y-135523903D01*
X134687830Y-135424035D01*
X134881401Y-135288495D01*
X135048495Y-135121401D01*
X135183651Y-134928377D01*
X135238229Y-134884752D01*
X135285227Y-134875500D01*
X138244952Y-134875500D01*
X138311991Y-134895185D01*
X138332628Y-134911814D01*
X138381750Y-134960936D01*
X138420862Y-135000048D01*
X138492202Y-135050000D01*
X138607266Y-135130568D01*
X138813504Y-135226739D01*
X139033308Y-135285635D01*
X139191866Y-135299507D01*
X139259998Y-135305468D01*
X139260000Y-135305468D01*
X139260002Y-135305468D01*
X139328134Y-135299507D01*
X139486692Y-135285635D01*
X139706496Y-135226739D01*
X139912734Y-135130568D01*
X140099139Y-135000047D01*
X140260047Y-134839139D01*
X140390568Y-134652734D01*
X140417618Y-134594724D01*
X140463790Y-134542285D01*
X140530983Y-134523133D01*
X140597865Y-134543348D01*
G37*
%TD.AperFunction*%
%TA.AperFunction,Conductor*%
G36*
X120642539Y-124770185D02*
G01*
X120688294Y-124822989D01*
X120699500Y-124874500D01*
X120699499Y-132374545D01*
X120679814Y-132441584D01*
X120663180Y-132462226D01*
X117563791Y-135561615D01*
X117502468Y-135595100D01*
X117432776Y-135590116D01*
X117432619Y-135590000D01*
X116640576Y-135590000D01*
X116573537Y-135570315D01*
X116527782Y-135517511D01*
X116517838Y-135448353D01*
X116518103Y-135446603D01*
X116534986Y-135340003D01*
X116534986Y-135339996D01*
X116518103Y-135233397D01*
X116527058Y-135164104D01*
X116572054Y-135110652D01*
X116638806Y-135090013D01*
X116640576Y-135090000D01*
X117408872Y-135090000D01*
X117408872Y-135089999D01*
X117356269Y-134893682D01*
X117356265Y-134893673D01*
X117260134Y-134687517D01*
X117129657Y-134501179D01*
X116968820Y-134340342D01*
X116782481Y-134209865D01*
X116782479Y-134209864D01*
X116723543Y-134182382D01*
X116671103Y-134136210D01*
X116651951Y-134069017D01*
X116672166Y-134002136D01*
X116723543Y-133957618D01*
X116782479Y-133930135D01*
X116782481Y-133930134D01*
X116968820Y-133799657D01*
X117129657Y-133638820D01*
X117260134Y-133452482D01*
X117356265Y-133246326D01*
X117356269Y-133246317D01*
X117408872Y-133050000D01*
X116640576Y-133050000D01*
X116573537Y-133030315D01*
X116527782Y-132977511D01*
X116517838Y-132908353D01*
X116518103Y-132906603D01*
X116534986Y-132800003D01*
X116534986Y-132799996D01*
X116518103Y-132693397D01*
X116527058Y-132624104D01*
X116572054Y-132570652D01*
X116638806Y-132550013D01*
X116640576Y-132550000D01*
X117408872Y-132550000D01*
X117408872Y-132549999D01*
X117356269Y-132353682D01*
X117356265Y-132353673D01*
X117260134Y-132147517D01*
X117129657Y-131961179D01*
X116968820Y-131800342D01*
X116782482Y-131669865D01*
X116724133Y-131642657D01*
X116671694Y-131596484D01*
X116652542Y-131529291D01*
X116672758Y-131462410D01*
X116724129Y-131417895D01*
X116782734Y-131390568D01*
X116969139Y-131260047D01*
X117130047Y-131099139D01*
X117260568Y-130912734D01*
X117356739Y-130706496D01*
X117415635Y-130486692D01*
X117435468Y-130260000D01*
X117415635Y-130033308D01*
X117356739Y-129813504D01*
X117260568Y-129607266D01*
X117155852Y-129457714D01*
X117130045Y-129420858D01*
X116969143Y-129259956D01*
X116944536Y-129242726D01*
X116900912Y-129188149D01*
X116893719Y-129118650D01*
X116925241Y-129056296D01*
X116985471Y-129020882D01*
X117002404Y-129017861D01*
X117037483Y-129014091D01*
X117172331Y-128963796D01*
X117287546Y-128877546D01*
X117373796Y-128762331D01*
X117424091Y-128627483D01*
X117430500Y-128567873D01*
X117430499Y-126872128D01*
X117424091Y-126812517D01*
X117389567Y-126719954D01*
X117373797Y-126677671D01*
X117373793Y-126677664D01*
X117287547Y-126562455D01*
X117287544Y-126562452D01*
X117172335Y-126476206D01*
X117172328Y-126476202D01*
X117037482Y-126425908D01*
X117037483Y-126425908D01*
X116977883Y-126419501D01*
X116977881Y-126419500D01*
X116977873Y-126419500D01*
X116977864Y-126419500D01*
X115282129Y-126419500D01*
X115282123Y-126419501D01*
X115222516Y-126425908D01*
X115087671Y-126476202D01*
X115087664Y-126476206D01*
X114972455Y-126562452D01*
X114972452Y-126562455D01*
X114886206Y-126677664D01*
X114886202Y-126677671D01*
X114835908Y-126812517D01*
X114829578Y-126871401D01*
X114829501Y-126872123D01*
X114829500Y-126872135D01*
X114829500Y-127494546D01*
X114809815Y-127561585D01*
X114793181Y-127582227D01*
X112567340Y-129808068D01*
X112506017Y-129841553D01*
X112436325Y-129836569D01*
X112380392Y-129794697D01*
X112355975Y-129729233D01*
X112355659Y-129720387D01*
X112355659Y-129719999D01*
X112351539Y-129672918D01*
X112335063Y-129484592D01*
X112273903Y-129256337D01*
X112174035Y-129042171D01*
X112167796Y-129033261D01*
X112038496Y-128848600D01*
X111985284Y-128795388D01*
X111916567Y-128726671D01*
X111883084Y-128665351D01*
X111888068Y-128595659D01*
X111929939Y-128539725D01*
X111960915Y-128522810D01*
X112092331Y-128473796D01*
X112207546Y-128387546D01*
X112293796Y-128272331D01*
X112344091Y-128137483D01*
X112350500Y-128077873D01*
X112350499Y-126765451D01*
X112370184Y-126698413D01*
X112386813Y-126677776D01*
X114277771Y-124786819D01*
X114339095Y-124753334D01*
X114365453Y-124750500D01*
X120575500Y-124750500D01*
X120642539Y-124770185D01*
G37*
%TD.AperFunction*%
%TA.AperFunction,Conductor*%
G36*
X116023331Y-133188091D02*
G01*
X116055699Y-133193218D01*
X116098515Y-133200000D01*
X116098519Y-133200000D01*
X116161485Y-133200000D01*
X116204300Y-133193218D01*
X116236602Y-133188102D01*
X116305894Y-133197056D01*
X116359347Y-133242052D01*
X116379987Y-133308803D01*
X116380000Y-133310575D01*
X116380000Y-134829424D01*
X116360315Y-134896463D01*
X116307511Y-134942218D01*
X116238353Y-134952162D01*
X116236602Y-134951897D01*
X116161486Y-134940000D01*
X116161481Y-134940000D01*
X116098519Y-134940000D01*
X116098514Y-134940000D01*
X116023398Y-134951897D01*
X115954104Y-134942942D01*
X115900652Y-134897946D01*
X115880013Y-134831194D01*
X115880000Y-134829424D01*
X115880000Y-133310575D01*
X115899685Y-133243536D01*
X115952489Y-133197781D01*
X116021647Y-133187837D01*
X116023331Y-133188091D01*
G37*
%TD.AperFunction*%
%TA.AperFunction,Conductor*%
G36*
X140597865Y-130543348D02*
G01*
X140642382Y-130594725D01*
X140669429Y-130652728D01*
X140669432Y-130652734D01*
X140799954Y-130839141D01*
X140960858Y-131000045D01*
X141121623Y-131112613D01*
X141165248Y-131167189D01*
X141174500Y-131214188D01*
X141174500Y-132785811D01*
X141154815Y-132852850D01*
X141121623Y-132887386D01*
X140960859Y-132999953D01*
X140799954Y-133160858D01*
X140669432Y-133347265D01*
X140669431Y-133347267D01*
X140642382Y-133405275D01*
X140596209Y-133457714D01*
X140529016Y-133476866D01*
X140462135Y-133456650D01*
X140417618Y-133405275D01*
X140411249Y-133391617D01*
X140390568Y-133347266D01*
X140270482Y-133175764D01*
X140260045Y-133160858D01*
X140099141Y-132999954D01*
X139912734Y-132869432D01*
X139912732Y-132869431D01*
X139706497Y-132773261D01*
X139706488Y-132773258D01*
X139486697Y-132714366D01*
X139486693Y-132714365D01*
X139486692Y-132714365D01*
X139486691Y-132714364D01*
X139486686Y-132714364D01*
X139260002Y-132694532D01*
X139259998Y-132694532D01*
X139033313Y-132714364D01*
X139033302Y-132714366D01*
X138813511Y-132773258D01*
X138813502Y-132773261D01*
X138607267Y-132869431D01*
X138607265Y-132869432D01*
X138420858Y-132999954D01*
X138259954Y-133160858D01*
X138129432Y-133347265D01*
X138129431Y-133347267D01*
X138108370Y-133392433D01*
X138033539Y-133552906D01*
X137987369Y-133605344D01*
X137921159Y-133624500D01*
X135285227Y-133624500D01*
X135218188Y-133604815D01*
X135183652Y-133571623D01*
X135048494Y-133378597D01*
X134881402Y-133211506D01*
X134881395Y-133211501D01*
X134687834Y-133075967D01*
X134687830Y-133075965D01*
X134644121Y-133055583D01*
X134473663Y-132976097D01*
X134473659Y-132976096D01*
X134473655Y-132976094D01*
X134245413Y-132914938D01*
X134245403Y-132914936D01*
X134010001Y-132894341D01*
X134009999Y-132894341D01*
X133774596Y-132914936D01*
X133774586Y-132914938D01*
X133546344Y-132976094D01*
X133546335Y-132976098D01*
X133332171Y-133075964D01*
X133332169Y-133075965D01*
X133138600Y-133211503D01*
X133016673Y-133333430D01*
X132955350Y-133366914D01*
X132885658Y-133361930D01*
X132829725Y-133320058D01*
X132812810Y-133289081D01*
X132763797Y-133157671D01*
X132763793Y-133157664D01*
X132677547Y-133042455D01*
X132677544Y-133042452D01*
X132562335Y-132956206D01*
X132562328Y-132956202D01*
X132427482Y-132905908D01*
X132427483Y-132905908D01*
X132367883Y-132899501D01*
X132367881Y-132899500D01*
X132367873Y-132899500D01*
X132367864Y-132899500D01*
X130572129Y-132899500D01*
X130572123Y-132899501D01*
X130512516Y-132905908D01*
X130377671Y-132956202D01*
X130377664Y-132956206D01*
X130262455Y-133042452D01*
X130262452Y-133042455D01*
X130176206Y-133157664D01*
X130176202Y-133157671D01*
X130125908Y-133292517D01*
X130119501Y-133352116D01*
X130119500Y-133352127D01*
X130119500Y-134026739D01*
X130119501Y-134590500D01*
X130099816Y-134657539D01*
X130047013Y-134703294D01*
X129995501Y-134714500D01*
X124964188Y-134714500D01*
X124897149Y-134694815D01*
X124862613Y-134661623D01*
X124750045Y-134500858D01*
X124589141Y-134339954D01*
X124402734Y-134209432D01*
X124402728Y-134209429D01*
X124344725Y-134182382D01*
X124292285Y-134136210D01*
X124273133Y-134069017D01*
X124293348Y-134002135D01*
X124344725Y-133957618D01*
X124402734Y-133930568D01*
X124589139Y-133800047D01*
X124750047Y-133639139D01*
X124862612Y-133478377D01*
X124917189Y-133434752D01*
X124964188Y-133425500D01*
X129087257Y-133425500D01*
X129102877Y-133427224D01*
X129102904Y-133426939D01*
X129110660Y-133427671D01*
X129110667Y-133427673D01*
X129179814Y-133425500D01*
X129209350Y-133425500D01*
X129216228Y-133424630D01*
X129222041Y-133424172D01*
X129268627Y-133422709D01*
X129287869Y-133417117D01*
X129306912Y-133413174D01*
X129326792Y-133410664D01*
X129370122Y-133393507D01*
X129375646Y-133391617D01*
X129379396Y-133390527D01*
X129420390Y-133378618D01*
X129437629Y-133368422D01*
X129455103Y-133359862D01*
X129473727Y-133352488D01*
X129473727Y-133352487D01*
X129473732Y-133352486D01*
X129511449Y-133325082D01*
X129516305Y-133321892D01*
X129556420Y-133298170D01*
X129570589Y-133283999D01*
X129585379Y-133271368D01*
X129601587Y-133259594D01*
X129631299Y-133223676D01*
X129635212Y-133219376D01*
X131217771Y-131636817D01*
X131279094Y-131603333D01*
X131305452Y-131600499D01*
X132617871Y-131600499D01*
X132617872Y-131600499D01*
X132677483Y-131594091D01*
X132812331Y-131543796D01*
X132927546Y-131457546D01*
X133013796Y-131342331D01*
X133062810Y-131210916D01*
X133104681Y-131154984D01*
X133170145Y-131130566D01*
X133238418Y-131145417D01*
X133266673Y-131166569D01*
X133388599Y-131288495D01*
X133485384Y-131356264D01*
X133582165Y-131424032D01*
X133582167Y-131424033D01*
X133582170Y-131424035D01*
X133796337Y-131523903D01*
X133796343Y-131523904D01*
X133796344Y-131523905D01*
X133851285Y-131538626D01*
X134024592Y-131585063D01*
X134212918Y-131601539D01*
X134259999Y-131605659D01*
X134260000Y-131605659D01*
X134260001Y-131605659D01*
X134299234Y-131602226D01*
X134495408Y-131585063D01*
X134723663Y-131523903D01*
X134937830Y-131424035D01*
X135131401Y-131288495D01*
X135298495Y-131121401D01*
X135433651Y-130928377D01*
X135488229Y-130884752D01*
X135535227Y-130875500D01*
X138244952Y-130875500D01*
X138311991Y-130895185D01*
X138332628Y-130911814D01*
X138420861Y-131000047D01*
X138607266Y-131130568D01*
X138813504Y-131226739D01*
X139033308Y-131285635D01*
X139195230Y-131299801D01*
X139259998Y-131305468D01*
X139260000Y-131305468D01*
X139260002Y-131305468D01*
X139316672Y-131300509D01*
X139486692Y-131285635D01*
X139706496Y-131226739D01*
X139912734Y-131130568D01*
X140099139Y-131000047D01*
X140260047Y-130839139D01*
X140390568Y-130652734D01*
X140417618Y-130594724D01*
X140463790Y-130542285D01*
X140530983Y-130523133D01*
X140597865Y-130543348D01*
G37*
%TD.AperFunction*%
%TA.AperFunction,Conductor*%
G36*
X140597865Y-126543348D02*
G01*
X140642382Y-126594725D01*
X140669429Y-126652728D01*
X140669432Y-126652734D01*
X140799954Y-126839141D01*
X140960858Y-127000045D01*
X141121623Y-127112613D01*
X141165248Y-127167189D01*
X141174500Y-127214188D01*
X141174500Y-128785811D01*
X141154815Y-128852850D01*
X141121623Y-128887386D01*
X140960859Y-128999953D01*
X140799954Y-129160858D01*
X140669432Y-129347265D01*
X140669431Y-129347267D01*
X140642382Y-129405275D01*
X140596209Y-129457714D01*
X140529016Y-129476866D01*
X140462135Y-129456650D01*
X140417618Y-129405275D01*
X140392835Y-129352128D01*
X140390568Y-129347266D01*
X140260047Y-129160861D01*
X140260045Y-129160858D01*
X140099141Y-128999954D01*
X139912734Y-128869432D01*
X139912732Y-128869431D01*
X139706497Y-128773261D01*
X139706488Y-128773258D01*
X139486697Y-128714366D01*
X139486693Y-128714365D01*
X139486692Y-128714365D01*
X139486691Y-128714364D01*
X139486686Y-128714364D01*
X139260002Y-128694532D01*
X139259998Y-128694532D01*
X139033313Y-128714364D01*
X139033302Y-128714366D01*
X138813511Y-128773258D01*
X138813502Y-128773261D01*
X138607267Y-128869431D01*
X138607265Y-128869432D01*
X138420858Y-128999954D01*
X138259954Y-129160858D01*
X138129432Y-129347265D01*
X138129431Y-129347267D01*
X138102382Y-129405275D01*
X138033539Y-129552906D01*
X137987369Y-129605344D01*
X137921159Y-129624500D01*
X135535227Y-129624500D01*
X135468188Y-129604815D01*
X135433652Y-129571623D01*
X135298494Y-129378597D01*
X135131402Y-129211506D01*
X135131395Y-129211501D01*
X134937834Y-129075967D01*
X134937830Y-129075965D01*
X134937828Y-129075964D01*
X134723663Y-128976097D01*
X134723659Y-128976096D01*
X134723655Y-128976094D01*
X134495413Y-128914938D01*
X134495403Y-128914936D01*
X134260001Y-128894341D01*
X134259999Y-128894341D01*
X134024596Y-128914936D01*
X134024586Y-128914938D01*
X133796344Y-128976094D01*
X133796335Y-128976098D01*
X133582171Y-129075964D01*
X133582169Y-129075965D01*
X133388600Y-129211503D01*
X133266673Y-129333430D01*
X133205350Y-129366914D01*
X133135658Y-129361930D01*
X133079725Y-129320058D01*
X133062810Y-129289081D01*
X133013797Y-129157671D01*
X133013793Y-129157664D01*
X132927547Y-129042455D01*
X132927544Y-129042452D01*
X132812335Y-128956206D01*
X132812328Y-128956202D01*
X132677482Y-128905908D01*
X132677483Y-128905908D01*
X132617883Y-128899501D01*
X132617881Y-128899500D01*
X132617873Y-128899500D01*
X132617864Y-128899500D01*
X130822129Y-128899500D01*
X130822123Y-128899501D01*
X130762516Y-128905908D01*
X130627671Y-128956202D01*
X130627664Y-128956206D01*
X130512455Y-129042452D01*
X130512452Y-129042455D01*
X130426206Y-129157664D01*
X130426202Y-129157671D01*
X130375908Y-129292517D01*
X130369501Y-129352116D01*
X130369500Y-129352135D01*
X130369500Y-130664546D01*
X130349815Y-130731585D01*
X130333181Y-130752227D01*
X128947228Y-132138181D01*
X128885905Y-132171666D01*
X128859547Y-132174500D01*
X124964188Y-132174500D01*
X124897149Y-132154815D01*
X124862613Y-132121623D01*
X124750045Y-131960858D01*
X124589141Y-131799954D01*
X124402734Y-131669432D01*
X124402728Y-131669429D01*
X124344725Y-131642382D01*
X124292285Y-131596210D01*
X124273133Y-131529017D01*
X124293348Y-131462135D01*
X124344725Y-131417618D01*
X124402734Y-131390568D01*
X124589139Y-131260047D01*
X124750047Y-131099139D01*
X124828681Y-130986836D01*
X124862613Y-130938377D01*
X124917189Y-130894752D01*
X124964188Y-130885500D01*
X127377257Y-130885500D01*
X127392877Y-130887224D01*
X127392904Y-130886939D01*
X127400660Y-130887671D01*
X127400667Y-130887673D01*
X127469814Y-130885500D01*
X127499350Y-130885500D01*
X127506228Y-130884630D01*
X127512041Y-130884172D01*
X127558627Y-130882709D01*
X127577869Y-130877117D01*
X127596912Y-130873174D01*
X127616792Y-130870664D01*
X127660122Y-130853507D01*
X127665646Y-130851617D01*
X127669396Y-130850527D01*
X127710390Y-130838618D01*
X127727629Y-130828422D01*
X127745103Y-130819862D01*
X127763727Y-130812488D01*
X127763727Y-130812487D01*
X127763732Y-130812486D01*
X127801449Y-130785082D01*
X127806305Y-130781892D01*
X127846420Y-130758170D01*
X127860589Y-130743999D01*
X127875379Y-130731368D01*
X127891587Y-130719594D01*
X127921299Y-130683676D01*
X127925212Y-130679376D01*
X131217771Y-127386818D01*
X131279094Y-127353333D01*
X131305452Y-127350499D01*
X132617871Y-127350499D01*
X132617872Y-127350499D01*
X132677483Y-127344091D01*
X132812331Y-127293796D01*
X132927546Y-127207546D01*
X133013796Y-127092331D01*
X133062810Y-126960916D01*
X133104681Y-126904984D01*
X133170145Y-126880566D01*
X133238418Y-126895417D01*
X133266673Y-126916569D01*
X133388599Y-127038495D01*
X133482795Y-127104452D01*
X133582165Y-127174032D01*
X133582167Y-127174033D01*
X133582170Y-127174035D01*
X133796337Y-127273903D01*
X134024592Y-127335063D01*
X134212918Y-127351539D01*
X134259999Y-127355659D01*
X134260000Y-127355659D01*
X134260001Y-127355659D01*
X134299234Y-127352226D01*
X134495408Y-127335063D01*
X134723663Y-127273903D01*
X134937830Y-127174035D01*
X135131401Y-127038495D01*
X135298495Y-126871401D01*
X135433651Y-126678377D01*
X135488229Y-126634752D01*
X135535227Y-126625500D01*
X138045812Y-126625500D01*
X138112851Y-126645185D01*
X138147387Y-126678377D01*
X138259954Y-126839141D01*
X138420858Y-127000045D01*
X138467693Y-127032839D01*
X138607266Y-127130568D01*
X138813504Y-127226739D01*
X139033308Y-127285635D01*
X139195230Y-127299801D01*
X139259998Y-127305468D01*
X139260000Y-127305468D01*
X139260002Y-127305468D01*
X139316672Y-127300509D01*
X139486692Y-127285635D01*
X139706496Y-127226739D01*
X139912734Y-127130568D01*
X140099139Y-127000047D01*
X140260047Y-126839139D01*
X140390568Y-126652734D01*
X140417618Y-126594724D01*
X140463790Y-126542285D01*
X140530983Y-126523133D01*
X140597865Y-126543348D01*
G37*
%TD.AperFunction*%
%TA.AperFunction,Conductor*%
G36*
X138556587Y-123645185D02*
G01*
X138577229Y-123661819D01*
X139402591Y-124487181D01*
X139436076Y-124548504D01*
X139431092Y-124618196D01*
X139389220Y-124674129D01*
X139323756Y-124698546D01*
X139304104Y-124698390D01*
X139260003Y-124694532D01*
X139259998Y-124694532D01*
X139033313Y-124714364D01*
X139033302Y-124714366D01*
X138813511Y-124773258D01*
X138813502Y-124773261D01*
X138607263Y-124869433D01*
X138559809Y-124902660D01*
X138530693Y-124917752D01*
X138473771Y-124938246D01*
X138473770Y-124938246D01*
X138343065Y-125027073D01*
X138343056Y-125027081D01*
X138238552Y-125145618D01*
X138238551Y-125145620D01*
X138163261Y-125293385D01*
X138163187Y-125293347D01*
X138151793Y-125315329D01*
X138147397Y-125321609D01*
X138092826Y-125365242D01*
X138045812Y-125374500D01*
X135535227Y-125374500D01*
X135468188Y-125354815D01*
X135433652Y-125321623D01*
X135298494Y-125128597D01*
X135131402Y-124961506D01*
X135131395Y-124961501D01*
X134937834Y-124825967D01*
X134937830Y-124825965D01*
X134931448Y-124822989D01*
X134723663Y-124726097D01*
X134723659Y-124726096D01*
X134723655Y-124726094D01*
X134495413Y-124664938D01*
X134495403Y-124664936D01*
X134260001Y-124644341D01*
X134259999Y-124644341D01*
X134024596Y-124664936D01*
X134024586Y-124664938D01*
X133796344Y-124726094D01*
X133796335Y-124726098D01*
X133582171Y-124825964D01*
X133582169Y-124825965D01*
X133388600Y-124961503D01*
X133266673Y-125083430D01*
X133205350Y-125116914D01*
X133135658Y-125111930D01*
X133079725Y-125070058D01*
X133062810Y-125039081D01*
X133013797Y-124907671D01*
X133013793Y-124907664D01*
X132927547Y-124792455D01*
X132927544Y-124792452D01*
X132812335Y-124706206D01*
X132812328Y-124706202D01*
X132677482Y-124655908D01*
X132677483Y-124655908D01*
X132617883Y-124649501D01*
X132617881Y-124649500D01*
X132617873Y-124649500D01*
X132617864Y-124649500D01*
X130822129Y-124649500D01*
X130822123Y-124649501D01*
X130762516Y-124655908D01*
X130627671Y-124706202D01*
X130627664Y-124706206D01*
X130512455Y-124792452D01*
X130512452Y-124792455D01*
X130426206Y-124907664D01*
X130426202Y-124907671D01*
X130375908Y-125042517D01*
X130369501Y-125102116D01*
X130369500Y-125102135D01*
X130369500Y-126414547D01*
X130349815Y-126481586D01*
X130333181Y-126502228D01*
X127237228Y-129598181D01*
X127175905Y-129631666D01*
X127149547Y-129634500D01*
X124964188Y-129634500D01*
X124897149Y-129614815D01*
X124862613Y-129581623D01*
X124750045Y-129420858D01*
X124589141Y-129259954D01*
X124402734Y-129129432D01*
X124402728Y-129129429D01*
X124344725Y-129102382D01*
X124292285Y-129056210D01*
X124273133Y-128989017D01*
X124293348Y-128922135D01*
X124344725Y-128877618D01*
X124402734Y-128850568D01*
X124589139Y-128720047D01*
X124750047Y-128559139D01*
X124880568Y-128372734D01*
X124976739Y-128166496D01*
X125035635Y-127946692D01*
X125055468Y-127720000D01*
X125035635Y-127493308D01*
X124985226Y-127305177D01*
X124976741Y-127273511D01*
X124976738Y-127273502D01*
X124954932Y-127226739D01*
X124880568Y-127067266D01*
X124750047Y-126880861D01*
X124750045Y-126880858D01*
X124589141Y-126719954D01*
X124402734Y-126589432D01*
X124402732Y-126589431D01*
X124196497Y-126493261D01*
X124196488Y-126493258D01*
X123976697Y-126434366D01*
X123976693Y-126434365D01*
X123976692Y-126434365D01*
X123976691Y-126434364D01*
X123976686Y-126434364D01*
X123750002Y-126414532D01*
X123749999Y-126414532D01*
X123523313Y-126434364D01*
X123523296Y-126434367D01*
X123454949Y-126452680D01*
X123385099Y-126451016D01*
X123335177Y-126420586D01*
X123061819Y-126147228D01*
X123028334Y-126085905D01*
X123025500Y-126059547D01*
X123025500Y-124214188D01*
X123045185Y-124147149D01*
X123078377Y-124112613D01*
X123126836Y-124078681D01*
X123239139Y-124000047D01*
X123400047Y-123839139D01*
X123478681Y-123726836D01*
X123512613Y-123678377D01*
X123567189Y-123634752D01*
X123614188Y-123625500D01*
X138489548Y-123625500D01*
X138556587Y-123645185D01*
G37*
%TD.AperFunction*%
%TA.AperFunction,Conductor*%
G36*
X112396538Y-110655836D02*
G01*
X112416354Y-110671935D01*
X121738181Y-119993762D01*
X121771666Y-120055085D01*
X121774500Y-120081443D01*
X121774500Y-121785811D01*
X121754815Y-121852850D01*
X121721623Y-121887386D01*
X121560859Y-121999953D01*
X121399954Y-122160858D01*
X121269432Y-122347265D01*
X121269431Y-122347267D01*
X121173261Y-122553502D01*
X121173258Y-122553511D01*
X121114366Y-122773302D01*
X121114364Y-122773313D01*
X121094532Y-122999998D01*
X121094532Y-123000000D01*
X121114365Y-123226691D01*
X121114366Y-123226697D01*
X121132680Y-123295048D01*
X121131017Y-123364897D01*
X121100587Y-123414820D01*
X121052228Y-123463180D01*
X120990905Y-123496666D01*
X120964546Y-123499500D01*
X118773619Y-123499500D01*
X118706580Y-123479815D01*
X118660825Y-123427011D01*
X118650881Y-123357853D01*
X118653844Y-123343407D01*
X118685139Y-123226609D01*
X118685141Y-123226599D01*
X118704966Y-123000002D01*
X118704966Y-122999997D01*
X118685141Y-122773400D01*
X118685139Y-122773389D01*
X118626269Y-122553682D01*
X118626265Y-122553673D01*
X118530133Y-122347516D01*
X118530131Y-122347512D01*
X118479026Y-122274526D01*
X118479025Y-122274526D01*
X117937419Y-122816132D01*
X117876096Y-122849617D01*
X117806404Y-122844633D01*
X117750471Y-122802761D01*
X117739256Y-122784751D01*
X117727641Y-122761955D01*
X117727637Y-122761951D01*
X117727636Y-122761949D01*
X117638050Y-122672363D01*
X117638044Y-122672358D01*
X117628109Y-122667296D01*
X117615250Y-122660744D01*
X117564456Y-122612773D01*
X117547660Y-122544952D01*
X117570197Y-122478817D01*
X117583865Y-122462580D01*
X118125472Y-121920973D01*
X118052483Y-121869866D01*
X118052481Y-121869865D01*
X117846326Y-121773734D01*
X117846317Y-121773730D01*
X117626610Y-121714860D01*
X117626599Y-121714858D01*
X117400002Y-121695034D01*
X117399998Y-121695034D01*
X117173400Y-121714858D01*
X117173389Y-121714860D01*
X116953682Y-121773730D01*
X116953673Y-121773734D01*
X116747513Y-121869868D01*
X116674526Y-121920973D01*
X117216133Y-122462580D01*
X117249618Y-122523903D01*
X117244634Y-122593595D01*
X117202762Y-122649528D01*
X117184748Y-122660745D01*
X117161956Y-122672358D01*
X117161949Y-122672363D01*
X117072363Y-122761949D01*
X117072358Y-122761956D01*
X117060745Y-122784748D01*
X117012770Y-122835544D01*
X116944949Y-122852338D01*
X116878814Y-122829800D01*
X116862580Y-122816133D01*
X116320973Y-122274526D01*
X116269868Y-122347513D01*
X116173734Y-122553673D01*
X116173730Y-122553682D01*
X116114860Y-122773389D01*
X116114858Y-122773400D01*
X116095034Y-122999997D01*
X116095034Y-123000002D01*
X116114858Y-123226599D01*
X116114860Y-123226609D01*
X116146156Y-123343407D01*
X116144493Y-123413256D01*
X116105331Y-123471119D01*
X116041102Y-123498623D01*
X116026381Y-123499500D01*
X114137737Y-123499500D01*
X114122120Y-123497776D01*
X114122093Y-123498062D01*
X114114331Y-123497327D01*
X114045203Y-123499500D01*
X114015650Y-123499500D01*
X114014929Y-123499590D01*
X114008757Y-123500369D01*
X114002945Y-123500826D01*
X113956372Y-123502290D01*
X113956369Y-123502291D01*
X113937126Y-123507881D01*
X113918083Y-123511825D01*
X113898204Y-123514336D01*
X113898203Y-123514337D01*
X113854878Y-123531490D01*
X113849352Y-123533382D01*
X113804608Y-123546383D01*
X113804604Y-123546385D01*
X113787365Y-123556580D01*
X113769898Y-123565137D01*
X113751269Y-123572512D01*
X113751267Y-123572513D01*
X113713564Y-123599906D01*
X113708682Y-123603112D01*
X113668580Y-123626828D01*
X113654408Y-123641000D01*
X113639623Y-123653628D01*
X113623412Y-123665407D01*
X113593709Y-123701310D01*
X113589777Y-123705631D01*
X111502227Y-125793181D01*
X111440904Y-125826666D01*
X111414546Y-125829500D01*
X110574500Y-125829500D01*
X110507461Y-125809815D01*
X110461706Y-125757011D01*
X110450500Y-125705500D01*
X110450500Y-116611984D01*
X110470185Y-116544945D01*
X110522989Y-116499190D01*
X110592147Y-116489246D01*
X110606593Y-116492209D01*
X110749999Y-116530633D01*
X110749999Y-115812301D01*
X110769683Y-115745262D01*
X110822487Y-115699507D01*
X110891646Y-115689563D01*
X110898380Y-115690531D01*
X110964237Y-115700000D01*
X110964238Y-115700000D01*
X111035762Y-115700000D01*
X111035763Y-115700000D01*
X111108353Y-115689563D01*
X111177512Y-115699507D01*
X111230315Y-115745262D01*
X111250000Y-115812301D01*
X111250000Y-116530633D01*
X111463483Y-116473433D01*
X111463492Y-116473429D01*
X111677578Y-116373600D01*
X111871082Y-116238105D01*
X112038105Y-116071082D01*
X112173600Y-115877578D01*
X112273429Y-115663492D01*
X112273432Y-115663486D01*
X112330636Y-115450000D01*
X111613347Y-115450000D01*
X111546308Y-115430315D01*
X111500553Y-115377511D01*
X111490609Y-115308353D01*
X111494369Y-115291067D01*
X111500000Y-115271888D01*
X111500000Y-115128111D01*
X111494369Y-115108933D01*
X111494370Y-115039064D01*
X111532145Y-114980286D01*
X111595701Y-114951262D01*
X111613347Y-114950000D01*
X112330636Y-114950000D01*
X112330635Y-114949999D01*
X112273432Y-114736513D01*
X112273429Y-114736507D01*
X112173600Y-114522422D01*
X112173599Y-114522420D01*
X112038113Y-114328926D01*
X112038108Y-114328920D01*
X111871078Y-114161890D01*
X111685405Y-114031879D01*
X111641780Y-113977302D01*
X111634588Y-113907804D01*
X111666110Y-113845449D01*
X111685406Y-113828730D01*
X111871401Y-113698495D01*
X112038495Y-113531401D01*
X112174035Y-113337830D01*
X112273903Y-113123663D01*
X112335063Y-112895408D01*
X112355659Y-112660000D01*
X112335063Y-112424592D01*
X112273903Y-112196337D01*
X112174035Y-111982171D01*
X112132882Y-111923397D01*
X112038494Y-111788597D01*
X111871402Y-111621506D01*
X111871396Y-111621501D01*
X111685842Y-111491575D01*
X111642217Y-111436998D01*
X111635023Y-111367500D01*
X111666546Y-111305145D01*
X111685842Y-111288425D01*
X111746755Y-111245773D01*
X111871401Y-111158495D01*
X112038495Y-110991401D01*
X112174035Y-110797830D01*
X112216291Y-110707209D01*
X112262463Y-110654772D01*
X112329657Y-110635620D01*
X112396538Y-110655836D01*
G37*
%TD.AperFunction*%
%TA.AperFunction,Conductor*%
G36*
X122488196Y-99158907D02*
G01*
X122544129Y-99200779D01*
X122568546Y-99266243D01*
X122568390Y-99285895D01*
X122564532Y-99329996D01*
X122564532Y-99330001D01*
X122584364Y-99556686D01*
X122584366Y-99556697D01*
X122643258Y-99776488D01*
X122643261Y-99776497D01*
X122739431Y-99982732D01*
X122739432Y-99982734D01*
X122869954Y-100169141D01*
X123030858Y-100330045D01*
X123030861Y-100330047D01*
X123217266Y-100460568D01*
X123275275Y-100487618D01*
X123327714Y-100533791D01*
X123346866Y-100600984D01*
X123326650Y-100667865D01*
X123275275Y-100712382D01*
X123217267Y-100739431D01*
X123217265Y-100739432D01*
X123030858Y-100869954D01*
X122869954Y-101030858D01*
X122739432Y-101217265D01*
X122739431Y-101217267D01*
X122643261Y-101423502D01*
X122643258Y-101423511D01*
X122584366Y-101643302D01*
X122584364Y-101643313D01*
X122564532Y-101869998D01*
X122564532Y-101870001D01*
X122584364Y-102096686D01*
X122584366Y-102096697D01*
X122643258Y-102316488D01*
X122643261Y-102316497D01*
X122739431Y-102522732D01*
X122739432Y-102522734D01*
X122869954Y-102709141D01*
X123030858Y-102870045D01*
X123077693Y-102902839D01*
X123217266Y-103000568D01*
X123274683Y-103027342D01*
X123275275Y-103027618D01*
X123327714Y-103073791D01*
X123346866Y-103140984D01*
X123326650Y-103207865D01*
X123275275Y-103252382D01*
X123217267Y-103279431D01*
X123217265Y-103279432D01*
X123030858Y-103409954D01*
X122869954Y-103570858D01*
X122739432Y-103757265D01*
X122739431Y-103757267D01*
X122643261Y-103963502D01*
X122643258Y-103963511D01*
X122584366Y-104183302D01*
X122584364Y-104183313D01*
X122564532Y-104409998D01*
X122564532Y-104410001D01*
X122584364Y-104636686D01*
X122584366Y-104636697D01*
X122643258Y-104856488D01*
X122643261Y-104856497D01*
X122739431Y-105062732D01*
X122739432Y-105062734D01*
X122869954Y-105249141D01*
X123030858Y-105410045D01*
X123030861Y-105410047D01*
X123217266Y-105540568D01*
X123275275Y-105567618D01*
X123327714Y-105613791D01*
X123346866Y-105680984D01*
X123326650Y-105747865D01*
X123275275Y-105792382D01*
X123217267Y-105819431D01*
X123217265Y-105819432D01*
X123030858Y-105949954D01*
X122869954Y-106110858D01*
X122739432Y-106297265D01*
X122739431Y-106297267D01*
X122643261Y-106503502D01*
X122643258Y-106503511D01*
X122584366Y-106723302D01*
X122584364Y-106723313D01*
X122564532Y-106949998D01*
X122564532Y-106950001D01*
X122584364Y-107176686D01*
X122584366Y-107176697D01*
X122643258Y-107396488D01*
X122643261Y-107396497D01*
X122739431Y-107602732D01*
X122739432Y-107602734D01*
X122869954Y-107789141D01*
X123030858Y-107950045D01*
X123030861Y-107950047D01*
X123217266Y-108080568D01*
X123275275Y-108107618D01*
X123327714Y-108153791D01*
X123346866Y-108220984D01*
X123326650Y-108287865D01*
X123275275Y-108332382D01*
X123217267Y-108359431D01*
X123217265Y-108359432D01*
X123030858Y-108489954D01*
X122869954Y-108650858D01*
X122739432Y-108837265D01*
X122739431Y-108837267D01*
X122643261Y-109043502D01*
X122643258Y-109043511D01*
X122584366Y-109263302D01*
X122584364Y-109263313D01*
X122564532Y-109489998D01*
X122564532Y-109490001D01*
X122584364Y-109716686D01*
X122584366Y-109716697D01*
X122643258Y-109936488D01*
X122643261Y-109936497D01*
X122739431Y-110142732D01*
X122739432Y-110142734D01*
X122869954Y-110329141D01*
X123030858Y-110490045D01*
X123030861Y-110490047D01*
X123217266Y-110620568D01*
X123254261Y-110637819D01*
X123275275Y-110647618D01*
X123327714Y-110693791D01*
X123346866Y-110760984D01*
X123326650Y-110827865D01*
X123275275Y-110872382D01*
X123217267Y-110899431D01*
X123217265Y-110899432D01*
X123030858Y-111029954D01*
X122869954Y-111190858D01*
X122739432Y-111377265D01*
X122739431Y-111377267D01*
X122643261Y-111583502D01*
X122643258Y-111583511D01*
X122584366Y-111803302D01*
X122584364Y-111803313D01*
X122564532Y-112029998D01*
X122564532Y-112030001D01*
X122584364Y-112256686D01*
X122584366Y-112256697D01*
X122643258Y-112476488D01*
X122643261Y-112476497D01*
X122739431Y-112682732D01*
X122739432Y-112682734D01*
X122869954Y-112869141D01*
X123030858Y-113030045D01*
X123030861Y-113030047D01*
X123217266Y-113160568D01*
X123423504Y-113256739D01*
X123643308Y-113315635D01*
X123805230Y-113329801D01*
X123869998Y-113335468D01*
X123870000Y-113335468D01*
X123870002Y-113335468D01*
X123926672Y-113330509D01*
X124096692Y-113315635D01*
X124316496Y-113256739D01*
X124522734Y-113160568D01*
X124709139Y-113030047D01*
X124870047Y-112869139D01*
X124964229Y-112734630D01*
X125018804Y-112691007D01*
X125088302Y-112683813D01*
X125150657Y-112715335D01*
X125153483Y-112718073D01*
X127210457Y-114775048D01*
X129259761Y-116824352D01*
X129293246Y-116885675D01*
X129291855Y-116944124D01*
X129264937Y-117044589D01*
X129264937Y-117044590D01*
X129244341Y-117279999D01*
X129244341Y-117280000D01*
X129264936Y-117515403D01*
X129264938Y-117515413D01*
X129326094Y-117743655D01*
X129326096Y-117743659D01*
X129326097Y-117743663D01*
X129356420Y-117808690D01*
X129425965Y-117957830D01*
X129425967Y-117957834D01*
X129447555Y-117988664D01*
X129561505Y-118151401D01*
X129728599Y-118318495D01*
X129792863Y-118363493D01*
X129922165Y-118454032D01*
X129922167Y-118454033D01*
X129922170Y-118454035D01*
X130136337Y-118553903D01*
X130364592Y-118615063D01*
X130552918Y-118631539D01*
X130599999Y-118635659D01*
X130600000Y-118635659D01*
X130600001Y-118635659D01*
X130639234Y-118632226D01*
X130835408Y-118615063D01*
X131063663Y-118553903D01*
X131277830Y-118454035D01*
X131471401Y-118318495D01*
X131638495Y-118151401D01*
X131774035Y-117957830D01*
X131873903Y-117743663D01*
X131935063Y-117515408D01*
X131955659Y-117280000D01*
X131935063Y-117044592D01*
X131873903Y-116816337D01*
X131774035Y-116602171D01*
X131759622Y-116581586D01*
X131638494Y-116408597D01*
X131471402Y-116241506D01*
X131471401Y-116241505D01*
X131285405Y-116111269D01*
X131241781Y-116056692D01*
X131234588Y-115987193D01*
X131266110Y-115924839D01*
X131285405Y-115908119D01*
X131471082Y-115778105D01*
X131638105Y-115611082D01*
X131773600Y-115417578D01*
X131873429Y-115203492D01*
X131873432Y-115203486D01*
X131930636Y-114990000D01*
X131213347Y-114990000D01*
X131146308Y-114970315D01*
X131100553Y-114917511D01*
X131090609Y-114848353D01*
X131094369Y-114831067D01*
X131100000Y-114811888D01*
X131100000Y-114668111D01*
X131094369Y-114648933D01*
X131094370Y-114579064D01*
X131132145Y-114520286D01*
X131195701Y-114491262D01*
X131213347Y-114490000D01*
X131930636Y-114490000D01*
X131930635Y-114489999D01*
X131873432Y-114276513D01*
X131873429Y-114276507D01*
X131773600Y-114062422D01*
X131773599Y-114062420D01*
X131638113Y-113868926D01*
X131638108Y-113868920D01*
X131516053Y-113746865D01*
X131482568Y-113685542D01*
X131487552Y-113615850D01*
X131529424Y-113559917D01*
X131560400Y-113543002D01*
X131692331Y-113493796D01*
X131807546Y-113407546D01*
X131893796Y-113292331D01*
X131944091Y-113157483D01*
X131950500Y-113097873D01*
X131950499Y-112384450D01*
X131970183Y-112317413D01*
X132022987Y-112271658D01*
X132092146Y-112261714D01*
X132155702Y-112290739D01*
X132162180Y-112296771D01*
X133163180Y-113297771D01*
X133196665Y-113359094D01*
X133199499Y-113385452D01*
X133199499Y-116067261D01*
X133197776Y-116082878D01*
X133198060Y-116082905D01*
X133197326Y-116090664D01*
X133199500Y-116159814D01*
X133199500Y-116189343D01*
X133199501Y-116189360D01*
X133200368Y-116196231D01*
X133200826Y-116202050D01*
X133202290Y-116248624D01*
X133202291Y-116248627D01*
X133207880Y-116267867D01*
X133211824Y-116286911D01*
X133213692Y-116301692D01*
X133214336Y-116306791D01*
X133231490Y-116350119D01*
X133233382Y-116355647D01*
X133246382Y-116400390D01*
X133251235Y-116408597D01*
X133256580Y-116417634D01*
X133265138Y-116435103D01*
X133272514Y-116453732D01*
X133299898Y-116491423D01*
X133303106Y-116496307D01*
X133326827Y-116536416D01*
X133326833Y-116536424D01*
X133340990Y-116550580D01*
X133353628Y-116565376D01*
X133365405Y-116581586D01*
X133365406Y-116581587D01*
X133401309Y-116611288D01*
X133405620Y-116615210D01*
X133606745Y-116816335D01*
X133659762Y-116869352D01*
X133693247Y-116930675D01*
X133691856Y-116989126D01*
X133664938Y-117089586D01*
X133664936Y-117089596D01*
X133644341Y-117324999D01*
X133644341Y-117325000D01*
X133664936Y-117560403D01*
X133664938Y-117560413D01*
X133726094Y-117788655D01*
X133726096Y-117788659D01*
X133726097Y-117788663D01*
X133735436Y-117808690D01*
X133825965Y-118002830D01*
X133825967Y-118002834D01*
X133929991Y-118151395D01*
X133961505Y-118196401D01*
X134128599Y-118363495D01*
X134175585Y-118396395D01*
X134322165Y-118499032D01*
X134322167Y-118499033D01*
X134322170Y-118499035D01*
X134536337Y-118598903D01*
X134764592Y-118660063D01*
X134952918Y-118676539D01*
X134999999Y-118680659D01*
X135000000Y-118680659D01*
X135000001Y-118680659D01*
X135039234Y-118677226D01*
X135235408Y-118660063D01*
X135463663Y-118598903D01*
X135677830Y-118499035D01*
X135871401Y-118363495D01*
X136038495Y-118196401D01*
X136174035Y-118002830D01*
X136273903Y-117788663D01*
X136335063Y-117560408D01*
X136338161Y-117525000D01*
X138044341Y-117525000D01*
X138064936Y-117760403D01*
X138064938Y-117760413D01*
X138126094Y-117988655D01*
X138126096Y-117988659D01*
X138126097Y-117988663D01*
X138201983Y-118151401D01*
X138225965Y-118202830D01*
X138225967Y-118202834D01*
X138334281Y-118357521D01*
X138361505Y-118396401D01*
X138528599Y-118563495D01*
X138579164Y-118598901D01*
X138722165Y-118699032D01*
X138722167Y-118699033D01*
X138722170Y-118699035D01*
X138936337Y-118798903D01*
X139164592Y-118860063D01*
X139352918Y-118876539D01*
X139399999Y-118880659D01*
X139400000Y-118880659D01*
X139400001Y-118880659D01*
X139439234Y-118877226D01*
X139635408Y-118860063D01*
X139863663Y-118798903D01*
X140077830Y-118699035D01*
X140271401Y-118563495D01*
X140438495Y-118396401D01*
X140574035Y-118202830D01*
X140673903Y-117988663D01*
X140735063Y-117760408D01*
X140755659Y-117525000D01*
X140735063Y-117289592D01*
X140673903Y-117061337D01*
X140574035Y-116847171D01*
X140552444Y-116816335D01*
X140438494Y-116653597D01*
X140271402Y-116486506D01*
X140271401Y-116486505D01*
X140085405Y-116356269D01*
X140041781Y-116301692D01*
X140034588Y-116232193D01*
X140066110Y-116169839D01*
X140085405Y-116153119D01*
X140271082Y-116023105D01*
X140438105Y-115856082D01*
X140573600Y-115662578D01*
X140673429Y-115448492D01*
X140673432Y-115448486D01*
X140730636Y-115235000D01*
X140013347Y-115235000D01*
X139946308Y-115215315D01*
X139900553Y-115162511D01*
X139890609Y-115093353D01*
X139894369Y-115076067D01*
X139900000Y-115056888D01*
X139900000Y-114913111D01*
X139894369Y-114893933D01*
X139894370Y-114824064D01*
X139932145Y-114765286D01*
X139995701Y-114736262D01*
X140013347Y-114735000D01*
X140730636Y-114735000D01*
X140730635Y-114734999D01*
X140673432Y-114521513D01*
X140673429Y-114521507D01*
X140573600Y-114307422D01*
X140573599Y-114307420D01*
X140438113Y-114113926D01*
X140438108Y-114113920D01*
X140316053Y-113991865D01*
X140282568Y-113930542D01*
X140287552Y-113860850D01*
X140329424Y-113804917D01*
X140360400Y-113788002D01*
X140492331Y-113738796D01*
X140607546Y-113652546D01*
X140693796Y-113537331D01*
X140744091Y-113402483D01*
X140750500Y-113342873D01*
X140750499Y-111547128D01*
X140744091Y-111487517D01*
X140744020Y-111487327D01*
X140693797Y-111352671D01*
X140693793Y-111352664D01*
X140607547Y-111237455D01*
X140607544Y-111237452D01*
X140492335Y-111151206D01*
X140492328Y-111151202D01*
X140357482Y-111100908D01*
X140357483Y-111100908D01*
X140297883Y-111094501D01*
X140297881Y-111094500D01*
X140297873Y-111094500D01*
X140297864Y-111094500D01*
X138502129Y-111094500D01*
X138502123Y-111094501D01*
X138442516Y-111100908D01*
X138307671Y-111151202D01*
X138307664Y-111151206D01*
X138192455Y-111237452D01*
X138192452Y-111237455D01*
X138106206Y-111352664D01*
X138106202Y-111352671D01*
X138055908Y-111487517D01*
X138052423Y-111519936D01*
X138049501Y-111547123D01*
X138049500Y-111547135D01*
X138049500Y-113342870D01*
X138049501Y-113342876D01*
X138055908Y-113402483D01*
X138106202Y-113537328D01*
X138106206Y-113537335D01*
X138192452Y-113652544D01*
X138192455Y-113652547D01*
X138307664Y-113738793D01*
X138307671Y-113738797D01*
X138307674Y-113738798D01*
X138439598Y-113788002D01*
X138495531Y-113829873D01*
X138519949Y-113895337D01*
X138505098Y-113963610D01*
X138483947Y-113991865D01*
X138361886Y-114113926D01*
X138226400Y-114307420D01*
X138226399Y-114307422D01*
X138126570Y-114521507D01*
X138126567Y-114521513D01*
X138069364Y-114734999D01*
X138069364Y-114735000D01*
X138786653Y-114735000D01*
X138853692Y-114754685D01*
X138899447Y-114807489D01*
X138909391Y-114876647D01*
X138905631Y-114893933D01*
X138900000Y-114913111D01*
X138900000Y-115056888D01*
X138905631Y-115076067D01*
X138905630Y-115145936D01*
X138867855Y-115204714D01*
X138804299Y-115233738D01*
X138786653Y-115235000D01*
X138069364Y-115235000D01*
X138126567Y-115448486D01*
X138126570Y-115448492D01*
X138226399Y-115662578D01*
X138361894Y-115856082D01*
X138528917Y-116023105D01*
X138714595Y-116153119D01*
X138758219Y-116207696D01*
X138765412Y-116277195D01*
X138733890Y-116339549D01*
X138714595Y-116356269D01*
X138528594Y-116486508D01*
X138361505Y-116653597D01*
X138225965Y-116847169D01*
X138225964Y-116847171D01*
X138126098Y-117061335D01*
X138126094Y-117061344D01*
X138064938Y-117289586D01*
X138064936Y-117289596D01*
X138044341Y-117524999D01*
X138044341Y-117525000D01*
X136338161Y-117525000D01*
X136355659Y-117325000D01*
X136352561Y-117289596D01*
X136335063Y-117089596D01*
X136335063Y-117089592D01*
X136273903Y-116861337D01*
X136174035Y-116647171D01*
X136151664Y-116615221D01*
X136038494Y-116453597D01*
X135871402Y-116286506D01*
X135871401Y-116286505D01*
X135685405Y-116156269D01*
X135641781Y-116101692D01*
X135634588Y-116032193D01*
X135666110Y-115969839D01*
X135685405Y-115953119D01*
X135871082Y-115823105D01*
X136038105Y-115656082D01*
X136173600Y-115462578D01*
X136273429Y-115248492D01*
X136273432Y-115248486D01*
X136330636Y-115035000D01*
X135613347Y-115035000D01*
X135546308Y-115015315D01*
X135500553Y-114962511D01*
X135490609Y-114893353D01*
X135494369Y-114876067D01*
X135500000Y-114856888D01*
X135500000Y-114713111D01*
X135494369Y-114693933D01*
X135494370Y-114624064D01*
X135532145Y-114565286D01*
X135595701Y-114536262D01*
X135613347Y-114535000D01*
X136330636Y-114535000D01*
X136330635Y-114534999D01*
X136273432Y-114321513D01*
X136273429Y-114321507D01*
X136173600Y-114107422D01*
X136173599Y-114107420D01*
X136038113Y-113913926D01*
X136038108Y-113913920D01*
X135916053Y-113791865D01*
X135882568Y-113730542D01*
X135887552Y-113660850D01*
X135929424Y-113604917D01*
X135960400Y-113588002D01*
X136060954Y-113550499D01*
X136092326Y-113538798D01*
X136092326Y-113538797D01*
X136092331Y-113538796D01*
X136207546Y-113452546D01*
X136293796Y-113337331D01*
X136344091Y-113202483D01*
X136350500Y-113142873D01*
X136350499Y-111347128D01*
X136344091Y-111287517D01*
X136339495Y-111275195D01*
X136293797Y-111152671D01*
X136293793Y-111152664D01*
X136207547Y-111037455D01*
X136207544Y-111037452D01*
X136092335Y-110951206D01*
X136092328Y-110951202D01*
X135957482Y-110900908D01*
X135957483Y-110900908D01*
X135897883Y-110894501D01*
X135897881Y-110894500D01*
X135897873Y-110894500D01*
X135897865Y-110894500D01*
X134585453Y-110894500D01*
X134518414Y-110874815D01*
X134497772Y-110858181D01*
X127665803Y-104026212D01*
X127655980Y-104013950D01*
X127655759Y-104014134D01*
X127650786Y-104008123D01*
X127637000Y-103995177D01*
X127600364Y-103960773D01*
X127589919Y-103950328D01*
X127579475Y-103939883D01*
X127573986Y-103935625D01*
X127569561Y-103931847D01*
X127535582Y-103899938D01*
X127535580Y-103899936D01*
X127535577Y-103899935D01*
X127518029Y-103890288D01*
X127501763Y-103879604D01*
X127485933Y-103867325D01*
X127443168Y-103848818D01*
X127437922Y-103846248D01*
X127397093Y-103823803D01*
X127397092Y-103823802D01*
X127377693Y-103818822D01*
X127359281Y-103812518D01*
X127340898Y-103804562D01*
X127340892Y-103804560D01*
X127294874Y-103797272D01*
X127289152Y-103796087D01*
X127244021Y-103784500D01*
X127244019Y-103784500D01*
X127223984Y-103784500D01*
X127204586Y-103782973D01*
X127197162Y-103781797D01*
X127184805Y-103779840D01*
X127184804Y-103779840D01*
X127138416Y-103784225D01*
X127132578Y-103784500D01*
X125084188Y-103784500D01*
X125017149Y-103764815D01*
X124982613Y-103731623D01*
X124870045Y-103570858D01*
X124709141Y-103409954D01*
X124522734Y-103279432D01*
X124522728Y-103279429D01*
X124464725Y-103252382D01*
X124412285Y-103206210D01*
X124393133Y-103139017D01*
X124413348Y-103072135D01*
X124464725Y-103027618D01*
X124465317Y-103027342D01*
X124522734Y-103000568D01*
X124709139Y-102870047D01*
X124870047Y-102709139D01*
X124964738Y-102573905D01*
X124982613Y-102548377D01*
X125037189Y-102504752D01*
X125084188Y-102495500D01*
X128374548Y-102495500D01*
X128441587Y-102515185D01*
X128462229Y-102531819D01*
X130453181Y-104522771D01*
X130486666Y-104584094D01*
X130489500Y-104610452D01*
X130489500Y-105922870D01*
X130489501Y-105922876D01*
X130495908Y-105982483D01*
X130546202Y-106117328D01*
X130546206Y-106117335D01*
X130632452Y-106232544D01*
X130632455Y-106232547D01*
X130747664Y-106318793D01*
X130747671Y-106318797D01*
X130882517Y-106369091D01*
X130882516Y-106369091D01*
X130889444Y-106369835D01*
X130942127Y-106375500D01*
X132737872Y-106375499D01*
X132797483Y-106369091D01*
X132932331Y-106318796D01*
X133047546Y-106232546D01*
X133133796Y-106117331D01*
X133182810Y-105985916D01*
X133224681Y-105929984D01*
X133290145Y-105905566D01*
X133358418Y-105920417D01*
X133386672Y-105941568D01*
X133508599Y-106063495D01*
X133605384Y-106131264D01*
X133702165Y-106199032D01*
X133702167Y-106199033D01*
X133702170Y-106199035D01*
X133916337Y-106298903D01*
X134144592Y-106360063D01*
X134321034Y-106375500D01*
X134379999Y-106380659D01*
X134380000Y-106380659D01*
X134380001Y-106380659D01*
X134438966Y-106375500D01*
X134615408Y-106360063D01*
X134843663Y-106298903D01*
X135057830Y-106199035D01*
X135251401Y-106063495D01*
X135418495Y-105896401D01*
X135553651Y-105703377D01*
X135608229Y-105659752D01*
X135655227Y-105650500D01*
X137997257Y-105650500D01*
X138012877Y-105652224D01*
X138012904Y-105651939D01*
X138020660Y-105652671D01*
X138020667Y-105652673D01*
X138089814Y-105650500D01*
X138119350Y-105650500D01*
X138126228Y-105649630D01*
X138132041Y-105649172D01*
X138178627Y-105647709D01*
X138197869Y-105642117D01*
X138216912Y-105638174D01*
X138236792Y-105635664D01*
X138280122Y-105618507D01*
X138285646Y-105616617D01*
X138301073Y-105612135D01*
X138330390Y-105603618D01*
X138347629Y-105593422D01*
X138365103Y-105584862D01*
X138383727Y-105577488D01*
X138383727Y-105577487D01*
X138383732Y-105577486D01*
X138421449Y-105550082D01*
X138426305Y-105546892D01*
X138466420Y-105523170D01*
X138480589Y-105508999D01*
X138495369Y-105496376D01*
X138507616Y-105487478D01*
X138573420Y-105464002D01*
X138612583Y-105468024D01*
X138678308Y-105485635D01*
X138840230Y-105499801D01*
X138904998Y-105505468D01*
X138905000Y-105505468D01*
X138905002Y-105505468D01*
X138961672Y-105500509D01*
X139131692Y-105485635D01*
X139351496Y-105426739D01*
X139557734Y-105330568D01*
X139744139Y-105200047D01*
X139905047Y-105039139D01*
X140035568Y-104852734D01*
X140062618Y-104794724D01*
X140108790Y-104742285D01*
X140175983Y-104723133D01*
X140242865Y-104743348D01*
X140287382Y-104794725D01*
X140314429Y-104852728D01*
X140314432Y-104852734D01*
X140444954Y-105039141D01*
X140605858Y-105200045D01*
X140605861Y-105200047D01*
X140792266Y-105330568D01*
X140998504Y-105426739D01*
X141218308Y-105485635D01*
X141380230Y-105499801D01*
X141444998Y-105505468D01*
X141445000Y-105505468D01*
X141445002Y-105505468D01*
X141501672Y-105500509D01*
X141671692Y-105485635D01*
X141891496Y-105426739D01*
X142097734Y-105330568D01*
X142284139Y-105200047D01*
X142445047Y-105039139D01*
X142557612Y-104878377D01*
X142612189Y-104834752D01*
X142659188Y-104825500D01*
X142889548Y-104825500D01*
X142956587Y-104845185D01*
X142977228Y-104861818D01*
X145138182Y-107022772D01*
X145171666Y-107084093D01*
X145174500Y-107110451D01*
X145174500Y-111417980D01*
X145154815Y-111485019D01*
X145102011Y-111530774D01*
X145032853Y-111540718D01*
X144969297Y-111511693D01*
X144934318Y-111461313D01*
X144893797Y-111352671D01*
X144893793Y-111352664D01*
X144807547Y-111237455D01*
X144807544Y-111237452D01*
X144692335Y-111151206D01*
X144692328Y-111151202D01*
X144557482Y-111100908D01*
X144557483Y-111100908D01*
X144497883Y-111094501D01*
X144497881Y-111094500D01*
X144497873Y-111094500D01*
X144497864Y-111094500D01*
X142702129Y-111094500D01*
X142702123Y-111094501D01*
X142642516Y-111100908D01*
X142507671Y-111151202D01*
X142507664Y-111151206D01*
X142392455Y-111237452D01*
X142392452Y-111237455D01*
X142306206Y-111352664D01*
X142306202Y-111352671D01*
X142255908Y-111487517D01*
X142252423Y-111519936D01*
X142249501Y-111547123D01*
X142249500Y-111547135D01*
X142249500Y-113342870D01*
X142249501Y-113342876D01*
X142255908Y-113402483D01*
X142306202Y-113537328D01*
X142306206Y-113537335D01*
X142392452Y-113652544D01*
X142392455Y-113652547D01*
X142507664Y-113738793D01*
X142507671Y-113738797D01*
X142507674Y-113738798D01*
X142639598Y-113788002D01*
X142695531Y-113829873D01*
X142719949Y-113895337D01*
X142705098Y-113963610D01*
X142683947Y-113991865D01*
X142561886Y-114113926D01*
X142426400Y-114307420D01*
X142426399Y-114307422D01*
X142326570Y-114521507D01*
X142326567Y-114521513D01*
X142269364Y-114734999D01*
X142269364Y-114735000D01*
X142986653Y-114735000D01*
X143053692Y-114754685D01*
X143099447Y-114807489D01*
X143109391Y-114876647D01*
X143105631Y-114893933D01*
X143100000Y-114913111D01*
X143100000Y-115056888D01*
X143105631Y-115076067D01*
X143105630Y-115145936D01*
X143067855Y-115204714D01*
X143004299Y-115233738D01*
X142986653Y-115235000D01*
X142269364Y-115235000D01*
X142326567Y-115448486D01*
X142326570Y-115448492D01*
X142426399Y-115662578D01*
X142561894Y-115856082D01*
X142728917Y-116023105D01*
X142914595Y-116153119D01*
X142958219Y-116207696D01*
X142965412Y-116277195D01*
X142933890Y-116339549D01*
X142914595Y-116356269D01*
X142728594Y-116486508D01*
X142561505Y-116653597D01*
X142425965Y-116847169D01*
X142425964Y-116847171D01*
X142326098Y-117061335D01*
X142326094Y-117061344D01*
X142264938Y-117289586D01*
X142264936Y-117289596D01*
X142244341Y-117524999D01*
X142244341Y-117525000D01*
X142264936Y-117760403D01*
X142264938Y-117760413D01*
X142326094Y-117988655D01*
X142326096Y-117988659D01*
X142326097Y-117988663D01*
X142401983Y-118151401D01*
X142425965Y-118202830D01*
X142425967Y-118202834D01*
X142534281Y-118357521D01*
X142561505Y-118396401D01*
X142728599Y-118563495D01*
X142779164Y-118598901D01*
X142922165Y-118699032D01*
X142922167Y-118699033D01*
X142922170Y-118699035D01*
X143136337Y-118798903D01*
X143364592Y-118860063D01*
X143552918Y-118876539D01*
X143599999Y-118880659D01*
X143600000Y-118880659D01*
X143600001Y-118880659D01*
X143639234Y-118877226D01*
X143835408Y-118860063D01*
X144063663Y-118798903D01*
X144277830Y-118699035D01*
X144471401Y-118563495D01*
X144638495Y-118396401D01*
X144774035Y-118202830D01*
X144873903Y-117988663D01*
X144930725Y-117776596D01*
X144967090Y-117716936D01*
X145029936Y-117686407D01*
X145099312Y-117694701D01*
X145153190Y-117739186D01*
X145174465Y-117805738D01*
X145174500Y-117808690D01*
X145174500Y-121689546D01*
X145154815Y-121756585D01*
X145138181Y-121777227D01*
X142214821Y-124700586D01*
X142153498Y-124734071D01*
X142095048Y-124732680D01*
X142026697Y-124714366D01*
X142026693Y-124714365D01*
X142026692Y-124714365D01*
X141913346Y-124704448D01*
X141800001Y-124694532D01*
X141799999Y-124694532D01*
X141573313Y-124714364D01*
X141573296Y-124714367D01*
X141504949Y-124732680D01*
X141435099Y-124731016D01*
X141385177Y-124700586D01*
X139300803Y-122616212D01*
X139290980Y-122603950D01*
X139290759Y-122604134D01*
X139285786Y-122598123D01*
X139280964Y-122593595D01*
X139235364Y-122550773D01*
X139224460Y-122539869D01*
X139214475Y-122529883D01*
X139208986Y-122525625D01*
X139204561Y-122521847D01*
X139170582Y-122489938D01*
X139170580Y-122489936D01*
X139170577Y-122489935D01*
X139153029Y-122480288D01*
X139136763Y-122469604D01*
X139120933Y-122457325D01*
X139078168Y-122438818D01*
X139072922Y-122436248D01*
X139032093Y-122413803D01*
X139032092Y-122413802D01*
X139012693Y-122408822D01*
X138994281Y-122402518D01*
X138975898Y-122394562D01*
X138975892Y-122394560D01*
X138929874Y-122387272D01*
X138924152Y-122386087D01*
X138879021Y-122374500D01*
X138879019Y-122374500D01*
X138858984Y-122374500D01*
X138839586Y-122372973D01*
X138832162Y-122371797D01*
X138819805Y-122369840D01*
X138819804Y-122369840D01*
X138773416Y-122374225D01*
X138767578Y-122374500D01*
X123614188Y-122374500D01*
X123547149Y-122354815D01*
X123512613Y-122321623D01*
X123400045Y-122160858D01*
X123239140Y-121999953D01*
X123078377Y-121887386D01*
X123034752Y-121832809D01*
X123025500Y-121785811D01*
X123025500Y-119853733D01*
X123027224Y-119838113D01*
X123026939Y-119838086D01*
X123027673Y-119830324D01*
X123025500Y-119761163D01*
X123025500Y-119731647D01*
X123025500Y-119731641D01*
X123024631Y-119724770D01*
X123024173Y-119718943D01*
X123022710Y-119672364D01*
X123017119Y-119653121D01*
X123013173Y-119634069D01*
X123010664Y-119614199D01*
X122993504Y-119570858D01*
X122991624Y-119565370D01*
X122978618Y-119520601D01*
X122968422Y-119503361D01*
X122959861Y-119485885D01*
X122952487Y-119467261D01*
X122952486Y-119467259D01*
X122925079Y-119429536D01*
X122921888Y-119424677D01*
X122898172Y-119384574D01*
X122898165Y-119384565D01*
X122884006Y-119370406D01*
X122871368Y-119355610D01*
X122859594Y-119339404D01*
X122823688Y-119309700D01*
X122819376Y-119305777D01*
X118361952Y-114848353D01*
X116871701Y-113358101D01*
X116838216Y-113296778D01*
X116843200Y-113227086D01*
X116885072Y-113171153D01*
X116898096Y-113163357D01*
X116897797Y-113162839D01*
X116902481Y-113160134D01*
X117088820Y-113029657D01*
X117249657Y-112868820D01*
X117380134Y-112682482D01*
X117476265Y-112476326D01*
X117476269Y-112476317D01*
X117528872Y-112280000D01*
X116760576Y-112280000D01*
X116693537Y-112260315D01*
X116647782Y-112207511D01*
X116637838Y-112138353D01*
X116638103Y-112136603D01*
X116654986Y-112030003D01*
X116654986Y-112029996D01*
X116638103Y-111923397D01*
X116647058Y-111854104D01*
X116692054Y-111800652D01*
X116758806Y-111780013D01*
X116760576Y-111780000D01*
X117528872Y-111780000D01*
X117528872Y-111779999D01*
X117476269Y-111583682D01*
X117476265Y-111583673D01*
X117380134Y-111377517D01*
X117249657Y-111191179D01*
X117088820Y-111030342D01*
X116902482Y-110899865D01*
X116844133Y-110872657D01*
X116791694Y-110826484D01*
X116772542Y-110759291D01*
X116792758Y-110692410D01*
X116844129Y-110647895D01*
X116902734Y-110620568D01*
X117089139Y-110490047D01*
X117250047Y-110329139D01*
X117380568Y-110142734D01*
X117476739Y-109936496D01*
X117535635Y-109716692D01*
X117555468Y-109490000D01*
X117535635Y-109263308D01*
X117476739Y-109043504D01*
X117380568Y-108837266D01*
X117250047Y-108650861D01*
X117250045Y-108650858D01*
X117089141Y-108489954D01*
X116902734Y-108359432D01*
X116902728Y-108359429D01*
X116844725Y-108332382D01*
X116792285Y-108286210D01*
X116773133Y-108219017D01*
X116793348Y-108152135D01*
X116844725Y-108107618D01*
X116902734Y-108080568D01*
X117089139Y-107950047D01*
X117250047Y-107789139D01*
X117380568Y-107602734D01*
X117476739Y-107396496D01*
X117535635Y-107176692D01*
X117555468Y-106950000D01*
X117554139Y-106934815D01*
X117548386Y-106869048D01*
X117535635Y-106723308D01*
X117476739Y-106503504D01*
X117380568Y-106297266D01*
X117250047Y-106110861D01*
X117250045Y-106110858D01*
X117089141Y-105949954D01*
X116902734Y-105819432D01*
X116902728Y-105819429D01*
X116844725Y-105792382D01*
X116792285Y-105746210D01*
X116773133Y-105679017D01*
X116793348Y-105612135D01*
X116844725Y-105567618D01*
X116902734Y-105540568D01*
X117089139Y-105410047D01*
X117250047Y-105249139D01*
X117380568Y-105062734D01*
X117476739Y-104856496D01*
X117535635Y-104636692D01*
X117555468Y-104410000D01*
X117554549Y-104399500D01*
X117535635Y-104183313D01*
X117535635Y-104183308D01*
X117517318Y-104114948D01*
X117518981Y-104045103D01*
X117549410Y-103995179D01*
X122357183Y-99187406D01*
X122418504Y-99153923D01*
X122488196Y-99158907D01*
G37*
%TD.AperFunction*%
%TA.AperFunction,Conductor*%
G36*
X127646587Y-110135185D02*
G01*
X127667229Y-110151819D01*
X129213181Y-111697771D01*
X129246666Y-111759094D01*
X129249500Y-111785452D01*
X129249500Y-113097870D01*
X129249501Y-113097876D01*
X129255908Y-113157483D01*
X129306202Y-113292328D01*
X129306206Y-113292335D01*
X129392452Y-113407544D01*
X129392455Y-113407547D01*
X129507664Y-113493793D01*
X129507671Y-113493797D01*
X129507674Y-113493798D01*
X129639598Y-113543002D01*
X129695531Y-113584873D01*
X129719949Y-113650337D01*
X129705098Y-113718610D01*
X129683947Y-113746865D01*
X129561886Y-113868926D01*
X129426400Y-114062420D01*
X129426399Y-114062422D01*
X129326570Y-114276507D01*
X129326567Y-114276513D01*
X129269364Y-114489999D01*
X129269364Y-114490000D01*
X129986653Y-114490000D01*
X130053692Y-114509685D01*
X130099447Y-114562489D01*
X130109391Y-114631647D01*
X130105631Y-114648933D01*
X130100000Y-114668111D01*
X130100000Y-114811888D01*
X130105631Y-114831067D01*
X130105630Y-114900936D01*
X130067855Y-114959714D01*
X130004299Y-114988738D01*
X129986653Y-114990000D01*
X129245953Y-114990000D01*
X129178914Y-114970315D01*
X129158272Y-114953681D01*
X125850803Y-111646212D01*
X125840980Y-111633950D01*
X125840759Y-111634134D01*
X125835786Y-111628123D01*
X125828740Y-111621506D01*
X125785364Y-111580773D01*
X125774919Y-111570328D01*
X125764475Y-111559883D01*
X125758986Y-111555625D01*
X125754561Y-111551847D01*
X125720582Y-111519938D01*
X125720580Y-111519936D01*
X125720577Y-111519935D01*
X125703029Y-111510288D01*
X125686763Y-111499604D01*
X125671181Y-111487517D01*
X125670936Y-111487327D01*
X125670935Y-111487326D01*
X125670933Y-111487325D01*
X125628168Y-111468818D01*
X125622922Y-111466248D01*
X125582093Y-111443803D01*
X125582092Y-111443802D01*
X125562693Y-111438822D01*
X125544281Y-111432518D01*
X125525898Y-111424562D01*
X125525892Y-111424560D01*
X125479874Y-111417272D01*
X125474152Y-111416087D01*
X125429021Y-111404500D01*
X125429019Y-111404500D01*
X125408984Y-111404500D01*
X125389586Y-111402973D01*
X125382162Y-111401797D01*
X125369805Y-111399840D01*
X125369804Y-111399840D01*
X125323416Y-111404225D01*
X125317578Y-111404500D01*
X125084188Y-111404500D01*
X125017149Y-111384815D01*
X124982613Y-111351623D01*
X124870045Y-111190858D01*
X124709141Y-111029954D01*
X124522734Y-110899432D01*
X124522728Y-110899429D01*
X124482203Y-110880532D01*
X124464724Y-110872381D01*
X124412285Y-110826210D01*
X124393133Y-110759017D01*
X124413348Y-110692135D01*
X124464725Y-110647618D01*
X124522734Y-110620568D01*
X124709139Y-110490047D01*
X124870047Y-110329139D01*
X124982612Y-110168377D01*
X125037189Y-110124752D01*
X125084188Y-110115500D01*
X127579548Y-110115500D01*
X127646587Y-110135185D01*
G37*
%TD.AperFunction*%
%TA.AperFunction,Conductor*%
G36*
X127456587Y-107595185D02*
G01*
X127477229Y-107611819D01*
X130503228Y-110637819D01*
X130536713Y-110699142D01*
X130531729Y-110768834D01*
X130489857Y-110824767D01*
X130424393Y-110849184D01*
X130415547Y-110849500D01*
X130185453Y-110849500D01*
X130118414Y-110829815D01*
X130097772Y-110813181D01*
X128390803Y-109106212D01*
X128380980Y-109093950D01*
X128380759Y-109094134D01*
X128375786Y-109088123D01*
X128358865Y-109072233D01*
X128325364Y-109040773D01*
X128314919Y-109030328D01*
X128304475Y-109019883D01*
X128298986Y-109015625D01*
X128294561Y-109011847D01*
X128260582Y-108979938D01*
X128260580Y-108979936D01*
X128260577Y-108979935D01*
X128243029Y-108970288D01*
X128226763Y-108959604D01*
X128210933Y-108947325D01*
X128168168Y-108928818D01*
X128162922Y-108926248D01*
X128122093Y-108903803D01*
X128122092Y-108903802D01*
X128102693Y-108898822D01*
X128084281Y-108892518D01*
X128065898Y-108884562D01*
X128065892Y-108884560D01*
X128019874Y-108877272D01*
X128014152Y-108876087D01*
X127969021Y-108864500D01*
X127969019Y-108864500D01*
X127948984Y-108864500D01*
X127929586Y-108862973D01*
X127922162Y-108861797D01*
X127909805Y-108859840D01*
X127909804Y-108859840D01*
X127863416Y-108864225D01*
X127857578Y-108864500D01*
X125084188Y-108864500D01*
X125017149Y-108844815D01*
X124982613Y-108811623D01*
X124870045Y-108650858D01*
X124709141Y-108489954D01*
X124522734Y-108359432D01*
X124522728Y-108359429D01*
X124464725Y-108332382D01*
X124412285Y-108286210D01*
X124393133Y-108219017D01*
X124413348Y-108152135D01*
X124464725Y-108107618D01*
X124522734Y-108080568D01*
X124709139Y-107950047D01*
X124870047Y-107789139D01*
X124982612Y-107628377D01*
X125037189Y-107584752D01*
X125084188Y-107575500D01*
X127389548Y-107575500D01*
X127456587Y-107595185D01*
G37*
%TD.AperFunction*%
%TA.AperFunction,Conductor*%
G36*
X114947221Y-96539881D02*
G01*
X114947382Y-96540000D01*
X115739424Y-96540000D01*
X115806463Y-96559685D01*
X115852218Y-96612489D01*
X115862162Y-96681647D01*
X115861897Y-96683397D01*
X115845014Y-96789996D01*
X115845014Y-96790003D01*
X115861897Y-96896603D01*
X115852942Y-96965896D01*
X115807946Y-97019348D01*
X115741194Y-97039987D01*
X115739424Y-97040000D01*
X114971128Y-97040000D01*
X115023730Y-97236317D01*
X115023734Y-97236326D01*
X115119865Y-97442482D01*
X115250342Y-97628820D01*
X115411179Y-97789657D01*
X115597517Y-97920134D01*
X115656457Y-97947618D01*
X115708896Y-97993790D01*
X115728048Y-98060984D01*
X115707832Y-98127865D01*
X115656457Y-98172382D01*
X115597517Y-98199865D01*
X115411179Y-98330342D01*
X115250342Y-98491179D01*
X115119865Y-98677517D01*
X115023734Y-98883673D01*
X115023730Y-98883682D01*
X114971127Y-99079999D01*
X114971128Y-99080000D01*
X115739424Y-99080000D01*
X115806463Y-99099685D01*
X115852218Y-99152489D01*
X115862162Y-99221647D01*
X115861897Y-99223397D01*
X115845014Y-99329996D01*
X115845014Y-99330003D01*
X115861897Y-99436603D01*
X115852942Y-99505896D01*
X115807946Y-99559348D01*
X115741194Y-99579987D01*
X115739424Y-99580000D01*
X114971128Y-99580000D01*
X115023730Y-99776317D01*
X115023734Y-99776326D01*
X115119865Y-99982482D01*
X115250342Y-100168820D01*
X115411179Y-100329657D01*
X115597517Y-100460134D01*
X115656457Y-100487618D01*
X115708896Y-100533790D01*
X115728048Y-100600984D01*
X115707832Y-100667865D01*
X115656457Y-100712382D01*
X115597517Y-100739865D01*
X115411179Y-100870342D01*
X115250342Y-101031179D01*
X115119865Y-101217517D01*
X115023734Y-101423673D01*
X115023730Y-101423682D01*
X114971127Y-101619999D01*
X114971128Y-101620000D01*
X115739424Y-101620000D01*
X115806463Y-101639685D01*
X115852218Y-101692489D01*
X115862162Y-101761647D01*
X115861897Y-101763397D01*
X115845014Y-101869996D01*
X115845014Y-101870003D01*
X115861897Y-101976603D01*
X115852942Y-102045896D01*
X115807946Y-102099348D01*
X115741194Y-102119987D01*
X115739424Y-102120000D01*
X114971128Y-102120000D01*
X115023730Y-102316317D01*
X115023734Y-102316326D01*
X115119865Y-102522482D01*
X115250342Y-102708820D01*
X115411179Y-102869657D01*
X115597518Y-103000134D01*
X115597520Y-103000135D01*
X115655865Y-103027342D01*
X115708305Y-103073514D01*
X115727457Y-103140707D01*
X115707242Y-103207589D01*
X115655867Y-103252105D01*
X115597268Y-103279431D01*
X115597264Y-103279433D01*
X115410858Y-103409954D01*
X115249954Y-103570858D01*
X115119432Y-103757265D01*
X115119431Y-103757267D01*
X115023261Y-103963502D01*
X115023258Y-103963511D01*
X114964366Y-104183302D01*
X114964364Y-104183313D01*
X114944532Y-104409998D01*
X114944532Y-104410000D01*
X114964364Y-104636686D01*
X114964365Y-104636691D01*
X114964366Y-104636697D01*
X114982680Y-104705048D01*
X114981017Y-104774897D01*
X114950586Y-104824821D01*
X112857228Y-106918181D01*
X112795905Y-106951666D01*
X112769547Y-106954500D01*
X112474499Y-106954500D01*
X112407460Y-106934815D01*
X112361705Y-106882011D01*
X112350499Y-106830500D01*
X112350499Y-106682129D01*
X112350498Y-106682123D01*
X112349492Y-106672766D01*
X112344091Y-106622517D01*
X112334634Y-106597162D01*
X112293797Y-106487671D01*
X112293793Y-106487664D01*
X112207547Y-106372455D01*
X112207544Y-106372452D01*
X112092335Y-106286206D01*
X112092328Y-106286202D01*
X111957482Y-106235908D01*
X111957483Y-106235908D01*
X111897883Y-106229501D01*
X111897881Y-106229500D01*
X111897873Y-106229500D01*
X111897865Y-106229500D01*
X110574500Y-106229500D01*
X110507461Y-106209815D01*
X110461706Y-106157011D01*
X110450500Y-106105500D01*
X110450500Y-103547265D01*
X110450499Y-100985447D01*
X110470184Y-100918412D01*
X110486809Y-100897780D01*
X114816210Y-96568379D01*
X114877529Y-96534897D01*
X114947221Y-96539881D01*
G37*
%TD.AperFunction*%
%TA.AperFunction,Conductor*%
G36*
X126921587Y-105055185D02*
G01*
X126942229Y-105071819D01*
X128013997Y-106143587D01*
X128047482Y-106204910D01*
X128042498Y-106274602D01*
X128000626Y-106330535D01*
X127935162Y-106354952D01*
X127883550Y-106346172D01*
X127883386Y-106346738D01*
X127878457Y-106345306D01*
X127877070Y-106345070D01*
X127875894Y-106344561D01*
X127875892Y-106344560D01*
X127829874Y-106337272D01*
X127824152Y-106336087D01*
X127779021Y-106324500D01*
X127779019Y-106324500D01*
X127758984Y-106324500D01*
X127739586Y-106322973D01*
X127732162Y-106321797D01*
X127719805Y-106319840D01*
X127719804Y-106319840D01*
X127673416Y-106324225D01*
X127667578Y-106324500D01*
X125084188Y-106324500D01*
X125017149Y-106304815D01*
X124982613Y-106271623D01*
X124870045Y-106110858D01*
X124709141Y-105949954D01*
X124522734Y-105819432D01*
X124522728Y-105819429D01*
X124464725Y-105792382D01*
X124412285Y-105746210D01*
X124393133Y-105679017D01*
X124413348Y-105612135D01*
X124464725Y-105567618D01*
X124522734Y-105540568D01*
X124709139Y-105410047D01*
X124870047Y-105249139D01*
X124982612Y-105088377D01*
X125037189Y-105044752D01*
X125084188Y-105035500D01*
X126854548Y-105035500D01*
X126921587Y-105055185D01*
G37*
%TD.AperFunction*%
%TA.AperFunction,Conductor*%
G36*
X129586587Y-99975185D02*
G01*
X129607229Y-99991819D01*
X130413181Y-100797771D01*
X130446666Y-100859094D01*
X130449500Y-100885452D01*
X130449500Y-102197870D01*
X130449501Y-102197876D01*
X130455908Y-102257483D01*
X130506202Y-102392328D01*
X130506206Y-102392335D01*
X130592452Y-102507544D01*
X130592455Y-102507547D01*
X130707664Y-102593793D01*
X130707671Y-102593797D01*
X130842517Y-102644091D01*
X130842516Y-102644091D01*
X130849444Y-102644835D01*
X130902127Y-102650500D01*
X132697872Y-102650499D01*
X132757483Y-102644091D01*
X132892331Y-102593796D01*
X133007546Y-102507546D01*
X133093796Y-102392331D01*
X133142810Y-102260916D01*
X133184681Y-102204984D01*
X133250145Y-102180566D01*
X133318418Y-102195417D01*
X133346673Y-102216569D01*
X133468599Y-102338495D01*
X133565384Y-102406264D01*
X133662165Y-102474032D01*
X133662167Y-102474033D01*
X133662170Y-102474035D01*
X133876337Y-102573903D01*
X134104592Y-102635063D01*
X134281034Y-102650500D01*
X134339999Y-102655659D01*
X134340000Y-102655659D01*
X134340001Y-102655659D01*
X134398966Y-102650500D01*
X134575408Y-102635063D01*
X134803663Y-102573903D01*
X135017830Y-102474035D01*
X135211401Y-102338495D01*
X135378495Y-102171401D01*
X135513651Y-101978377D01*
X135568229Y-101934752D01*
X135615227Y-101925500D01*
X138122257Y-101925500D01*
X138137877Y-101927224D01*
X138137904Y-101926939D01*
X138145660Y-101927671D01*
X138145667Y-101927673D01*
X138214814Y-101925500D01*
X138244350Y-101925500D01*
X138251228Y-101924630D01*
X138257041Y-101924172D01*
X138303627Y-101922709D01*
X138322869Y-101917117D01*
X138341912Y-101913174D01*
X138361792Y-101910664D01*
X138405122Y-101893507D01*
X138410646Y-101891617D01*
X138412410Y-101891104D01*
X138455390Y-101878618D01*
X138471862Y-101868875D01*
X138539581Y-101851691D01*
X138567078Y-101855831D01*
X138678308Y-101885635D01*
X138840230Y-101899801D01*
X138904998Y-101905468D01*
X138905000Y-101905468D01*
X138905002Y-101905468D01*
X138961672Y-101900509D01*
X139131692Y-101885635D01*
X139351496Y-101826739D01*
X139557734Y-101730568D01*
X139744139Y-101600047D01*
X139905047Y-101439139D01*
X140035568Y-101252734D01*
X140062618Y-101194724D01*
X140108790Y-101142285D01*
X140175983Y-101123133D01*
X140242865Y-101143348D01*
X140287382Y-101194725D01*
X140314429Y-101252728D01*
X140314432Y-101252734D01*
X140444954Y-101439141D01*
X140605858Y-101600045D01*
X140766623Y-101712613D01*
X140810248Y-101767189D01*
X140819500Y-101814188D01*
X140819500Y-102985811D01*
X140799815Y-103052850D01*
X140766623Y-103087386D01*
X140605859Y-103199953D01*
X140444954Y-103360858D01*
X140314432Y-103547265D01*
X140314431Y-103547267D01*
X140301861Y-103574225D01*
X140288668Y-103602518D01*
X140287382Y-103605275D01*
X140241209Y-103657714D01*
X140174016Y-103676866D01*
X140107135Y-103656650D01*
X140062618Y-103605275D01*
X140035568Y-103547266D01*
X139905047Y-103360861D01*
X139905045Y-103360858D01*
X139744141Y-103199954D01*
X139557734Y-103069432D01*
X139557732Y-103069431D01*
X139351497Y-102973261D01*
X139351488Y-102973258D01*
X139131697Y-102914366D01*
X139131693Y-102914365D01*
X139131692Y-102914365D01*
X139131691Y-102914364D01*
X139131686Y-102914364D01*
X138905002Y-102894532D01*
X138904998Y-102894532D01*
X138678313Y-102914364D01*
X138678302Y-102914366D01*
X138458511Y-102973258D01*
X138458502Y-102973261D01*
X138252267Y-103069431D01*
X138252265Y-103069432D01*
X138065858Y-103199954D01*
X137904954Y-103360858D01*
X137774432Y-103547265D01*
X137774431Y-103547267D01*
X137678261Y-103753502D01*
X137678258Y-103753511D01*
X137619366Y-103973302D01*
X137619364Y-103973313D01*
X137599532Y-104199998D01*
X137599532Y-104200000D01*
X137605192Y-104264692D01*
X137591426Y-104333192D01*
X137542811Y-104383375D01*
X137481664Y-104399500D01*
X135655227Y-104399500D01*
X135588188Y-104379815D01*
X135553652Y-104346623D01*
X135418494Y-104153597D01*
X135251402Y-103986506D01*
X135251395Y-103986501D01*
X135057834Y-103850967D01*
X135057830Y-103850965D01*
X134988899Y-103818822D01*
X134843663Y-103751097D01*
X134843659Y-103751096D01*
X134843655Y-103751094D01*
X134615413Y-103689938D01*
X134615403Y-103689936D01*
X134380001Y-103669341D01*
X134379999Y-103669341D01*
X134144596Y-103689936D01*
X134144586Y-103689938D01*
X133916344Y-103751094D01*
X133916337Y-103751096D01*
X133916337Y-103751097D01*
X133911175Y-103753504D01*
X133702171Y-103850964D01*
X133702169Y-103850965D01*
X133508600Y-103986503D01*
X133386673Y-104108430D01*
X133325350Y-104141914D01*
X133255658Y-104136930D01*
X133199725Y-104095058D01*
X133182810Y-104064081D01*
X133133797Y-103932671D01*
X133133793Y-103932664D01*
X133047547Y-103817455D01*
X133047544Y-103817452D01*
X132932335Y-103731206D01*
X132932328Y-103731202D01*
X132797482Y-103680908D01*
X132797483Y-103680908D01*
X132737883Y-103674501D01*
X132737881Y-103674500D01*
X132737873Y-103674500D01*
X132737865Y-103674500D01*
X131425453Y-103674500D01*
X131358414Y-103654815D01*
X131337772Y-103638181D01*
X129185803Y-101486212D01*
X129175980Y-101473950D01*
X129175759Y-101474134D01*
X129170786Y-101468123D01*
X129120364Y-101420773D01*
X129109919Y-101410328D01*
X129099475Y-101399883D01*
X129093986Y-101395625D01*
X129089561Y-101391847D01*
X129055582Y-101359938D01*
X129055580Y-101359936D01*
X129055577Y-101359935D01*
X129038029Y-101350288D01*
X129021763Y-101339604D01*
X129005933Y-101327325D01*
X128963168Y-101308818D01*
X128957922Y-101306248D01*
X128917093Y-101283803D01*
X128917092Y-101283802D01*
X128897693Y-101278822D01*
X128879281Y-101272518D01*
X128860898Y-101264562D01*
X128860892Y-101264560D01*
X128814874Y-101257272D01*
X128809152Y-101256087D01*
X128764021Y-101244500D01*
X128764019Y-101244500D01*
X128743984Y-101244500D01*
X128724586Y-101242973D01*
X128717162Y-101241797D01*
X128704805Y-101239840D01*
X128704804Y-101239840D01*
X128658416Y-101244225D01*
X128652578Y-101244500D01*
X125084188Y-101244500D01*
X125017149Y-101224815D01*
X124982613Y-101191623D01*
X124870045Y-101030858D01*
X124709141Y-100869954D01*
X124522734Y-100739432D01*
X124522728Y-100739429D01*
X124464725Y-100712382D01*
X124412285Y-100666210D01*
X124393133Y-100599017D01*
X124413348Y-100532135D01*
X124464725Y-100487618D01*
X124522734Y-100460568D01*
X124709139Y-100330047D01*
X124870047Y-100169139D01*
X124948812Y-100056650D01*
X124982613Y-100008377D01*
X125037189Y-99964752D01*
X125084188Y-99955500D01*
X129519548Y-99955500D01*
X129586587Y-99975185D01*
G37*
%TD.AperFunction*%
%TA.AperFunction,Conductor*%
G36*
X116143331Y-99718091D02*
G01*
X116175699Y-99723218D01*
X116218515Y-99730000D01*
X116218519Y-99730000D01*
X116281485Y-99730000D01*
X116318960Y-99724064D01*
X116356602Y-99718102D01*
X116425893Y-99727056D01*
X116479346Y-99772052D01*
X116499986Y-99838803D01*
X116499999Y-99840575D01*
X116500000Y-100530000D01*
X116499999Y-101359424D01*
X116480314Y-101426464D01*
X116427510Y-101472218D01*
X116358352Y-101482162D01*
X116356601Y-101481897D01*
X116281486Y-101470000D01*
X116281481Y-101470000D01*
X116218519Y-101470000D01*
X116218514Y-101470000D01*
X116143398Y-101481897D01*
X116074104Y-101472942D01*
X116020652Y-101427946D01*
X116000013Y-101361194D01*
X116000000Y-101359424D01*
X116000000Y-99840575D01*
X116019685Y-99773536D01*
X116072489Y-99727781D01*
X116141647Y-99717837D01*
X116143331Y-99718091D01*
G37*
%TD.AperFunction*%
%TA.AperFunction,Conductor*%
G36*
X130392539Y-97435185D02*
G01*
X130438294Y-97487989D01*
X130449500Y-97539500D01*
X130449500Y-98447870D01*
X130449501Y-98447876D01*
X130455908Y-98507483D01*
X130506202Y-98642328D01*
X130506206Y-98642335D01*
X130592452Y-98757544D01*
X130592455Y-98757547D01*
X130707664Y-98843793D01*
X130707671Y-98843797D01*
X130842517Y-98894091D01*
X130842516Y-98894091D01*
X130849444Y-98894835D01*
X130902127Y-98900500D01*
X132697872Y-98900499D01*
X132757483Y-98894091D01*
X132892331Y-98843796D01*
X133007546Y-98757546D01*
X133093796Y-98642331D01*
X133142810Y-98510916D01*
X133184681Y-98454984D01*
X133250145Y-98430566D01*
X133318418Y-98445417D01*
X133346672Y-98466569D01*
X133468599Y-98588495D01*
X133558755Y-98651623D01*
X133662165Y-98724032D01*
X133662167Y-98724033D01*
X133662170Y-98724035D01*
X133876337Y-98823903D01*
X134104592Y-98885063D01*
X134281034Y-98900500D01*
X134339999Y-98905659D01*
X134340000Y-98905659D01*
X134340001Y-98905659D01*
X134398966Y-98900500D01*
X134575408Y-98885063D01*
X134803663Y-98823903D01*
X135017830Y-98724035D01*
X135211401Y-98588495D01*
X135378495Y-98421401D01*
X135513651Y-98228377D01*
X135568229Y-98184752D01*
X135615227Y-98175500D01*
X138272257Y-98175500D01*
X138287876Y-98177224D01*
X138287903Y-98176939D01*
X138295663Y-98177672D01*
X138295667Y-98177673D01*
X138320117Y-98176904D01*
X138376417Y-98188460D01*
X138458504Y-98226739D01*
X138458509Y-98226740D01*
X138458511Y-98226741D01*
X138464617Y-98228377D01*
X138678308Y-98285635D01*
X138840230Y-98299801D01*
X138904998Y-98305468D01*
X138905000Y-98305468D01*
X138905002Y-98305468D01*
X138961672Y-98300509D01*
X139131692Y-98285635D01*
X139351496Y-98226739D01*
X139557734Y-98130568D01*
X139744139Y-98000047D01*
X139905047Y-97839139D01*
X140035568Y-97652734D01*
X140062618Y-97594724D01*
X140108790Y-97542285D01*
X140175983Y-97523133D01*
X140242865Y-97543348D01*
X140287382Y-97594725D01*
X140314429Y-97652728D01*
X140314432Y-97652734D01*
X140444954Y-97839141D01*
X140605858Y-98000045D01*
X140766623Y-98112613D01*
X140810248Y-98167189D01*
X140819500Y-98214188D01*
X140819500Y-99385811D01*
X140799815Y-99452850D01*
X140766623Y-99487386D01*
X140605859Y-99599953D01*
X140444954Y-99760858D01*
X140314432Y-99947265D01*
X140314431Y-99947267D01*
X140306278Y-99964752D01*
X140293657Y-99991819D01*
X140287382Y-100005275D01*
X140241209Y-100057714D01*
X140174016Y-100076866D01*
X140107135Y-100056650D01*
X140062618Y-100005275D01*
X140035568Y-99947266D01*
X139905047Y-99760861D01*
X139905045Y-99760858D01*
X139744141Y-99599954D01*
X139557734Y-99469432D01*
X139557732Y-99469431D01*
X139351497Y-99373261D01*
X139351488Y-99373258D01*
X139131697Y-99314366D01*
X139131693Y-99314365D01*
X139131692Y-99314365D01*
X139131691Y-99314364D01*
X139131686Y-99314364D01*
X138905002Y-99294532D01*
X138904998Y-99294532D01*
X138678313Y-99314364D01*
X138678302Y-99314366D01*
X138458511Y-99373258D01*
X138458502Y-99373261D01*
X138252267Y-99469431D01*
X138252265Y-99469432D01*
X138065858Y-99599954D01*
X137904954Y-99760858D01*
X137774432Y-99947265D01*
X137774431Y-99947267D01*
X137678261Y-100153502D01*
X137678258Y-100153511D01*
X137619366Y-100373302D01*
X137619364Y-100373312D01*
X137602917Y-100561308D01*
X137577464Y-100626376D01*
X137520874Y-100667355D01*
X137479389Y-100674500D01*
X135615227Y-100674500D01*
X135548188Y-100654815D01*
X135513652Y-100621623D01*
X135378494Y-100428597D01*
X135211402Y-100261506D01*
X135211395Y-100261501D01*
X135017834Y-100125967D01*
X135017830Y-100125965D01*
X135017829Y-100125964D01*
X134803663Y-100026097D01*
X134803659Y-100026096D01*
X134803655Y-100026094D01*
X134575413Y-99964938D01*
X134575403Y-99964936D01*
X134340001Y-99944341D01*
X134339999Y-99944341D01*
X134104596Y-99964936D01*
X134104586Y-99964938D01*
X133876344Y-100026094D01*
X133876335Y-100026098D01*
X133662171Y-100125964D01*
X133662169Y-100125965D01*
X133468600Y-100261503D01*
X133346673Y-100383430D01*
X133285350Y-100416914D01*
X133215658Y-100411930D01*
X133159725Y-100370058D01*
X133142810Y-100339081D01*
X133093797Y-100207671D01*
X133093793Y-100207664D01*
X133007547Y-100092455D01*
X133007544Y-100092452D01*
X132892335Y-100006206D01*
X132892328Y-100006202D01*
X132757482Y-99955908D01*
X132757483Y-99955908D01*
X132697883Y-99949501D01*
X132697881Y-99949500D01*
X132697873Y-99949500D01*
X132697865Y-99949500D01*
X131385453Y-99949500D01*
X131318414Y-99929815D01*
X131297772Y-99913181D01*
X130330803Y-98946212D01*
X130320980Y-98933950D01*
X130320759Y-98934134D01*
X130315786Y-98928123D01*
X130265364Y-98880773D01*
X130254919Y-98870328D01*
X130244475Y-98859883D01*
X130238986Y-98855625D01*
X130234561Y-98851847D01*
X130200582Y-98819938D01*
X130200580Y-98819936D01*
X130200577Y-98819935D01*
X130183029Y-98810288D01*
X130166763Y-98799604D01*
X130150933Y-98787325D01*
X130108168Y-98768818D01*
X130102922Y-98766248D01*
X130062093Y-98743803D01*
X130062092Y-98743802D01*
X130042693Y-98738822D01*
X130024281Y-98732518D01*
X130005898Y-98724562D01*
X130005892Y-98724560D01*
X129959874Y-98717272D01*
X129954152Y-98716087D01*
X129909021Y-98704500D01*
X129909019Y-98704500D01*
X129888984Y-98704500D01*
X129869586Y-98702973D01*
X129862162Y-98701797D01*
X129849805Y-98699840D01*
X129849804Y-98699840D01*
X129803416Y-98704225D01*
X129797578Y-98704500D01*
X125084188Y-98704500D01*
X125017149Y-98684815D01*
X124982613Y-98651623D01*
X124870045Y-98490858D01*
X124709141Y-98329954D01*
X124522734Y-98199432D01*
X124522728Y-98199429D01*
X124474423Y-98176904D01*
X124464724Y-98172381D01*
X124412285Y-98126210D01*
X124393133Y-98059017D01*
X124413348Y-97992135D01*
X124464725Y-97947618D01*
X124522734Y-97920568D01*
X124709139Y-97790047D01*
X124870047Y-97629139D01*
X124948681Y-97516836D01*
X124982613Y-97468377D01*
X125037189Y-97424752D01*
X125084188Y-97415500D01*
X130325500Y-97415500D01*
X130392539Y-97435185D01*
G37*
%TD.AperFunction*%
%TA.AperFunction,Conductor*%
G36*
X116143331Y-97178091D02*
G01*
X116175699Y-97183218D01*
X116218515Y-97190000D01*
X116218519Y-97190000D01*
X116281485Y-97190000D01*
X116324300Y-97183218D01*
X116356602Y-97178102D01*
X116425894Y-97187056D01*
X116479347Y-97232052D01*
X116499987Y-97298803D01*
X116500000Y-97300575D01*
X116500000Y-97990000D01*
X116499999Y-98819424D01*
X116480314Y-98886464D01*
X116427510Y-98932218D01*
X116358352Y-98942162D01*
X116356601Y-98941897D01*
X116281486Y-98930000D01*
X116281481Y-98930000D01*
X116218519Y-98930000D01*
X116218514Y-98930000D01*
X116143398Y-98941897D01*
X116074104Y-98932942D01*
X116020652Y-98887946D01*
X116000013Y-98821194D01*
X116000000Y-98819424D01*
X116000000Y-97300575D01*
X116019685Y-97233536D01*
X116072489Y-97187781D01*
X116141647Y-97177837D01*
X116143331Y-97178091D01*
G37*
%TD.AperFunction*%
%TA.AperFunction,Conductor*%
G36*
X140337865Y-94143348D02*
G01*
X140382382Y-94194725D01*
X140409429Y-94252728D01*
X140409432Y-94252734D01*
X140539954Y-94439141D01*
X140700857Y-94600044D01*
X140700860Y-94600046D01*
X140700861Y-94600047D01*
X140766623Y-94646093D01*
X140810248Y-94700668D01*
X140819500Y-94747668D01*
X140819500Y-95785811D01*
X140799815Y-95852850D01*
X140766623Y-95887386D01*
X140605859Y-95999953D01*
X140444954Y-96160858D01*
X140314432Y-96347265D01*
X140314431Y-96347267D01*
X140287382Y-96405275D01*
X140241209Y-96457714D01*
X140174016Y-96476866D01*
X140107135Y-96456650D01*
X140062618Y-96405275D01*
X140055495Y-96390000D01*
X140035568Y-96347266D01*
X139924961Y-96189301D01*
X139905045Y-96160858D01*
X139744141Y-95999954D01*
X139557734Y-95869432D01*
X139557732Y-95869431D01*
X139351497Y-95773261D01*
X139351488Y-95773258D01*
X139131697Y-95714366D01*
X139131693Y-95714365D01*
X139131692Y-95714365D01*
X139131691Y-95714364D01*
X139131686Y-95714364D01*
X138905002Y-95694532D01*
X138904998Y-95694532D01*
X138678313Y-95714364D01*
X138678302Y-95714366D01*
X138458511Y-95773258D01*
X138458502Y-95773261D01*
X138252267Y-95869431D01*
X138252265Y-95869432D01*
X138065858Y-95999954D01*
X137904954Y-96160858D01*
X137774432Y-96347265D01*
X137774431Y-96347267D01*
X137678261Y-96553502D01*
X137678258Y-96553511D01*
X137619366Y-96773302D01*
X137619364Y-96773312D01*
X137616040Y-96811309D01*
X137590587Y-96876377D01*
X137533995Y-96917355D01*
X137492512Y-96924500D01*
X135615227Y-96924500D01*
X135548188Y-96904815D01*
X135513652Y-96871623D01*
X135378494Y-96678597D01*
X135211402Y-96511506D01*
X135211395Y-96511501D01*
X135017834Y-96375967D01*
X135017830Y-96375965D01*
X134956285Y-96347266D01*
X134803663Y-96276097D01*
X134803659Y-96276096D01*
X134803655Y-96276094D01*
X134575413Y-96214938D01*
X134575403Y-96214936D01*
X134340001Y-96194341D01*
X134339999Y-96194341D01*
X134104596Y-96214936D01*
X134104586Y-96214938D01*
X133876344Y-96276094D01*
X133876335Y-96276098D01*
X133662171Y-96375964D01*
X133662169Y-96375965D01*
X133468600Y-96511503D01*
X133346673Y-96633430D01*
X133285350Y-96666914D01*
X133215658Y-96661930D01*
X133159725Y-96620058D01*
X133142810Y-96589081D01*
X133093797Y-96457671D01*
X133093793Y-96457664D01*
X133007547Y-96342455D01*
X133007544Y-96342452D01*
X132892335Y-96256206D01*
X132892328Y-96256202D01*
X132757482Y-96205908D01*
X132757483Y-96205908D01*
X132697883Y-96199501D01*
X132697881Y-96199500D01*
X132697873Y-96199500D01*
X132697865Y-96199500D01*
X131276095Y-96199500D01*
X131226847Y-96189301D01*
X131215894Y-96184561D01*
X131215892Y-96184560D01*
X131169874Y-96177272D01*
X131164152Y-96176087D01*
X131119021Y-96164500D01*
X131119019Y-96164500D01*
X131098984Y-96164500D01*
X131079586Y-96162973D01*
X131066232Y-96160858D01*
X131059805Y-96159840D01*
X131059804Y-96159840D01*
X131013416Y-96164225D01*
X131007578Y-96164500D01*
X125084188Y-96164500D01*
X125017149Y-96144815D01*
X124982613Y-96111623D01*
X124870045Y-95950858D01*
X124709141Y-95789954D01*
X124522734Y-95659432D01*
X124522728Y-95659429D01*
X124464725Y-95632382D01*
X124412285Y-95586210D01*
X124393133Y-95519017D01*
X124413348Y-95452135D01*
X124464725Y-95407618D01*
X124522734Y-95380568D01*
X124709139Y-95250047D01*
X124870047Y-95089139D01*
X124982612Y-94928377D01*
X125037189Y-94884752D01*
X125084188Y-94875500D01*
X130431535Y-94875500D01*
X130498574Y-94895185D01*
X130530800Y-94925187D01*
X130592454Y-95007546D01*
X130638643Y-95042123D01*
X130707664Y-95093793D01*
X130707671Y-95093797D01*
X130842517Y-95144091D01*
X130842516Y-95144091D01*
X130849444Y-95144835D01*
X130902127Y-95150500D01*
X132697872Y-95150499D01*
X132757483Y-95144091D01*
X132892331Y-95093796D01*
X133007546Y-95007546D01*
X133093796Y-94892331D01*
X133142810Y-94760916D01*
X133184681Y-94704984D01*
X133250145Y-94680566D01*
X133318418Y-94695417D01*
X133346673Y-94716569D01*
X133468599Y-94838495D01*
X133549561Y-94895185D01*
X133662165Y-94974032D01*
X133662167Y-94974033D01*
X133662170Y-94974035D01*
X133876337Y-95073903D01*
X134104592Y-95135063D01*
X134281034Y-95150500D01*
X134339999Y-95155659D01*
X134340000Y-95155659D01*
X134340001Y-95155659D01*
X134398966Y-95150500D01*
X134575408Y-95135063D01*
X134803663Y-95073903D01*
X135017830Y-94974035D01*
X135211401Y-94838495D01*
X135378495Y-94671401D01*
X135513651Y-94478377D01*
X135568229Y-94434752D01*
X135615227Y-94425500D01*
X137934951Y-94425500D01*
X138001990Y-94445185D01*
X138022632Y-94461819D01*
X138160858Y-94600045D01*
X138160861Y-94600047D01*
X138347266Y-94730568D01*
X138553504Y-94826739D01*
X138773308Y-94885635D01*
X138935230Y-94899801D01*
X138999998Y-94905468D01*
X139000000Y-94905468D01*
X139000002Y-94905468D01*
X139056673Y-94900509D01*
X139226692Y-94885635D01*
X139446496Y-94826739D01*
X139652734Y-94730568D01*
X139839139Y-94600047D01*
X140000047Y-94439139D01*
X140130568Y-94252734D01*
X140157618Y-94194724D01*
X140203790Y-94142285D01*
X140270983Y-94123133D01*
X140337865Y-94143348D01*
G37*
%TD.AperFunction*%
%TD*%
M02*
