M48
; DRILL file {KiCad 7.0.7+dfsg-1} date Thu 04 Apr 2024 18:04:15 BST
; FORMAT={-:-/ absolute / metric / decimal}
; #@! TF.CreationDate,2024-04-04T18:04:15+01:00
; #@! TF.GenerationSoftware,Kicad,Pcbnew,7.0.7+dfsg-1
; #@! TF.FileFunction,Plated,1,2,PTH
FMAT,2
METRIC
; #@! TA.AperFunction,Plated,PTH,ViaDrill
T1C0.400
; #@! TA.AperFunction,Plated,PTH,ComponentDrill
T2C0.800
; #@! TA.AperFunction,Plated,PTH,ComponentDrill
T3C1.000
%
G90
G05
T1
X115.75Y-120.75
X121.25Y-115.0
X126.25Y-125.5
X126.75Y-131.5
X126.75Y-134.0
X126.75Y-136.5
X127.25Y-95.25
X127.25Y-105.75
X127.25Y-108.75
X127.5Y-97.75
X127.5Y-100.5
X128.0Y-112.25
X131.0Y-145.5
X137.25Y-114.75
X141.5Y-114.75
T2
X116.13Y-127.72
X116.13Y-130.26
X116.13Y-132.8
X116.13Y-135.34
X116.13Y-137.88
X116.13Y-140.42
X116.13Y-142.96
X116.13Y-145.5
X116.13Y-148.04
X116.25Y-91.71
X116.25Y-94.25
X116.25Y-96.79
X116.25Y-99.33
X116.25Y-101.87
X116.25Y-104.41
X116.25Y-106.95
X116.25Y-109.49
X116.25Y-112.03
X117.4Y-123.0
X117.8Y-87.4
X122.4Y-123.0
X122.8Y-87.4
X123.75Y-127.72
X123.75Y-130.26
X123.75Y-132.8
X123.75Y-135.34
X123.75Y-137.88
X123.75Y-140.42
X123.75Y-142.96
X123.75Y-145.5
X123.75Y-148.04
X123.87Y-91.71
X123.87Y-94.25
X123.87Y-96.79
X123.87Y-99.33
X123.87Y-101.87
X123.87Y-104.41
X123.87Y-106.95
X123.87Y-109.49
X123.87Y-112.03
X138.905Y-97.0
X138.905Y-100.6
X138.905Y-104.2
X139.0Y-93.6
X139.26Y-126.0
X139.26Y-130.0
X139.26Y-134.0
X139.26Y-138.0
X141.445Y-97.0
X141.445Y-100.6
X141.445Y-104.2
X141.54Y-93.6
X141.8Y-126.0
X141.8Y-130.0
X141.8Y-134.0
X141.8Y-138.0
T3
X111.0Y-107.58
X111.0Y-110.12
X111.0Y-112.66
X111.0Y-115.2
X111.0Y-127.18
X111.0Y-129.72
X111.0Y-132.26
X111.0Y-134.8
X130.6Y-112.2
X130.6Y-114.74
X130.6Y-117.28
X131.47Y-134.25
X131.47Y-138.5
X131.72Y-126.0
X131.72Y-130.25
X131.8Y-93.8
X131.8Y-97.55
X131.8Y-101.3
X131.84Y-105.025
X134.01Y-134.25
X134.01Y-138.5
X134.26Y-126.0
X134.26Y-130.25
X134.34Y-93.8
X134.34Y-97.55
X134.34Y-101.3
X134.38Y-105.025
X135.0Y-112.245
X135.0Y-114.785
X135.0Y-117.325
X139.4Y-112.445
X139.4Y-114.985
X139.4Y-117.525
X143.6Y-112.445
X143.6Y-114.985
X143.6Y-117.525
T0
M30
