<?xml version="1.0"?>
<!DOCTYPE svg PUBLIC "-//W3C//DTD SVG 1.1//EN" "http://www.w3.org/Graphics/SVG/1.1/DTD/svg11.dtd">
<svg width="189.72000000000003mm" height="130.65348438712016mm" viewBox="0 0 189.72000000000003 130.65348438712016" xmlns="http://www.w3.org/2000/svg" version="1.1">
<g id="Sketch003" transform="translate(1.860000,264.793484) scale(1,-1)">
<path id="Sketch003_w0000"  d="M 186.0 262.93348438712013 L 186.0 236.85566974502507 L 183.24141875280733 236.85566974502504 A 0.213333 0.213333 0 1 1 182.95 236.564L 182.95 227.34708849783237 A 0.213333 0.213333 0 1 1 183.241 227.056L 186.0 227.05566974502506 L 186.0 174.9000404608349 L 183.24141875280733 174.9000404608349 A 0.213333 0.213333 0 1 1 182.95 174.609L 182.95 165.39145921364224 A 0.213333 0.213333 0 1 1 183.241 165.1L 186.0 165.1000404608349 L 186.0 136.00000000000003 L 157.89999999999998 136.0 L 157.89999999999998 139.02222581873977 L 157.9 138.70869498668424 M 157.89999999999998 139.02222581873986 L 148.09999999999997 139.02222581873986 L 148.1 138.7086949866842 M 148.09999999999997 139.02222581873986 L 148.1 136.0 L 97.9 136.0 L 97.9 139.02222581873968 L 97.9 138.70869498668424 M 97.9 139.0222258187398 L 88.1 139.0222258187398 L 88.1 138.7086949866842 M 88.1 139.0222258187398 L 88.1 136.0 L 37.900000000000006 136.0 L 37.900000000000006 139.02222581873963 L 37.900000000000006 138.70869498668424 M 37.900000000000006 139.02222581873974 L 28.10000000000001 139.02222581873974 L 28.100000000000005 138.7086949866842 M 28.10000000000001 139.02222581873974 L 28.100000000000016 136.00000000000003 L 0.0 136.0 L 2.8000000003068102e-15 165.10004046083492 L 3.0500000000000003 165.1000404608349 L 3.0500000000000003 174.9000404608349 L 5.6e-15 174.9000404608349 L 2.550000006603131e-15 227.05566974502503 L 3.0499999999999994 227.05566974502503 L 3.0499999999999994 236.85566974502504 L 5.1e-15 236.85566974502504 L 0.0 262.93348438712013 L 28.10000000000001 262.93348438712 L 28.10000000000001 259.8608881380668 L 28.100000000000005 262.61995355506457 M 37.900000000000006 262.61995355506457 L 37.900000000000006 259.8608881380668 L 28.10000000000001 259.8608881380668 M 88.1 262.61995355506457 L 88.1 259.8608881380668 L 88.1 262.93348438711996 L 37.900000000000006 262.93348438712013 L 37.900000000000006 259.8608881380668 M 97.9 262.61995355506457 L 97.9 259.8608881380668 L 88.1 259.8608881380668 M 148.1 262.61995355506457 L 148.10000000000002 259.8608881380668 L 148.10000000000002 262.9334843871201 L 97.9 262.93348438712013 L 97.9 259.8608881380668 M 157.9 262.61995355506457 L 157.89999999999998 259.8608881380668 L 148.10000000000002 259.8608881380668 M 186.0 262.93 L 157.89999999999998 262.93348438712013 L 157.89999999999998 259.8608881380668 " stroke="#191919" stroke-width="0.7 px" style="stroke-width:0.7;stroke-miterlimit:4;stroke-dasharray:none;stroke-linecap:square;fill:none;fill-opacity:1;fill-rule: evenodd"/>
<title>b'Sketch-Top'</title>
</g>
</svg>