<?xml version="1.0"?>
<!DOCTYPE svg PUBLIC "-//W3C//DTD SVG 1.1//EN" "http://www.w3.org/Graphics/SVG/1.1/DTD/svg11.dtd">
<svg width="64.64228320912719mm" height="129.5917084606963mm" viewBox="0 0 64.64228320912719 129.5917084606963" xmlns="http://www.w3.org/2000/svg" version="1.1">
<g id="Sketch001" transform="translate(-367.615020,260.536876) scale(1,-1)">
<path id="Sketch001_w0000"  d="M 371.2131522333156 231.10317195231573 L 369.08885935204023 256.89136843855044 L 368.8407668109621 259.9031279057766 L 379.9534171172724 259.4754498604474 L 379.83711584605686 256.42767748395585 L 389.54694055646115 256.0539881534928 L 389.66324182767664 259.1017605299843 L 411.1635679721433 258.2743055839589 L 411.0472667009277 255.22653320746747 L 420.757091411332 254.85284387700435 L 420.8733926825476 257.90061625349585 L 431.6235557547808 257.4868887804832 L 430.5520587970244 229.40741213149636 L 427.530123555521 229.52371340271188 L 427.15643422505804 219.73087101267373 L 430.1783694665613 219.61456974145818 L 428.2641649370463 169.45123423330386 L 425.242229695543 169.56753550451936 L 424.86854036508 159.7746931144812 L 427.89047560658327 159.6583918432657 L 426.81897864882694 131.5789151942789 L 419.78430972598295 131.84964930104294 L 419.9006109971985 134.89742167753442 L 410.1907862867943 135.27111100799755 L 410.0744850155787 132.22333863150607 L 396.00514716989096 132.76480684503417 L 396.1214484411065 135.81257922152562 L 386.41162373070216 136.1862685519887 L 386.29532245948667 133.13849617549727 L 379.2606535366428 133.4092302822613 L 377.13636065536735 159.197426768496 L 374.1719767169039 158.94808230583988 L 373.3346653871534 169.11275841151505 L 376.29904932561686 169.36210287417117 L 372.0504635630661 220.9384958466406 L 369.0860796246027 220.68915138398447 L 368.24876829485214 230.8538274896596 L 371.21315223331567 231.10317195231576 " stroke="#191919" stroke-width="0.7 px" style="stroke-width:0.7;stroke-miterlimit:4;stroke-dasharray:none;stroke-linecap:square;fill:none;fill-opacity:1;fill-rule: evenodd"/>
<title>b'Sketch-Right'</title>
</g>
</svg>