<?xml version="1.0"?>
<!DOCTYPE svg PUBLIC "-//W3C//DTD SVG 1.1//EN" "http://www.w3.org/Graphics/SVG/1.1/DTD/svg11.dtd">
<svg width="189.72000000000006mm" height="69.72000000000003mm" viewBox="0 0 189.72000000000006 69.72000000000003" xmlns="http://www.w3.org/2000/svg" version="1.1">
<g id="Sketch005" transform="translate(1.860000,476.793484) scale(1,-1)">
<path id="Sketch005_w0000"  d="M 28.100000000000016 471.88 L 28.100000000000016 474.93348438712013 L 3.0 474.93 L 3.0 464.28348438712015 L 0.0 464.28348438712015 L 0.0 454.08348438712017 L 3.0 454.0834843871201 L 3.0 432.78348438712015 L 0.0 432.78348438712015 L 0.0 422.58348438712017 L 3.0 422.5834843871201 L 3.0 411.93348438712013 L 27.900000000000006 411.93348438712013 L 27.90000000000002 408.93348438712013 L 38.10000000000002 408.93348438712013 L 38.10000000000002 411.93348438712013 L 87.9 411.93348438712013 L 87.90000000000002 408.93348438712013 L 98.10000000000002 408.93348438712013 L 98.10000000000002 411.93348438712013 L 147.9 411.93348438712013 L 147.9 408.93348438712013 L 158.1 408.93348438712013 L 158.1 411.93348438712013 L 183.00000000000003 411.93348438712013 L 183.00000000000003 422.5834843871201 L 186.00000000000003 422.5834843871201 L 186.00000000000003 432.7834843871201 L 183.00000000000003 432.78348438712015 L 183.00000000000003 454.0834843871201 L 186.00000000000003 454.0834843871201 L 186.00000000000003 464.2834843871201 L 183.00000000000003 464.28348438712015 L 183.00000000000003 474.93348438712013 L 157.90000000000003 474.93348438712013 L 157.9 471.8834843871201 L 148.1 471.8834843871201 L 148.1 474.93348438712013 L 97.9 474.93348438712013 L 97.90000000000002 471.8834843871201 L 88.10000000000002 471.8834843871201 L 88.10000000000001 474.93348438712013 L 37.90000000000001 474.93348438712013 L 37.90000000000001 471.8834843871201 L 28.100000000000012 471.8834843871201 " stroke="#191919" stroke-width="0.7 px" style="stroke-width:0.7;stroke-miterlimit:4;stroke-dasharray:none;stroke-linecap:square;fill:none;fill-opacity:1;fill-rule: evenodd"/>
<path id="Sketch005_w0001"  d="M 84.0 439.41384918445743 L 101.2 439.41384918445743 L 101.2 457.21384918445744 L 84.0 457.21384918445744 L 84.0 439.41384918445743 " stroke="#191919" stroke-width="0.7 px" style="stroke-width:0.7;stroke-miterlimit:4;stroke-dasharray:none;stroke-linecap:square;fill:none;fill-opacity:1;fill-rule: evenodd"/>
<title>b'Sketch-Rear'</title>
</g>
</svg>