M48
; DRILL file {KiCad 7.0.7+dfsg-1} date Thu 04 Apr 2024 17:56:23 BST
; FORMAT={-:-/ absolute / metric / decimal}
; #@! TF.CreationDate,2024-04-04T17:56:23+01:00
; #@! TF.GenerationSoftware,Kicad,Pcbnew,7.0.7+dfsg-1
; #@! TF.FileFunction,Plated,1,2,PTH
FMAT,2
METRIC
; #@! TA.AperFunction,Plated,PTH,ViaDrill
T1C0.400
; #@! TA.AperFunction,Plated,PTH,ComponentDrill
T2C0.750
; #@! TA.AperFunction,Plated,PTH,ComponentDrill
T3C0.800
; #@! TA.AperFunction,Plated,PTH,ComponentDrill
T4C0.900
; #@! TA.AperFunction,Plated,PTH,ComponentDrill
T5C1.000
; #@! TA.AperFunction,Plated,PTH,ComponentDrill
T6C1.020
; #@! TA.AperFunction,Plated,PTH,ComponentDrill
T7C1.100
; #@! TA.AperFunction,Plated,PTH,ComponentDrill
T8C1.200
; #@! TA.AperFunction,Plated,PTH,ComponentDrill
T9C1.300
; #@! TA.AperFunction,Plated,PTH,ComponentDrill
T10C1.600
%
G90
G05
T1
X59.25Y-101.5
X64.5Y-37.0
X70.0Y-100.75
X78.0Y-85.0
X78.0Y-94.0
X88.0Y-85.0
X93.0Y-94.0
X93.75Y-47.177
X97.25Y-75.0
X100.0Y-75.684
X104.0Y-83.0
X104.75Y-80.0
X106.0Y-72.0
X111.0Y-95.0
X116.5Y-94.5
X121.0Y-85.0
X121.0Y-88.0
X123.25Y-28.75
X126.0Y-104.0
X128.5Y-76.0
X132.0Y-39.0
X134.0Y-48.0
X139.0Y-104.0
T2
X99.46Y-81.0
X99.46Y-92.0
X100.73Y-81.0
X100.73Y-92.0
X102.0Y-81.0
X102.0Y-92.0
T3
X115.0Y-68.5
X115.0Y-73.5
X121.0Y-71.0
X131.0Y-71.0
T4
X55.523Y-106.0
X57.682Y-106.0
X59.841Y-106.0
X62.0Y-106.0
X67.46Y-106.0
X70.0Y-106.0
T5
X112.487Y-56.0
X117.487Y-56.5
X125.46Y-47.0
X128.0Y-47.0
X136.0Y-56.0
X140.38Y-71.0
X141.0Y-56.5
X142.92Y-71.0
X145.46Y-71.0
X148.0Y-71.0
T6
X109.98Y-79.22
X109.98Y-97.0
X110.21Y-85.57
X110.21Y-88.11
X110.21Y-90.65
X112.52Y-79.22
X112.52Y-97.0
X115.06Y-79.22
X115.06Y-97.0
X117.6Y-79.22
X117.6Y-97.0
X120.14Y-79.22
X120.14Y-97.0
X122.68Y-79.22
X122.68Y-97.0
X125.22Y-79.22
X125.22Y-97.0
X127.76Y-79.22
X127.76Y-97.0
X130.3Y-79.22
X130.3Y-97.0
X132.84Y-79.22
X132.84Y-97.0
X135.38Y-79.22
X135.38Y-97.0
X137.92Y-79.22
X137.92Y-97.0
X140.46Y-79.22
X140.46Y-97.0
X143.0Y-79.22
X143.0Y-97.0
X145.54Y-79.22
X145.54Y-97.0
X148.08Y-79.22
X148.08Y-97.0
X150.62Y-79.22
X150.62Y-97.0
X153.16Y-79.22
X153.16Y-97.0
X155.7Y-79.22
X155.7Y-97.0
X158.24Y-79.22
X158.24Y-97.0
T7
X57.92Y-34.0
X57.92Y-40.945
X58.123Y-49.0
X58.123Y-59.16
X58.123Y-63.92
X58.123Y-74.08
X60.46Y-34.0
X60.46Y-40.945
X63.0Y-34.0
X63.0Y-40.945
X70.92Y-34.0
X70.92Y-40.945
X73.082Y-49.0
X73.082Y-59.16
X73.082Y-63.92
X73.082Y-74.08
X73.46Y-34.0
X73.46Y-40.945
X76.0Y-34.0
X76.0Y-40.945
X83.92Y-34.0
X83.92Y-41.0
X86.46Y-34.0
X86.46Y-41.0
X88.041Y-49.0
X88.041Y-59.16
X88.041Y-63.92
X88.041Y-74.08
X89.0Y-34.0
X89.0Y-41.0
X94.0Y-78.66
X94.0Y-88.82
X95.92Y-34.0
X95.92Y-41.0
X98.46Y-34.0
X98.46Y-41.0
X101.0Y-34.0
X101.0Y-41.0
X103.0Y-49.0
X103.0Y-59.16
X103.0Y-63.92
X103.0Y-74.08
X119.0Y-34.0
X119.0Y-41.0
X121.54Y-34.0
X121.54Y-41.0
X124.08Y-34.0
X124.08Y-41.0
X136.84Y-108.0
X147.0Y-108.0
T8
X48.0Y-49.18
X48.0Y-64.42
X50.0Y-22.932
X53.286Y-49.1
X53.286Y-64.34
X53.5Y-22.932
X57.0Y-22.932
X58.164Y-79.0
X58.164Y-94.24
X62.959Y-49.18
X62.959Y-64.42
X63.0Y-79.0
X63.0Y-94.24
X66.148Y-22.932
X68.245Y-49.1
X68.245Y-64.34
X68.245Y-79.0
X68.245Y-94.24
X69.648Y-22.932
X73.082Y-79.0
X73.082Y-94.24
X73.148Y-22.932
X77.918Y-49.18
X77.918Y-64.42
X82.297Y-22.932
X83.0Y-78.76
X83.0Y-94.0
X83.205Y-49.18
X83.205Y-64.42
X85.797Y-22.932
X87.836Y-78.76
X87.836Y-94.0
X89.297Y-22.932
X92.877Y-49.18
X92.877Y-64.42
X98.164Y-49.1
X98.164Y-64.34
X98.445Y-22.932
X101.945Y-22.932
X105.445Y-22.932
X111.487Y-58.0
X114.0Y-29.38
X114.0Y-44.62
X118.987Y-58.0
X119.5Y-22.932
X123.0Y-22.932
X126.5Y-22.932
X130.0Y-22.932
X135.0Y-58.0
X136.0Y-39.0
X138.5Y-22.932
X141.0Y-39.0
X142.0Y-22.932
X142.5Y-58.0
X150.5Y-22.932
X154.0Y-22.932
T9
X154.305Y-39.5
X154.305Y-44.5
T10
X109.0Y-29.38
X109.0Y-44.62
X154.0Y-50.76
X154.0Y-66.0
T0
M30
