%TF.GenerationSoftware,KiCad,Pcbnew,7.0.7+dfsg-1*%
%TF.CreationDate,2024-04-04T17:55:19+01:00*%
%TF.ProjectId,point-controller,706f696e-742d-4636-9f6e-74726f6c6c65,rev?*%
%TF.SameCoordinates,Original*%
%TF.FileFunction,Soldermask,Bot*%
%TF.FilePolarity,Negative*%
%FSLAX46Y46*%
G04 Gerber Fmt 4.6, Leading zero omitted, Abs format (unit mm)*
G04 Created by KiCad (PCBNEW 7.0.7+dfsg-1) date 2024-04-04 17:55:19*
%MOMM*%
%LPD*%
G01*
G04 APERTURE LIST*
G04 Aperture macros list*
%AMRoundRect*
0 Rectangle with rounded corners*
0 $1 Rounding radius*
0 $2 $3 $4 $5 $6 $7 $8 $9 X,Y pos of 4 corners*
0 Add a 4 corners polygon primitive as box body*
4,1,4,$2,$3,$4,$5,$6,$7,$8,$9,$2,$3,0*
0 Add four circle primitives for the rounded corners*
1,1,$1+$1,$2,$3*
1,1,$1+$1,$4,$5*
1,1,$1+$1,$6,$7*
1,1,$1+$1,$8,$9*
0 Add four rect primitives between the rounded corners*
20,1,$1+$1,$2,$3,$4,$5,0*
20,1,$1+$1,$4,$5,$6,$7,0*
20,1,$1+$1,$6,$7,$8,$9,0*
20,1,$1+$1,$8,$9,$2,$3,0*%
G04 Aperture macros list end*
%ADD10R,1.905000X2.000000*%
%ADD11O,1.905000X2.000000*%
%ADD12C,2.400000*%
%ADD13O,2.400000X2.400000*%
%ADD14R,1.800000X1.800000*%
%ADD15C,1.800000*%
%ADD16R,2.200000X2.200000*%
%ADD17O,2.200000X2.200000*%
%ADD18R,1.050000X1.500000*%
%ADD19O,1.050000X1.500000*%
%ADD20RoundRect,0.250000X0.650000X1.550000X-0.650000X1.550000X-0.650000X-1.550000X0.650000X-1.550000X0*%
%ADD21O,1.800000X3.600000*%
%ADD22R,3.200000X3.200000*%
%ADD23O,3.200000X3.200000*%
%ADD24C,1.600000*%
%ADD25R,2.400000X2.400000*%
%ADD26R,2.500000X2.500000*%
%ADD27C,2.500000*%
%ADD28C,3.200000*%
%ADD29R,2.600000X2.600000*%
%ADD30C,2.600000*%
%ADD31R,1.700000X1.700000*%
%ADD32O,1.700000X1.700000*%
%ADD33O,1.800000X1.800000*%
%ADD34O,1.500000X1.500000*%
G04 APERTURE END LIST*
D10*
%TO.C,Q7*%
X57920000Y-40945000D03*
D11*
X60460000Y-40945000D03*
X63000000Y-40945000D03*
%TD*%
D10*
%TO.C,Q1*%
X119000000Y-41000000D03*
D11*
X121540000Y-41000000D03*
X124080000Y-41000000D03*
%TD*%
D12*
%TO.C,R10*%
X62959089Y-64419999D03*
D13*
X62959089Y-49179999D03*
%TD*%
D14*
%TO.C,D4*%
X67460000Y-106000000D03*
D15*
X70000000Y-106000000D03*
%TD*%
D10*
%TO.C,Q9*%
X83920000Y-41000000D03*
D11*
X86460000Y-41000000D03*
X89000000Y-41000000D03*
%TD*%
D16*
%TO.C,D3*%
X94000000Y-78660000D03*
D17*
X94000000Y-88820000D03*
%TD*%
D18*
%TO.C,Q2*%
X99460000Y-81000000D03*
D19*
X100730000Y-81000000D03*
X102000000Y-81000000D03*
%TD*%
D16*
%TO.C,D14*%
X88040904Y-59160000D03*
D17*
X88040904Y-49000000D03*
%TD*%
D20*
%TO.C,J9*%
X89296666Y-22932500D03*
D21*
X85796666Y-22932500D03*
X82296666Y-22932500D03*
%TD*%
D22*
%TO.C,D1*%
X154000000Y-66000000D03*
D23*
X154000000Y-50760000D03*
%TD*%
D10*
%TO.C,Q5*%
X70920000Y-40945000D03*
D11*
X73460000Y-40945000D03*
X76000000Y-40945000D03*
%TD*%
D12*
%TO.C,R9*%
X53286363Y-64340000D03*
D13*
X53286363Y-49100000D03*
%TD*%
D18*
%TO.C,Q3*%
X99460000Y-92000000D03*
D19*
X100730000Y-92000000D03*
X102000000Y-92000000D03*
%TD*%
D10*
%TO.C,Q6*%
X57920000Y-34000000D03*
D11*
X60460000Y-34000000D03*
X63000000Y-34000000D03*
%TD*%
D16*
%TO.C,D7*%
X73081815Y-59160000D03*
D17*
X73081815Y-49000000D03*
%TD*%
D24*
%TO.C,C4*%
X115000000Y-68500000D03*
X115000000Y-73500000D03*
%TD*%
D12*
%TO.C,R3*%
X87836370Y-94000000D03*
D13*
X87836370Y-78760000D03*
%TD*%
D20*
%TO.C,J3*%
X130000000Y-22932500D03*
D21*
X126500000Y-22932500D03*
X123000000Y-22932500D03*
X119500000Y-22932500D03*
%TD*%
D12*
%TO.C,R6*%
X63000000Y-79000000D03*
D13*
X63000000Y-94240000D03*
%TD*%
D20*
%TO.C,J5*%
X142000000Y-22932500D03*
D21*
X138500000Y-22932500D03*
%TD*%
D16*
%TO.C,D12*%
X88040904Y-74080000D03*
D17*
X88040904Y-63920000D03*
%TD*%
D12*
%TO.C,R11*%
X68245452Y-64340000D03*
D13*
X68245452Y-49100000D03*
%TD*%
D25*
%TO.C,C3*%
X135000000Y-58000000D03*
D26*
X136000000Y-56000000D03*
D27*
X141000000Y-56500000D03*
D12*
X142500000Y-58000000D03*
%TD*%
D10*
%TO.C,U1*%
X119000000Y-34000000D03*
D11*
X121540000Y-34000000D03*
X124080000Y-34000000D03*
%TD*%
D16*
%TO.C,D8*%
X73081815Y-74080000D03*
D17*
X73081815Y-63920000D03*
%TD*%
D16*
%TO.C,D13*%
X103000000Y-59160000D03*
D17*
X103000000Y-49000000D03*
%TD*%
D22*
%TO.C,D2*%
X109000000Y-29380000D03*
D23*
X109000000Y-44620000D03*
%TD*%
D12*
%TO.C,R14*%
X92877267Y-64419999D03*
D13*
X92877267Y-49179999D03*
%TD*%
D20*
%TO.C,J8*%
X105445000Y-22932500D03*
D21*
X101945000Y-22932500D03*
X98445000Y-22932500D03*
%TD*%
D28*
%TO.C,H1*%
X49000000Y-30000000D03*
%TD*%
D29*
%TO.C,J1*%
X154305000Y-44500000D03*
D30*
X154305000Y-39500000D03*
%TD*%
D28*
%TO.C,H3*%
X49000000Y-107000000D03*
%TD*%
D31*
%TO.C,JP1*%
X128000000Y-47000000D03*
D32*
X125460000Y-47000000D03*
%TD*%
D16*
%TO.C,D11*%
X103000000Y-74080000D03*
D17*
X103000000Y-63920000D03*
%TD*%
D25*
%TO.C,C1*%
X136000000Y-39000000D03*
D12*
X141000000Y-39000000D03*
%TD*%
D10*
%TO.C,Q8*%
X95920000Y-41000000D03*
D11*
X98460000Y-41000000D03*
X101000000Y-41000000D03*
%TD*%
D16*
%TO.C,D9*%
X58122726Y-59160000D03*
D17*
X58122726Y-49000000D03*
%TD*%
D12*
%TO.C,R1*%
X114000000Y-44620000D03*
D13*
X114000000Y-29380000D03*
%TD*%
D12*
%TO.C,R8*%
X48000000Y-64419999D03*
D13*
X48000000Y-49179999D03*
%TD*%
D28*
%TO.C,H2*%
X155000000Y-30000000D03*
%TD*%
D20*
%TO.C,J6*%
X73148333Y-22932500D03*
D21*
X69648333Y-22932500D03*
X66148333Y-22932500D03*
%TD*%
D12*
%TO.C,R12*%
X77918178Y-64419999D03*
D13*
X77918178Y-49179999D03*
%TD*%
D12*
%TO.C,R2*%
X83000000Y-78760000D03*
D13*
X83000000Y-94000000D03*
%TD*%
D24*
%TO.C,C5*%
X121000000Y-71000000D03*
X131000000Y-71000000D03*
%TD*%
D10*
%TO.C,Q11*%
X83920000Y-34000000D03*
D11*
X86460000Y-34000000D03*
X89000000Y-34000000D03*
%TD*%
D20*
%TO.C,J7*%
X57000000Y-22932500D03*
D21*
X53500000Y-22932500D03*
X50000000Y-22932500D03*
%TD*%
D12*
%TO.C,R5*%
X68245452Y-94240000D03*
D13*
X68245452Y-79000000D03*
%TD*%
D20*
%TO.C,J2*%
X154000000Y-22932500D03*
D21*
X150500000Y-22932500D03*
%TD*%
D28*
%TO.C,H4*%
X155000000Y-107000000D03*
%TD*%
D14*
%TO.C,D6*%
X55523000Y-106000000D03*
D15*
X57682000Y-106000000D03*
X59841000Y-106000000D03*
X62000000Y-106000000D03*
%TD*%
D33*
%TO.C,U2*%
X158110000Y-85385000D03*
D34*
X155080000Y-85685000D03*
X155080000Y-90535000D03*
D33*
X158110000Y-90835000D03*
D32*
X158240000Y-79220000D03*
X155700000Y-79220000D03*
D31*
X153160000Y-79220000D03*
D32*
X150620000Y-79220000D03*
X148080000Y-79220000D03*
X145540000Y-79220000D03*
X143000000Y-79220000D03*
D31*
X140460000Y-79220000D03*
D32*
X137920000Y-79220000D03*
X135380000Y-79220000D03*
X132840000Y-79220000D03*
X130300000Y-79220000D03*
D31*
X127760000Y-79220000D03*
D32*
X125220000Y-79220000D03*
X122680000Y-79220000D03*
X120140000Y-79220000D03*
X117600000Y-79220000D03*
D31*
X115060000Y-79220000D03*
D32*
X112520000Y-79220000D03*
X109980000Y-79220000D03*
X109980000Y-97000000D03*
X112520000Y-97000000D03*
D31*
X115060000Y-97000000D03*
D32*
X117600000Y-97000000D03*
X120140000Y-97000000D03*
X122680000Y-97000000D03*
X125220000Y-97000000D03*
D31*
X127760000Y-97000000D03*
D32*
X130300000Y-97000000D03*
X132840000Y-97000000D03*
X135380000Y-97000000D03*
X137920000Y-97000000D03*
D31*
X140460000Y-97000000D03*
D32*
X143000000Y-97000000D03*
X145540000Y-97000000D03*
X148080000Y-97000000D03*
X150620000Y-97000000D03*
D31*
X153160000Y-97000000D03*
D32*
X155700000Y-97000000D03*
X158240000Y-97000000D03*
X110210000Y-85570000D03*
D31*
X110210000Y-88110000D03*
D32*
X110210000Y-90650000D03*
%TD*%
D12*
%TO.C,R15*%
X98163630Y-64340000D03*
D13*
X98163630Y-49100000D03*
%TD*%
D16*
%TO.C,D5*%
X147000000Y-108000000D03*
D17*
X136840000Y-108000000D03*
%TD*%
D31*
%TO.C,J4*%
X148000000Y-71000000D03*
D32*
X145460000Y-71000000D03*
X142920000Y-71000000D03*
X140380000Y-71000000D03*
%TD*%
D12*
%TO.C,R7*%
X58163637Y-79000000D03*
D13*
X58163637Y-94240000D03*
%TD*%
D12*
%TO.C,R4*%
X73081815Y-94240000D03*
D13*
X73081815Y-79000000D03*
%TD*%
D12*
%TO.C,R13*%
X83204541Y-64419999D03*
D13*
X83204541Y-49179999D03*
%TD*%
D16*
%TO.C,D10*%
X58122726Y-74080000D03*
D17*
X58122726Y-63920000D03*
%TD*%
D10*
%TO.C,Q4*%
X70920000Y-34000000D03*
D11*
X73460000Y-34000000D03*
X76000000Y-34000000D03*
%TD*%
D10*
%TO.C,Q10*%
X95920000Y-34000000D03*
D11*
X98460000Y-34000000D03*
X101000000Y-34000000D03*
%TD*%
D25*
%TO.C,C2*%
X111487246Y-58000000D03*
D26*
X112487246Y-56000000D03*
D27*
X117487246Y-56500000D03*
D12*
X118987246Y-58000000D03*
%TD*%
M02*
