%TF.GenerationSoftware,KiCad,Pcbnew,7.0.7+dfsg-1*%
%TF.CreationDate,2024-04-04T17:56:32+01:00*%
%TF.ProjectId,point-controller,706f696e-742d-4636-9f6e-74726f6c6c65,rev?*%
%TF.SameCoordinates,Original*%
%TF.FileFunction,Drillmap*%
%TF.FilePolarity,Positive*%
%FSLAX45Y45*%
G04 Gerber Fmt 4.5, Leading zero omitted, Abs format (unit mm)*
G04 Created by KiCad (PCBNEW 7.0.7+dfsg-1) date 2024-04-04 17:56:32*
%MOMM*%
%LPD*%
G01*
G04 APERTURE LIST*
%ADD10C,0.100000*%
%ADD11C,0.200000*%
%ADD12C,0.150000*%
%ADD13C,0.180000*%
%ADD14C,0.320000*%
G04 APERTURE END LIST*
D10*
X4400000Y-1600000D02*
X16000000Y-1600000D01*
X16000000Y-11300000D01*
X4400000Y-11300000D01*
X4400000Y-1600000D01*
D11*
D12*
X15433000Y-8493500D02*
X15583000Y-8643500D01*
X15583000Y-8493500D02*
X15433000Y-8643500D01*
X15433000Y-8978500D02*
X15583000Y-9128500D01*
X15583000Y-8978500D02*
X15433000Y-9128500D01*
D13*
X15901000Y-8538500D02*
G75*
G03*
X15901000Y-8538500I-90000J0D01*
G01*
X15901000Y-9083500D02*
G75*
G03*
X15901000Y-9083500I-90000J0D01*
G01*
D14*
X4900000Y-2840000D02*
X4900000Y-3160000D01*
X4740000Y-3000000D02*
X5060000Y-3000000D01*
X4900000Y-10540000D02*
X4900000Y-10860000D01*
X4740000Y-10700000D02*
X5060000Y-10700000D01*
X15500000Y-2840000D02*
X15500000Y-3160000D01*
X15340000Y-3000000D02*
X15660000Y-3000000D01*
X15500000Y-10540000D02*
X15500000Y-10860000D01*
X15340000Y-10700000D02*
X15660000Y-10700000D01*
D11*
X4655777Y-11616484D02*
X4655777Y-11416484D01*
X4655777Y-11416484D02*
X4703396Y-11416484D01*
X4703396Y-11416484D02*
X4731967Y-11426008D01*
X4731967Y-11426008D02*
X4751015Y-11445055D01*
X4751015Y-11445055D02*
X4760539Y-11464103D01*
X4760539Y-11464103D02*
X4770063Y-11502198D01*
X4770063Y-11502198D02*
X4770063Y-11530769D01*
X4770063Y-11530769D02*
X4760539Y-11568865D01*
X4760539Y-11568865D02*
X4751015Y-11587912D01*
X4751015Y-11587912D02*
X4731967Y-11606960D01*
X4731967Y-11606960D02*
X4703396Y-11616484D01*
X4703396Y-11616484D02*
X4655777Y-11616484D01*
X4855777Y-11616484D02*
X4855777Y-11483150D01*
X4855777Y-11521246D02*
X4865301Y-11502198D01*
X4865301Y-11502198D02*
X4874824Y-11492674D01*
X4874824Y-11492674D02*
X4893872Y-11483150D01*
X4893872Y-11483150D02*
X4912920Y-11483150D01*
X4979586Y-11616484D02*
X4979586Y-11483150D01*
X4979586Y-11416484D02*
X4970063Y-11426008D01*
X4970063Y-11426008D02*
X4979586Y-11435531D01*
X4979586Y-11435531D02*
X4989110Y-11426008D01*
X4989110Y-11426008D02*
X4979586Y-11416484D01*
X4979586Y-11416484D02*
X4979586Y-11435531D01*
X5103396Y-11616484D02*
X5084348Y-11606960D01*
X5084348Y-11606960D02*
X5074824Y-11587912D01*
X5074824Y-11587912D02*
X5074824Y-11416484D01*
X5208158Y-11616484D02*
X5189110Y-11606960D01*
X5189110Y-11606960D02*
X5179586Y-11587912D01*
X5179586Y-11587912D02*
X5179586Y-11416484D01*
X5436729Y-11616484D02*
X5436729Y-11416484D01*
X5436729Y-11416484D02*
X5503396Y-11559341D01*
X5503396Y-11559341D02*
X5570063Y-11416484D01*
X5570063Y-11416484D02*
X5570063Y-11616484D01*
X5751015Y-11616484D02*
X5751015Y-11511722D01*
X5751015Y-11511722D02*
X5741491Y-11492674D01*
X5741491Y-11492674D02*
X5722443Y-11483150D01*
X5722443Y-11483150D02*
X5684348Y-11483150D01*
X5684348Y-11483150D02*
X5665301Y-11492674D01*
X5751015Y-11606960D02*
X5731967Y-11616484D01*
X5731967Y-11616484D02*
X5684348Y-11616484D01*
X5684348Y-11616484D02*
X5665301Y-11606960D01*
X5665301Y-11606960D02*
X5655777Y-11587912D01*
X5655777Y-11587912D02*
X5655777Y-11568865D01*
X5655777Y-11568865D02*
X5665301Y-11549817D01*
X5665301Y-11549817D02*
X5684348Y-11540293D01*
X5684348Y-11540293D02*
X5731967Y-11540293D01*
X5731967Y-11540293D02*
X5751015Y-11530769D01*
X5846253Y-11483150D02*
X5846253Y-11683150D01*
X5846253Y-11492674D02*
X5865301Y-11483150D01*
X5865301Y-11483150D02*
X5903396Y-11483150D01*
X5903396Y-11483150D02*
X5922443Y-11492674D01*
X5922443Y-11492674D02*
X5931967Y-11502198D01*
X5931967Y-11502198D02*
X5941491Y-11521246D01*
X5941491Y-11521246D02*
X5941491Y-11578388D01*
X5941491Y-11578388D02*
X5931967Y-11597436D01*
X5931967Y-11597436D02*
X5922443Y-11606960D01*
X5922443Y-11606960D02*
X5903396Y-11616484D01*
X5903396Y-11616484D02*
X5865301Y-11616484D01*
X5865301Y-11616484D02*
X5846253Y-11606960D01*
X6027205Y-11597436D02*
X6036729Y-11606960D01*
X6036729Y-11606960D02*
X6027205Y-11616484D01*
X6027205Y-11616484D02*
X6017682Y-11606960D01*
X6017682Y-11606960D02*
X6027205Y-11597436D01*
X6027205Y-11597436D02*
X6027205Y-11616484D01*
X6027205Y-11492674D02*
X6036729Y-11502198D01*
X6036729Y-11502198D02*
X6027205Y-11511722D01*
X6027205Y-11511722D02*
X6017682Y-11502198D01*
X6017682Y-11502198D02*
X6027205Y-11492674D01*
X6027205Y-11492674D02*
X6027205Y-11511722D01*
D12*
X4245000Y-11870000D02*
X4395000Y-12020000D01*
X4395000Y-11870000D02*
X4245000Y-12020000D01*
D11*
X4760539Y-12036484D02*
X4646253Y-12036484D01*
X4703396Y-12036484D02*
X4703396Y-11836484D01*
X4703396Y-11836484D02*
X4684348Y-11865055D01*
X4684348Y-11865055D02*
X4665301Y-11884103D01*
X4665301Y-11884103D02*
X4646253Y-11893627D01*
X4846253Y-12017436D02*
X4855777Y-12026960D01*
X4855777Y-12026960D02*
X4846253Y-12036484D01*
X4846253Y-12036484D02*
X4836729Y-12026960D01*
X4836729Y-12026960D02*
X4846253Y-12017436D01*
X4846253Y-12017436D02*
X4846253Y-12036484D01*
X5036729Y-11836484D02*
X4941491Y-11836484D01*
X4941491Y-11836484D02*
X4931967Y-11931722D01*
X4931967Y-11931722D02*
X4941491Y-11922198D01*
X4941491Y-11922198D02*
X4960539Y-11912674D01*
X4960539Y-11912674D02*
X5008158Y-11912674D01*
X5008158Y-11912674D02*
X5027205Y-11922198D01*
X5027205Y-11922198D02*
X5036729Y-11931722D01*
X5036729Y-11931722D02*
X5046253Y-11950769D01*
X5046253Y-11950769D02*
X5046253Y-11998388D01*
X5046253Y-11998388D02*
X5036729Y-12017436D01*
X5036729Y-12017436D02*
X5027205Y-12026960D01*
X5027205Y-12026960D02*
X5008158Y-12036484D01*
X5008158Y-12036484D02*
X4960539Y-12036484D01*
X4960539Y-12036484D02*
X4941491Y-12026960D01*
X4941491Y-12026960D02*
X4931967Y-12017436D01*
X5170063Y-11836484D02*
X5189110Y-11836484D01*
X5189110Y-11836484D02*
X5208158Y-11846008D01*
X5208158Y-11846008D02*
X5217682Y-11855531D01*
X5217682Y-11855531D02*
X5227205Y-11874579D01*
X5227205Y-11874579D02*
X5236729Y-11912674D01*
X5236729Y-11912674D02*
X5236729Y-11960293D01*
X5236729Y-11960293D02*
X5227205Y-11998388D01*
X5227205Y-11998388D02*
X5217682Y-12017436D01*
X5217682Y-12017436D02*
X5208158Y-12026960D01*
X5208158Y-12026960D02*
X5189110Y-12036484D01*
X5189110Y-12036484D02*
X5170063Y-12036484D01*
X5170063Y-12036484D02*
X5151015Y-12026960D01*
X5151015Y-12026960D02*
X5141491Y-12017436D01*
X5141491Y-12017436D02*
X5131967Y-11998388D01*
X5131967Y-11998388D02*
X5122444Y-11960293D01*
X5122444Y-11960293D02*
X5122444Y-11912674D01*
X5122444Y-11912674D02*
X5131967Y-11874579D01*
X5131967Y-11874579D02*
X5141491Y-11855531D01*
X5141491Y-11855531D02*
X5151015Y-11846008D01*
X5151015Y-11846008D02*
X5170063Y-11836484D01*
X5360539Y-11836484D02*
X5379586Y-11836484D01*
X5379586Y-11836484D02*
X5398634Y-11846008D01*
X5398634Y-11846008D02*
X5408158Y-11855531D01*
X5408158Y-11855531D02*
X5417682Y-11874579D01*
X5417682Y-11874579D02*
X5427205Y-11912674D01*
X5427205Y-11912674D02*
X5427205Y-11960293D01*
X5427205Y-11960293D02*
X5417682Y-11998388D01*
X5417682Y-11998388D02*
X5408158Y-12017436D01*
X5408158Y-12017436D02*
X5398634Y-12026960D01*
X5398634Y-12026960D02*
X5379586Y-12036484D01*
X5379586Y-12036484D02*
X5360539Y-12036484D01*
X5360539Y-12036484D02*
X5341491Y-12026960D01*
X5341491Y-12026960D02*
X5331967Y-12017436D01*
X5331967Y-12017436D02*
X5322444Y-11998388D01*
X5322444Y-11998388D02*
X5312920Y-11960293D01*
X5312920Y-11960293D02*
X5312920Y-11912674D01*
X5312920Y-11912674D02*
X5322444Y-11874579D01*
X5322444Y-11874579D02*
X5331967Y-11855531D01*
X5331967Y-11855531D02*
X5341491Y-11846008D01*
X5341491Y-11846008D02*
X5360539Y-11836484D01*
X5512920Y-12036484D02*
X5512920Y-11903150D01*
X5512920Y-11922198D02*
X5522444Y-11912674D01*
X5522444Y-11912674D02*
X5541491Y-11903150D01*
X5541491Y-11903150D02*
X5570063Y-11903150D01*
X5570063Y-11903150D02*
X5589110Y-11912674D01*
X5589110Y-11912674D02*
X5598634Y-11931722D01*
X5598634Y-11931722D02*
X5598634Y-12036484D01*
X5598634Y-11931722D02*
X5608158Y-11912674D01*
X5608158Y-11912674D02*
X5627205Y-11903150D01*
X5627205Y-11903150D02*
X5655777Y-11903150D01*
X5655777Y-11903150D02*
X5674824Y-11912674D01*
X5674824Y-11912674D02*
X5684348Y-11931722D01*
X5684348Y-11931722D02*
X5684348Y-12036484D01*
X5779586Y-12036484D02*
X5779586Y-11903150D01*
X5779586Y-11922198D02*
X5789110Y-11912674D01*
X5789110Y-11912674D02*
X5808158Y-11903150D01*
X5808158Y-11903150D02*
X5836729Y-11903150D01*
X5836729Y-11903150D02*
X5855777Y-11912674D01*
X5855777Y-11912674D02*
X5865301Y-11931722D01*
X5865301Y-11931722D02*
X5865301Y-12036484D01*
X5865301Y-11931722D02*
X5874824Y-11912674D01*
X5874824Y-11912674D02*
X5893872Y-11903150D01*
X5893872Y-11903150D02*
X5922443Y-11903150D01*
X5922443Y-11903150D02*
X5941491Y-11912674D01*
X5941491Y-11912674D02*
X5951015Y-11931722D01*
X5951015Y-11931722D02*
X5951015Y-12036484D01*
X6341491Y-11826960D02*
X6170063Y-12084103D01*
X6598634Y-11836484D02*
X6617682Y-11836484D01*
X6617682Y-11836484D02*
X6636729Y-11846008D01*
X6636729Y-11846008D02*
X6646253Y-11855531D01*
X6646253Y-11855531D02*
X6655777Y-11874579D01*
X6655777Y-11874579D02*
X6665301Y-11912674D01*
X6665301Y-11912674D02*
X6665301Y-11960293D01*
X6665301Y-11960293D02*
X6655777Y-11998388D01*
X6655777Y-11998388D02*
X6646253Y-12017436D01*
X6646253Y-12017436D02*
X6636729Y-12026960D01*
X6636729Y-12026960D02*
X6617682Y-12036484D01*
X6617682Y-12036484D02*
X6598634Y-12036484D01*
X6598634Y-12036484D02*
X6579586Y-12026960D01*
X6579586Y-12026960D02*
X6570063Y-12017436D01*
X6570063Y-12017436D02*
X6560539Y-11998388D01*
X6560539Y-11998388D02*
X6551015Y-11960293D01*
X6551015Y-11960293D02*
X6551015Y-11912674D01*
X6551015Y-11912674D02*
X6560539Y-11874579D01*
X6560539Y-11874579D02*
X6570063Y-11855531D01*
X6570063Y-11855531D02*
X6579586Y-11846008D01*
X6579586Y-11846008D02*
X6598634Y-11836484D01*
X6751015Y-12017436D02*
X6760539Y-12026960D01*
X6760539Y-12026960D02*
X6751015Y-12036484D01*
X6751015Y-12036484D02*
X6741491Y-12026960D01*
X6741491Y-12026960D02*
X6751015Y-12017436D01*
X6751015Y-12017436D02*
X6751015Y-12036484D01*
X6884348Y-11836484D02*
X6903396Y-11836484D01*
X6903396Y-11836484D02*
X6922444Y-11846008D01*
X6922444Y-11846008D02*
X6931967Y-11855531D01*
X6931967Y-11855531D02*
X6941491Y-11874579D01*
X6941491Y-11874579D02*
X6951015Y-11912674D01*
X6951015Y-11912674D02*
X6951015Y-11960293D01*
X6951015Y-11960293D02*
X6941491Y-11998388D01*
X6941491Y-11998388D02*
X6931967Y-12017436D01*
X6931967Y-12017436D02*
X6922444Y-12026960D01*
X6922444Y-12026960D02*
X6903396Y-12036484D01*
X6903396Y-12036484D02*
X6884348Y-12036484D01*
X6884348Y-12036484D02*
X6865301Y-12026960D01*
X6865301Y-12026960D02*
X6855777Y-12017436D01*
X6855777Y-12017436D02*
X6846253Y-11998388D01*
X6846253Y-11998388D02*
X6836729Y-11960293D01*
X6836729Y-11960293D02*
X6836729Y-11912674D01*
X6836729Y-11912674D02*
X6846253Y-11874579D01*
X6846253Y-11874579D02*
X6855777Y-11855531D01*
X6855777Y-11855531D02*
X6865301Y-11846008D01*
X6865301Y-11846008D02*
X6884348Y-11836484D01*
X7131967Y-11836484D02*
X7036729Y-11836484D01*
X7036729Y-11836484D02*
X7027206Y-11931722D01*
X7027206Y-11931722D02*
X7036729Y-11922198D01*
X7036729Y-11922198D02*
X7055777Y-11912674D01*
X7055777Y-11912674D02*
X7103396Y-11912674D01*
X7103396Y-11912674D02*
X7122444Y-11922198D01*
X7122444Y-11922198D02*
X7131967Y-11931722D01*
X7131967Y-11931722D02*
X7141491Y-11950769D01*
X7141491Y-11950769D02*
X7141491Y-11998388D01*
X7141491Y-11998388D02*
X7131967Y-12017436D01*
X7131967Y-12017436D02*
X7122444Y-12026960D01*
X7122444Y-12026960D02*
X7103396Y-12036484D01*
X7103396Y-12036484D02*
X7055777Y-12036484D01*
X7055777Y-12036484D02*
X7036729Y-12026960D01*
X7036729Y-12026960D02*
X7027206Y-12017436D01*
X7236729Y-12036484D02*
X7274825Y-12036484D01*
X7274825Y-12036484D02*
X7293872Y-12026960D01*
X7293872Y-12026960D02*
X7303396Y-12017436D01*
X7303396Y-12017436D02*
X7322444Y-11988865D01*
X7322444Y-11988865D02*
X7331967Y-11950769D01*
X7331967Y-11950769D02*
X7331967Y-11874579D01*
X7331967Y-11874579D02*
X7322444Y-11855531D01*
X7322444Y-11855531D02*
X7312920Y-11846008D01*
X7312920Y-11846008D02*
X7293872Y-11836484D01*
X7293872Y-11836484D02*
X7255777Y-11836484D01*
X7255777Y-11836484D02*
X7236729Y-11846008D01*
X7236729Y-11846008D02*
X7227206Y-11855531D01*
X7227206Y-11855531D02*
X7217682Y-11874579D01*
X7217682Y-11874579D02*
X7217682Y-11922198D01*
X7217682Y-11922198D02*
X7227206Y-11941246D01*
X7227206Y-11941246D02*
X7236729Y-11950769D01*
X7236729Y-11950769D02*
X7255777Y-11960293D01*
X7255777Y-11960293D02*
X7293872Y-11960293D01*
X7293872Y-11960293D02*
X7312920Y-11950769D01*
X7312920Y-11950769D02*
X7322444Y-11941246D01*
X7322444Y-11941246D02*
X7331967Y-11922198D01*
X7522444Y-12036484D02*
X7408158Y-12036484D01*
X7465301Y-12036484D02*
X7465301Y-11836484D01*
X7465301Y-11836484D02*
X7446253Y-11865055D01*
X7446253Y-11865055D02*
X7427206Y-11884103D01*
X7427206Y-11884103D02*
X7408158Y-11893627D01*
X7598634Y-11836484D02*
X7598634Y-11874579D01*
X7674825Y-11836484D02*
X7674825Y-11874579D01*
X7970063Y-12112674D02*
X7960539Y-12103150D01*
X7960539Y-12103150D02*
X7941491Y-12074579D01*
X7941491Y-12074579D02*
X7931968Y-12055531D01*
X7931968Y-12055531D02*
X7922444Y-12026960D01*
X7922444Y-12026960D02*
X7912920Y-11979341D01*
X7912920Y-11979341D02*
X7912920Y-11941246D01*
X7912920Y-11941246D02*
X7922444Y-11893627D01*
X7922444Y-11893627D02*
X7931968Y-11865055D01*
X7931968Y-11865055D02*
X7941491Y-11846008D01*
X7941491Y-11846008D02*
X7960539Y-11817436D01*
X7960539Y-11817436D02*
X7970063Y-11807912D01*
X8036729Y-11855531D02*
X8046253Y-11846008D01*
X8046253Y-11846008D02*
X8065301Y-11836484D01*
X8065301Y-11836484D02*
X8112920Y-11836484D01*
X8112920Y-11836484D02*
X8131968Y-11846008D01*
X8131968Y-11846008D02*
X8141491Y-11855531D01*
X8141491Y-11855531D02*
X8151015Y-11874579D01*
X8151015Y-11874579D02*
X8151015Y-11893627D01*
X8151015Y-11893627D02*
X8141491Y-11922198D01*
X8141491Y-11922198D02*
X8027206Y-12036484D01*
X8027206Y-12036484D02*
X8151015Y-12036484D01*
X8389111Y-12036484D02*
X8389111Y-11836484D01*
X8474825Y-12036484D02*
X8474825Y-11931722D01*
X8474825Y-11931722D02*
X8465301Y-11912674D01*
X8465301Y-11912674D02*
X8446253Y-11903150D01*
X8446253Y-11903150D02*
X8417682Y-11903150D01*
X8417682Y-11903150D02*
X8398634Y-11912674D01*
X8398634Y-11912674D02*
X8389111Y-11922198D01*
X8598634Y-12036484D02*
X8579587Y-12026960D01*
X8579587Y-12026960D02*
X8570063Y-12017436D01*
X8570063Y-12017436D02*
X8560539Y-11998388D01*
X8560539Y-11998388D02*
X8560539Y-11941246D01*
X8560539Y-11941246D02*
X8570063Y-11922198D01*
X8570063Y-11922198D02*
X8579587Y-11912674D01*
X8579587Y-11912674D02*
X8598634Y-11903150D01*
X8598634Y-11903150D02*
X8627206Y-11903150D01*
X8627206Y-11903150D02*
X8646253Y-11912674D01*
X8646253Y-11912674D02*
X8655777Y-11922198D01*
X8655777Y-11922198D02*
X8665301Y-11941246D01*
X8665301Y-11941246D02*
X8665301Y-11998388D01*
X8665301Y-11998388D02*
X8655777Y-12017436D01*
X8655777Y-12017436D02*
X8646253Y-12026960D01*
X8646253Y-12026960D02*
X8627206Y-12036484D01*
X8627206Y-12036484D02*
X8598634Y-12036484D01*
X8779587Y-12036484D02*
X8760539Y-12026960D01*
X8760539Y-12026960D02*
X8751015Y-12007912D01*
X8751015Y-12007912D02*
X8751015Y-11836484D01*
X8931968Y-12026960D02*
X8912920Y-12036484D01*
X8912920Y-12036484D02*
X8874825Y-12036484D01*
X8874825Y-12036484D02*
X8855777Y-12026960D01*
X8855777Y-12026960D02*
X8846253Y-12007912D01*
X8846253Y-12007912D02*
X8846253Y-11931722D01*
X8846253Y-11931722D02*
X8855777Y-11912674D01*
X8855777Y-11912674D02*
X8874825Y-11903150D01*
X8874825Y-11903150D02*
X8912920Y-11903150D01*
X8912920Y-11903150D02*
X8931968Y-11912674D01*
X8931968Y-11912674D02*
X8941492Y-11931722D01*
X8941492Y-11931722D02*
X8941492Y-11950769D01*
X8941492Y-11950769D02*
X8846253Y-11969817D01*
X9017682Y-12026960D02*
X9036730Y-12036484D01*
X9036730Y-12036484D02*
X9074825Y-12036484D01*
X9074825Y-12036484D02*
X9093873Y-12026960D01*
X9093873Y-12026960D02*
X9103396Y-12007912D01*
X9103396Y-12007912D02*
X9103396Y-11998388D01*
X9103396Y-11998388D02*
X9093873Y-11979341D01*
X9093873Y-11979341D02*
X9074825Y-11969817D01*
X9074825Y-11969817D02*
X9046253Y-11969817D01*
X9046253Y-11969817D02*
X9027206Y-11960293D01*
X9027206Y-11960293D02*
X9017682Y-11941246D01*
X9017682Y-11941246D02*
X9017682Y-11931722D01*
X9017682Y-11931722D02*
X9027206Y-11912674D01*
X9027206Y-11912674D02*
X9046253Y-11903150D01*
X9046253Y-11903150D02*
X9074825Y-11903150D01*
X9074825Y-11903150D02*
X9093873Y-11912674D01*
X9170063Y-12112674D02*
X9179587Y-12103150D01*
X9179587Y-12103150D02*
X9198634Y-12074579D01*
X9198634Y-12074579D02*
X9208158Y-12055531D01*
X9208158Y-12055531D02*
X9217682Y-12026960D01*
X9217682Y-12026960D02*
X9227206Y-11979341D01*
X9227206Y-11979341D02*
X9227206Y-11941246D01*
X9227206Y-11941246D02*
X9217682Y-11893627D01*
X9217682Y-11893627D02*
X9208158Y-11865055D01*
X9208158Y-11865055D02*
X9198634Y-11846008D01*
X9198634Y-11846008D02*
X9179587Y-11817436D01*
X9179587Y-11817436D02*
X9170063Y-11807912D01*
X9531968Y-12112674D02*
X9522444Y-12103150D01*
X9522444Y-12103150D02*
X9503396Y-12074579D01*
X9503396Y-12074579D02*
X9493873Y-12055531D01*
X9493873Y-12055531D02*
X9484349Y-12026960D01*
X9484349Y-12026960D02*
X9474825Y-11979341D01*
X9474825Y-11979341D02*
X9474825Y-11941246D01*
X9474825Y-11941246D02*
X9484349Y-11893627D01*
X9484349Y-11893627D02*
X9493873Y-11865055D01*
X9493873Y-11865055D02*
X9503396Y-11846008D01*
X9503396Y-11846008D02*
X9522444Y-11817436D01*
X9522444Y-11817436D02*
X9531968Y-11807912D01*
X9608158Y-11903150D02*
X9608158Y-12036484D01*
X9608158Y-11922198D02*
X9617682Y-11912674D01*
X9617682Y-11912674D02*
X9636730Y-11903150D01*
X9636730Y-11903150D02*
X9665301Y-11903150D01*
X9665301Y-11903150D02*
X9684349Y-11912674D01*
X9684349Y-11912674D02*
X9693873Y-11931722D01*
X9693873Y-11931722D02*
X9693873Y-12036484D01*
X9817682Y-12036484D02*
X9798634Y-12026960D01*
X9798634Y-12026960D02*
X9789111Y-12017436D01*
X9789111Y-12017436D02*
X9779587Y-11998388D01*
X9779587Y-11998388D02*
X9779587Y-11941246D01*
X9779587Y-11941246D02*
X9789111Y-11922198D01*
X9789111Y-11922198D02*
X9798634Y-11912674D01*
X9798634Y-11912674D02*
X9817682Y-11903150D01*
X9817682Y-11903150D02*
X9846254Y-11903150D01*
X9846254Y-11903150D02*
X9865301Y-11912674D01*
X9865301Y-11912674D02*
X9874825Y-11922198D01*
X9874825Y-11922198D02*
X9884349Y-11941246D01*
X9884349Y-11941246D02*
X9884349Y-11998388D01*
X9884349Y-11998388D02*
X9874825Y-12017436D01*
X9874825Y-12017436D02*
X9865301Y-12026960D01*
X9865301Y-12026960D02*
X9846254Y-12036484D01*
X9846254Y-12036484D02*
X9817682Y-12036484D01*
X9941492Y-11903150D02*
X10017682Y-11903150D01*
X9970063Y-11836484D02*
X9970063Y-12007912D01*
X9970063Y-12007912D02*
X9979587Y-12026960D01*
X9979587Y-12026960D02*
X9998634Y-12036484D01*
X9998634Y-12036484D02*
X10017682Y-12036484D01*
X10236730Y-11903150D02*
X10236730Y-12103150D01*
X10236730Y-11912674D02*
X10255777Y-11903150D01*
X10255777Y-11903150D02*
X10293873Y-11903150D01*
X10293873Y-11903150D02*
X10312920Y-11912674D01*
X10312920Y-11912674D02*
X10322444Y-11922198D01*
X10322444Y-11922198D02*
X10331968Y-11941246D01*
X10331968Y-11941246D02*
X10331968Y-11998388D01*
X10331968Y-11998388D02*
X10322444Y-12017436D01*
X10322444Y-12017436D02*
X10312920Y-12026960D01*
X10312920Y-12026960D02*
X10293873Y-12036484D01*
X10293873Y-12036484D02*
X10255777Y-12036484D01*
X10255777Y-12036484D02*
X10236730Y-12026960D01*
X10446254Y-12036484D02*
X10427206Y-12026960D01*
X10427206Y-12026960D02*
X10417682Y-12007912D01*
X10417682Y-12007912D02*
X10417682Y-11836484D01*
X10608158Y-12036484D02*
X10608158Y-11931722D01*
X10608158Y-11931722D02*
X10598635Y-11912674D01*
X10598635Y-11912674D02*
X10579587Y-11903150D01*
X10579587Y-11903150D02*
X10541492Y-11903150D01*
X10541492Y-11903150D02*
X10522444Y-11912674D01*
X10608158Y-12026960D02*
X10589111Y-12036484D01*
X10589111Y-12036484D02*
X10541492Y-12036484D01*
X10541492Y-12036484D02*
X10522444Y-12026960D01*
X10522444Y-12026960D02*
X10512920Y-12007912D01*
X10512920Y-12007912D02*
X10512920Y-11988865D01*
X10512920Y-11988865D02*
X10522444Y-11969817D01*
X10522444Y-11969817D02*
X10541492Y-11960293D01*
X10541492Y-11960293D02*
X10589111Y-11960293D01*
X10589111Y-11960293D02*
X10608158Y-11950769D01*
X10674825Y-11903150D02*
X10751015Y-11903150D01*
X10703396Y-11836484D02*
X10703396Y-12007912D01*
X10703396Y-12007912D02*
X10712920Y-12026960D01*
X10712920Y-12026960D02*
X10731968Y-12036484D01*
X10731968Y-12036484D02*
X10751015Y-12036484D01*
X10893873Y-12026960D02*
X10874825Y-12036484D01*
X10874825Y-12036484D02*
X10836730Y-12036484D01*
X10836730Y-12036484D02*
X10817682Y-12026960D01*
X10817682Y-12026960D02*
X10808158Y-12007912D01*
X10808158Y-12007912D02*
X10808158Y-11931722D01*
X10808158Y-11931722D02*
X10817682Y-11912674D01*
X10817682Y-11912674D02*
X10836730Y-11903150D01*
X10836730Y-11903150D02*
X10874825Y-11903150D01*
X10874825Y-11903150D02*
X10893873Y-11912674D01*
X10893873Y-11912674D02*
X10903396Y-11931722D01*
X10903396Y-11931722D02*
X10903396Y-11950769D01*
X10903396Y-11950769D02*
X10808158Y-11969817D01*
X11074825Y-12036484D02*
X11074825Y-11836484D01*
X11074825Y-12026960D02*
X11055777Y-12036484D01*
X11055777Y-12036484D02*
X11017682Y-12036484D01*
X11017682Y-12036484D02*
X10998635Y-12026960D01*
X10998635Y-12026960D02*
X10989111Y-12017436D01*
X10989111Y-12017436D02*
X10979587Y-11998388D01*
X10979587Y-11998388D02*
X10979587Y-11941246D01*
X10979587Y-11941246D02*
X10989111Y-11922198D01*
X10989111Y-11922198D02*
X10998635Y-11912674D01*
X10998635Y-11912674D02*
X11017682Y-11903150D01*
X11017682Y-11903150D02*
X11055777Y-11903150D01*
X11055777Y-11903150D02*
X11074825Y-11912674D01*
X11151016Y-12112674D02*
X11160539Y-12103150D01*
X11160539Y-12103150D02*
X11179587Y-12074579D01*
X11179587Y-12074579D02*
X11189111Y-12055531D01*
X11189111Y-12055531D02*
X11198634Y-12026960D01*
X11198634Y-12026960D02*
X11208158Y-11979341D01*
X11208158Y-11979341D02*
X11208158Y-11941246D01*
X11208158Y-11941246D02*
X11198634Y-11893627D01*
X11198634Y-11893627D02*
X11189111Y-11865055D01*
X11189111Y-11865055D02*
X11179587Y-11846008D01*
X11179587Y-11846008D02*
X11160539Y-11817436D01*
X11160539Y-11817436D02*
X11151016Y-11807912D01*
D13*
X4395000Y-12215000D02*
G75*
G03*
X4395000Y-12215000I-90000J0D01*
G01*
D11*
X4760539Y-12306484D02*
X4646253Y-12306484D01*
X4703396Y-12306484D02*
X4703396Y-12106484D01*
X4703396Y-12106484D02*
X4684348Y-12135055D01*
X4684348Y-12135055D02*
X4665301Y-12154103D01*
X4665301Y-12154103D02*
X4646253Y-12163627D01*
X4846253Y-12287436D02*
X4855777Y-12296960D01*
X4855777Y-12296960D02*
X4846253Y-12306484D01*
X4846253Y-12306484D02*
X4836729Y-12296960D01*
X4836729Y-12296960D02*
X4846253Y-12287436D01*
X4846253Y-12287436D02*
X4846253Y-12306484D01*
X4970063Y-12192198D02*
X4951015Y-12182674D01*
X4951015Y-12182674D02*
X4941491Y-12173150D01*
X4941491Y-12173150D02*
X4931967Y-12154103D01*
X4931967Y-12154103D02*
X4931967Y-12144579D01*
X4931967Y-12144579D02*
X4941491Y-12125531D01*
X4941491Y-12125531D02*
X4951015Y-12116008D01*
X4951015Y-12116008D02*
X4970063Y-12106484D01*
X4970063Y-12106484D02*
X5008158Y-12106484D01*
X5008158Y-12106484D02*
X5027205Y-12116008D01*
X5027205Y-12116008D02*
X5036729Y-12125531D01*
X5036729Y-12125531D02*
X5046253Y-12144579D01*
X5046253Y-12144579D02*
X5046253Y-12154103D01*
X5046253Y-12154103D02*
X5036729Y-12173150D01*
X5036729Y-12173150D02*
X5027205Y-12182674D01*
X5027205Y-12182674D02*
X5008158Y-12192198D01*
X5008158Y-12192198D02*
X4970063Y-12192198D01*
X4970063Y-12192198D02*
X4951015Y-12201722D01*
X4951015Y-12201722D02*
X4941491Y-12211246D01*
X4941491Y-12211246D02*
X4931967Y-12230293D01*
X4931967Y-12230293D02*
X4931967Y-12268388D01*
X4931967Y-12268388D02*
X4941491Y-12287436D01*
X4941491Y-12287436D02*
X4951015Y-12296960D01*
X4951015Y-12296960D02*
X4970063Y-12306484D01*
X4970063Y-12306484D02*
X5008158Y-12306484D01*
X5008158Y-12306484D02*
X5027205Y-12296960D01*
X5027205Y-12296960D02*
X5036729Y-12287436D01*
X5036729Y-12287436D02*
X5046253Y-12268388D01*
X5046253Y-12268388D02*
X5046253Y-12230293D01*
X5046253Y-12230293D02*
X5036729Y-12211246D01*
X5036729Y-12211246D02*
X5027205Y-12201722D01*
X5027205Y-12201722D02*
X5008158Y-12192198D01*
X5170063Y-12106484D02*
X5189110Y-12106484D01*
X5189110Y-12106484D02*
X5208158Y-12116008D01*
X5208158Y-12116008D02*
X5217682Y-12125531D01*
X5217682Y-12125531D02*
X5227205Y-12144579D01*
X5227205Y-12144579D02*
X5236729Y-12182674D01*
X5236729Y-12182674D02*
X5236729Y-12230293D01*
X5236729Y-12230293D02*
X5227205Y-12268388D01*
X5227205Y-12268388D02*
X5217682Y-12287436D01*
X5217682Y-12287436D02*
X5208158Y-12296960D01*
X5208158Y-12296960D02*
X5189110Y-12306484D01*
X5189110Y-12306484D02*
X5170063Y-12306484D01*
X5170063Y-12306484D02*
X5151015Y-12296960D01*
X5151015Y-12296960D02*
X5141491Y-12287436D01*
X5141491Y-12287436D02*
X5131967Y-12268388D01*
X5131967Y-12268388D02*
X5122444Y-12230293D01*
X5122444Y-12230293D02*
X5122444Y-12182674D01*
X5122444Y-12182674D02*
X5131967Y-12144579D01*
X5131967Y-12144579D02*
X5141491Y-12125531D01*
X5141491Y-12125531D02*
X5151015Y-12116008D01*
X5151015Y-12116008D02*
X5170063Y-12106484D01*
X5360539Y-12106484D02*
X5379586Y-12106484D01*
X5379586Y-12106484D02*
X5398634Y-12116008D01*
X5398634Y-12116008D02*
X5408158Y-12125531D01*
X5408158Y-12125531D02*
X5417682Y-12144579D01*
X5417682Y-12144579D02*
X5427205Y-12182674D01*
X5427205Y-12182674D02*
X5427205Y-12230293D01*
X5427205Y-12230293D02*
X5417682Y-12268388D01*
X5417682Y-12268388D02*
X5408158Y-12287436D01*
X5408158Y-12287436D02*
X5398634Y-12296960D01*
X5398634Y-12296960D02*
X5379586Y-12306484D01*
X5379586Y-12306484D02*
X5360539Y-12306484D01*
X5360539Y-12306484D02*
X5341491Y-12296960D01*
X5341491Y-12296960D02*
X5331967Y-12287436D01*
X5331967Y-12287436D02*
X5322444Y-12268388D01*
X5322444Y-12268388D02*
X5312920Y-12230293D01*
X5312920Y-12230293D02*
X5312920Y-12182674D01*
X5312920Y-12182674D02*
X5322444Y-12144579D01*
X5322444Y-12144579D02*
X5331967Y-12125531D01*
X5331967Y-12125531D02*
X5341491Y-12116008D01*
X5341491Y-12116008D02*
X5360539Y-12106484D01*
X5512920Y-12306484D02*
X5512920Y-12173150D01*
X5512920Y-12192198D02*
X5522444Y-12182674D01*
X5522444Y-12182674D02*
X5541491Y-12173150D01*
X5541491Y-12173150D02*
X5570063Y-12173150D01*
X5570063Y-12173150D02*
X5589110Y-12182674D01*
X5589110Y-12182674D02*
X5598634Y-12201722D01*
X5598634Y-12201722D02*
X5598634Y-12306484D01*
X5598634Y-12201722D02*
X5608158Y-12182674D01*
X5608158Y-12182674D02*
X5627205Y-12173150D01*
X5627205Y-12173150D02*
X5655777Y-12173150D01*
X5655777Y-12173150D02*
X5674824Y-12182674D01*
X5674824Y-12182674D02*
X5684348Y-12201722D01*
X5684348Y-12201722D02*
X5684348Y-12306484D01*
X5779586Y-12306484D02*
X5779586Y-12173150D01*
X5779586Y-12192198D02*
X5789110Y-12182674D01*
X5789110Y-12182674D02*
X5808158Y-12173150D01*
X5808158Y-12173150D02*
X5836729Y-12173150D01*
X5836729Y-12173150D02*
X5855777Y-12182674D01*
X5855777Y-12182674D02*
X5865301Y-12201722D01*
X5865301Y-12201722D02*
X5865301Y-12306484D01*
X5865301Y-12201722D02*
X5874824Y-12182674D01*
X5874824Y-12182674D02*
X5893872Y-12173150D01*
X5893872Y-12173150D02*
X5922443Y-12173150D01*
X5922443Y-12173150D02*
X5941491Y-12182674D01*
X5941491Y-12182674D02*
X5951015Y-12201722D01*
X5951015Y-12201722D02*
X5951015Y-12306484D01*
X6341491Y-12096960D02*
X6170063Y-12354103D01*
X6598634Y-12106484D02*
X6617682Y-12106484D01*
X6617682Y-12106484D02*
X6636729Y-12116008D01*
X6636729Y-12116008D02*
X6646253Y-12125531D01*
X6646253Y-12125531D02*
X6655777Y-12144579D01*
X6655777Y-12144579D02*
X6665301Y-12182674D01*
X6665301Y-12182674D02*
X6665301Y-12230293D01*
X6665301Y-12230293D02*
X6655777Y-12268388D01*
X6655777Y-12268388D02*
X6646253Y-12287436D01*
X6646253Y-12287436D02*
X6636729Y-12296960D01*
X6636729Y-12296960D02*
X6617682Y-12306484D01*
X6617682Y-12306484D02*
X6598634Y-12306484D01*
X6598634Y-12306484D02*
X6579586Y-12296960D01*
X6579586Y-12296960D02*
X6570063Y-12287436D01*
X6570063Y-12287436D02*
X6560539Y-12268388D01*
X6560539Y-12268388D02*
X6551015Y-12230293D01*
X6551015Y-12230293D02*
X6551015Y-12182674D01*
X6551015Y-12182674D02*
X6560539Y-12144579D01*
X6560539Y-12144579D02*
X6570063Y-12125531D01*
X6570063Y-12125531D02*
X6579586Y-12116008D01*
X6579586Y-12116008D02*
X6598634Y-12106484D01*
X6751015Y-12287436D02*
X6760539Y-12296960D01*
X6760539Y-12296960D02*
X6751015Y-12306484D01*
X6751015Y-12306484D02*
X6741491Y-12296960D01*
X6741491Y-12296960D02*
X6751015Y-12287436D01*
X6751015Y-12287436D02*
X6751015Y-12306484D01*
X6884348Y-12106484D02*
X6903396Y-12106484D01*
X6903396Y-12106484D02*
X6922444Y-12116008D01*
X6922444Y-12116008D02*
X6931967Y-12125531D01*
X6931967Y-12125531D02*
X6941491Y-12144579D01*
X6941491Y-12144579D02*
X6951015Y-12182674D01*
X6951015Y-12182674D02*
X6951015Y-12230293D01*
X6951015Y-12230293D02*
X6941491Y-12268388D01*
X6941491Y-12268388D02*
X6931967Y-12287436D01*
X6931967Y-12287436D02*
X6922444Y-12296960D01*
X6922444Y-12296960D02*
X6903396Y-12306484D01*
X6903396Y-12306484D02*
X6884348Y-12306484D01*
X6884348Y-12306484D02*
X6865301Y-12296960D01*
X6865301Y-12296960D02*
X6855777Y-12287436D01*
X6855777Y-12287436D02*
X6846253Y-12268388D01*
X6846253Y-12268388D02*
X6836729Y-12230293D01*
X6836729Y-12230293D02*
X6836729Y-12182674D01*
X6836729Y-12182674D02*
X6846253Y-12144579D01*
X6846253Y-12144579D02*
X6855777Y-12125531D01*
X6855777Y-12125531D02*
X6865301Y-12116008D01*
X6865301Y-12116008D02*
X6884348Y-12106484D01*
X7017682Y-12106484D02*
X7151015Y-12106484D01*
X7151015Y-12106484D02*
X7065301Y-12306484D01*
X7265301Y-12106484D02*
X7284348Y-12106484D01*
X7284348Y-12106484D02*
X7303396Y-12116008D01*
X7303396Y-12116008D02*
X7312920Y-12125531D01*
X7312920Y-12125531D02*
X7322444Y-12144579D01*
X7322444Y-12144579D02*
X7331967Y-12182674D01*
X7331967Y-12182674D02*
X7331967Y-12230293D01*
X7331967Y-12230293D02*
X7322444Y-12268388D01*
X7322444Y-12268388D02*
X7312920Y-12287436D01*
X7312920Y-12287436D02*
X7303396Y-12296960D01*
X7303396Y-12296960D02*
X7284348Y-12306484D01*
X7284348Y-12306484D02*
X7265301Y-12306484D01*
X7265301Y-12306484D02*
X7246253Y-12296960D01*
X7246253Y-12296960D02*
X7236729Y-12287436D01*
X7236729Y-12287436D02*
X7227206Y-12268388D01*
X7227206Y-12268388D02*
X7217682Y-12230293D01*
X7217682Y-12230293D02*
X7217682Y-12182674D01*
X7217682Y-12182674D02*
X7227206Y-12144579D01*
X7227206Y-12144579D02*
X7236729Y-12125531D01*
X7236729Y-12125531D02*
X7246253Y-12116008D01*
X7246253Y-12116008D02*
X7265301Y-12106484D01*
X7427206Y-12306484D02*
X7465301Y-12306484D01*
X7465301Y-12306484D02*
X7484348Y-12296960D01*
X7484348Y-12296960D02*
X7493872Y-12287436D01*
X7493872Y-12287436D02*
X7512920Y-12258865D01*
X7512920Y-12258865D02*
X7522444Y-12220769D01*
X7522444Y-12220769D02*
X7522444Y-12144579D01*
X7522444Y-12144579D02*
X7512920Y-12125531D01*
X7512920Y-12125531D02*
X7503396Y-12116008D01*
X7503396Y-12116008D02*
X7484348Y-12106484D01*
X7484348Y-12106484D02*
X7446253Y-12106484D01*
X7446253Y-12106484D02*
X7427206Y-12116008D01*
X7427206Y-12116008D02*
X7417682Y-12125531D01*
X7417682Y-12125531D02*
X7408158Y-12144579D01*
X7408158Y-12144579D02*
X7408158Y-12192198D01*
X7408158Y-12192198D02*
X7417682Y-12211246D01*
X7417682Y-12211246D02*
X7427206Y-12220769D01*
X7427206Y-12220769D02*
X7446253Y-12230293D01*
X7446253Y-12230293D02*
X7484348Y-12230293D01*
X7484348Y-12230293D02*
X7503396Y-12220769D01*
X7503396Y-12220769D02*
X7512920Y-12211246D01*
X7512920Y-12211246D02*
X7522444Y-12192198D01*
X7598634Y-12106484D02*
X7598634Y-12144579D01*
X7674825Y-12106484D02*
X7674825Y-12144579D01*
X7970063Y-12382674D02*
X7960539Y-12373150D01*
X7960539Y-12373150D02*
X7941491Y-12344579D01*
X7941491Y-12344579D02*
X7931968Y-12325531D01*
X7931968Y-12325531D02*
X7922444Y-12296960D01*
X7922444Y-12296960D02*
X7912920Y-12249341D01*
X7912920Y-12249341D02*
X7912920Y-12211246D01*
X7912920Y-12211246D02*
X7922444Y-12163627D01*
X7922444Y-12163627D02*
X7931968Y-12135055D01*
X7931968Y-12135055D02*
X7941491Y-12116008D01*
X7941491Y-12116008D02*
X7960539Y-12087436D01*
X7960539Y-12087436D02*
X7970063Y-12077912D01*
X8036729Y-12125531D02*
X8046253Y-12116008D01*
X8046253Y-12116008D02*
X8065301Y-12106484D01*
X8065301Y-12106484D02*
X8112920Y-12106484D01*
X8112920Y-12106484D02*
X8131968Y-12116008D01*
X8131968Y-12116008D02*
X8141491Y-12125531D01*
X8141491Y-12125531D02*
X8151015Y-12144579D01*
X8151015Y-12144579D02*
X8151015Y-12163627D01*
X8151015Y-12163627D02*
X8141491Y-12192198D01*
X8141491Y-12192198D02*
X8027206Y-12306484D01*
X8027206Y-12306484D02*
X8151015Y-12306484D01*
X8389111Y-12306484D02*
X8389111Y-12106484D01*
X8474825Y-12306484D02*
X8474825Y-12201722D01*
X8474825Y-12201722D02*
X8465301Y-12182674D01*
X8465301Y-12182674D02*
X8446253Y-12173150D01*
X8446253Y-12173150D02*
X8417682Y-12173150D01*
X8417682Y-12173150D02*
X8398634Y-12182674D01*
X8398634Y-12182674D02*
X8389111Y-12192198D01*
X8598634Y-12306484D02*
X8579587Y-12296960D01*
X8579587Y-12296960D02*
X8570063Y-12287436D01*
X8570063Y-12287436D02*
X8560539Y-12268388D01*
X8560539Y-12268388D02*
X8560539Y-12211246D01*
X8560539Y-12211246D02*
X8570063Y-12192198D01*
X8570063Y-12192198D02*
X8579587Y-12182674D01*
X8579587Y-12182674D02*
X8598634Y-12173150D01*
X8598634Y-12173150D02*
X8627206Y-12173150D01*
X8627206Y-12173150D02*
X8646253Y-12182674D01*
X8646253Y-12182674D02*
X8655777Y-12192198D01*
X8655777Y-12192198D02*
X8665301Y-12211246D01*
X8665301Y-12211246D02*
X8665301Y-12268388D01*
X8665301Y-12268388D02*
X8655777Y-12287436D01*
X8655777Y-12287436D02*
X8646253Y-12296960D01*
X8646253Y-12296960D02*
X8627206Y-12306484D01*
X8627206Y-12306484D02*
X8598634Y-12306484D01*
X8779587Y-12306484D02*
X8760539Y-12296960D01*
X8760539Y-12296960D02*
X8751015Y-12277912D01*
X8751015Y-12277912D02*
X8751015Y-12106484D01*
X8931968Y-12296960D02*
X8912920Y-12306484D01*
X8912920Y-12306484D02*
X8874825Y-12306484D01*
X8874825Y-12306484D02*
X8855777Y-12296960D01*
X8855777Y-12296960D02*
X8846253Y-12277912D01*
X8846253Y-12277912D02*
X8846253Y-12201722D01*
X8846253Y-12201722D02*
X8855777Y-12182674D01*
X8855777Y-12182674D02*
X8874825Y-12173150D01*
X8874825Y-12173150D02*
X8912920Y-12173150D01*
X8912920Y-12173150D02*
X8931968Y-12182674D01*
X8931968Y-12182674D02*
X8941492Y-12201722D01*
X8941492Y-12201722D02*
X8941492Y-12220769D01*
X8941492Y-12220769D02*
X8846253Y-12239817D01*
X9017682Y-12296960D02*
X9036730Y-12306484D01*
X9036730Y-12306484D02*
X9074825Y-12306484D01*
X9074825Y-12306484D02*
X9093873Y-12296960D01*
X9093873Y-12296960D02*
X9103396Y-12277912D01*
X9103396Y-12277912D02*
X9103396Y-12268388D01*
X9103396Y-12268388D02*
X9093873Y-12249341D01*
X9093873Y-12249341D02*
X9074825Y-12239817D01*
X9074825Y-12239817D02*
X9046253Y-12239817D01*
X9046253Y-12239817D02*
X9027206Y-12230293D01*
X9027206Y-12230293D02*
X9017682Y-12211246D01*
X9017682Y-12211246D02*
X9017682Y-12201722D01*
X9017682Y-12201722D02*
X9027206Y-12182674D01*
X9027206Y-12182674D02*
X9046253Y-12173150D01*
X9046253Y-12173150D02*
X9074825Y-12173150D01*
X9074825Y-12173150D02*
X9093873Y-12182674D01*
X9170063Y-12382674D02*
X9179587Y-12373150D01*
X9179587Y-12373150D02*
X9198634Y-12344579D01*
X9198634Y-12344579D02*
X9208158Y-12325531D01*
X9208158Y-12325531D02*
X9217682Y-12296960D01*
X9217682Y-12296960D02*
X9227206Y-12249341D01*
X9227206Y-12249341D02*
X9227206Y-12211246D01*
X9227206Y-12211246D02*
X9217682Y-12163627D01*
X9217682Y-12163627D02*
X9208158Y-12135055D01*
X9208158Y-12135055D02*
X9198634Y-12116008D01*
X9198634Y-12116008D02*
X9179587Y-12087436D01*
X9179587Y-12087436D02*
X9170063Y-12077912D01*
X9531968Y-12382674D02*
X9522444Y-12373150D01*
X9522444Y-12373150D02*
X9503396Y-12344579D01*
X9503396Y-12344579D02*
X9493873Y-12325531D01*
X9493873Y-12325531D02*
X9484349Y-12296960D01*
X9484349Y-12296960D02*
X9474825Y-12249341D01*
X9474825Y-12249341D02*
X9474825Y-12211246D01*
X9474825Y-12211246D02*
X9484349Y-12163627D01*
X9484349Y-12163627D02*
X9493873Y-12135055D01*
X9493873Y-12135055D02*
X9503396Y-12116008D01*
X9503396Y-12116008D02*
X9522444Y-12087436D01*
X9522444Y-12087436D02*
X9531968Y-12077912D01*
X9608158Y-12173150D02*
X9608158Y-12306484D01*
X9608158Y-12192198D02*
X9617682Y-12182674D01*
X9617682Y-12182674D02*
X9636730Y-12173150D01*
X9636730Y-12173150D02*
X9665301Y-12173150D01*
X9665301Y-12173150D02*
X9684349Y-12182674D01*
X9684349Y-12182674D02*
X9693873Y-12201722D01*
X9693873Y-12201722D02*
X9693873Y-12306484D01*
X9817682Y-12306484D02*
X9798634Y-12296960D01*
X9798634Y-12296960D02*
X9789111Y-12287436D01*
X9789111Y-12287436D02*
X9779587Y-12268388D01*
X9779587Y-12268388D02*
X9779587Y-12211246D01*
X9779587Y-12211246D02*
X9789111Y-12192198D01*
X9789111Y-12192198D02*
X9798634Y-12182674D01*
X9798634Y-12182674D02*
X9817682Y-12173150D01*
X9817682Y-12173150D02*
X9846254Y-12173150D01*
X9846254Y-12173150D02*
X9865301Y-12182674D01*
X9865301Y-12182674D02*
X9874825Y-12192198D01*
X9874825Y-12192198D02*
X9884349Y-12211246D01*
X9884349Y-12211246D02*
X9884349Y-12268388D01*
X9884349Y-12268388D02*
X9874825Y-12287436D01*
X9874825Y-12287436D02*
X9865301Y-12296960D01*
X9865301Y-12296960D02*
X9846254Y-12306484D01*
X9846254Y-12306484D02*
X9817682Y-12306484D01*
X9941492Y-12173150D02*
X10017682Y-12173150D01*
X9970063Y-12106484D02*
X9970063Y-12277912D01*
X9970063Y-12277912D02*
X9979587Y-12296960D01*
X9979587Y-12296960D02*
X9998634Y-12306484D01*
X9998634Y-12306484D02*
X10017682Y-12306484D01*
X10236730Y-12173150D02*
X10236730Y-12373150D01*
X10236730Y-12182674D02*
X10255777Y-12173150D01*
X10255777Y-12173150D02*
X10293873Y-12173150D01*
X10293873Y-12173150D02*
X10312920Y-12182674D01*
X10312920Y-12182674D02*
X10322444Y-12192198D01*
X10322444Y-12192198D02*
X10331968Y-12211246D01*
X10331968Y-12211246D02*
X10331968Y-12268388D01*
X10331968Y-12268388D02*
X10322444Y-12287436D01*
X10322444Y-12287436D02*
X10312920Y-12296960D01*
X10312920Y-12296960D02*
X10293873Y-12306484D01*
X10293873Y-12306484D02*
X10255777Y-12306484D01*
X10255777Y-12306484D02*
X10236730Y-12296960D01*
X10446254Y-12306484D02*
X10427206Y-12296960D01*
X10427206Y-12296960D02*
X10417682Y-12277912D01*
X10417682Y-12277912D02*
X10417682Y-12106484D01*
X10608158Y-12306484D02*
X10608158Y-12201722D01*
X10608158Y-12201722D02*
X10598635Y-12182674D01*
X10598635Y-12182674D02*
X10579587Y-12173150D01*
X10579587Y-12173150D02*
X10541492Y-12173150D01*
X10541492Y-12173150D02*
X10522444Y-12182674D01*
X10608158Y-12296960D02*
X10589111Y-12306484D01*
X10589111Y-12306484D02*
X10541492Y-12306484D01*
X10541492Y-12306484D02*
X10522444Y-12296960D01*
X10522444Y-12296960D02*
X10512920Y-12277912D01*
X10512920Y-12277912D02*
X10512920Y-12258865D01*
X10512920Y-12258865D02*
X10522444Y-12239817D01*
X10522444Y-12239817D02*
X10541492Y-12230293D01*
X10541492Y-12230293D02*
X10589111Y-12230293D01*
X10589111Y-12230293D02*
X10608158Y-12220769D01*
X10674825Y-12173150D02*
X10751015Y-12173150D01*
X10703396Y-12106484D02*
X10703396Y-12277912D01*
X10703396Y-12277912D02*
X10712920Y-12296960D01*
X10712920Y-12296960D02*
X10731968Y-12306484D01*
X10731968Y-12306484D02*
X10751015Y-12306484D01*
X10893873Y-12296960D02*
X10874825Y-12306484D01*
X10874825Y-12306484D02*
X10836730Y-12306484D01*
X10836730Y-12306484D02*
X10817682Y-12296960D01*
X10817682Y-12296960D02*
X10808158Y-12277912D01*
X10808158Y-12277912D02*
X10808158Y-12201722D01*
X10808158Y-12201722D02*
X10817682Y-12182674D01*
X10817682Y-12182674D02*
X10836730Y-12173150D01*
X10836730Y-12173150D02*
X10874825Y-12173150D01*
X10874825Y-12173150D02*
X10893873Y-12182674D01*
X10893873Y-12182674D02*
X10903396Y-12201722D01*
X10903396Y-12201722D02*
X10903396Y-12220769D01*
X10903396Y-12220769D02*
X10808158Y-12239817D01*
X11074825Y-12306484D02*
X11074825Y-12106484D01*
X11074825Y-12296960D02*
X11055777Y-12306484D01*
X11055777Y-12306484D02*
X11017682Y-12306484D01*
X11017682Y-12306484D02*
X10998635Y-12296960D01*
X10998635Y-12296960D02*
X10989111Y-12287436D01*
X10989111Y-12287436D02*
X10979587Y-12268388D01*
X10979587Y-12268388D02*
X10979587Y-12211246D01*
X10979587Y-12211246D02*
X10989111Y-12192198D01*
X10989111Y-12192198D02*
X10998635Y-12182674D01*
X10998635Y-12182674D02*
X11017682Y-12173150D01*
X11017682Y-12173150D02*
X11055777Y-12173150D01*
X11055777Y-12173150D02*
X11074825Y-12182674D01*
X11151016Y-12382674D02*
X11160539Y-12373150D01*
X11160539Y-12373150D02*
X11179587Y-12344579D01*
X11179587Y-12344579D02*
X11189111Y-12325531D01*
X11189111Y-12325531D02*
X11198634Y-12296960D01*
X11198634Y-12296960D02*
X11208158Y-12249341D01*
X11208158Y-12249341D02*
X11208158Y-12211246D01*
X11208158Y-12211246D02*
X11198634Y-12163627D01*
X11198634Y-12163627D02*
X11189111Y-12135055D01*
X11189111Y-12135055D02*
X11179587Y-12116008D01*
X11179587Y-12116008D02*
X11160539Y-12087436D01*
X11160539Y-12087436D02*
X11151016Y-12077912D01*
X4295000Y-12415000D02*
X4295000Y-12615000D01*
X4195000Y-12515000D02*
X4395000Y-12515000D01*
X4636729Y-12406484D02*
X4760539Y-12406484D01*
X4760539Y-12406484D02*
X4693872Y-12482674D01*
X4693872Y-12482674D02*
X4722444Y-12482674D01*
X4722444Y-12482674D02*
X4741491Y-12492198D01*
X4741491Y-12492198D02*
X4751015Y-12501722D01*
X4751015Y-12501722D02*
X4760539Y-12520769D01*
X4760539Y-12520769D02*
X4760539Y-12568388D01*
X4760539Y-12568388D02*
X4751015Y-12587436D01*
X4751015Y-12587436D02*
X4741491Y-12596960D01*
X4741491Y-12596960D02*
X4722444Y-12606484D01*
X4722444Y-12606484D02*
X4665301Y-12606484D01*
X4665301Y-12606484D02*
X4646253Y-12596960D01*
X4646253Y-12596960D02*
X4636729Y-12587436D01*
X4846253Y-12587436D02*
X4855777Y-12596960D01*
X4855777Y-12596960D02*
X4846253Y-12606484D01*
X4846253Y-12606484D02*
X4836729Y-12596960D01*
X4836729Y-12596960D02*
X4846253Y-12587436D01*
X4846253Y-12587436D02*
X4846253Y-12606484D01*
X4931967Y-12425531D02*
X4941491Y-12416008D01*
X4941491Y-12416008D02*
X4960539Y-12406484D01*
X4960539Y-12406484D02*
X5008158Y-12406484D01*
X5008158Y-12406484D02*
X5027205Y-12416008D01*
X5027205Y-12416008D02*
X5036729Y-12425531D01*
X5036729Y-12425531D02*
X5046253Y-12444579D01*
X5046253Y-12444579D02*
X5046253Y-12463627D01*
X5046253Y-12463627D02*
X5036729Y-12492198D01*
X5036729Y-12492198D02*
X4922444Y-12606484D01*
X4922444Y-12606484D02*
X5046253Y-12606484D01*
X5170063Y-12406484D02*
X5189110Y-12406484D01*
X5189110Y-12406484D02*
X5208158Y-12416008D01*
X5208158Y-12416008D02*
X5217682Y-12425531D01*
X5217682Y-12425531D02*
X5227205Y-12444579D01*
X5227205Y-12444579D02*
X5236729Y-12482674D01*
X5236729Y-12482674D02*
X5236729Y-12530293D01*
X5236729Y-12530293D02*
X5227205Y-12568388D01*
X5227205Y-12568388D02*
X5217682Y-12587436D01*
X5217682Y-12587436D02*
X5208158Y-12596960D01*
X5208158Y-12596960D02*
X5189110Y-12606484D01*
X5189110Y-12606484D02*
X5170063Y-12606484D01*
X5170063Y-12606484D02*
X5151015Y-12596960D01*
X5151015Y-12596960D02*
X5141491Y-12587436D01*
X5141491Y-12587436D02*
X5131967Y-12568388D01*
X5131967Y-12568388D02*
X5122444Y-12530293D01*
X5122444Y-12530293D02*
X5122444Y-12482674D01*
X5122444Y-12482674D02*
X5131967Y-12444579D01*
X5131967Y-12444579D02*
X5141491Y-12425531D01*
X5141491Y-12425531D02*
X5151015Y-12416008D01*
X5151015Y-12416008D02*
X5170063Y-12406484D01*
X5360539Y-12406484D02*
X5379586Y-12406484D01*
X5379586Y-12406484D02*
X5398634Y-12416008D01*
X5398634Y-12416008D02*
X5408158Y-12425531D01*
X5408158Y-12425531D02*
X5417682Y-12444579D01*
X5417682Y-12444579D02*
X5427205Y-12482674D01*
X5427205Y-12482674D02*
X5427205Y-12530293D01*
X5427205Y-12530293D02*
X5417682Y-12568388D01*
X5417682Y-12568388D02*
X5408158Y-12587436D01*
X5408158Y-12587436D02*
X5398634Y-12596960D01*
X5398634Y-12596960D02*
X5379586Y-12606484D01*
X5379586Y-12606484D02*
X5360539Y-12606484D01*
X5360539Y-12606484D02*
X5341491Y-12596960D01*
X5341491Y-12596960D02*
X5331967Y-12587436D01*
X5331967Y-12587436D02*
X5322444Y-12568388D01*
X5322444Y-12568388D02*
X5312920Y-12530293D01*
X5312920Y-12530293D02*
X5312920Y-12482674D01*
X5312920Y-12482674D02*
X5322444Y-12444579D01*
X5322444Y-12444579D02*
X5331967Y-12425531D01*
X5331967Y-12425531D02*
X5341491Y-12416008D01*
X5341491Y-12416008D02*
X5360539Y-12406484D01*
X5512920Y-12606484D02*
X5512920Y-12473150D01*
X5512920Y-12492198D02*
X5522444Y-12482674D01*
X5522444Y-12482674D02*
X5541491Y-12473150D01*
X5541491Y-12473150D02*
X5570063Y-12473150D01*
X5570063Y-12473150D02*
X5589110Y-12482674D01*
X5589110Y-12482674D02*
X5598634Y-12501722D01*
X5598634Y-12501722D02*
X5598634Y-12606484D01*
X5598634Y-12501722D02*
X5608158Y-12482674D01*
X5608158Y-12482674D02*
X5627205Y-12473150D01*
X5627205Y-12473150D02*
X5655777Y-12473150D01*
X5655777Y-12473150D02*
X5674824Y-12482674D01*
X5674824Y-12482674D02*
X5684348Y-12501722D01*
X5684348Y-12501722D02*
X5684348Y-12606484D01*
X5779586Y-12606484D02*
X5779586Y-12473150D01*
X5779586Y-12492198D02*
X5789110Y-12482674D01*
X5789110Y-12482674D02*
X5808158Y-12473150D01*
X5808158Y-12473150D02*
X5836729Y-12473150D01*
X5836729Y-12473150D02*
X5855777Y-12482674D01*
X5855777Y-12482674D02*
X5865301Y-12501722D01*
X5865301Y-12501722D02*
X5865301Y-12606484D01*
X5865301Y-12501722D02*
X5874824Y-12482674D01*
X5874824Y-12482674D02*
X5893872Y-12473150D01*
X5893872Y-12473150D02*
X5922443Y-12473150D01*
X5922443Y-12473150D02*
X5941491Y-12482674D01*
X5941491Y-12482674D02*
X5951015Y-12501722D01*
X5951015Y-12501722D02*
X5951015Y-12606484D01*
X6341491Y-12396960D02*
X6170063Y-12654103D01*
X6598634Y-12406484D02*
X6617682Y-12406484D01*
X6617682Y-12406484D02*
X6636729Y-12416008D01*
X6636729Y-12416008D02*
X6646253Y-12425531D01*
X6646253Y-12425531D02*
X6655777Y-12444579D01*
X6655777Y-12444579D02*
X6665301Y-12482674D01*
X6665301Y-12482674D02*
X6665301Y-12530293D01*
X6665301Y-12530293D02*
X6655777Y-12568388D01*
X6655777Y-12568388D02*
X6646253Y-12587436D01*
X6646253Y-12587436D02*
X6636729Y-12596960D01*
X6636729Y-12596960D02*
X6617682Y-12606484D01*
X6617682Y-12606484D02*
X6598634Y-12606484D01*
X6598634Y-12606484D02*
X6579586Y-12596960D01*
X6579586Y-12596960D02*
X6570063Y-12587436D01*
X6570063Y-12587436D02*
X6560539Y-12568388D01*
X6560539Y-12568388D02*
X6551015Y-12530293D01*
X6551015Y-12530293D02*
X6551015Y-12482674D01*
X6551015Y-12482674D02*
X6560539Y-12444579D01*
X6560539Y-12444579D02*
X6570063Y-12425531D01*
X6570063Y-12425531D02*
X6579586Y-12416008D01*
X6579586Y-12416008D02*
X6598634Y-12406484D01*
X6751015Y-12587436D02*
X6760539Y-12596960D01*
X6760539Y-12596960D02*
X6751015Y-12606484D01*
X6751015Y-12606484D02*
X6741491Y-12596960D01*
X6741491Y-12596960D02*
X6751015Y-12587436D01*
X6751015Y-12587436D02*
X6751015Y-12606484D01*
X6951015Y-12606484D02*
X6836729Y-12606484D01*
X6893872Y-12606484D02*
X6893872Y-12406484D01*
X6893872Y-12406484D02*
X6874825Y-12435055D01*
X6874825Y-12435055D02*
X6855777Y-12454103D01*
X6855777Y-12454103D02*
X6836729Y-12463627D01*
X7027206Y-12425531D02*
X7036729Y-12416008D01*
X7036729Y-12416008D02*
X7055777Y-12406484D01*
X7055777Y-12406484D02*
X7103396Y-12406484D01*
X7103396Y-12406484D02*
X7122444Y-12416008D01*
X7122444Y-12416008D02*
X7131967Y-12425531D01*
X7131967Y-12425531D02*
X7141491Y-12444579D01*
X7141491Y-12444579D02*
X7141491Y-12463627D01*
X7141491Y-12463627D02*
X7131967Y-12492198D01*
X7131967Y-12492198D02*
X7017682Y-12606484D01*
X7017682Y-12606484D02*
X7141491Y-12606484D01*
X7312920Y-12406484D02*
X7274825Y-12406484D01*
X7274825Y-12406484D02*
X7255777Y-12416008D01*
X7255777Y-12416008D02*
X7246253Y-12425531D01*
X7246253Y-12425531D02*
X7227206Y-12454103D01*
X7227206Y-12454103D02*
X7217682Y-12492198D01*
X7217682Y-12492198D02*
X7217682Y-12568388D01*
X7217682Y-12568388D02*
X7227206Y-12587436D01*
X7227206Y-12587436D02*
X7236729Y-12596960D01*
X7236729Y-12596960D02*
X7255777Y-12606484D01*
X7255777Y-12606484D02*
X7293872Y-12606484D01*
X7293872Y-12606484D02*
X7312920Y-12596960D01*
X7312920Y-12596960D02*
X7322444Y-12587436D01*
X7322444Y-12587436D02*
X7331967Y-12568388D01*
X7331967Y-12568388D02*
X7331967Y-12520769D01*
X7331967Y-12520769D02*
X7322444Y-12501722D01*
X7322444Y-12501722D02*
X7312920Y-12492198D01*
X7312920Y-12492198D02*
X7293872Y-12482674D01*
X7293872Y-12482674D02*
X7255777Y-12482674D01*
X7255777Y-12482674D02*
X7236729Y-12492198D01*
X7236729Y-12492198D02*
X7227206Y-12501722D01*
X7227206Y-12501722D02*
X7217682Y-12520769D01*
X7455777Y-12406484D02*
X7474825Y-12406484D01*
X7474825Y-12406484D02*
X7493872Y-12416008D01*
X7493872Y-12416008D02*
X7503396Y-12425531D01*
X7503396Y-12425531D02*
X7512920Y-12444579D01*
X7512920Y-12444579D02*
X7522444Y-12482674D01*
X7522444Y-12482674D02*
X7522444Y-12530293D01*
X7522444Y-12530293D02*
X7512920Y-12568388D01*
X7512920Y-12568388D02*
X7503396Y-12587436D01*
X7503396Y-12587436D02*
X7493872Y-12596960D01*
X7493872Y-12596960D02*
X7474825Y-12606484D01*
X7474825Y-12606484D02*
X7455777Y-12606484D01*
X7455777Y-12606484D02*
X7436729Y-12596960D01*
X7436729Y-12596960D02*
X7427206Y-12587436D01*
X7427206Y-12587436D02*
X7417682Y-12568388D01*
X7417682Y-12568388D02*
X7408158Y-12530293D01*
X7408158Y-12530293D02*
X7408158Y-12482674D01*
X7408158Y-12482674D02*
X7417682Y-12444579D01*
X7417682Y-12444579D02*
X7427206Y-12425531D01*
X7427206Y-12425531D02*
X7436729Y-12416008D01*
X7436729Y-12416008D02*
X7455777Y-12406484D01*
X7598634Y-12406484D02*
X7598634Y-12444579D01*
X7674825Y-12406484D02*
X7674825Y-12444579D01*
X7970063Y-12682674D02*
X7960539Y-12673150D01*
X7960539Y-12673150D02*
X7941491Y-12644579D01*
X7941491Y-12644579D02*
X7931968Y-12625531D01*
X7931968Y-12625531D02*
X7922444Y-12596960D01*
X7922444Y-12596960D02*
X7912920Y-12549341D01*
X7912920Y-12549341D02*
X7912920Y-12511246D01*
X7912920Y-12511246D02*
X7922444Y-12463627D01*
X7922444Y-12463627D02*
X7931968Y-12435055D01*
X7931968Y-12435055D02*
X7941491Y-12416008D01*
X7941491Y-12416008D02*
X7960539Y-12387436D01*
X7960539Y-12387436D02*
X7970063Y-12377912D01*
X8131968Y-12473150D02*
X8131968Y-12606484D01*
X8084348Y-12396960D02*
X8036729Y-12539817D01*
X8036729Y-12539817D02*
X8160539Y-12539817D01*
X8389111Y-12606484D02*
X8389111Y-12406484D01*
X8474825Y-12606484D02*
X8474825Y-12501722D01*
X8474825Y-12501722D02*
X8465301Y-12482674D01*
X8465301Y-12482674D02*
X8446253Y-12473150D01*
X8446253Y-12473150D02*
X8417682Y-12473150D01*
X8417682Y-12473150D02*
X8398634Y-12482674D01*
X8398634Y-12482674D02*
X8389111Y-12492198D01*
X8598634Y-12606484D02*
X8579587Y-12596960D01*
X8579587Y-12596960D02*
X8570063Y-12587436D01*
X8570063Y-12587436D02*
X8560539Y-12568388D01*
X8560539Y-12568388D02*
X8560539Y-12511246D01*
X8560539Y-12511246D02*
X8570063Y-12492198D01*
X8570063Y-12492198D02*
X8579587Y-12482674D01*
X8579587Y-12482674D02*
X8598634Y-12473150D01*
X8598634Y-12473150D02*
X8627206Y-12473150D01*
X8627206Y-12473150D02*
X8646253Y-12482674D01*
X8646253Y-12482674D02*
X8655777Y-12492198D01*
X8655777Y-12492198D02*
X8665301Y-12511246D01*
X8665301Y-12511246D02*
X8665301Y-12568388D01*
X8665301Y-12568388D02*
X8655777Y-12587436D01*
X8655777Y-12587436D02*
X8646253Y-12596960D01*
X8646253Y-12596960D02*
X8627206Y-12606484D01*
X8627206Y-12606484D02*
X8598634Y-12606484D01*
X8779587Y-12606484D02*
X8760539Y-12596960D01*
X8760539Y-12596960D02*
X8751015Y-12577912D01*
X8751015Y-12577912D02*
X8751015Y-12406484D01*
X8931968Y-12596960D02*
X8912920Y-12606484D01*
X8912920Y-12606484D02*
X8874825Y-12606484D01*
X8874825Y-12606484D02*
X8855777Y-12596960D01*
X8855777Y-12596960D02*
X8846253Y-12577912D01*
X8846253Y-12577912D02*
X8846253Y-12501722D01*
X8846253Y-12501722D02*
X8855777Y-12482674D01*
X8855777Y-12482674D02*
X8874825Y-12473150D01*
X8874825Y-12473150D02*
X8912920Y-12473150D01*
X8912920Y-12473150D02*
X8931968Y-12482674D01*
X8931968Y-12482674D02*
X8941492Y-12501722D01*
X8941492Y-12501722D02*
X8941492Y-12520769D01*
X8941492Y-12520769D02*
X8846253Y-12539817D01*
X9017682Y-12596960D02*
X9036730Y-12606484D01*
X9036730Y-12606484D02*
X9074825Y-12606484D01*
X9074825Y-12606484D02*
X9093873Y-12596960D01*
X9093873Y-12596960D02*
X9103396Y-12577912D01*
X9103396Y-12577912D02*
X9103396Y-12568388D01*
X9103396Y-12568388D02*
X9093873Y-12549341D01*
X9093873Y-12549341D02*
X9074825Y-12539817D01*
X9074825Y-12539817D02*
X9046253Y-12539817D01*
X9046253Y-12539817D02*
X9027206Y-12530293D01*
X9027206Y-12530293D02*
X9017682Y-12511246D01*
X9017682Y-12511246D02*
X9017682Y-12501722D01*
X9017682Y-12501722D02*
X9027206Y-12482674D01*
X9027206Y-12482674D02*
X9046253Y-12473150D01*
X9046253Y-12473150D02*
X9074825Y-12473150D01*
X9074825Y-12473150D02*
X9093873Y-12482674D01*
X9170063Y-12682674D02*
X9179587Y-12673150D01*
X9179587Y-12673150D02*
X9198634Y-12644579D01*
X9198634Y-12644579D02*
X9208158Y-12625531D01*
X9208158Y-12625531D02*
X9217682Y-12596960D01*
X9217682Y-12596960D02*
X9227206Y-12549341D01*
X9227206Y-12549341D02*
X9227206Y-12511246D01*
X9227206Y-12511246D02*
X9217682Y-12463627D01*
X9217682Y-12463627D02*
X9208158Y-12435055D01*
X9208158Y-12435055D02*
X9198634Y-12416008D01*
X9198634Y-12416008D02*
X9179587Y-12387436D01*
X9179587Y-12387436D02*
X9170063Y-12377912D01*
X9531968Y-12682674D02*
X9522444Y-12673150D01*
X9522444Y-12673150D02*
X9503396Y-12644579D01*
X9503396Y-12644579D02*
X9493873Y-12625531D01*
X9493873Y-12625531D02*
X9484349Y-12596960D01*
X9484349Y-12596960D02*
X9474825Y-12549341D01*
X9474825Y-12549341D02*
X9474825Y-12511246D01*
X9474825Y-12511246D02*
X9484349Y-12463627D01*
X9484349Y-12463627D02*
X9493873Y-12435055D01*
X9493873Y-12435055D02*
X9503396Y-12416008D01*
X9503396Y-12416008D02*
X9522444Y-12387436D01*
X9522444Y-12387436D02*
X9531968Y-12377912D01*
X9608158Y-12473150D02*
X9608158Y-12606484D01*
X9608158Y-12492198D02*
X9617682Y-12482674D01*
X9617682Y-12482674D02*
X9636730Y-12473150D01*
X9636730Y-12473150D02*
X9665301Y-12473150D01*
X9665301Y-12473150D02*
X9684349Y-12482674D01*
X9684349Y-12482674D02*
X9693873Y-12501722D01*
X9693873Y-12501722D02*
X9693873Y-12606484D01*
X9817682Y-12606484D02*
X9798634Y-12596960D01*
X9798634Y-12596960D02*
X9789111Y-12587436D01*
X9789111Y-12587436D02*
X9779587Y-12568388D01*
X9779587Y-12568388D02*
X9779587Y-12511246D01*
X9779587Y-12511246D02*
X9789111Y-12492198D01*
X9789111Y-12492198D02*
X9798634Y-12482674D01*
X9798634Y-12482674D02*
X9817682Y-12473150D01*
X9817682Y-12473150D02*
X9846254Y-12473150D01*
X9846254Y-12473150D02*
X9865301Y-12482674D01*
X9865301Y-12482674D02*
X9874825Y-12492198D01*
X9874825Y-12492198D02*
X9884349Y-12511246D01*
X9884349Y-12511246D02*
X9884349Y-12568388D01*
X9884349Y-12568388D02*
X9874825Y-12587436D01*
X9874825Y-12587436D02*
X9865301Y-12596960D01*
X9865301Y-12596960D02*
X9846254Y-12606484D01*
X9846254Y-12606484D02*
X9817682Y-12606484D01*
X9941492Y-12473150D02*
X10017682Y-12473150D01*
X9970063Y-12406484D02*
X9970063Y-12577912D01*
X9970063Y-12577912D02*
X9979587Y-12596960D01*
X9979587Y-12596960D02*
X9998634Y-12606484D01*
X9998634Y-12606484D02*
X10017682Y-12606484D01*
X10236730Y-12473150D02*
X10236730Y-12673150D01*
X10236730Y-12482674D02*
X10255777Y-12473150D01*
X10255777Y-12473150D02*
X10293873Y-12473150D01*
X10293873Y-12473150D02*
X10312920Y-12482674D01*
X10312920Y-12482674D02*
X10322444Y-12492198D01*
X10322444Y-12492198D02*
X10331968Y-12511246D01*
X10331968Y-12511246D02*
X10331968Y-12568388D01*
X10331968Y-12568388D02*
X10322444Y-12587436D01*
X10322444Y-12587436D02*
X10312920Y-12596960D01*
X10312920Y-12596960D02*
X10293873Y-12606484D01*
X10293873Y-12606484D02*
X10255777Y-12606484D01*
X10255777Y-12606484D02*
X10236730Y-12596960D01*
X10446254Y-12606484D02*
X10427206Y-12596960D01*
X10427206Y-12596960D02*
X10417682Y-12577912D01*
X10417682Y-12577912D02*
X10417682Y-12406484D01*
X10608158Y-12606484D02*
X10608158Y-12501722D01*
X10608158Y-12501722D02*
X10598635Y-12482674D01*
X10598635Y-12482674D02*
X10579587Y-12473150D01*
X10579587Y-12473150D02*
X10541492Y-12473150D01*
X10541492Y-12473150D02*
X10522444Y-12482674D01*
X10608158Y-12596960D02*
X10589111Y-12606484D01*
X10589111Y-12606484D02*
X10541492Y-12606484D01*
X10541492Y-12606484D02*
X10522444Y-12596960D01*
X10522444Y-12596960D02*
X10512920Y-12577912D01*
X10512920Y-12577912D02*
X10512920Y-12558865D01*
X10512920Y-12558865D02*
X10522444Y-12539817D01*
X10522444Y-12539817D02*
X10541492Y-12530293D01*
X10541492Y-12530293D02*
X10589111Y-12530293D01*
X10589111Y-12530293D02*
X10608158Y-12520769D01*
X10674825Y-12473150D02*
X10751015Y-12473150D01*
X10703396Y-12406484D02*
X10703396Y-12577912D01*
X10703396Y-12577912D02*
X10712920Y-12596960D01*
X10712920Y-12596960D02*
X10731968Y-12606484D01*
X10731968Y-12606484D02*
X10751015Y-12606484D01*
X10893873Y-12596960D02*
X10874825Y-12606484D01*
X10874825Y-12606484D02*
X10836730Y-12606484D01*
X10836730Y-12606484D02*
X10817682Y-12596960D01*
X10817682Y-12596960D02*
X10808158Y-12577912D01*
X10808158Y-12577912D02*
X10808158Y-12501722D01*
X10808158Y-12501722D02*
X10817682Y-12482674D01*
X10817682Y-12482674D02*
X10836730Y-12473150D01*
X10836730Y-12473150D02*
X10874825Y-12473150D01*
X10874825Y-12473150D02*
X10893873Y-12482674D01*
X10893873Y-12482674D02*
X10903396Y-12501722D01*
X10903396Y-12501722D02*
X10903396Y-12520769D01*
X10903396Y-12520769D02*
X10808158Y-12539817D01*
X11074825Y-12606484D02*
X11074825Y-12406484D01*
X11074825Y-12596960D02*
X11055777Y-12606484D01*
X11055777Y-12606484D02*
X11017682Y-12606484D01*
X11017682Y-12606484D02*
X10998635Y-12596960D01*
X10998635Y-12596960D02*
X10989111Y-12587436D01*
X10989111Y-12587436D02*
X10979587Y-12568388D01*
X10979587Y-12568388D02*
X10979587Y-12511246D01*
X10979587Y-12511246D02*
X10989111Y-12492198D01*
X10989111Y-12492198D02*
X10998635Y-12482674D01*
X10998635Y-12482674D02*
X11017682Y-12473150D01*
X11017682Y-12473150D02*
X11055777Y-12473150D01*
X11055777Y-12473150D02*
X11074825Y-12482674D01*
X11151016Y-12682674D02*
X11160539Y-12673150D01*
X11160539Y-12673150D02*
X11179587Y-12644579D01*
X11179587Y-12644579D02*
X11189111Y-12625531D01*
X11189111Y-12625531D02*
X11198634Y-12596960D01*
X11198634Y-12596960D02*
X11208158Y-12549341D01*
X11208158Y-12549341D02*
X11208158Y-12511246D01*
X11208158Y-12511246D02*
X11198634Y-12463627D01*
X11198634Y-12463627D02*
X11189111Y-12435055D01*
X11189111Y-12435055D02*
X11179587Y-12416008D01*
X11179587Y-12416008D02*
X11160539Y-12387436D01*
X11160539Y-12387436D02*
X11151016Y-12377912D01*
M02*
